<?xml version="1.0" encoding="utf-8"?>
<!-- Generator: Adobe Illustrator 15.0.0, SVG Export Plug-In . SVG Version: 6.00 Build 0)  -->
<!DOCTYPE svg PUBLIC "-//W3C//DTD SVG 1.0//EN" "http://www.w3.org/TR/2001/REC-SVG-20010904/DTD/svg10.dtd">
<svg version="1.0" id="Layer_1" xmlns="http://www.w3.org/2000/svg" xmlns:xlink="http://www.w3.org/1999/xlink" x="0px" y="0px"
	 width="432px" height="432px" viewBox="0 0 432 432" enable-background="new 0 0 432 432" xml:space="preserve">
<g>
	<path d="M193.487,197.622c-0.797-0.88-4.576-4.825-8.475-4.872c-8.409,0.35-14.189,10.736-17.196,17.331
		c-5.816,12.747-8.156,28.543-3.622,42.026c4.714,14.018,19.787,24.312,34.631,23.972c8.977-0.205,12.322-11.868,14.295-18.755
		c2.765-9.635,0.797-20.229-2.282-29.532C206.356,214.257,203.007,208.105,193.487,197.622z M210.055,254.479
		c-0.742,4.44-2.486,8.979-4.665,12.902c-3.078,5.535-7.797,5.564-13.249,4.262c-8.239-1.959-15.989-6.189-20.928-13.178
		c-8.327-11.764-8.432-26.412-4.269-39.439c1.852-5.793,5.22-14.44,9.601-18.683c7.127-6.897,9.182-4.754,10.883-4.082
		C201.773,201.949,213.697,232.646,210.055,254.479z"/>
	<path d="M269.143,223.275c-0.305,0.137-24.506,12.811-35.869,20.427c-9.895,6.637-19.884,16.69-16.164,29.616
		c3.322,11.556,15.082,21.892,27.482,20.381c11.805-1.438,21.379-11.613,28.033-20.653c6.102-8.286,11.396-18.045,13.471-28.205
		C288.18,234.574,282.348,217.413,269.143,223.275z M283.914,241.949c-0.443,5.143-2.35,10.3-4.492,14.935
		c-5.33,11.539-14.718,22.619-25.594,29.489c-4.762,3.009-10.385,4.634-15.971,3.455c-6.826-1.444-12.166-7.45-15.56-13.178
		c-8.325-14.07,4.729-26.301,15.622-33.244c10.102-6.438,21.189-11.967,32.451-17.686
		C279.506,221.083,284.566,234.404,283.914,241.949z"/>
	<path d="M215.225,206.299c2.509,9.602,11.283,17.88,21.651,16.229c27.123-4.321,17.263-54.068-9.205-42.852
		c-0.022,0.008-0.04,0.02-0.056,0.031C216.568,183.969,212.215,194.802,215.225,206.299z M230.104,181.737
		c21.42-9.039,30.533,34.962,4.821,37.718c-9.005,0.964-15.144-8.297-17.11-15.979C213.147,185.279,229.957,181.8,230.104,181.737z"
		/>
	<path d="M409.608,233.367c-2.987-4.711-20.53-30.485-28.23-35.365c-0.034-0.02-0.057-0.029-0.089-0.045
		c-4.285-3.813-23.698-9.858-44.811-3.833c-18.078,3.211-36.099,10.664-51.328,20.963c-1.788-3.019-3.889-5.853-6.323-8.423
		c10.296,0.29,21.048-5.229,29.212-10.51c9.82-6.357,20.912-15.7,24.248-27.421c0.152-0.548,0.658-1.243,0.492-2.151
		c-5.688-16.819-16.059-29.82-28.651-39.892c-12.329-9.865-28.853-18.799-45.164-17.333c-1.394,0.125-2.573,1.601-1.702,2.963
		c7.133,11.207,27.536,30.271,26.113,30.381c-6.9-1.045-12.82-5.625-17.697-10.576c-3.47-3.714-3.826-0.115-3.174,1.927
		c2.709,8.405,8.67,15.01,15.335,20.576c5.666,4.733,12.097,9.481,19.185,11.993c-5.479,1.369-10.842,3.204-16.053,5.366
		c-7.459,3.095-12.349,7.305-19.261,10.959c-1.901-2.176-3.767-4.353-5.421-6.608c-5.491-7.491-9.426-16.058-24.104-10.07
		c-5.392,2.535-12.08,4.193-18.312,5.899c-5.929-13.497-13.481-26.56-22.327-38.582c23.278,1.363,47.707,1.891,62.52-19.334
		c0.889-1.274,0.17-3.085-1.325-2.314c-5.085,2.63-13.175,9.682-19.024,6.732c7.898-4.247,15.121-10.014,19.348-17.59
		c0.586-1.046,0.103-2.615-1.172-2.877c-15.016-3.101-30.926-3.912-46.196-2.997c-11.745,0.702-32.327,3.454-35.352,17.447
		c-12.278,23.874,3.589,53.29,23.882,67.78c-4.528,1.486-8.921,3.611-13.088,6.234c-17.185-17.295-24.08-41.762-30.055-64.741
		c-2.598-9.995-5.3-20.007-8.988-29.661c-1.832-4.801-4.75-16.701-12.17-16.577c-16.332,1.646-35.322,18.508-49.379,30.715
		c-13.053,11.337-28.88,26.787-32.126,44.607c-0.486,2.958,5.384,8.603,9.226,10.04c0.999,0.374,1.862,0.038,2.411-0.862
		c3.059-4.997,2.339-12.535,3.174-18.188c3.375-3.496,14.262-6.633,20.146-9.596c13.755-6.929,25.026-15.624,36.44-25.863
		c-0.546,12.745,5.298,26.648,8.266,38.177c6.789,22.978,27.44,47.588,26.495,48.107c-0.908,0.841-17.125-16.401-25.59-24.513
		c-9.907-9.496-20.541-22.229-35.42-22.641c-0.825-0.022-1.363,0.239-1.648,0.587c-13.656,7.763-26.525,16.585-40.27,24.207
		c-14,7.769-28.939,14.977-44.974,17.107c-1.214,0.163-2.434,1.124-2.23,2.049c-1.233,8.681,37.153,5.657,41.403,5.247
		c20.273-1.947,35.619-15.996,54.756-21.628c9.454,20.997,25.76,37.76,46.791,47.316c-16.381,0.917-33.01-0.79-49.198-2.93
		c-18.173-2.4-36.201-5.908-54.149-9.596c-1.099-0.229-3.311,0.533-2.792,2.453c-0.904,10.75,7.386,23.225,12.585,32.041
		c6.149,10.431,13.249,20.34,20.826,29.772c9.143,11.378,21.692,20.211,35.901,23.978c4.83,1.277,10.381,1.877,14.867-0.729
		c4.997-2.896,9.298-8.445,9.935-14.244c0.125-1.145,0.614-3.297-2.31-1.994c-7.373,2.434-14.139-6.686-21.707-6.512
		c-2.799,0.063-9.391,3.752-9.924,4.216c0.213-8.231-5.447-25.534-13.007-34.683c3.105,0.822,22.49,5.343,29.147,6.455
		c10.633,1.779,23.166,2.949,33.077-2.236c0.435,2.564,1.072,5.117,1.979,7.632c3.396,9.398,9.789,16.978,18.637,21.587
		c9.795,5.102,22.195,3.737,31.989,8.809c5.881,3.048,12.325,11.106,25.1,16.529c6.321,2.683,13.18,2.852,19.723,1.313
		c5.229,6.31,10.1,12.885,15.943,18.667c5.07,5.027,23.313,17.845,26.756,19.697c-14.875,11.947-27.901,26.799-38.102,42.748
		c-1.501-1.396-3.174-6.319-4.297-7.668c-1.693-2.032-4.223-2.76-6.727-3.057c-0.866-0.111-3.146-0.32-1.987,2.256
		c3.144,6.356-1.674,14.17,1.896,20.555c0.313,0.563,0.947,1.05,1.625,1.031c6.209-0.17,12.017-3.185,17.348-6.123
		c6.91-3.795,12.469-9.203,19.203-13.291c15.095-9.17,33.921-15.564,41.354-32.729c0.684-0.649,0.836-1.864-0.172-2.654
		c-9.907-7.784-18.098-16.334-25.682-26.428c-7.092-9.438-15.385-18.562-20.899-29.053c1.34-1.334,3.533-4.282,4.394-3.847
		c14.576,4.164,29.994,7.909,45.209,5.532c1.885-0.297,3.725-0.698,5.519-1.178c2.084,4.346,1.993,9.851,2.114,14.522
		c0.137,5.182-0.026,10.36,0.207,15.541c0.246,5.519,1.856,10.812,3.758,15.959c2.421,6.531,5.124,13.258,8.096,19.556
		c0.688,2.103,1.178,2.692,2.587,1.854c4.149-2.469,4.408-10.707,5.066-14.891c0.452-2.895,0.817-5.803,1.309-8.689
		c0.847-5.008,1.771-10.035,3.39-14.861c3.031-9.045,8.246-17.928,12.062-26.67c3.302-7.559,10.048-24.771,7.238-26.281
		c-5.124-2.754-12.702-3.196-18.369-4.414c-7.899-1.688-50.756-9.928-63.931-14.01c-0.494,0.246-0.494-1.363-0.077-1.533
		c6.642,1.264,36.095-5.497,43.798-8.15c7.389-2.541,14.607-5.699,21.63-9.128c3.347-1.638,6.746-3.545,9.653-5.935
		c4.263,5.275,7.693,11.104,11.428,16.755c3.16,4.786,7.045,9.04,10.92,13.253c3.191,3.473,7.695,7.404,12.684,9.469
		c-0.002,0.014-0.011,0.024-0.011,0.036c-1.778,9.569-7.815,19.085-14.892,25.724c-1.2,1.127-0.518,3.232,1.165,3.336
		c13.379,0.828,32.78-11.186,33.475-25.765C424.612,256.328,411.247,235.953,409.608,233.367z M259.903,111.284
		c14.575,0.087,31.933,8.897,42.978,17.669c10.977,8.715,23.389,22.438,27.344,36.639c-3.545-1.363-7.767-1.759-11.586-1.903
		c-3.338-0.9-20.998-15.434-31.263-22.858C277.05,133.365,264.348,122.385,259.903,111.284z M281.486,154.556
		c-5.023-3.74-16.203-14.349-17.301-21.118c2.306,4.288,14.039,10.492,16.981,11.541c0.961,0.341,8.701,3.235,10.558,3.876
		c3.541,0.74,15.346,12.106,19.721,15.083c-2.702,0.265-5.387,0.693-8.014,1.221C296.049,161.148,288.673,159.908,281.486,154.556z
		 M279.232,175.602c5.053-2.462,10.736-4.016,16.14-5.518c9.868-2.735,24.916-5.975,34.929-2.184
		c-3.549,9.892-15.66,19.213-24.002,24.824c-8.767,5.896-20.584,12.025-31.517,9.935c-2.081-6.924-6.757-12.488-11.496-17.898
		C268.753,179.786,273.002,178.636,279.232,175.602z M248.26,170.053c2.573,3.368,4.975,7.913,7.68,11.17
		c6.313,7.627,16.123,15.783,16.301,26.792c-0.885,8.362-30.99,17.706-35.633,19.294c-5.277,1.814-9.332,2.514-13.854-1.447
		c-5.032-4.41-8.945-11.027-12.393-16.744c-3.824-6.344-7.468-13.188-9.234-20.428c-0.599-2.449-1.13-5.619,0.452-7.809
		c1.94-2.692,6.68-3.804,9.643-4.74C214.017,175.238,241.6,161.346,248.26,170.053z M250.846,115.619
		c-11.8,16.97-40.625,15.535-61.144,15.515c-1.241-1.635-2.501-3.255-3.792-4.846c11.351,3.817,23.489,1.757,34.668-1.985
		c3.009-1.007,6.097-2.213,9.146-3.628C235.212,124.064,245.117,118.395,250.846,115.619z M209.317,97.411
		c12.873-0.514,28.736,0.122,41.477,2.543c-6.241,9.087-19.539,17.885-29.539,21.743c-11.471,4.418-26.523,5.936-38.239,0.77
		c-0.146-0.066-0.281-0.115-0.417-0.167c-2.812-3.291-5.728-6.468-8.728-9.531C175.818,99.427,199.087,97.817,209.317,97.411z
		 M172.518,116.527c15.759,16.269,29.91,34.878,38.077,55.576c-0.082,0.825-10.882,7.668-11.76,7.052
		C179.53,166.634,162.809,139.432,172.518,116.527z M58.565,159.318c-1.969-1.176-5.058-4.957-6.459-6.801
		c1.221-2.66,6.342-7.438,9.153-9.314C60.589,147.051,60.035,155.689,58.565,159.318z M131.914,145.065
		c-2.261-7.871-5.675-15.806-7.479-23.789c-1.726-7.627-4.039-17.127-1.083-24.62c0.86-2.179-0.398-2.812-1.312-0.631
		c-1.027,2.452-1.657,5-1.985,7.61c-6.058,5.25-12.782,8.671-19.441,13.107c-6.737,4.492-13.356,13.108-20.459,14.563
		c-18.001,5.099-26.625,16.329-29.45,18.701c3.088-14.728,20.715-32.989,31.691-42.697c13.315-11.775,28.315-24.137,46.539-27.172
		c6.308,0.247,11.49,15.222,12.985,19.539c3.346,9.667,5.474,18.672,8.035,28.572c2.417,9.325,5.191,17.806,8.834,26.749
		c4.813,11.804,10.957,24.182,20.696,32.743c-4.574,3.079-8.821,6.773-12.596,10.918
		C150.275,183.919,138.105,166.647,131.914,145.065z M99.531,279.175c-0.722,1.03-1.359,2.169-1.999,3.354
		c-1.214,2.248,0.79,3.502,1.999,1.24c1.316-2.463,4.426-5.313,6.801-6.462c3.114-1.506,5.88-2.226,9.279-0.995
		c5.004,1.813,12.215,5.192,17.685,5.068c-0.103,5.18-7.913,12.324-12.25,13.282c-5.092,1.123-11.515-1.261-16.174-3.081
		c-11.531-4.51-21.318-13.055-28.95-22.635c-6.32-7.938-12.798-16.088-18.167-24.69c-5.007-8.038-10.926-18.917-12.703-28.987
		c0.476,0.492,0.962,0.967,1.428,1.426c3.491,3.438,7.514,6.365,11.501,9.197c7.237,5.135,15.017,10.245,23.225,13.853
		c0.022,0.034,0.036,0.061,0.06,0.096C89.502,250.941,101.923,264.811,99.531,279.175z M150.078,241.882
		c-9.711,5.752-22.563,4.901-33.118,3.097c-10.21-1.738-21.169-3.875-30.975-7.25c-8.291-2.853-22.319-9.729-35.447-20.52
		c-1.128-0.928-4.547-5.075-6.043-6.814c-0.008-0.062-0.018-0.119-0.032-0.174c34.366,7.033,72.896,16.184,108.075,12.867
		C150.587,229.21,149.674,235.561,150.078,241.882z M120.398,197.106c-9.104-9.972-16.572-21.267-21.682-33.608
		c-0.914-2.216-2.41-1.393-1.646,0.847c0.721,2.118,1.529,4.185,2.38,6.229c-9.824,2.375-17.608,6.693-26.692,11.247
		c-23.739,11.895-38.604,11.377-46.214,11.325c-1.175-0.005-17.375,1.208-19.163-2.845c13.644-4.369,31.877-9.574,44.604-16.581
		c14.029-7.726,27.566-17.291,41.208-25.708c0.087,0.012,0.154,0.041,0.251,0.045c15.256,0.906,26.474,16.193,36.885,25.764
		c11.158,10.259,20.08,20.979,32.682,29.48c-3.687,4.813-6.744,10.075-8.968,15.596
		C141.572,213.627,129.551,207.132,120.398,197.106z M291.73,314.96c7.58,10.295,16.451,21.317,27.606,28.104
		c-8.5,17.786-25.929,23.469-40.092,31.618c-5.867,3.382-11.454,7.234-17.291,10.679c-5.19,3.057-12.669,8.25-18.864,8.785
		c-1.857-4.619-0.455-14.056-0.794-19.06c5.981,0.396,5.75,10.288,9.933,11.616c0.891,0.287,2.508-1.483,2.97-2.227
		c4.329-9.397,10.463-15.588,17.257-22.762c6.577-6.954,14.241-14.4,21.447-19.398c5.283,2.332,10.916,3.389,16.688,1.491
		c2.282-0.75,1.697-2.358-0.562-1.612c-10.888,3.599-23.132-6.758-31.21-12.82c-5.209-3.915-10.176-8.609-14.746-13.283
		c-5.069-5.188-11.098-14.801-10.178-15.512c6.391-2.555,12.115-6.545,17.246-11.174C274.982,296.527,283.4,303.645,291.73,314.96z
		 M257.229,296.152c-8.819,4.793-19.481,4.756-28.779,0.826c-9.461-4-17.499-10.902-26.718-15.429
		c-9.902-4.868-21.313-4.828-31.086-10.258c-9.248-5.131-14.082-15.638-15.91-25.786c-4.855-26.952,16.138-55.522,41.471-62.851
		c1.484-0.062,0.803,2.516,0.867,3.523c0.468,7.438,4.436,13.848,7.922,20.275c3.261,6.016,7.093,11.71,11.222,17.162
		c2.556,3.365,5.554,6.34,9.441,8.088c3.667,1.645,8.111,0.07,11.658-1.083c9.916-3.218,36.181-14.74,38.103-21.804
		c12.463,12.771,15.66,32.064,12.269,49.263c-1.381,7.019-4.502,12.046-8.916,17.602
		C272.629,283.423,265.936,291.42,257.229,296.152z M333.278,255.863c7.303,1.623,14.021,4.473,21.325,6.091
		c5.763,1.28,11.301,0.694,17.17,2.354c-3.42,15.83-11.418,32.048-16.965,47.192c-2.717,7.432-4.221,15.425-5.361,23.277
		c-0.471,3.25-0.997,16.224-3.287,17.332c-2.493-3.172-6.46-13.556-8.451-18.521c-2.396-5.971-2.137-12.6-2.361-19.021
		c-0.31-9.043,2.604-20.574-1.798-28.938c8.407-2.918,15.995-7.604,23.617-12.727c2.11-1.414,1.278-2.148-0.88-0.754
		c-4.33,2.797-9.164,5.355-13.977,7.291c-5.854,2.349-12.67,3.793-18.836,4.937c-14.748,2.739-28.748-2.126-43.086-4.575
		c4.865-5.708,8.848-11.539,10.678-18.977c0.986-3.998,1.515-6.454,1.729-10.646C306.213,252.42,320.039,252.913,333.278,255.863z
		 M390.797,286.044c2.551-2.95,8.061-7.955,10.109-11.233c2.492-3.994,6.681-9.309,7.119-14.244c2.333,0.265,4.71,0,7.056-1
		c1.974-0.838,1.05-1.889-1.032-1.533c-9.693,1.635-18.109-6.045-24.01-12.61c-3.645-4.056-5.913-8.974-8.876-13.562
		c-3.541-5.479-5.408-10.498-10.294-14.873c2.201-2.443,3.873-5.322,4.617-8.795c0.561-2.619-0.938-3.186-1.495-0.584
		c-1.837,8.549-13.761,14.035-20.892,17.387c-5.619,2.642-11.382,3.98-17.221,6.074c-7.066,2.543-37.525,10.207-43.379,6.43
		c-0.746-6.365-2.439-12.602-5.154-18.316c14.305-8.889,29.617-17.941,46.037-21.501c8.105-1.754,25.815-3.646,38.313-1.376
		c5.443,1.227,8.033,2.677,9.847,5.311c3.64,4.091,18.039,20.529,24.349,31.767c2.969,5.285,14.525,23.724,13.354,29.705
		C417.811,273.992,401.598,284.496,390.797,286.044z"/>
	<path d="M277.859,199.54c12.248,1.108,23.586-6.451,31.306-16.165c1.097-1.382-0.29-1.562-1.522-0.564
		c-4.385,3.566-8.487,7.174-13.506,9.835c-5.144,2.722-10.791,3.904-16.375,5.316C275.727,198.481,275.719,199.348,277.859,199.54z"
		/>
	<path d="M175.993,142.364c-0.032-1.945-1.462-2.062-1.502-0.114c-0.175,8.158,5.069,15.38,10.56,20.954
		c1.419,1.443,2.924,0.867,1.554-0.789C182.193,157.077,176.104,149.675,175.993,142.364z"/>
	<path d="M261.893,208.208c2.451,2.702,6.285-1.462,3.852-4.149C263.292,201.355,259.458,205.521,261.893,208.208z"/>
	<path d="M256.604,213.972c2.162,2.384,6.344-0.489,4.148-2.911C258.591,208.678,254.412,211.552,256.604,213.972z"/>
	<path d="M250.702,219.396c2.118,2.34,5.494-1.194,3.385-3.516C251.969,213.541,248.591,217.076,250.702,219.396z"/>
	<path d="M209.647,192.147c-2.174-2.4-5.449,1.423-3.299,3.797C208.527,198.345,211.802,194.522,209.647,192.147z"/>
	<path d="M209.728,203.488c1.538,1.767,3.984-0.904,2.456-2.657C210.648,199.067,208.204,201.736,209.728,203.488z"/>
	<path d="M217.314,178.039c-2.375-2.618-6.347,1.152-3.977,3.771C215.713,184.427,219.691,180.658,217.314,178.039z"/>
	<path d="M209.958,182.677c-2.377-2.618-6.348,1.152-3.976,3.771C208.356,189.064,212.334,185.295,209.958,182.677z"/>
	<path d="M225.637,174.297c-2.149-2.37-5.474,1.308-3.343,3.657C224.436,180.324,227.762,176.646,225.637,174.297z"/>
	<path d="M258.239,199.906c2.524,2.789,7.26-0.73,4.7-3.549C260.412,193.57,255.68,197.088,258.239,199.906z"/>
	<path d="M257.564,188.7c-2.074-2.286-5.514,1.031-3.442,3.313C256.189,194.299,259.63,190.985,257.564,188.7z"/>
	<path d="M330.999,225.642c-9.646,3.657-20.594,8.464-31.151,8.743c-1.879,0.048-0.781,1.551,1.133,1.594
		c10.464,0.215,21.631-3.719,30.705-8.764C333.498,226.207,332.994,224.883,330.999,225.642z"/>
	<path d="M289.236,277.584c7.964,3.376,17.281,5.348,25.979,3.207c1.933-0.477,2.659-1.498,0.638-1.469
		c-8.235,0.109-18.627-0.715-26.477-3.541C287.532,275.121,287.35,276.779,289.236,277.584z"/>
	<path d="M259.223,304.763c2.799,5.519,7.354,11.271,12.301,15.048c1.496,1.145,2.498,0.734,1.285-0.699
		c-4.031-4.756-8.953-10.354-12.554-15.769C259.285,301.883,258.458,303.255,259.223,304.763z"/>
	<path d="M154.501,200.871c-1.442-1.795-4.645-3.139-6.008-4.988c-1.825-2.472-2.575-1.158-0.959,1.52
		c1.299,2.146,2.541,3.944,4.407,5.645C153.327,204.314,155.734,202.402,154.501,200.871z"/>
	<path d="M169.751,185.943c1.342,1.274,3.573,0.971,2.668-0.825c-2.505-4.985-9.108-9.117-11.667-14.152
		c-0.9-1.775-1.926-0.728-1.205,1.008C161.735,177.244,165.644,182.037,169.751,185.943z"/>
	<path d="M299.395,227.893c-2.061-2.271-5.518,0.973-3.463,3.24C297.989,233.402,301.445,230.154,299.395,227.893z"/>
	<path d="M310.984,224.761c-2.163-2.384-5.465,1.366-3.327,3.729C309.821,230.874,313.122,227.127,310.984,224.761z"/>
	<path d="M323.077,221.439c-1.75-1.834-4.455,1.01-2.726,2.827C322.1,226.104,324.813,223.258,323.077,221.439z"/>
	<path d="M316.329,170.527c-2.372-2.619-6.353,1.151-3.978,3.769C314.725,176.914,318.702,173.142,316.329,170.527z"/>
	<path d="M298.322,174.788c-2.358-2.605-6.352,1.122-3.982,3.736C296.705,181.13,300.693,177.401,298.322,174.788z"/>
	<path d="M232.262,281.27c2.318,2.563,6.369-0.975,4.036-3.543C233.977,275.162,229.93,278.695,232.262,281.27z"/>
	<path d="M240.174,285.484c2.276,2.517,6.369-0.826,4.076-3.356C241.973,279.615,237.881,282.955,240.174,285.484z"/>
	<path d="M254.152,279.039c2.267,2.508,6.373-0.792,4.085-3.319C255.969,273.22,251.864,276.516,254.152,279.039z"/>
	<path d="M262.964,269.468c1.962,2.037,5.359-0.793,3.39-2.837C264.393,264.593,261,267.421,262.964,269.468z"/>
	<path d="M276.453,242.837c2.186,2.411,5.449-1.449,3.291-3.83C277.561,236.597,274.298,240.456,276.453,242.837z"/>
	<path d="M232.54,269.316c-2.211-2.435-6.362,0.627-4.126,3.097C230.628,274.849,234.775,271.783,232.54,269.316z"/>
	<path d="M232.854,255.261c-2.119-2.342-5.498,1.195-3.395,3.517C231.58,261.115,234.957,257.584,232.854,255.261z"/>
	<path d="M205.37,254.889c-2.412-2.658-6.32,1.303-3.915,3.957C203.868,261.51,207.777,257.545,205.37,254.889z"/>
	<path d="M174.716,250.956c2.433,2.686,6.298-1.399,3.875-4.074C176.155,244.197,172.288,248.279,174.716,250.956z"/>
	<path d="M182.755,262.952c2.435,2.685,6.298-1.399,3.875-4.078C184.194,256.191,180.328,260.275,182.755,262.952z"/>
	<path d="M192.772,266.908c2.433,2.687,6.298-1.398,3.874-4.075C194.21,260.15,190.344,264.234,192.772,266.908z"/>
	<path d="M199.08,244.039c2.045,2.283,5.291-1.192,3.255-3.473C200.289,238.281,197.039,241.758,199.08,244.039z"/>
	<path d="M272.537,255.168c2.043,2.285,5.29-1.191,3.255-3.471C273.747,249.41,270.495,252.889,272.537,255.168z"/>
	<path d="M408.534,265.068c-0.688,1.016-1.271,2.09-1.92,3.127c-0.808,1.287-2.95,4.6-3.438,6.045
		c-0.438,1.279,0.782,2.099,1.879,1.01c2.246-2.229,4.653-7.551,5.294-10.426C410.759,262.99,409.466,263.679,408.534,265.068z"/>
	<path d="M291.577,347.326c-3.422,3.506-6.87,6.66-10.735,9.688c-3.304,2.59-6.384,5.277-8.438,8.983
		c-0.876,1.573-0.052,2.448,1.216,0.868c4.006-4.995,7.454-6,10.904-8.724c3.611-2.848,6.595-5.884,8.736-10.053
		C294.143,346.367,292.995,345.869,291.577,347.326z"/>
	<path d="M339.854,287.376c1.229,2.149,0.3,5.866-0.021,8.168c-0.329,2.382,0.606,6.278,0.328,8.669
		c-0.216,1.911,1.169,0.917,1.774-0.866c1.013-2.976,1.604-6.151,1.897-9.274c0.271-2.758-0.875-5.762-2.576-8.116
		C340.092,284.334,338.852,285.634,339.854,287.376z"/>
	<path d="M106.552,237.117c-1.803-0.512-1.807,0.974-0.002,1.522c12.61,3.867,26.938,5.89,39.728,1.685
		c1.855-0.61,1.476-3.104-0.395-2.496C133.664,241.813,118.657,240.539,106.552,237.117z"/>
	<path d="M103.844,286.486c1.486-2.737,6.386-6.055,9.467-6.774c1.832-0.42,0.613-1.163-1.067-1.133
		c-4.016,0.073-7.921,2.671-9.777,6.021C101.411,286.51,102.369,287.693,103.844,286.486z"/>
	<path d="M93.088,272.012c0.468,1.783,1.497,1.148,1.427-0.844c-0.179-5.105-2.432-10.389-5.708-14.473
		c-1.221-1.523-2.183-0.436-1.625,0.967C88.987,262.209,91.864,267.3,93.088,272.012z"/>
</g>
</svg>
