<svg xmlns="http://www.w3.org/2000/svg" width="3000" height="3000" viewBox="0 0 3000 3000" version="1.1"><path d="" stroke="none" fill="#080404" fill-rule="evenodd"/><path d="M 887 132.613 C 863.261 135.515, 847.788 138.696, 831.021 144.120 C 758.029 167.733, 699.598 225.336, 674.541 298.381 C 665.464 324.841, 661.667 347.905, 661.599 377 C 661.533 404.785, 664.861 427.117, 672.702 451.500 C 690.320 506.283, 724.142 551.012, 771.983 582.794 C 784.541 591.137, 805.999 602.368, 816.390 606.036 L 822.991 608.367 825.588 616.933 C 829.012 628.225, 841.505 667.215, 861.016 727.500 C 881.893 792.007, 911.923 885.960, 912.245 887.777 C 912.426 888.798, 907.453 891.081, 895.183 895.614 C 796.792 931.955, 641.029 992.810, 624.725 1001.277 C 612.596 1007.577, 604.101 1015.058, 600.308 1022.781 C 597.849 1027.790, 597.516 1029.556, 597.631 1037 C 597.797 1047.811, 600.412 1056.735, 611.696 1085 C 626.166 1121.243, 642.930 1161.205, 645.515 1165.615 C 648.958 1171.491, 656.142 1177.500, 661.526 1179.007 C 669.445 1181.224, 685.229 1179.731, 702.500 1175.131 C 716.449 1171.416, 767.354 1155.430, 779.251 1151.030 C 782.138 1149.962, 797.775 1144.605, 814 1139.125 C 841.925 1129.694, 926.069 1100.660, 960.233 1088.668 L 975.966 1083.145 977.377 1087.822 C 978.154 1090.395, 987.348 1118.825, 997.810 1151 C 1104.339 1478.629, 1155.147 1648.400, 1190.391 1794.500 C 1224.234 1934.794, 1240.094 2024.624, 1247.683 2119 C 1250.168 2149.896, 1250.187 2227.300, 1247.716 2251.988 C 1244.648 2282.638, 1241.201 2303.262, 1235.013 2328 C 1206.645 2441.396, 1147.037 2510.791, 1058.500 2533.495 C 1036.064 2539.248, 1025.516 2540.450, 998 2540.391 C 977.889 2540.348, 970.903 2539.941, 959 2538.116 C 871.780 2524.747, 781.417 2473.935, 698.304 2391.525 C 677.890 2371.284, 676.070 2368.841, 677.417 2363.477 C 678.538 2359.009, 689.477 2352.075, 758.448 2312.106 C 769.451 2305.730, 774.001 2301.090, 773.996 2296.250 C 773.991 2291.347, 771.197 2286.920, 765.737 2283.163 C 763.309 2281.492, 750.562 2273.967, 737.411 2266.440 C 678.215 2232.560, 611.524 2191.493, 515 2129.483 C 421.294 2069.284, 364.735 2034.476, 341.845 2022.922 C 317.889 2010.829, 306.152 2014.473, 302.911 2035.008 C 300.935 2047.526, 302.358 2092.408, 307.998 2195.500 C 310.555 2242.243, 312.537 2284.837, 315 2346 C 317.922 2418.523, 319.893 2455.825, 324.012 2516.500 C 327.999 2575.217, 328.382 2577.795, 333.751 2582.019 C 338.814 2586.001, 345.943 2583.712, 354.575 2575.332 C 357.313 2572.675, 365.638 2564.200, 373.074 2556.500 C 399.538 2529.100, 425.873 2504.982, 439.500 2495.664 C 447.640 2490.099, 450.899 2490.136, 458.343 2495.879 C 461.432 2498.262, 475.097 2512.202, 488.710 2526.856 C 557.978 2601.421, 617.026 2654.120, 671 2689.544 C 735.126 2731.632, 809.101 2760.489, 887.411 2773.965 C 922.190 2779.950, 948.293 2782.094, 986.500 2782.105 C 1035.629 2782.118, 1062.489 2779.505, 1162 2765.030 C 1250.938 2752.092, 1271.397 2750.068, 1321 2749.302 C 1358.152 2748.728, 1378.100 2749.514, 1404.500 2752.591 C 1464.321 2759.564, 1522.269 2776.873, 1574.913 2803.493 C 1606.795 2819.615, 1637.703 2838.435, 1659.498 2854.998 C 1680.728 2871.133, 1682.008 2870.733, 1690.102 2845.433 C 1697 2823.871, 1702.831 2809.267, 1711.435 2792 C 1732.780 2749.166, 1771.061 2704.635, 1826 2658.735 C 1891.165 2604.290, 1971.546 2553.995, 2076 2502.309 C 2230.100 2426.057, 2245.137 2418.331, 2281 2396.971 C 2332.799 2366.121, 2368.059 2338.670, 2405.559 2300 C 2453.734 2250.323, 2492.722 2182.634, 2518.447 2104.012 C 2538.691 2042.141, 2547.842 1984.756, 2549.544 1909 C 2550.396 1871.079, 2551.529 1865.383, 2558.733 1862.833 C 2562.992 1861.326, 2608.657 1860.947, 2631.500 1862.230 C 2662.962 1863.997, 2682.621 1864.290, 2687.708 1863.070 C 2694.801 1861.368, 2697.521 1858.240, 2697.426 1851.892 C 2697.340 1846.096, 2693.154 1837.454, 2660.426 1775.500 C 2628.267 1714.625, 2581.163 1625.139, 2571.992 1607.500 C 2537.100 1540.384, 2473.616 1421.352, 2463.931 1404.885 C 2456.842 1392.832, 2448.746 1382.954, 2443.904 1380.450 C 2439.987 1378.425, 2433.111 1378.635, 2429.407 1380.893 C 2422.672 1385, 2420.078 1389.156, 2393.760 1438 C 2384.129 1455.875, 2369.959 1481.975, 2362.272 1496 C 2337.121 1541.885, 2305.181 1602.334, 2277.995 1655.500 C 2259.783 1691.116, 2247.363 1714.718, 2222.477 1761 C 2196.830 1808.698, 2186.605 1828.571, 2181.574 1840.500 C 2174.838 1856.474, 2175.854 1866.952, 2184.490 1870.560 C 2188.755 1872.342, 2194.478 1872.369, 2245.574 1870.843 C 2288.950 1869.548, 2295.237 1869.909, 2303.845 1874.198 C 2311.455 1877.989, 2312.519 1880.889, 2312.397 1897.500 C 2312.186 1926.341, 2302.776 1976.836, 2291.094 2011.817 C 2261.030 2101.839, 2204.886 2167.158, 2128 2201.564 C 2054.706 2234.363, 1952.556 2239.056, 1872.500 2213.301 C 1814.231 2194.556, 1770.071 2166.419, 1719.967 2116.115 C 1671.455 2067.410, 1626.201 2004.315, 1579.380 1920.108 C 1565.666 1895.442, 1527.513 1819.434, 1513.068 1788 C 1449.768 1650.251, 1385.721 1477.852, 1320.629 1270 C 1294.152 1185.455, 1238.407 999.070, 1237.699 992.721 C 1237.535 991.252, 1243.849 988.622, 1274 977.604 C 1382.139 938.086, 1501.680 892.048, 1523.682 881.447 C 1546.527 870.439, 1556.116 856.248, 1553.223 837.730 C 1550.983 823.398, 1546.168 811.366, 1523.235 762.798 C 1503.139 720.236, 1498.877 713.636, 1487.722 707.805 C 1484.349 706.042, 1481.352 705.517, 1472.814 705.191 C 1454.431 704.489, 1449.817 705.765, 1341.336 741.532 C 1233.332 777.143, 1182.654 793.790, 1181.118 794.164 C 1180.167 794.395, 1178.977 792.008, 1177.297 786.500 C 1175.955 782.100, 1164.947 745.875, 1152.834 706 C 1140.722 666.125, 1124.955 614.825, 1117.797 592 C 1110.638 569.175, 1103.421 546.156, 1101.757 540.848 L 1098.733 531.195 1103.229 525.348 C 1119.003 504.833, 1131.719 480.273, 1140.556 453.258 C 1157.004 402.973, 1156.807 350.511, 1139.981 300.186 C 1127.451 262.709, 1108.655 232.526, 1080.055 203.960 C 1042.375 166.323, 996.339 143.081, 942.409 134.467 C 932.884 132.946, 894.723 131.669, 887 132.613 M 875.500 144.511 C 771.456 159.210, 690.650 238.603, 674.301 342.193 C 671.785 358.135, 671.788 396.820, 674.307 413 C 695.691 550.366, 828.855 639.082, 963.872 605.913 C 1052.481 584.145, 1120.663 512.099, 1137.922 422 C 1144.808 386.051, 1143.048 347.628, 1132.897 312.287 C 1110.055 232.767, 1045.826 170.304, 966 149.980 C 945.966 144.879, 936.633 143.777, 910.500 143.430 C 892.730 143.194, 882.608 143.507, 875.500 144.511 M 890.500 276.009 C 849.376 283.463, 817.791 309.375, 803.606 347.296 C 798.950 359.744, 797 370.881, 797 385.022 C 797 414.392, 807.120 439.576, 827.465 460.837 C 864.379 499.414, 922.913 505.915, 967.566 476.399 C 1000.652 454.528, 1020.233 413.384, 1016.049 374.523 C 1011.863 335.650, 989.388 303.484, 954.500 286.437 C 938.926 278.827, 927.139 275.958, 909.500 275.481 C 901.800 275.273, 893.250 275.511, 890.500 276.009 M 887.500 287.410 C 852.232 294.241, 822.939 320.154, 812.223 354 C 808.288 366.428, 807.530 371.441, 807.532 385 C 807.534 400.720, 809.306 410.053, 814.746 423 C 824.333 445.816, 840.697 463.283, 862.500 473.973 C 879.289 482.205, 885.333 483.492, 907 483.446 C 924.226 483.409, 926.105 483.220, 934.288 480.696 C 968.929 470.015, 993.485 444.542, 1003.236 409.175 C 1006.291 398.096, 1006.266 372.026, 1003.190 360.737 C 993.655 325.742, 968.354 299.545, 934.288 289.395 C 926.841 287.176, 923.135 286.721, 910 286.415 C 899.645 286.174, 892.176 286.504, 887.500 287.410 M 1083.959 547.901 C 1079.649 553.265, 1062.375 568.332, 1051.500 576.213 C 1024.338 595.898, 992.635 610.272, 960.464 617.487 C 924.051 625.654, 884.598 625.204, 848.250 616.209 C 842.063 614.677, 837 613.548, 837 613.700 C 837 613.852, 842.420 630.069, 849.043 649.738 C 863.676 693.189, 886.350 763.022, 908.060 831.500 C 916.952 859.550, 924.595 882.895, 925.042 883.378 C 925.499 883.871, 940.065 879.098, 958.178 872.522 C 1017.790 850.878, 1042.601 842.164, 1147.750 805.940 C 1157.984 802.414, 1166 799.118, 1166 798.435 C 1166 796.248, 1120.366 645.746, 1101.284 585 C 1095.496 566.575, 1090.310 549.813, 1089.759 547.750 C 1089.208 545.688, 1088.383 544, 1087.925 544 C 1087.468 544, 1085.684 545.755, 1083.959 547.901 M 1454.761 718.920 C 1438.962 722.366, 1427.956 725.834, 1317.500 762.174 C 1277.350 775.383, 1217.050 795.792, 1183.500 807.527 C 1149.950 819.261, 1106.300 834.478, 1086.500 841.342 C 959.429 885.392, 741.199 966.848, 649.437 1004.479 C 618.549 1017.146, 610.029 1024.310, 610.006 1037.638 C 609.992 1045.091, 616.255 1062.407, 639.911 1120.324 C 657.838 1164.213, 658.227 1164.907, 666.113 1167.031 C 682.654 1171.484, 713.637 1161.345, 1123 1017.506 C 1291.305 958.369, 1493.526 882.635, 1520.954 868.470 C 1531.109 863.225, 1538.232 856.428, 1539.911 850.382 C 1543.241 838.389, 1539.682 827.966, 1512.449 769.940 C 1492.900 728.288, 1489.828 723.081, 1482.563 719.288 C 1477.939 716.875, 1464.928 716.702, 1454.761 718.920 M 1185 1009.570 C 1164.375 1016.967, 1111.950 1035.462, 1068.500 1050.670 C 1025.050 1065.878, 989.130 1078.642, 988.677 1079.033 C 988.225 1079.425, 997.301 1108.940, 1008.847 1144.623 C 1048.870 1268.316, 1091.862 1403.573, 1113.857 1475 C 1153.616 1604.109, 1182.572 1708.538, 1205.914 1807 C 1244.160 1968.327, 1260.043 2072.971, 1261.694 2174.500 C 1263.008 2255.241, 1255.286 2311.485, 1234.649 2371.500 C 1186.834 2510.549, 1072.715 2576.316, 932.809 2545.452 C 851.348 2527.481, 767.207 2476.935, 688.300 2398.569 C 672.442 2382.820, 668.635 2378.481, 666.428 2373.645 C 661.559 2362.972, 664.684 2355.013, 677.500 2345.446 C 683.940 2340.638, 714.661 2321.957, 735 2310.479 C 756.445 2298.378, 760.250 2295.819, 758.842 2294.447 C 758.104 2293.728, 746.700 2286.977, 733.500 2279.445 C 673.826 2245.394, 606.054 2203.644, 501.500 2136.526 C 384.727 2061.565, 330.028 2029.126, 320.225 2029.024 C 315.992 2028.980, 315.491 2032.396, 315.613 2060.500 C 315.728 2087.003, 316.184 2097.755, 320.518 2176 C 323.793 2235.109, 326.618 2293.834, 328.482 2341.500 C 331.759 2425.343, 339.861 2566.194, 341.500 2567.833 C 341.754 2568.087, 354.007 2556.148, 368.731 2541.303 C 403.046 2506.703, 426.027 2486.586, 438.487 2480.240 C 445.117 2476.864, 452.979 2476.749, 459.124 2479.938 C 466.369 2483.699, 472.802 2489.859, 503.447 2522.378 C 585.357 2609.297, 644.561 2659.664, 706.858 2695.426 C 796.788 2747.050, 907.181 2773.211, 1013.500 2768.094 C 1051.779 2766.251, 1077.231 2763.480, 1138.833 2754.447 C 1255.491 2737.340, 1274.366 2735.501, 1333 2735.526 C 1372.734 2735.543, 1385.760 2736.209, 1412 2739.564 C 1482.068 2748.523, 1547.993 2770.945, 1611 2807.243 C 1635.457 2821.333, 1637.895 2822.973, 1664.644 2843.310 L 1675.788 2851.784 1678.492 2842.142 C 1691.205 2796.810, 1716.554 2751.690, 1751.606 2712 C 1797.880 2659.603, 1871.304 2602.345, 1957.066 2551.777 C 2002.939 2524.729, 2032.731 2509.151, 2123.755 2464.617 C 2241.853 2406.837, 2288.639 2380.592, 2333.500 2346.959 C 2413.236 2287.179, 2465.425 2214.836, 2500.837 2115 C 2523.236 2051.854, 2533.654 1994.357, 2535.990 1921 C 2537.343 1878.504, 2538.245 1869.064, 2541.606 1862.194 C 2544.747 1855.773, 2550.119 1851.569, 2557.092 1850.074 C 2567.084 1847.931, 2590.785 1847.744, 2634.500 1849.465 C 2658.700 1850.417, 2680.044 1851.040, 2681.930 1850.848 L 2685.360 1850.500 2673.310 1827 C 2666.682 1814.075, 2649.117 1780.775, 2634.277 1753 C 2598.964 1686.907, 2584.792 1660.162, 2558.504 1610 C 2525.511 1547.044, 2466.717 1436.209, 2458.247 1421 C 2446.232 1399.423, 2440.168 1391.443, 2436.339 1392.167 C 2433.597 1392.686, 2428.878 1400.443, 2411.496 1433 C 2402.833 1449.225, 2387.316 1478.025, 2377.012 1497 C 2345.990 1554.131, 2322.280 1599.092, 2290 1662 C 2267.485 1705.876, 2261.503 1717.174, 2230.699 1774 C 2199.834 1830.938, 2187.708 1856.101, 2189.634 1859.217 C 2190.099 1859.970, 2200.520 1860.022, 2224.897 1859.393 C 2281.768 1857.925, 2295.204 1858.161, 2303.635 1860.775 C 2313.120 1863.716, 2320.013 1869.747, 2322.993 1877.712 C 2327.482 1889.709, 2324.546 1925.771, 2315.404 1970.915 C 2306.759 2013.610, 2291.882 2052.949, 2270.888 2088.628 C 2224.697 2167.126, 2154.664 2217.166, 2066 2235.023 C 2035.733 2241.119, 2020.924 2242.451, 1983.500 2242.444 C 1953.643 2242.438, 1947.429 2242.158, 1932.500 2240.138 C 1886.138 2233.867, 1853.446 2223.941, 1814.967 2204.451 C 1735.492 2164.195, 1660.689 2084.503, 1588.330 1963 C 1500.884 1816.164, 1407.941 1591.119, 1318.644 1310 C 1292.670 1228.232, 1258.316 1114.871, 1233.031 1027.500 C 1228.574 1012.100, 1224.689 998.712, 1224.397 997.750 C 1224.104 996.788, 1223.558 996.027, 1223.183 996.061 C 1222.807 996.095, 1205.625 1002.174, 1185 1009.570 M 1144.921 1188.500 C 1144.533 1191.224, 1145.652 1196.237, 1151.167 1216.473 C 1175.762 1306.719, 1204.630 1395.838, 1272.810 1592 C 1365.597 1858.957, 1438.982 2053.663, 1490.472 2169.500 C 1506.192 2204.866, 1510.152 2213, 1511.651 2213 C 1513.646 2213, 1513.443 2212.115, 1508.127 2197.708 C 1487.034 2140.535, 1470.135 2094.945, 1437.970 2008.431 C 1350.070 1772.013, 1298.234 1625.988, 1208.500 1362 C 1180.518 1279.682, 1175.361 1264.984, 1159.844 1223.346 C 1148.960 1194.142, 1145.326 1185.656, 1144.921 1188.500 M 2428.500 1597.370 C 2423.998 1599.471, 2418.687 1605.520, 2413.021 1615 C 2407.553 1624.149, 2387.851 1663.518, 2377.896 1685.188 C 2371.770 1698.523, 2357 1735.256, 2357 1737.156 C 2357 1739.726, 2359.568 1736.455, 2367.907 1723.268 C 2383.395 1698.771, 2389.847 1687.442, 2406.663 1655.211 C 2426.683 1616.841, 2430.894 1610, 2434.495 1610 C 2435.238 1610, 2437.862 1613.037, 2440.326 1616.750 C 2444.930 1623.688, 2472.707 1674.822, 2486.365 1701.500 C 2494.184 1716.774, 2504.490 1733.096, 2506.750 1733.786 C 2508.566 1734.339, 2508.319 1730.142, 2506.042 1721.732 C 2500.688 1701.958, 2493.884 1685.358, 2481.814 1662.621 C 2458.764 1619.200, 2449.598 1604.083, 2443.502 1599.433 C 2439.318 1596.242, 2432.828 1595.349, 2428.500 1597.370 M 426.050 2223.780 C 417.486 2228.505, 416.030 2242.624, 420.407 2278.500 C 424.833 2314.777, 431.022 2361.305, 431.841 2364.465 C 432.957 2368.772, 435.240 2368.277, 436.291 2363.500 C 437.962 2355.901, 436.354 2306.295, 433.583 2280 C 430.953 2255.042, 430.328 2238.610, 431.912 2236.108 C 433.827 2233.084, 451.019 2243.459, 487 2269.353 C 509.643 2285.649, 531.967 2298.481, 533.462 2296.062 C 533.775 2295.555, 531.849 2292.522, 529.183 2289.320 C 518.184 2276.116, 498.011 2259.609, 469.489 2240.477 C 444.031 2223.400, 433.840 2219.482, 426.050 2223.780" stroke="none" fill="#040404" fill-rule="evenodd"/></svg>