<?xml version="1.0" encoding="iso-8859-1"?>
<!-- Uploaded to: SVG Repo, www.svgrepo.com, Generator: SVG Repo Mixer Tools -->
<svg fill="currentColor" height="800px" width="800px" version="1.1" id="Layer_1" xmlns="http://www.w3.org/2000/svg" xmlns:xlink="http://www.w3.org/1999/xlink" 
	 viewBox="0 0 512.002 512.002" xml:space="preserve">
<g>
	<g>
		<path d="M384.614,208.236c-3.007-3.006-7.879-3.007-10.885-0.001c-3.204,3.205-8.419,3.206-11.625,0l-13.789-13.789
			c-4.46-4.461-10.39-6.916-16.697-6.916s-12.237,2.457-16.697,6.915l-13.79,13.79c-3.205,3.205-8.42,3.205-11.624,0l-13.789-13.789
			c-4.46-4.461-10.39-6.916-16.697-6.916s-12.237,2.457-16.697,6.915l-13.79,13.79c-3.205,3.205-8.42,3.205-11.624,0l-13.79-13.789
			c-4.46-4.461-10.389-6.916-16.697-6.916c-6.307,0-12.237,2.457-16.697,6.915l-13.79,13.79c-3.205,3.205-8.42,3.205-11.624,0
			c-3.007-3.005-7.879-3.006-10.885,0.001c-3.006,3.006-3.005,7.879,0,10.884c9.206,9.205,24.185,9.206,33.392,0l13.79-13.79
			c1.553-1.553,3.616-2.407,5.812-2.407s4.26,0.855,5.812,2.408l13.79,13.79c4.603,4.602,10.648,6.905,16.696,6.905
			c6.046-0.001,12.094-2.303,16.697-6.905l13.79-13.79c1.553-1.553,3.616-2.407,5.812-2.407s4.26,0.855,5.812,2.408l13.79,13.79
			c9.206,9.205,24.185,9.206,33.392,0l13.79-13.79c1.553-1.553,3.616-2.407,5.812-2.407c2.196,0,4.26,0.855,5.812,2.408l13.79,13.79
			c9.21,9.204,24.19,9.203,33.396-0.003C387.62,216.113,387.62,211.24,384.614,208.236z"/>
	</g>
</g>
<g>
	<g>
		<path d="M148.293,107.571c-3.99-1.476-8.414,0.563-9.888,4.55c-5.252,14.204-7.915,29.15-7.915,44.425
			c0.001,4.25,3.447,7.696,7.697,7.696s7.696-3.445,7.696-7.696c0-13.447,2.342-26.597,6.959-39.088
			C154.318,113.471,152.28,109.045,148.293,107.571z"/>
	</g>
</g>
<g>
	<g>
		<path d="M259.051,28.44c-0.154,0-0.307-0.001-0.461-0.001c-13.449,0-26.702,2.077-39.393,6.176
			c-4.045,1.305-6.265,5.644-4.959,9.688c1.054,3.259,4.073,5.333,7.323,5.333c0.783,0,1.581-0.12,2.366-0.375
			c11.161-3.604,22.821-5.43,34.664-5.43c0.145,0.001,0.285,0.009,0.434,0.001c4.238,0,7.681-3.428,7.696-7.67
			C266.736,31.913,263.302,28.455,259.051,28.44z"/>
	</g>
</g>
<g>
	<g>
		<path d="M388.182,323.941c-4.25,0-7.696,3.445-7.696,7.696s3.446,7.696,7.696,7.696c18.054,0,32.743,14.687,32.743,32.743
			c0,18.054-14.689,32.742-32.743,32.742c-18.054,0-32.742-14.688-32.742-32.742V262.62c8.682,3.885,19.241,2.297,26.358-4.82
			l18.134-18.135c5.909-5.91,9.163-13.766,9.163-22.122v-63.08c0-84.88-68.343-154.171-152.347-154.461
			C256.567,0,256.388,0,256.206,0c-40.741,0-79.05,15.825-107.917,44.593c-28.997,28.898-44.968,67.357-44.968,108.294v64.656
			c0,8.356,3.254,16.212,9.164,22.123L130.62,257.8c7.004,7.002,17.342,8.662,25.945,5.011v109.265
			c0,18.054-14.689,32.742-32.743,32.742c-18.054,0-32.743-14.688-32.743-32.742c0-18.055,14.689-32.743,32.743-32.743
			c4.25,0,7.696-3.445,7.696-7.696s-3.446-7.696-7.696-7.696c-26.542,0-48.135,21.594-48.135,48.135s21.593,48.134,48.135,48.134
			s48.135-21.593,48.135-48.134V249.855l5.845-5.845c1.553-1.553,3.616-2.407,5.812-2.407c2.195,0,4.26,0.855,5.812,2.408
			l13.79,13.79c4.365,4.365,10.031,6.634,15.762,6.859c8.37,23.4,7.767,48.72-1.811,71.842c-11.796,28.476-11.796,59.842,0,88.318
			c10.222,24.678,10.222,51.859,0,76.538c-1.626,3.927,0.238,8.429,4.165,10.055c0.963,0.4,1.961,0.588,2.942,0.588
			c3.02,0,5.886-1.79,7.113-4.753c11.796-28.476,11.796-59.842,0-88.318c-10.222-24.678-10.222-51.859,0-76.538
			c10.952-26.442,11.728-55.375,2.34-82.173c1.004-0.727,1.976-1.515,2.88-2.418l13.79-13.79c1.553-1.553,3.616-2.407,5.812-2.407
			s4.26,0.855,5.812,2.408l13.79,13.79c3.033,3.032,6.697,5.046,10.57,6.08c8.665,23.616,8.162,49.243-1.522,72.622
			c-11.796,28.476-11.796,59.842,0,88.318c10.222,24.678,10.222,51.859,0,76.538c-1.626,3.927,0.238,8.429,4.165,10.055
			c0.963,0.4,1.961,0.588,2.942,0.588c3.02,0,5.886-1.79,7.113-4.753c11.796-28.476,11.796-59.842,0-88.318
			c-10.222-24.678-10.222-51.859,0-76.538c10.629-25.662,11.675-53.67,3.146-79.798c2.527-1.139,4.903-2.72,6.977-4.794l13.79-13.79
			c1.553-1.553,3.616-2.407,5.812-2.407c2.195,0,4.26,0.855,5.812,2.408l5.43,5.43v122.634c0,26.542,21.593,48.134,48.134,48.134
			c26.542,0,48.135-21.593,48.135-48.134C436.316,345.536,414.724,323.941,388.182,323.941z M345.502,233.126
			c-4.46-4.46-10.39-6.916-16.697-6.916c-6.308,0-12.237,2.457-16.697,6.915l-13.79,13.79c-3.205,3.205-8.42,3.205-11.624,0
			l-13.789-13.789c-4.46-4.461-10.39-6.916-16.697-6.916s-12.237,2.457-16.697,6.915l-13.79,13.79c-3.205,3.205-8.42,3.205-11.624,0
			l-13.789-13.789c-4.46-4.461-10.39-6.916-16.697-6.916c-6.307,0-12.237,2.457-16.697,6.915l-13.79,13.79
			c-3.205,3.205-8.42,3.205-11.624,0l-18.134-18.133c-3.002-3.003-4.656-6.993-4.656-11.239v-64.656
			c0-36.816,14.362-71.404,40.44-97.391c25.965-25.874,60.413-40.104,97.055-40.104c0.162,0,0.327,0,0.49,0.001
			c75.546,0.262,137.007,62.647,137.007,139.069v63.08c0,4.245-1.653,8.236-4.655,11.238l-18.134,18.134
			c-3.205,3.205-8.42,3.205-11.624,0L345.502,233.126z"/>
	</g>
</g>
<g>
	<g>
		<path d="M257.945,60.384c-2.666-1.89-6.234-1.89-8.901,0c-1.377,0.976-33.728,24.258-33.728,54.542
			c0,30.284,32.351,53.566,33.728,54.542c1.333,0.945,2.892,1.418,4.45,1.418c1.559,0,3.117-0.473,4.451-1.418
			c1.377-0.976,33.728-24.258,33.728-54.542S259.322,61.36,257.945,60.384z M253.496,153.335
			c-7.728-6.651-22.787-21.75-22.787-38.409c0-16.661,15.062-31.761,22.786-38.409c7.728,6.652,22.787,21.751,22.787,38.409
			C276.282,131.586,261.22,146.686,253.496,153.335z"/>
	</g>
</g>
<g>
	<g>
		<path d="M344.206,64.029c0-0.001,0-0.001,0-0.001c-12.634-12.632-34.385-9.355-36.823-8.939c-3.222,0.549-5.745,3.072-6.294,6.295
			c-0.416,2.439-3.694,24.19,8.939,36.825c8.015,8.015,19.702,9.625,27.797,9.625c4.663,0,8.134-0.535,9.026-0.687
			c3.222-0.549,5.745-3.072,6.294-6.294C353.56,98.413,356.839,76.663,344.206,64.029z M320.911,87.325
			c-4.194-4.196-5.152-11.802-5.098-17.509c5.706-0.042,13.315,0.905,17.509,5.097c4.194,4.195,5.152,11.803,5.098,17.509
			C332.698,92.438,325.104,91.516,320.911,87.325z"/>
	</g>
</g>
<g>
	<g>
		<path d="M216.709,61.383c-0.549-3.222-3.073-5.746-6.294-6.294c-2.437-0.413-24.189-3.693-36.823,8.939c0,0,0,0,0,0.001
			c-12.633,12.634-9.354,34.385-8.939,36.824c0.549,3.222,3.072,5.745,6.294,6.294c0.892,0.151,4.362,0.687,9.026,0.687
			c8.095,0,19.781-1.61,27.797-9.625C220.404,85.573,217.124,63.822,216.709,61.383z M196.886,87.324
			c-4.194,4.195-11.81,5.132-17.505,5.099c-0.045-5.67,0.909-13.325,5.094-17.509c4.194-4.194,11.778-5.122,17.506-5.099
			C202.025,75.483,201.071,83.138,196.886,87.324z"/>
	</g>
</g>
</svg>