<?xml version="1.0" encoding="utf-8"?>
<!-- Generator: Adobe Illustrator 15.0.0, SVG Export Plug-In . SVG Version: 6.00 Build 0)  -->
<!DOCTYPE svg PUBLIC "-//W3C//DTD SVG 1.0//EN" "http://www.w3.org/TR/2001/REC-SVG-20010904/DTD/svg10.dtd">
<svg version="1.0" id="Layer_1" xmlns="http://www.w3.org/2000/svg" xmlns:xlink="http://www.w3.org/1999/xlink" x="0px" y="0px"
	 width="432px" height="432px" viewBox="0 0 432 432" enable-background="new 0 0 432 432" xml:space="preserve">
<g>
	<path d="M326.939,57.179c-18.464-14.866-39.577-27.053-61.15-36.762c-16.496-7.421-38.32-16.535-56.695-11.316
		c-19.899,5.652-38.991,17.362-56.588,27.91c-10.11,6.055-20.014,12.526-29.312,19.779c-5.834,4.554-12.177,9.696-15.762,16.308
		c-3.202,5.908,0.261,14.776,3.343,20.052c3.836,6.565,11.119,9.648,18.349,10.6c13.859,1.823,28.578-2.107,42.395-6.294
		c0.957,15.253-2.365,26.43-13.671,36.993c-9.449,8.824-19.128,19.913-19.685,33.515c-0.428,10.483,5.079,19.81,14.132,24.875
		c6.562,3.672,13.999,4.042,21.221,2.602c0.012,0.038,0.007,0.068,0.02,0.107c6.646,21.181-1.946,44.38-4.862,65.533
		c-3.284,23.803,0.675,47.075,16.513,65.795c1.178,1.396,3.152,0.673,3.507-0.627c0.291-0.237,0.465-0.635,0.285-1.086
		c-2.411-6.081-2.05-13.036-1.029-19.654c7.524,11.653,7.469,38.494-0.428,81.694c-0.95,2.614,1.637,3.6,3.053,1.229
		c6.913-11.592,11.806-23.925,14.37-36.951c1.215,18.015,6.222,43.701,17.596,45.422c4.682,1.219,3.963-0.064,3.084-2.158
		c-11.247-26.796-0.248-56.254-2.022-84.618c1.729,4.105,4.348,7.953,6.668,11.63c6.438,10.205,13.155,19.899,17.452,31.287
		c8.213,21.779,3.427,48.785-2.397,70.701c-0.056,0.117-0.133,0.219-0.163,0.348c-0.957,3.577,1.787,3.729,3.235,1.374
		c11.244-18.305,17.508-40.022,15.786-62.245c-1.4-18.285-9.342-35.826-12.588-53.87c-1.428-7.933-2.284-13.615-3.121-21.658
		c8.877,7.357,7.308,19.688,8.631,29.785c1.099,8.353,3.154,23.538,10.462,29.208c0.045,0.187,4.252,2.906,4.121,0.487
		c-0.679-13.577,0-26.313,2.112-39.756c0.865-5.48,1.798-10.951,2.635-16.43c2.388,3.892,2.547,9.802,2.838,14.813
		c0.352,6.142,4.781,22.666,8.971,18.108c6.676-5.844,8.442-15.653,9.402-24.084c1.428-12.51,0.339-25.307-0.744-37.799
		c-1.078-12.457-2.538-24.883-3.133-37.377c-0.448-9.144-0.979-19.901,2.663-28.631c5.819,0.321,11.503-1.677,15.761-7.223
		c5.783-7.528,7.451-17.076,1.846-24.968c-5.992-8.432-14.623-14.656-20.621-23.173c-9.401-13.365-10.688-22.845-1.026-42.505
		c23.101,6.854,40.103,6.025,49.46-9.28C350.342,74.968,336.896,65.194,326.939,57.179z M149.26,187.498
		c-10.259-8.176-10.563-21.58-5.122-31.979c4.763-9.096,16.245-18.029,22.199-26.319c6.949-9.679,8.761-20.911,7.558-32.471
		c3.496-1.07,18.493-5.574,22.746-6.833c2.853,24.666-8.384,44.544-13.885,68.105c-5.617,22.521,3.238,25.943,4.569,27.286
		C176.418,192.93,160.673,196.59,149.26,187.498z M199.358,89.093c11.848-3.436,24.233-6.448,36.313-6.296
		c-8.605,25.943,1.34,52.397,11.051,76.623c2.824,7.042,8.591,17.27,6.898,25.141c-1.695,7.906-19.41,3.219-27.922,0.794
		c3.094-6.101-0.967-22.854-7.146-37.95c-3.333-11.868-6.417-23.858-2.692-35.776c0.955-3.05-0.492-3.513-1.769-0.62
		c-6.118,13.856-1.271,28.082,2.646,41.971c3.091,10.956,11.957,35.729-7.085,37.523c-0.015,0-0.031,0.008-0.046,0.012
		c-10.178-0.812-21.527-4.9-24.626-14.814c-2.516-8.05,1.004-18.649,3.312-26.356C194.208,129.569,203.463,109.902,199.358,89.093z
		 M255.562,169.494c-9.72-27.765-27.483-51.125-16.066-86.541c2.487,0.177,27.509,5.294,28.188,8.06
		c-4.67,9.175-9.949,19.129-9.945,29.601c1.65,22.847,16.883,33.89,19.372,42.889c8.425,27.81-12.479,25.868-19.206,23.315
		C259.926,181.562,257.217,174.22,255.562,169.494z M186.632,299.816c-1.366,7.002-1.935,17.797-0.324,24.861
		c-7.005-9.947-13.89-23.037-15.659-35.291c-1.627-11.283,1.522-23.603,3.268-34.785c3.029-19.401,8.113-40.271,1.912-59.687
		c5.504-1.395,10.808-3.765,15.431-6.472c2.24,1.438,4.732,2.567,7.302,3.465c-11.688,26.255-9.181,53.051-4.141,80.139
		C191.031,281.048,188.476,290.393,186.632,299.816z M189.95,385.219c2.241-11.455,5.729-30.852,6.515-42.519
		c0.897-13.289,0.649-29.076-8.048-40.003c0.273-1.523,0.566-3.022,0.851-4.476c1.456-7.405,3.756-14.569,5.996-21.756
		c0.463,2.384,0.941,4.771,1.426,7.157c3.299,16.201,6.229,32.451,5.967,49.043C202.417,348.358,199.213,373.528,189.95,385.219z
		 M217.951,349.136c-1.281,14.152-0.677,32.699,5.193,46.225c-10.479-2.971-13.177-24.896-14.224-32.873
		c-0.783-5.918-5.04-57.572-7.832-71.992c-6.388-32.964-14.631-65.757-0.683-97.983c2.795,0.851,16.638,3.459,21.537-2.723
		c-11.526,33.779-11.296,74.473-2.994,108.855C222.891,314.977,219.445,332.675,217.951,349.136z M258.1,351.256
		c4.611,21.394-1.653,62.856-10.588,72.336c0-4.08,4.994-23.793,5.576-29.6c1.078-10.718,1.42-21.841-0.625-32.462
		c-3.315-17.818-19.396-41.401-25.148-50.482c-15.399-32.493-12.954-89.042-1.364-122.161c5.841,2.114,13.351,4.398,19.88,4.308
		c-4.041,15.848-1.986,86.342,0.688,104.905C249.135,316.229,254.252,333.425,258.1,351.256z M274.196,265.859
		c-0.534,12.855-0.823,29.274-2.866,41.947c-1.757,10.905-3.275,27.011-1.654,38.151c-8.82-5.627-9.301-25.058-10.527-34.498
		c-1.24-9.54-2.275-22.738-11.132-28.545c-1.306-13.44-2.584-74.095,1.636-90.089c1.962-0.382,5.801-0.881,6.866-3.646
		c1.53,0.847,3.04,1.57,4.526,2.152C268.709,216.459,275.303,239.456,274.196,265.859z M295.041,292.695
		c-0.324,9.052-2.427,21.36-7.939,28.781c-2.241,1.077-5.446-13.896-5.844-20.51c-0.297-5.05-1.236-9.135-4.387-12.859
		c0.934-6.461,1.67-12.939,1.91-19.49c1.34-35.25-10.818-63.941-14.88-76.351c5.259,1.362,10.17,0.51,14.594-4.03
		c3.861,3.296,8.591,5.896,13.444,7.092c-3.148,7.343-2.393,15.127-2.35,23.197c0.054,12.334,1.446,24.664,2.547,36.936
		C293.24,267.828,295.489,280.277,295.041,292.695z M284.455,130.374c3.149,9.77,9.862,19.116,16.903,26.29
		c21.618,20.053,7.2,30.588,2.119,33.476c-7.567,4.307-18.705,0.031-22.427-5.075c6.764-10.06,0.664-21.155-5.203-30.377
		c-5.055-7.955-9.709-15.066-12.571-24.093c-3.834-12.105,3.242-27.769,8.502-38.817c5.791,1.78,10.396,3.985,16.294,5.356
		C282.4,108.519,280.463,117.999,284.455,130.374z M338.5,86.5c-9.399,17.28-40.836,8.243-55.102,4.427
		c-7.689-2.059-30.104-9.786-40.766-11.817c-28.089-5.352-69.555,17.007-94.698,21.377c-8.871,1.544-21.433,0.23-29.689-4.116
		c-6.383-3.364-9.852-15.085-6.854-22.085c7.159-17.417,54.255-42.956,76.155-53.309c7.335-3.468,19.521-8.869,27.66-9.92
		c24.887-4.295,76.517,25.913,97.004,40.047C336.051,68.193,342.488,79.168,338.5,86.5z"/>
	<path d="M157.673,149.248c-12.495,12.111-7.668,23.072,0.185,34.17c1.164,1.643,2.086,0.48,1.003-1.245
		c-6.288-10.026-8.2-22.156-0.254-31.224C160.181,149.152,159.381,147.591,157.673,149.248z"/>
	<path d="M271.332,106.556c0.271-2.137-0.744-2.276-1.43-0.426c-4.494,12.154-3.27,25.261,5.352,35.045
		c1.621,1.844,3.213,0.589,1.701-1.537C269.16,130.641,269.033,114.902,271.332,106.556z"/>
	<path d="M204.841,182.206c15.131,3.136,13.04-13.869,7.075-23.387c-1.144-1.651-3.174-1.143-1.651,1.144
		c3.091,9.782,7.744,22.847-5.077,20.816C202.524,180.27,203.839,182.001,204.841,182.206z"/>
	<path d="M242.666,183.306c-1.057,0.165-2.697,1.659,0.094,1.405c6.326-0.457,5.07-6.602,3.684-10.662
		c-3-8.782-12.595-21.519-10.536-31.098c0.298-1.397-1.246-1.988-1.627-0.601c-1.622,5.891,1.763,12.568,3.998,17.859
		C239.789,163.782,249.863,182.165,242.666,183.306z"/>
	<path d="M266.148,182.874c4.57-0.358,9.357-4.637,7.309-11.181c-0.313-0.891-2.012-2.467-1.904,0.232
		c-0.073,4.044-1.584,7.953-5.846,9.168C264.537,181.423,263.83,182.935,266.148,182.874z"/>
	<path d="M294.321,185.506c11.255,1.821,14.062-15.006,7.403-21.48c-1.975-1.525-1.86,0.913-1.088,1.901
		c4.264,5.42,4.051,18.592-5.965,17.136C291.245,182.809,291.881,185.473,294.321,185.506z"/>
	<path d="M300.777,51.197c-1.021-0.525-1.329,0.659-0.352,1.233c6.309,3.729,12.162,8.266,17.668,13.089
		c5.344,4.684,14.816,12.201,8.063,19.222c-6.031,6.271-19.15,1.602-26.113-0.406c-11.828-3.408-23.293-7.299-34.662-11.966
		c-0.987-0.406-1.487,0.467-0.552,0.901c13.412,6.198,26.741,11.441,40.781,14.987c7.642,1.934,16.712,4.708,22.735-1.553
		c5.072-5.278,1.793-11.863-2.058-16.373C319.567,62.458,309.963,55.938,300.777,51.197z"/>
	<path d="M146.834,90.897c-7.827,0.176-17.938-2.387-18.227-11.761c-0.229-7.478,5.5-14.438,11.06-18.457
		c0.813-0.589,0.317-1.092-0.534-0.593c-7.451,4.387-14.255,12.766-12.632,21.936c1.625,9.163,13.023,10.024,20.659,9.532
		C148.488,91.471,148.061,90.872,146.834,90.897z"/>
</g>
</svg>
