<svg xmlns="http://www.w3.org/2000/svg" width="3000" height="3000" viewBox="0 0 3000 3000" version="1.1"><path d="" stroke="none" fill="#080404" fill-rule="evenodd"/><path d="M 1710 168.678 C 1617.843 170.929, 1518.903 182.462, 1428.740 201.462 C 1238.010 241.656, 1028.342 336.575, 866.500 455.995 C 859.350 461.271, 852.948 465.925, 852.274 466.338 C 851.487 466.820, 848.623 464.481, 844.274 459.806 C 820.194 433.920, 756.543 368.273, 736.046 348.185 C 721.349 333.781, 717.252 331, 710.729 331 C 703.560 331, 700.258 334.639, 696.208 347 C 691.420 361.613, 690 368.176, 690 375.698 C 690 387.190, 691.969 390.076, 724.410 426.146 C 738.445 441.751, 771.846 480.542, 787.278 499.158 L 796.941 510.815 784.726 521.658 C 698.930 597.811, 629.024 683.863, 565.512 791.501 C 487.469 923.767, 430.487 1059.218, 385.597 1219.176 C 348.188 1352.473, 325.139 1481.389, 313.039 1625 C 307.565 1689.962, 305.778 1735.024, 305.762 1808.500 C 305.744 1893.930, 308.238 1947.498, 316.518 2039.500 C 317.359 2048.850, 319.164 2069.480, 320.529 2085.345 C 325.643 2144.778, 331.428 2187.797, 338.637 2219.997 C 341.676 2233.572, 343.898 2238.379, 348.148 2240.577 C 352.794 2242.979, 355.862 2241.909, 370.424 2232.810 C 388.567 2221.475, 430.860 2201.004, 459.500 2189.697 C 560.187 2149.946, 662.562 2116.990, 750.078 2096.155 C 813.543 2081.046, 845.422 2076.443, 903.500 2074.005 C 932.455 2072.790, 942.450 2071.721, 951.777 2068.844 C 970.134 2063.182, 980.590 2054.980, 1008.310 2024.500 C 1098.666 1925.148, 1231.247 1829.322, 1360.500 1769.947 C 1409.824 1747.288, 1444.235 1733.358, 1511.374 1708.866 C 1549.953 1694.793, 1562.513 1689.456, 1572.688 1682.814 C 1586.574 1673.749, 1592.327 1666.531, 1606.928 1639.855 C 1611.751 1631.043, 1615.945 1623.759, 1616.249 1623.667 C 1616.553 1623.575, 1644.203 1657.475, 1677.693 1699 C 1711.184 1740.525, 1769.137 1812.300, 1806.477 1858.500 C 1972.937 2064.455, 2170.096 2313.458, 2315.600 2501.500 C 2450.391 2675.697, 2489.319 2726.439, 2541.145 2795.500 C 2555.210 2814.242, 2567.850 2830.132, 2569.311 2830.909 C 2573.519 2833.145, 2577.163 2831.093, 2605.561 2810.495 C 2638.143 2786.863, 2642.992 2782.990, 2642.996 2780.594 C 2642.998 2779.546, 2641.778 2777.071, 2640.283 2775.094 C 2636.341 2769.878, 2597.861 2721.133, 2558.109 2671 C 2474.017 2564.946, 2457.064 2543.530, 2418.400 2494.500 C 2395.846 2465.900, 2348.809 2406.275, 2313.874 2362 C 2278.939 2317.725, 2217.291 2239.425, 2176.878 2188 C 2136.466 2136.575, 2089.677 2077.175, 2072.903 2056 C 1985.038 1945.083, 1959.247 1912.539, 1925.898 1870.500 C 1847.741 1771.977, 1783.961 1690.702, 1715.292 1602.121 L 1670.036 1543.743 1673.268 1539.629 C 1706.955 1496.757, 1763.550 1439.627, 1814 1397.565 C 1858.764 1360.245, 1901.201 1329.475, 1955.500 1294.969 C 1998.938 1267.365, 2003.739 1262.604, 2019.005 1232 C 2043.272 1183.348, 2070.756 1143.989, 2116.656 1092.154 C 2134.976 1071.466, 2181.288 1024.958, 2202.122 1006.327 C 2253.413 960.459, 2308.353 919.779, 2381.500 873.507 C 2423.290 847.070, 2434.794 838.613, 2443.654 827.812 C 2452.696 816.789, 2456.399 807.371, 2463.470 777.413 C 2483.866 690.996, 2511.719 624.965, 2558.977 551 C 2588.745 504.408, 2614.181 476.590, 2667.014 432.845 C 2686.591 416.635, 2692.652 410.374, 2693.586 405.393 C 2695.214 396.717, 2692.197 393.374, 2664.683 373.357 C 2629.580 347.820, 2606.519 333.845, 2567 314.162 C 2478.084 269.874, 2375.729 239.792, 2233 215.997 C 2036.846 183.295, 1840.155 165.499, 1710 168.678 M 1699.062 183.093 C 1596.561 186.503, 1486.114 201.274, 1393.500 223.959 C 1252.334 258.535, 1098.955 323.684, 969 404.267 C 949.477 416.373, 908.842 443.175, 909.306 443.640 C 909.512 443.845, 922.464 441.283, 938.090 437.946 C 1079.126 407.826, 1142.346 396.752, 1220 388.563 C 1322.712 377.730, 1434.996 375.220, 1534 381.542 C 1675.406 390.571, 1860.152 420.043, 2016.500 458.515 C 2085.258 475.433, 2160.210 498.816, 2204 517.009 C 2212.518 520.547, 2214.269 520.514, 2229.564 516.516 C 2242.227 513.206, 2253.979 507.906, 2272 497.377 C 2303.934 478.721, 2323.423 468.646, 2353 455.505 C 2409.142 430.561, 2497.328 402.330, 2543.708 394.454 C 2582.681 387.836, 2626.386 386.568, 2658.295 391.129 C 2662.582 391.742, 2666.326 392.008, 2666.613 391.720 C 2667.261 391.072, 2633.286 367.565, 2619 358.775 C 2529.807 303.899, 2412.221 262.724, 2271.500 237.090 C 2134.415 212.118, 1962.745 191.456, 1839 185.034 C 1783.489 182.153, 1743.844 181.603, 1699.062 183.093 M 708.948 346.750 C 708.397 348.262, 707.522 350.625, 707.003 352 C 704.587 358.400, 702 369.919, 702 374.280 C 702 381.484, 705.180 386.622, 718.536 401 C 733.342 416.939, 738.521 422.621, 749.072 434.500 C 765.387 452.869, 790.732 482.470, 799.195 493.039 C 803.141 497.967, 806.624 502, 806.935 502 C 807.246 502, 813.167 497.387, 820.093 491.750 C 827.019 486.112, 834.444 480.089, 836.593 478.365 L 840.500 475.229 833.025 467.365 C 818.164 451.730, 735.231 366.343, 724.186 355.306 C 717.963 349.088, 712.215 344, 711.411 344 C 710.608 344, 709.500 345.238, 708.948 346.750 M 1369 391.600 C 1302.873 394.206, 1255.769 397.647, 1205 403.582 C 1135.359 411.722, 1082.928 421.026, 947 449.361 C 921.975 454.577, 897.326 459.604, 892.225 460.531 C 884.806 461.880, 881.892 462.946, 877.662 465.858 C 868.087 472.451, 864.043 475.491, 864.021 476.113 C 864.010 476.450, 867.487 477.278, 871.750 477.952 C 887.611 480.463, 933.373 490.153, 956.549 495.909 C 1091.108 529.323, 1247.683 587.957, 1394.500 659.911 C 1477.782 700.727, 1554.596 745.651, 1604.777 782.889 C 1611.530 787.900, 1617.438 792, 1617.906 792 C 1618.373 792, 1624.845 784.462, 1632.286 775.250 C 1681.205 714.690, 1733.509 668.399, 1800 626.815 C 1879.477 577.110, 1962.199 544.148, 2040.500 530.982 C 2074.670 525.237, 2101.383 523.049, 2148.500 522.138 L 2181.500 521.500 2165 515.570 C 2109.661 495.681, 2040.841 476.362, 1963.500 459.006 C 1807.851 424.075, 1653.602 401.324, 1519 393.444 C 1494.441 392.006, 1390.968 390.734, 1369 391.600 M 2579 403.103 C 2553.064 405.365, 2524.909 410.770, 2500.500 418.175 C 2453.050 432.569, 2396.935 452.430, 2366.217 465.703 C 2343.794 475.391, 2304.929 495.009, 2285.692 506.351 C 2258.330 522.482, 2244.798 528.400, 2227.234 531.918 C 2212.502 534.868, 2197.879 535.998, 2174.076 536.023 C 2084.712 536.117, 2029.431 543.469, 1967 563.560 C 1951.920 568.413, 1919.097 580.664, 1917.696 581.963 C 1917.254 582.373, 1920.404 583.262, 1924.696 583.939 C 1998.606 595.597, 2072.217 615.615, 2153 646.025 C 2263.945 687.788, 2353.873 734.862, 2428.828 790.411 C 2436.124 795.817, 2442.351 799.983, 2442.666 799.667 C 2442.981 799.352, 2446.539 785.599, 2450.572 769.105 C 2460.072 730.257, 2467.745 704.994, 2478.927 675.747 C 2504.326 609.319, 2543.476 541.663, 2583.230 495.500 C 2605.376 469.784, 2624.643 451.322, 2659.250 422.655 C 2669.012 414.568, 2677 407.783, 2677 407.578 C 2677 406.855, 2663.339 404.840, 2649.005 403.449 C 2633.329 401.927, 2594.673 401.737, 2579 403.103 M 838.715 495.250 C 832.298 500.337, 827.037 505.145, 827.024 505.932 C 826.969 509.249, 851.415 601.507, 864.138 646 C 918.089 834.659, 971.600 980.272, 1029.507 1096 C 1048.210 1133.379, 1078.501 1188.903, 1080.226 1188.971 C 1081.886 1189.037, 1093.371 1173.712, 1102.122 1159.757 C 1134.491 1108.138, 1167.057 1061.675, 1190.616 1033.500 C 1257.401 953.627, 1365.089 879.201, 1465.500 843.522 C 1493.249 833.662, 1521.477 825.973, 1555.328 819.055 C 1581.470 813.712, 1589.981 811.482, 1597.862 807.909 C 1609.493 802.635, 1609.489 802.788, 1598.250 794.504 C 1477.003 705.134, 1251.931 598.984, 1053.083 537.389 C 997.399 520.141, 949.447 507.323, 910 499.144 C 899.275 496.920, 881.555 493.053, 870.623 490.550 C 859.691 488.048, 850.664 486, 850.565 486 C 850.465 486, 845.133 490.163, 838.715 495.250 M 807.274 521.246 C 800.288 527.207, 799.846 527.861, 793.929 540.956 C 698.718 751.675, 645.178 966.504, 628.982 1202.801 C 623.231 1286.703, 622.413 1407.646, 627.061 1486.500 C 630.559 1545.834, 637.235 1605.381, 646.065 1656 C 649.477 1675.565, 656.693 1711.026, 657.406 1711.739 C 658.146 1712.479, 663.426 1701.431, 673.455 1678.157 C 691.434 1636.436, 711.807 1594.788, 729.053 1564.500 C 765.868 1499.842, 818.984 1426.386, 871.503 1367.500 C 924.258 1308.349, 988.387 1251.931, 1050 1210.465 C 1059.625 1203.987, 1067.881 1198.353, 1068.348 1197.946 C 1068.814 1197.538, 1066.169 1192.107, 1062.470 1185.876 C 1045.054 1156.535, 1016.297 1101.539, 1000.050 1066.500 C 937.874 932.409, 875.050 746.872, 822.369 541.757 C 818.591 527.048, 815.275 515.028, 815 515.047 C 814.725 515.065, 811.249 517.855, 807.274 521.246 M 755.270 569.250 C 688.121 635.665, 635.621 703.199, 583.272 790.500 C 537.794 866.344, 498.023 946.384, 465.935 1026.647 C 411.805 1162.046, 369.265 1319.906, 346.058 1471.500 C 326.645 1598.305, 318.045 1730.390, 320.964 1856.924 C 322.217 1911.244, 323.929 1946.185, 328.050 2001.500 C 329.689 2023.500, 331.920 2054.325, 333.009 2070 C 336.469 2119.848, 344.474 2186.954, 349.589 2209 C 350.009 2210.808, 351.672 2206.244, 355.604 2192.500 C 364.460 2161.542, 371.574 2141.160, 402.205 2059 C 419.762 2011.909, 449.047 1953.211, 476.296 1910.500 C 513.598 1852.028, 568.690 1790.440, 623.500 1745.935 C 628.450 1741.916, 635.704 1735.799, 639.619 1732.341 L 646.738 1726.055 644.877 1718.277 C 630.515 1658.250, 619.618 1579.817, 614.550 1500 C 609.456 1419.778, 609.254 1318.458, 614.016 1232.500 C 627.235 993.904, 676.796 778.186, 765.824 571.742 C 770.744 560.334, 774.533 551, 774.246 551 C 773.958 551, 765.419 559.212, 755.270 569.250 M 1866.500 605.788 C 1771.630 654.581, 1706.235 707.350, 1639.938 788.609 C 1631.759 798.634, 1622.487 808.937, 1619.334 811.506 C 1611.758 817.677, 1602.082 822.447, 1590.749 825.597 C 1585.662 827.011, 1580.440 828.484, 1579.144 828.870 C 1577.014 829.503, 1578.215 830.776, 1591.644 842.114 C 1661.125 900.778, 1769.703 1005.431, 1853 1094.022 C 1895.159 1138.861, 1958.114 1209.131, 1988.272 1245.012 L 1992.045 1249.500 1994.551 1246.500 C 1995.930 1244.850, 2001.971 1233.825, 2007.976 1222 C 2032.282 1174.139, 2058.247 1136.632, 2100.269 1088.678 C 2174.919 1003.490, 2258.415 933.993, 2372 862.506 C 2384.925 854.371, 2400.900 844.090, 2407.500 839.658 C 2419.780 831.413, 2436 816.595, 2436 813.623 C 2436 810.874, 2393.475 780.720, 2361.500 760.795 C 2266.516 701.606, 2127.167 643.937, 2008.135 614.555 C 1974.996 606.375, 1916.403 595.183, 1898 593.518 L 1891.500 592.930 1866.500 605.788 M 1541 836.560 C 1471.168 853.085, 1419.808 873.941, 1360.500 909.854 C 1322.830 932.664, 1277.890 965.986, 1253.758 989 L 1247.990 994.500 1258.180 1007 C 1279.453 1033.098, 1302.707 1063.240, 1368.501 1150 C 1461.915 1273.181, 1543.299 1379.532, 1638.464 1502.783 C 1650.475 1518.339, 1660.612 1530.939, 1660.991 1530.783 C 1661.369 1530.627, 1667.292 1523.750, 1674.153 1515.500 C 1721.916 1458.067, 1785.023 1399.055, 1854.500 1346.855 C 1885.842 1323.307, 1908.674 1307.637, 1946.500 1283.715 C 1969.897 1268.918, 1983.318 1259.412, 1982.810 1257.998 C 1982.385 1256.816, 1951.838 1221.617, 1925.967 1192.500 C 1874.011 1134.024, 1836.206 1094.092, 1772.058 1029.930 C 1693.054 950.909, 1632.011 893.689, 1576.500 846.619 C 1565.059 836.918, 1559.788 833.062, 1558 833.090 C 1556.625 833.111, 1548.975 834.673, 1541 836.560 M 1224.616 1017.250 C 1210.072 1032.566, 1187.996 1058.581, 1188.006 1060.393 C 1188.009 1061.002, 1194.393 1069.600, 1202.194 1079.500 C 1209.994 1089.400, 1240.900 1129, 1270.874 1167.500 C 1361.241 1283.573, 1427.912 1367.645, 1530.191 1494.500 C 1540.834 1507.700, 1587.985 1566.200, 1634.970 1624.500 C 1741.151 1756.251, 1784.389 1809.843, 1835.466 1873.009 C 1905.895 1960.108, 2069.361 2165.272, 2162.130 2283 C 2270.160 2420.096, 2466.121 2673.550, 2537.887 2769 C 2556.702 2794.025, 2572.656 2814.889, 2573.341 2815.364 C 2574.179 2815.946, 2579.959 2812.335, 2591.043 2804.305 C 2600.094 2797.748, 2611.887 2789.338, 2617.250 2785.617 C 2622.613 2781.895, 2627 2778.642, 2627 2778.387 C 2627 2778.133, 2605.939 2751.504, 2580.198 2719.212 C 2494.851 2612.148, 2458.085 2565.810, 2403.962 2497.094 C 2387.758 2476.521, 2353.162 2432.646, 2327.082 2399.594 C 2248.642 2300.184, 2219.980 2263.795, 2162.384 2190.500 C 2095.915 2105.912, 2061.315 2062.192, 1892.906 1850 C 1801.546 1734.887, 1739.457 1655.452, 1613.845 1492.972 C 1517.664 1368.560, 1453.390 1284.608, 1349.351 1147.500 C 1313.042 1099.650, 1275.555 1050.375, 1266.047 1038 C 1256.538 1025.625, 1246.676 1012.706, 1244.129 1009.291 C 1241.583 1005.876, 1239.196 1003.064, 1238.824 1003.041 C 1238.452 1003.018, 1232.059 1009.413, 1224.616 1017.250 M 1172.973 1079.468 C 1162.552 1093.515, 1137.397 1131.071, 1121.041 1157 C 1097.222 1194.760, 1094.780 1197.384, 1064.294 1217.993 C 1038.502 1235.428, 1022.832 1246.806, 1004.900 1261.117 C 938.065 1314.456, 879.014 1375.290, 824.695 1446.761 C 822.985 1449.011, 824.684 1481.449, 829.028 1529.500 C 842.521 1678.738, 874.076 1821.067, 922.697 1952 C 934.254 1983.121, 954.258 2031.636, 961.160 2045.281 L 963.072 2049.061 968.786 2044.641 C 975.074 2039.775, 982.169 2032.520, 1004.129 2008.500 C 1082.476 1922.803, 1206.478 1830.858, 1321.220 1773.386 C 1368.983 1749.462, 1425.801 1725.285, 1486.500 1703.055 C 1500.250 1698.019, 1518.250 1691.417, 1526.500 1688.383 C 1549.584 1679.894, 1564.634 1672.210, 1572.394 1664.951 C 1575.966 1661.609, 1580.474 1656.486, 1582.413 1653.565 C 1589.071 1643.534, 1606.114 1610.994, 1605.368 1609.735 C 1604.608 1608.453, 1602.431 1605.745, 1525.989 1511 C 1370.302 1318.036, 1291.976 1218.524, 1211.283 1111.172 C 1194.468 1088.802, 1180.582 1070.344, 1180.425 1070.153 C 1180.268 1069.962, 1176.915 1074.154, 1172.973 1079.468 M 797.861 1483.580 C 752.979 1547.214, 722.117 1602.486, 689.022 1678.500 C 682.318 1693.900, 674.732 1710.518, 672.166 1715.429 C 666.386 1726.489, 657.025 1736.651, 638.775 1751.675 C 605.091 1779.405, 584.752 1798.468, 561.606 1824 C 520.731 1869.089, 491.212 1910.186, 463.562 1960.500 C 451.560 1982.340, 429.768 2026.876, 422.555 2044.307 C 396.056 2108.342, 367.171 2190.543, 360.553 2220.750 L 359.841 2224 367.671 2219.179 C 377.656 2213.030, 408.787 2196.918, 425 2189.507 C 443.429 2181.084, 458.066 2175.142, 491.500 2162.513 C 596.252 2122.943, 693.488 2093.357, 779 2075.035 C 822.911 2065.626, 851.663 2062.140, 903 2059.998 C 916.475 2059.436, 931.100 2058.506, 935.500 2057.932 C 943.404 2056.901, 951 2055.254, 951 2054.572 C 951 2054.378, 948.026 2047.758, 944.391 2039.860 C 919.644 1986.089, 892.775 1912.697, 874.516 1849 C 841.353 1733.311, 821.158 1617.359, 812.512 1493 C 811.652 1480.625, 810.847 1469.411, 810.724 1468.080 C 810.548 1466.177, 807.805 1469.482, 797.861 1483.580" stroke="none" fill="#040404" fill-rule="evenodd"/></svg>