<svg xmlns="http://www.w3.org/2000/svg" width="3000" height="3000" viewBox="0 0 3000 3000" version="1.1"><path d="" stroke="none" fill="#080404" fill-rule="evenodd"/><path d="M 1259.217 90.053 C 1251.807 91.530, 1243.039 96.640, 1225.500 109.702 C 1176.907 145.890, 1113.367 191.758, 1081.490 213.658 C 1072.684 219.708, 1018.459 255.944, 960.990 294.182 C 903.520 332.420, 845.475 371.269, 832 380.512 C 744.250 440.703, 610.963 535.937, 511.500 609.510 C 411.269 683.652, 317.727 751.908, 279 779.161 C 232.902 811.602, 137.906 875.531, 99.579 899.904 C 87.699 907.458, 87.554 907.843, 88.433 929.427 C 89.609 958.347, 95.707 1000.184, 100.966 1015.420 C 103.634 1023.150, 107.209 1029.157, 111.080 1032.414 C 113.834 1034.732, 114.308 1035.918, 115.135 1042.580 C 116.815 1056.115, 123.361 1073.274, 131.317 1085 C 135.755 1091.541, 147.494 1103.429, 155.050 1109.034 C 163.962 1115.645, 178.453 1122.457, 190.500 1125.698 C 199.692 1128.172, 202.075 1128.393, 220 1128.444 C 236.876 1128.493, 240.892 1128.188, 249.844 1126.184 C 276.843 1120.138, 305.444 1106.267, 332.270 1086.209 C 346.730 1075.397, 346.473 1075.526, 350.953 1076.868 C 353.077 1077.504, 360.593 1082.131, 367.657 1087.150 C 424.701 1127.685, 471.199 1149.803, 532.394 1165.513 C 601.371 1183.219, 673.856 1187.349, 750 1177.910 C 856.524 1164.705, 958.968 1128.716, 1036 1077.437 C 1079.522 1048.465, 1120.598 1007.263, 1141.363 971.750 C 1145.559 964.574, 1146.914 963, 1148.897 963 C 1150.226 963, 1163.281 967.027, 1177.907 971.948 C 1234.789 991.087, 1274.236 999.358, 1338 1005.513 C 1382.970 1009.854, 1447.549 1009.221, 1493.979 1003.984 C 1503.043 1002.961, 1510.621 1002.288, 1510.820 1002.487 C 1511.349 1003.015, 1509.548 996.923, 1591.649 1276 C 1604.755 1320.549, 1652.093 1479.652, 1691.174 1610.500 C 1716.170 1694.191, 1744.473 1790.040, 1746.136 1796.633 L 1747.178 1800.765 1652.904 1932.633 C 1601.052 2005.160, 1548.081 2079.250, 1535.190 2097.278 C 1517.726 2121.702, 1511.338 2129.929, 1510.126 2129.557 C 1509.232 2129.283, 1491.850 2124.132, 1471.500 2118.111 C 1431.103 2106.160, 1346.040 2080.780, 1320.319 2073.005 C 1291.146 2064.186, 1285.442 2064.180, 1276.045 2072.958 L 1272.740 2076.045 1264.698 2072.944 C 1255.009 2069.207, 1205.746 2055, 1202.479 2055 C 1195.233 2055, 1194.970 2055.682, 1187.472 2093.946 C 1183.404 2114.707, 1183.526 2116.068, 1189.682 2118.640 C 1191.704 2119.485, 1209.058 2124.868, 1228.245 2130.601 C 1247.432 2136.335, 1264.789 2141.871, 1266.815 2142.904 C 1271.572 2145.328, 1295.895 2153.093, 1408 2187.977 C 1434.675 2196.278, 1457.053 2203.261, 1457.729 2203.495 C 1458.457 2203.747, 1430.881 2243.231, 1390.181 2300.211 C 1352.353 2353.170, 1302.563 2423.050, 1279.536 2455.500 C 1256.509 2487.950, 1231.915 2522.375, 1224.882 2532 C 1194.159 2574.049, 1134.580 2657.718, 1133.735 2660 C 1132.950 2662.123, 1134.468 2665.891, 1143.814 2685.006 C 1149.866 2697.384, 1155.930 2708.712, 1157.289 2710.178 C 1162.044 2715.308, 1179.220 2722.556, 1184.344 2721.595 C 1187.405 2721.021, 1188.801 2719.293, 1199.981 2702.232 C 1214.313 2680.363, 1245.979 2633.754, 1249.247 2629.718 L 1251.500 2626.936 1260 2630.085 C 1264.675 2631.816, 1284.700 2638.764, 1304.500 2645.524 C 1341.375 2658.114, 1362.541 2665.602, 1409 2682.493 C 1431.760 2690.768, 1476.618 2706.750, 1524.500 2723.644 C 1538.105 2728.444, 1575.431 2742.312, 1624.500 2760.797 C 1640.450 2766.806, 1673.394 2778.593, 1697.709 2786.990 L 1741.918 2802.258 1735.587 2811.379 C 1717.814 2836.983, 1715.142 2841.211, 1715.713 2842.826 C 1716.039 2843.747, 1718.206 2847.425, 1720.528 2851 C 1722.851 2854.575, 1725.537 2859.075, 1726.498 2861 C 1727.458 2862.925, 1731.567 2870.167, 1735.628 2877.093 C 1743.971 2891.325, 1743.677 2891.121, 1758.588 2893.011 C 1764.770 2893.795, 1766.780 2893.716, 1768.428 2892.627 C 1773.141 2889.511, 1876.597 2746.632, 2065.757 2482 C 2085.218 2454.775, 2101.484 2432.375, 2101.905 2432.222 C 2102.326 2432.068, 2147.070 2446.773, 2201.335 2464.900 C 2255.896 2483.124, 2302.570 2498.180, 2305.750 2498.581 C 2313.320 2499.535, 2332.555 2497.521, 2335.728 2495.442 C 2338.986 2493.308, 2340.635 2488.977, 2341.484 2480.322 L 2342.189 2473.144 2362.844 2480.165 C 2382.177 2486.736, 2465.778 2515.260, 2613.500 2565.687 C 2648.150 2577.515, 2695.625 2593.713, 2719 2601.681 C 2742.375 2609.650, 2783.100 2623.553, 2809.500 2632.578 C 2835.900 2641.602, 2857.920 2649.101, 2858.433 2649.243 C 2860.947 2649.936, 2861.852 2643.332, 2862.917 2616.500 C 2863.529 2601.100, 2864.254 2586.430, 2864.529 2583.900 L 2865.029 2579.300 2857.765 2576.562 C 2853.769 2575.056, 2832.738 2567.767, 2811.029 2560.364 C 2789.321 2552.961, 2771.261 2546.423, 2770.898 2545.835 C 2770.534 2545.246, 2768.770 2539.530, 2766.977 2533.132 C 2749.340 2470.187, 2727.064 2396.957, 2687.998 2273.500 C 2659.248 2182.641, 2617.038 2048.699, 2598.658 1990 C 2592.889 1971.575, 2579.362 1927.700, 2568.598 1892.500 C 2557.835 1857.300, 2547.961 1825.107, 2546.656 1820.960 L 2544.284 1813.419 2557.920 1794.460 C 2572.021 1774.853, 2575.542 1769.937, 2680.009 1624 C 2844.657 1393.992, 2872.773 1354.745, 2878.683 1346.675 C 2882.904 1340.910, 2882.930 1340.823, 2881.228 1338.175 C 2877.889 1332.983, 2867.584 1319.402, 2860.918 1311.410 L 2854.170 1303.321 2843.835 1301.713 C 2826.218 1298.973, 2816.004 1297.659, 2815.655 1298.088 C 2815.471 1298.315, 2806.397 1311.029, 2795.492 1326.341 C 2777.086 1352.188, 2775.480 1354.147, 2773.082 1353.679 C 2771.662 1353.402, 2752.050 1350.181, 2729.500 1346.522 C 2587.387 1323.462, 2513.788 1311.012, 2445 1298.397 C 2419.425 1293.707, 2386.125 1287.641, 2371 1284.919 C 2334.102 1278.277, 2236.438 1262, 2233.480 1262 C 2232.181 1262, 2230.838 1261.547, 2230.496 1260.993 C 2229.912 1260.049, 2238.296 1247.586, 2245.696 1238.397 C 2249.152 1234.105, 2249.862 1230.453, 2247.750 1227.831 C 2246.069 1225.744, 2227.617 1211.972, 2221.442 1208.195 C 2213.271 1203.197, 2206.288 1201.720, 2190.283 1201.604 C 2176.363 1201.502, 2176.016 1201.552, 2173.664 1204 C 2172.342 1205.375, 2100.065 1306.287, 2013.048 1428.250 C 1926.030 1550.212, 1854.459 1650, 1854 1650 C 1853.541 1650, 1852.397 1647.987, 1851.457 1645.528 C 1849.565 1640.571, 1849.851 1640.722, 1838.140 1638.550 C 1822.174 1635.590, 1822.544 1635.407, 1799.608 1657.609 C 1784.711 1672.030, 1784 1672.896, 1784.010 1676.609 C 1784.015 1678.749, 1785.130 1682.885, 1786.487 1685.800 C 1789.573 1692.429, 1801 1722.549, 1801 1724.055 C 1801 1725.390, 1788.941 1743, 1788.027 1743 C 1787.065 1743, 1738.319 1581.282, 1646.508 1273.500 C 1612.609 1159.859, 1567.421 1004.190, 1565.320 993.819 C 1564.820 991.348, 1565.121 991.050, 1569.139 990.037 C 1599.028 982.500, 1648.521 966.772, 1678.062 955.423 C 1718.676 939.821, 1767.586 916.874, 1800 898.213 C 1856.520 865.676, 1910.371 824.445, 1957.012 778 C 1974.290 760.794, 1981.135 753.343, 2007.168 723.404 C 2015.786 713.494, 2024.663 704.120, 2026.896 702.572 C 2033.447 698.032, 2036.863 698.209, 2061.500 704.360 C 2111.472 716.837, 2146.357 721.623, 2195 722.675 C 2270.413 724.306, 2342.491 712.076, 2405 687.041 C 2507.310 646.067, 2579.241 563.614, 2610.482 451.500 C 2615.162 434.702, 2616.774 426.695, 2618.894 409.714 C 2619.909 401.582, 2621.019 394.647, 2621.362 394.305 C 2621.705 393.962, 2624.576 396.132, 2627.743 399.128 C 2644.009 414.515, 2665.654 426.675, 2682.755 430.034 C 2707.089 434.813, 2727.332 421.661, 2733.598 397 C 2736.049 387.355, 2735.053 364.932, 2731.590 351.781 C 2724.955 326.589, 2716.527 310.475, 2681.492 256 C 2668.186 235.311, 2665.913 230.825, 2658.601 210.826 C 2656.326 204.602, 2651.921 198.680, 2646.818 194.983 C 2637.710 188.385, 2603.308 180.299, 2557.500 173.989 C 2549.250 172.852, 2532.375 170.373, 2520 168.479 C 2455.534 158.611, 2364.498 148.617, 2279 142.020 C 2264.425 140.895, 2224.825 137.739, 2191 135.007 C 2109.404 128.415, 2051.215 124.537, 1981 121.010 C 1906.264 117.256, 1902.441 117.086, 1801.500 113.021 C 1787.750 112.468, 1763 111.556, 1746.500 110.994 C 1642.837 107.467, 1564.452 104.472, 1485.500 101.023 C 1436 98.861, 1389.200 96.827, 1381.500 96.504 C 1354.118 95.354, 1312.218 92.969, 1293.500 91.495 C 1283.050 90.672, 1272.025 89.819, 1269 89.599 C 1265.975 89.379, 1261.573 89.583, 1259.217 90.053 M 1253.500 102.290 C 1249.650 104.189, 1235.025 114.259, 1221 124.669 C 1133.583 189.549, 1095.570 216.138, 978.500 294.287 C 871.183 365.927, 827.543 395.675, 762 441.869 C 703.889 482.825, 593.354 562.445, 551.290 593.646 C 381.073 719.905, 300.809 778.006, 235.250 822.416 C 220.813 832.196, 209 840.376, 209 840.594 C 209 840.811, 214.512 838.046, 221.250 834.450 C 251.819 818.130, 332.868 778.123, 370 761.023 C 376.875 757.857, 393.300 750.198, 406.500 744.004 C 471.995 713.268, 568.172 673.367, 707 619.337 C 768.395 595.442, 960.858 524.607, 1028.500 501.010 C 1292.403 408.946, 1581.122 327.817, 1827.500 276.495 C 2031.234 234.057, 2236.024 208.391, 2437.500 200.048 C 2451.250 199.478, 2467.225 198.789, 2473 198.515 C 2499.541 197.258, 2541.374 196.500, 2584.167 196.500 C 2609.834 196.500, 2630.759 196.432, 2630.667 196.350 C 2630.260 195.983, 2596.437 188.879, 2586.500 187.074 C 2557.332 181.775, 2468.731 170.099, 2408 163.551 C 2363.786 158.784, 2331.487 155.830, 2265.500 150.519 C 2234.700 148.041, 2193.652 144.666, 2174.281 143.021 C 2080.471 135.053, 1974.264 128.841, 1849.500 124.026 C 1781.990 121.421, 1739.683 119.896, 1696 118.494 C 1629.471 116.358, 1550.173 113.332, 1499 110.976 C 1475.075 109.874, 1434.800 108.085, 1409.500 106.998 C 1337.909 103.925, 1319.870 102.999, 1300.500 101.402 C 1290.600 100.586, 1277.550 99.675, 1271.500 99.378 C 1260.506 98.838, 1260.496 98.840, 1253.500 102.290 M 2533 205.951 C 2526.125 206.305, 2521.031 206.686, 2521.679 206.797 C 2522.328 206.909, 2523.599 209.588, 2524.505 212.750 C 2526.491 219.683, 2535.989 238.100, 2543.665 249.904 C 2552.216 263.054, 2560.656 273.424, 2572.635 285.500 C 2586.716 299.694, 2598.274 308.888, 2608.399 313.947 C 2639.551 329.515, 2658.289 319.001, 2662.118 283.805 C 2664.497 261.930, 2656.283 215.600, 2648.500 207 C 2647.329 205.707, 2640.141 205.487, 2596.321 205.403 C 2568.369 205.350, 2539.875 205.596, 2533 205.951 M 2507 206.661 C 2503.425 206.813, 2486.775 207.421, 2470 208.011 C 2440.964 209.034, 2390.931 211.420, 2377 212.446 C 2373.425 212.710, 2366.225 213.172, 2361 213.474 C 2268.671 218.806, 2133.338 233.787, 2026 250.558 C 1805.485 285.012, 1528.766 351.831, 1259.500 435.646 C 1133.298 474.930, 1038.058 507.356, 906.500 555.833 C 731.405 620.353, 726.679 622.157, 599 673.221 C 524.640 702.961, 468.347 726.785, 410.500 752.998 C 389.600 762.468, 355.625 777.856, 335 787.193 C 299.781 803.136, 270.786 817.446, 228.500 839.754 C 163.601 873.992, 127.496 893.658, 114 902.119 L 98.500 911.837 98.743 925.668 C 99.102 946.085, 103.827 985.708, 108.070 1003.887 C 114.149 1029.932, 123.877 1033.872, 139.619 1016.665 C 153.486 1001.506, 163.981 976.975, 170.490 944.500 C 174.821 922.897, 178 897.015, 178 883.362 C 178 874.292, 179.764 869.527, 183.465 868.598 C 185.202 868.162, 189.903 868.989, 196.823 870.947 C 220.224 877.568, 241.808 880.635, 274 881.913 C 298.287 882.877, 312.034 882.449, 337.500 879.937 C 386.930 875.060, 438.774 864.351, 506.500 845.027 C 615.794 813.843, 680.247 782.118, 747.536 726.381 C 762.600 713.904, 796.676 680.197, 809.591 665 C 820.488 652.177, 841.367 624.379, 854.281 605.500 C 872.655 578.641, 870.967 579.959, 883.226 582.896 C 887.777 583.987, 899.375 587.414, 909 590.512 C 942.759 601.380, 972.540 608.848, 1008.500 615.464 C 1081.933 628.974, 1159.418 630.412, 1248.500 619.920 C 1382.447 604.143, 1473.282 575.262, 1585.337 512.820 C 1639.535 482.619, 1684.655 453.354, 1723.137 423.443 C 1769.230 387.616, 1804.821 348.784, 1824.967 312.341 C 1827.686 307.422, 1830.596 306.500, 1835.352 309.049 C 1853.086 318.554, 1914.401 331.693, 1986.500 341.440 C 2044.725 349.311, 2079.259 352.414, 2128.224 354.175 C 2207.592 357.029, 2268.919 348.744, 2334.423 326.320 C 2409.933 300.471, 2468.091 264.654, 2503.926 221.930 C 2509.661 215.094, 2515.018 208.713, 2515.831 207.750 C 2517.162 206.176, 2517.119 206.019, 2515.405 206.193 C 2514.357 206.299, 2510.575 206.510, 2507 206.661 M 2512 225.287 C 2504.102 235.550, 2484.298 255.147, 2471.500 265.362 C 2415.121 310.361, 2326.301 346.352, 2241.808 358.436 C 2213.701 362.455, 2204.427 363.091, 2165.129 363.695 L 2127.757 364.270 2112.629 373.956 C 2104.308 379.284, 2075 397.292, 2047.500 413.975 C 1949.527 473.410, 1868.677 523.511, 1749 598.948 C 1688.734 636.936, 1674.084 646.422, 1686 639.744 C 1708.116 627.349, 1793.661 583.244, 1798 582 C 1801.815 580.906, 1804.443 581.849, 1808.750 585.860 C 1812.967 589.788, 1812.984 592.995, 1808.806 596.510 C 1807.049 597.989, 1787.586 608.075, 1765.556 618.925 C 1725.977 638.417, 1716.722 643.197, 1655 676.014 C 1616.740 696.357, 1518.840 749.784, 1517.627 750.983 C 1517.132 751.473, 1518.075 756.091, 1519.812 761.673 C 1525.781 780.856, 1526.373 783.677, 1526.106 791.673 C 1525.944 796.510, 1521.839 800.644, 1515.188 802.667 C 1512.059 803.618, 1509.352 804.493, 1509.171 804.610 C 1508.529 805.028, 1520.087 840, 1520.867 840 C 1522.199 840, 1575.948 824.634, 1609.823 814.568 C 1733.226 777.900, 1919.834 717.066, 2023.500 679.709 C 2115.668 646.496, 2235.712 596.978, 2324 555.754 C 2436.288 503.324, 2523.783 452.447, 2569.061 413.256 C 2594.847 390.935, 2610.665 371.126, 2625.758 342.250 L 2632.161 330 2629.475 330 C 2620.548 330, 2601.284 321.708, 2589.501 312.795 C 2579.985 305.595, 2561.316 287.448, 2552.165 276.500 C 2548.027 271.550, 2541.565 262.834, 2537.805 257.131 C 2531.668 247.822, 2521.023 227.826, 2518.475 220.820 C 2517.503 218.146, 2517.485 218.158, 2512 225.287 M 2669.334 250 C 2671.001 257.788, 2672.184 274.579, 2671.626 282.515 C 2669.849 307.800, 2659.607 324.648, 2643.422 328.911 C 2639.408 329.968, 2639.284 330.138, 2635.550 339.742 C 2626.268 363.619, 2614.998 381.083, 2595.501 401.807 C 2546.070 454.345, 2421.665 525.242, 2246.500 600.696 C 2179.805 629.426, 2100.016 661.381, 2043.876 681.845 C 1916.026 728.449, 1689.529 801.451, 1550 841.025 C 1535.975 845.003, 1524.164 848.558, 1523.754 848.925 C 1523.344 849.291, 1526.330 860.596, 1530.390 874.046 C 1534.450 887.496, 1543.058 916.950, 1549.519 939.500 C 1555.979 962.050, 1561.415 980.672, 1561.598 980.882 C 1563.062 982.563, 1627.278 963.342, 1661.747 950.905 C 1764.331 913.892, 1845.440 866.212, 1923.354 797.120 C 1943.159 779.558, 1983.825 738.408, 1999.055 720.518 C 2014.147 702.792, 2019.144 697.461, 2024.375 693.503 C 2027.777 690.930, 2028.997 690.595, 2034.375 690.755 C 2037.835 690.859, 2050.071 693.304, 2062.500 696.376 C 2108.644 707.781, 2136.807 711.959, 2182 714.102 C 2273.972 718.464, 2371.621 698.182, 2440.215 660.469 C 2510.948 621.581, 2566.838 554.423, 2592.073 478 C 2599.962 454.107, 2604.677 436.586, 2609.026 415 C 2614.031 390.161, 2615.672 386, 2620.466 386 C 2621.717 386, 2626.586 389.389, 2632.061 394.073 C 2660.582 418.466, 2688.947 428.665, 2706.244 420.746 C 2716.026 416.268, 2723.496 406.675, 2726.039 395.326 C 2727.611 388.313, 2727.333 370.784, 2725.499 361.219 C 2721.819 342.027, 2712.737 321.814, 2693.418 289.821 C 2687.095 279.351, 2678.970 265.545, 2675.361 259.142 C 2671.752 252.739, 2669.040 248.625, 2669.334 250 M 1829.873 322.250 C 1822.650 336.412, 1801.222 364.264, 1782.624 383.665 C 1738.376 429.823, 1656.603 486.415, 1562.500 536.005 C 1555.900 539.483, 1550.370 542.422, 1550.211 542.536 C 1550.052 542.651, 1548.353 548.693, 1546.435 555.964 C 1541.872 573.261, 1524.334 629.785, 1513.535 661.998 C 1508.833 676.022, 1505.417 687.639, 1505.943 687.814 C 1510.728 689.409, 1515 697.581, 1515 705.139 C 1515 709.490, 1512.558 712.331, 1507.337 714.054 C 1503.493 715.322, 1503.538 715.206, 1505.461 718.925 L 1506.922 721.750 1519.711 708.765 C 1530.617 697.691, 1550.854 678.024, 1629 602.555 C 1644.838 587.259, 1673.835 559.719, 1717 518.975 C 1737.075 500.026, 1764.975 473.684, 1779 460.438 C 1816.709 424.822, 1842.913 400.746, 1877.529 369.915 C 1894.563 354.744, 1909.102 341.600, 1909.838 340.707 C 1911.373 338.843, 1912.898 339.363, 1894.500 335.481 C 1876.328 331.646, 1852.582 325.242, 1842.362 321.419 C 1837.336 319.538, 1832.957 318, 1832.632 318 C 1832.307 318, 1831.065 319.913, 1829.873 322.250 M 1906.108 351.362 C 1899.712 357.488, 1885.054 371.050, 1873.533 381.500 C 1826.199 424.435, 1779.667 468.059, 1689.015 554.483 C 1657.397 584.628, 1652.721 589.123, 1597.496 642.483 C 1552.248 686.203, 1546.908 691.311, 1528.500 708.485 C 1519.150 717.209, 1510.911 724.873, 1510.192 725.517 C 1508.562 726.975, 1509.680 732.231, 1511.527 731.800 C 1512.672 731.533, 1528.838 716.602, 1586.494 662.561 C 1595.847 653.794, 1619.938 630.844, 1640.029 611.561 C 1712.786 541.728, 1767.726 489.649, 1838.016 423.884 C 1854.955 408.036, 1891.477 375.155, 1912.687 356.658 C 1921.591 348.894, 1928.791 342.459, 1928.687 342.359 C 1928.584 342.259, 1926.078 341.737, 1923.118 341.201 L 1917.735 340.225 1906.108 351.362 M 1904.468 370.774 C 1888.501 386.024, 1857.001 415.823, 1834.468 436.995 C 1771.850 495.833, 1688.439 574.719, 1659.998 602 C 1603.633 656.065, 1581.462 676.826, 1555.463 699.884 C 1547.783 706.695, 1540.600 713.143, 1539.500 714.212 C 1538.400 715.282, 1547.850 709.200, 1560.500 700.699 C 1573.150 692.197, 1590.700 680.624, 1599.500 674.980 C 1677.294 625.093, 1702.294 609.207, 1737.500 587.293 C 1757.960 574.558, 1779.635 560.995, 1922.500 471.531 C 1960.450 447.766, 1997.800 424.280, 2005.500 419.339 C 2013.200 414.397, 2032.775 401.810, 2049 391.367 C 2065.225 380.923, 2082.096 370.156, 2086.491 367.439 L 2094.483 362.500 2085.491 361.812 C 2050.351 359.121, 2027.900 356.756, 1992 351.963 C 1972.888 349.411, 1944.901 345.191, 1936 343.519 C 1933.848 343.114, 1929.461 346.907, 1904.468 370.774 M 2069.798 384.914 C 2022.198 416.702, 2013.170 422.388, 1820.500 541.944 C 1722.710 602.624, 1695.527 619.654, 1651.500 647.821 C 1601.059 680.093, 1560 706.959, 1560 707.693 C 1560 707.952, 1561.463 707.278, 1563.250 706.195 C 1565.037 705.113, 1579.775 696.361, 1596 686.747 C 1637.959 661.885, 1675.173 638.888, 1758.500 586.326 C 1876.090 512.152, 1922.529 483.125, 1987.500 443.188 C 2021.972 421.998, 2094.455 377.986, 2105.500 371.537 C 2121.115 362.420, 2120.745 362.994, 2110.973 363.038 L 2102.500 363.075 2069.798 384.914 M 1539 548.338 L 1534.500 550.500 1527.264 575.500 C 1523.284 589.250, 1514.612 619.281, 1507.994 642.236 C 1501.376 665.191, 1495.563 685.019, 1495.077 686.299 C 1494.266 688.431, 1494.423 688.591, 1496.960 688.219 C 1499.601 687.832, 1499.922 687.143, 1503.982 673.156 C 1511.516 647.196, 1535.902 568.844, 1539.967 557.537 C 1542.134 551.507, 1543.816 546.485, 1543.704 546.375 C 1543.592 546.266, 1541.475 547.150, 1539 548.338 M 1519 557.663 C 1504.873 564.353, 1484.438 573.006, 1467.192 579.599 C 1455.525 584.060, 1451.992 585.814, 1452.334 586.976 C 1459.124 610.042, 1474.747 665.198, 1477.550 676 C 1479.619 683.975, 1481.579 690.803, 1481.906 691.173 C 1483.095 692.520, 1488.180 690.695, 1489.026 688.618 C 1489.501 687.453, 1493.735 672.264, 1498.436 654.865 C 1509.323 614.570, 1513.029 602.304, 1522.394 575.573 C 1526.577 563.633, 1530 553.670, 1530 553.432 C 1530 552.596, 1528.412 553.206, 1519 557.663 M 1771.500 600.608 C 1737.373 618.390, 1689.108 644.108, 1659.500 660.288 C 1647.400 666.900, 1628.725 676.809, 1618 682.307 C 1607.275 687.806, 1582.525 701.417, 1563 712.555 C 1543.475 723.693, 1517.150 738.229, 1504.500 744.858 C 1491.850 751.486, 1480.876 757.284, 1480.114 757.742 C 1478.955 758.438, 1479.017 759.141, 1480.491 762.037 C 1481.461 763.942, 1482.396 765.661, 1482.569 765.858 C 1482.742 766.056, 1488.197 762.865, 1494.692 758.768 C 1510.227 748.968, 1514.385 746.588, 1555 724.249 C 1635.446 680.003, 1709.375 640.906, 1762.714 614.399 C 1786.482 602.588, 1806.242 592.418, 1806.625 591.799 C 1807.374 590.586, 1802.670 585.994, 1800.694 586.010 C 1800.037 586.015, 1786.900 592.585, 1771.500 600.608 M 1432.500 591.914 C 1426.450 593.984, 1414.606 597.631, 1406.181 600.020 C 1393.774 603.538, 1390.964 604.661, 1391.398 605.932 C 1394.792 615.849, 1416.541 696.374, 1418.467 706.154 L 1418.990 708.807 1423.745 707.371 C 1426.360 706.580, 1438.816 703.245, 1451.424 699.959 C 1464.033 696.673, 1474.515 693.818, 1474.719 693.615 C 1474.922 693.411, 1472.436 684.752, 1469.193 674.373 C 1465.951 663.993, 1459.069 640.316, 1453.899 621.758 C 1448.730 603.200, 1444.275 588.046, 1444 588.084 C 1443.725 588.122, 1438.550 589.845, 1432.500 591.914 M 870.276 598.554 C 862.997 610.067, 849.200 629.617, 834.801 648.823 C 827.658 658.351, 821.968 666.276, 822.157 666.435 C 822.345 666.594, 832.400 668.153, 844.500 669.900 C 872.769 673.982, 921.992 682.097, 972.134 690.941 C 993.933 694.785, 1025.208 700.219, 1041.634 703.015 C 1094.001 711.929, 1127.076 717.806, 1185 728.490 C 1216.075 734.222, 1263.325 742.766, 1290 747.476 C 1329.507 754.452, 1369.478 761.864, 1405.987 768.984 C 1408.455 769.465, 1410.583 769.750, 1410.715 769.618 C 1410.848 769.486, 1404.561 764.905, 1396.745 759.439 C 1361.489 734.781, 1301.653 688.342, 1251.500 646.711 L 1233.500 631.770 1226.500 632.404 C 1209.397 633.953, 1171.549 636.040, 1150 636.623 C 1125.783 637.277, 1096.651 636.144, 1068 633.432 C 1022.446 629.120, 963.664 617.401, 922.500 604.423 C 888.192 593.608, 879.409 591, 877.287 591 C 875.593 591, 873.897 592.827, 870.276 598.554 M 1373.500 608.595 C 1352.532 614.060, 1308.151 622.121, 1274.142 626.641 L 1260.785 628.417 1263.255 630.458 C 1264.614 631.581, 1278.950 643.559, 1295.113 657.076 C 1336.160 691.404, 1392.758 736.351, 1393.818 735.464 C 1393.993 735.317, 1393.430 732.821, 1392.568 729.917 C 1391.706 727.013, 1391 723.784, 1391 722.742 C 1391 719.146, 1396.316 715.249, 1404.439 712.889 C 1413.298 710.315, 1412.911 712.028, 1408.142 696.500 C 1403.483 681.329, 1388.166 623.604, 1386.318 614.250 C 1385.421 609.712, 1384.195 606.056, 1383.594 606.124 C 1382.992 606.193, 1378.450 607.304, 1373.500 608.595 M 1246.711 630.003 C 1243.528 630.411, 1240.715 630.952, 1240.461 631.205 C 1240.207 631.459, 1252.860 641.754, 1268.578 654.084 C 1284.296 666.413, 1306.234 683.624, 1317.328 692.331 C 1328.423 701.037, 1345.375 714.065, 1355 721.280 C 1364.625 728.496, 1381.902 741.744, 1393.394 750.722 C 1404.886 759.700, 1414.427 766.906, 1414.597 766.736 C 1414.767 766.566, 1414.218 764.081, 1413.378 761.214 C 1411.851 756.005, 1411.833 755.989, 1395.675 745.031 C 1361.722 722.005, 1298.501 670.350, 1264.567 637.909 C 1259.441 633.009, 1254.629 629.059, 1253.874 629.131 C 1253.118 629.203, 1249.895 629.596, 1246.711 630.003 M 814.411 674.527 C 812.932 676.467, 811.896 678.182, 812.111 678.338 C 812.325 678.494, 825.100 680.322, 840.500 682.401 C 910.360 691.831, 993.922 705.466, 1136 730.617 C 1168.725 736.410, 1207.200 743.155, 1221.500 745.606 C 1289.810 757.313, 1307.195 760.386, 1329 764.604 C 1341.925 767.105, 1356.100 770.057, 1360.500 771.164 C 1366.291 772.621, 1375.128 773.514, 1392.500 774.398 C 1405.700 775.070, 1416.688 775.480, 1416.917 775.310 C 1417.951 774.541, 1415.613 774.092, 1402.500 772.543 C 1374.782 769.268, 1360.197 766.779, 1234.500 743.863 C 1204.250 738.348, 1173.650 732.743, 1166.500 731.408 C 1137.892 726.065, 1079.271 715.725, 1040 709.094 C 998.265 702.047, 937.578 691.517, 881 681.504 C 841.863 674.577, 820.634 671, 818.665 671 C 817.805 671, 815.891 672.587, 814.411 674.527 M 791 699.266 C 765.463 725.524, 734.599 750.952, 705 770.118 C 697.575 774.926, 690.676 779.454, 689.670 780.180 C 688.138 781.285, 690.505 781.394, 704.170 780.853 C 713.151 780.498, 738.950 780.154, 761.500 780.089 C 816.897 779.930, 1039.697 775.991, 1078 774.493 C 1122.860 772.739, 1172.775 771.987, 1249 771.915 C 1296.025 771.871, 1334.050 771.671, 1333.500 771.471 C 1332.950 771.270, 1309.325 767.235, 1281 762.503 C 1252.675 757.770, 1187.650 746.522, 1136.500 737.505 C 1011.359 715.446, 988.400 711.645, 861.500 691.977 C 832.900 687.545, 808.825 683.785, 808 683.623 C 807.146 683.455, 799.822 690.195, 791 699.266 M 1495.500 696.091 C 1493.850 696.596, 1473.031 701.954, 1449.236 707.997 C 1425.441 714.040, 1404.346 719.664, 1402.359 720.495 C 1398.828 721.970, 1398.761 722.101, 1399.416 726.203 C 1400.473 732.809, 1401.112 733.130, 1408.807 730.919 C 1432.490 724.116, 1486.758 710.038, 1493.009 709.076 C 1497.129 708.442, 1502.191 707.472, 1504.259 706.921 C 1507.693 706.005, 1507.961 705.684, 1507.368 703.209 C 1507.011 701.719, 1506.096 699.263, 1505.334 697.750 C 1503.839 694.783, 1501.216 694.340, 1495.500 696.091 M 1452.500 727.448 L 1415.500 736.818 1415.703 740.159 C 1416.011 745.229, 1436.617 813.137, 1438.156 814.154 C 1438.895 814.643, 1441.075 814.787, 1443 814.474 C 1449.647 813.395, 1513.507 794.866, 1515.877 793.329 C 1517.983 791.963, 1518.189 791.260, 1517.682 787.144 C 1517.154 782.848, 1510.614 760.073, 1509.104 757.267 C 1508.640 756.406, 1504.982 758.133, 1496.970 762.996 C 1490.661 766.824, 1484.398 770.079, 1483.051 770.228 C 1481.090 770.446, 1479.946 769.508, 1477.301 765.511 C 1473.778 760.187, 1473.243 757.379, 1475.250 754.737 C 1475.938 753.832, 1482.350 750.074, 1489.500 746.385 C 1496.650 742.696, 1502.701 739.511, 1502.946 739.309 C 1503.650 738.728, 1498.214 722.750, 1496.463 720.250 C 1495.473 718.838, 1493.884 718.015, 1492.193 718.039 C 1490.712 718.061, 1472.850 722.295, 1452.500 727.448 M 1401.690 739.855 C 1400.132 740.469, 1400.455 741.031, 1404.006 743.885 C 1406.276 745.708, 1408.357 746.977, 1408.631 746.703 C 1408.905 746.429, 1408.825 744.583, 1408.453 742.602 C 1407.752 738.864, 1406.003 738.153, 1401.690 739.855 M 1172 778.639 C 1159.625 778.785, 1131.500 779.383, 1109.500 779.968 C 1087.500 780.553, 1036.650 781.700, 996.500 782.518 C 956.350 783.336, 906.850 784.461, 886.500 785.019 C 866.150 785.576, 810.409 786.479, 762.631 787.025 L 675.762 788.018 669.631 791.568 L 663.500 795.117 686 794.566 C 710.253 793.972, 738.335 793.340, 779.500 792.461 C 793.800 792.156, 818.550 791.486, 834.500 790.972 C 936.873 787.676, 967.428 786.752, 1035.500 784.896 C 1169.166 781.252, 1355.446 781.142, 1410.308 784.676 L 1420.115 785.308 1419.417 782.404 C 1419.033 780.807, 1418.669 779.445, 1418.609 779.377 C 1418.343 779.077, 1192.177 778.400, 1172 778.639 M 1105 790.067 C 1022.642 791.839, 925.128 794.433, 900 795.519 C 839.460 798.136, 724.541 800.967, 677.985 800.988 L 652.470 801 636.029 808.608 C 598.979 825.755, 564.776 838.050, 511.498 853.377 C 446.128 872.182, 396.284 882.539, 341.500 888.701 C 319.395 891.187, 265.344 891.165, 243 888.662 C 223.191 886.442, 199.351 881.525, 188.838 877.492 C 187.594 877.014, 187.172 879.862, 186.152 895.611 C 184.438 922.107, 180.912 945.647, 175.908 964 C 174.252 970.074, 174.114 971.646, 175.182 972.266 C 175.907 972.688, 183.025 976.896, 191 981.619 C 228.684 1003.936, 262.416 1017.378, 311 1029.441 C 345.787 1038.078, 383.632 1043.768, 429 1047.183 C 451.779 1048.897, 532.577 1048.912, 555 1047.206 C 668.309 1038.584, 759.765 1024.280, 929.500 988.635 C 1021.682 969.276, 1143.640 940.718, 1222.500 920.024 C 1228.550 918.436, 1240.700 915.271, 1249.500 912.991 C 1307.771 897.888, 1465.971 855.447, 1466.501 854.774 C 1466.620 854.623, 1464.480 846.567, 1461.745 836.870 L 1456.774 819.241 1451.637 820.609 C 1448.812 821.361, 1443.978 821.982, 1440.896 821.988 C 1431.811 822.007, 1430.140 819.283, 1422.359 791.749 C 1421.966 790.358, 1421.108 790.103, 1418.182 790.510 C 1411.950 791.376, 1360.235 795.855, 1326 798.495 C 1244.773 804.757, 1209.811 806.969, 1207.938 805.967 C 1204.993 804.391, 1204 801.641, 1204 795.066 L 1204 789 1171.750 789.162 C 1154.013 789.251, 1123.975 789.658, 1105 790.067 M 1209 794.764 C 1209 798.935, 1209.420 800.947, 1210.367 801.311 C 1211.119 801.599, 1221.357 800.991, 1233.117 799.959 C 1270.006 796.722, 1345.257 790.998, 1350.917 790.999 C 1353.896 791, 1356.146 790.823, 1355.917 790.606 C 1355.687 790.389, 1322.537 789.881, 1282.250 789.477 L 1209 788.743 1209 794.764 M 1483 811.789 C 1472.275 814.838, 1463.434 817.370, 1463.353 817.416 C 1463.271 817.462, 1466.051 826.050, 1469.529 836.500 C 1477.511 860.482, 1523.995 1016.933, 1580.428 1209.746 C 1603.983 1290.227, 1654.587 1460.860, 1717.814 1673 C 1726.584 1702.425, 1737.932 1740.900, 1743.032 1758.500 C 1748.132 1776.100, 1752.580 1790.822, 1752.918 1791.216 C 1753.255 1791.610, 1759.849 1783.062, 1767.569 1772.221 L 1781.607 1752.511 1773.258 1725.005 C 1730.601 1584.476, 1615.858 1202.910, 1599.142 1146 C 1589.439 1112.968, 1552.234 984.262, 1531.499 912 C 1527.475 897.975, 1519.638 869.175, 1514.085 848 C 1508.532 826.825, 1503.654 808.768, 1503.244 807.873 C 1502.586 806.433, 1500.242 806.887, 1483 811.789 M 1440.500 871.134 C 1201.990 937.052, 1026.358 979.385, 842 1015.392 C 728.508 1037.558, 638.881 1050.078, 550 1056.182 C 525.908 1057.836, 451.626 1057.834, 430 1056.178 C 318.751 1047.659, 243.865 1026.280, 181.678 985.286 C 176.276 981.725, 171.739 978.966, 171.596 979.156 C 171.453 979.345, 170.285 982.200, 169 985.500 C 158.128 1013.423, 142.657 1032.305, 127.500 1036.148 C 124.750 1036.845, 122.362 1037.497, 122.194 1037.597 C 121.744 1037.864, 124.863 1049.572, 127.230 1056.500 C 137.628 1086.941, 163.229 1110.020, 195.726 1118.247 C 203.255 1120.154, 207.124 1120.465, 223 1120.441 C 239.363 1120.416, 242.770 1120.113, 252.500 1117.817 C 279.172 1111.523, 303.794 1099.382, 330.683 1079.265 C 336.834 1074.664, 343.321 1070.482, 345.098 1069.972 C 351.472 1068.144, 354.200 1069.509, 383.658 1089.268 C 396.221 1097.695, 411.675 1107.549, 418 1111.166 C 479.383 1146.273, 539.600 1164.671, 621 1173.192 C 640.295 1175.211, 709.060 1174.885, 729.500 1172.677 C 804.059 1164.624, 872.060 1147.710, 936 1121.314 C 970.526 1107.061, 1013.923 1083.769, 1039.744 1065.632 C 1079.151 1037.954, 1116.776 999.358, 1135.706 967.194 C 1144.079 952.967, 1146.040 952.679, 1171.756 961.906 C 1197.469 971.132, 1232.401 980.731, 1261 986.431 C 1315.674 997.327, 1386.209 1002.179, 1443.074 998.956 C 1463.544 997.795, 1506.115 993.312, 1507.144 992.208 C 1507.507 991.819, 1499.219 962.813, 1488.725 927.750 C 1471.317 869.586, 1469.464 864.010, 1467.573 864.112 C 1466.433 864.174, 1454.250 867.334, 1440.500 871.134 M 2175.426 1215.188 C 2172.635 1219.210, 2110.334 1306.425, 2036.978 1409 C 1876.656 1633.182, 1524.802 2125.846, 1522.424 2129.476 C 1521.492 2130.899, 1520.986 2132.319, 1521.300 2132.634 C 1522.293 2133.626, 1552.423 2125.820, 1554.152 2124.122 C 1555.060 2123.230, 1580.450 2087.850, 1610.573 2045.500 C 1640.696 2003.150, 1710.861 1904.600, 1766.494 1826.500 C 1822.127 1748.400, 1914.603 1618.575, 1971.995 1538 C 2029.387 1457.425, 2086.930 1376.650, 2099.869 1358.500 C 2133.545 1311.260, 2174.905 1253.796, 2192.241 1230.163 C 2200.446 1218.977, 2206.961 1209.628, 2206.720 1209.387 C 2206.479 1209.146, 2200.481 1208.707, 2193.391 1208.412 L 2180.500 1207.876 2175.426 1215.188 M 2211.755 1212.817 C 2210.967 1213.743, 2206.789 1219.675, 2202.470 1226 C 2179.978 1258.941, 2140.425 1314.919, 2016.996 1488.500 C 1883.032 1676.896, 1773.378 1831.085, 1737.508 1881.500 C 1718.725 1907.900, 1673.290 1971.800, 1636.542 2023.500 C 1599.794 2075.200, 1569.042 2118.290, 1568.203 2119.256 C 1567.365 2120.222, 1566.894 2121.228, 1567.157 2121.491 C 1567.587 2121.920, 1597.988 2113.874, 1607.204 2110.891 C 1610.516 2109.819, 1613.222 2106.456, 1632.784 2079.096 C 1903.087 1701.039, 1998.799 1567.232, 2118.315 1400.317 C 2146.742 1360.616, 2170 1327.929, 2170 1327.680 C 2170 1327.431, 2167.868 1326.907, 2165.263 1326.517 C 2159.657 1325.676, 2155.402 1323.651, 2154.173 1321.240 C 2152.522 1318, 2150.855 1306.815, 2151.476 1303.142 C 2151.970 1300.216, 2153.357 1298.437, 2158.456 1294.190 C 2161.955 1291.274, 2171.047 1281.921, 2178.659 1273.404 C 2186.492 1264.641, 2193.514 1257.663, 2194.837 1257.330 C 2196.935 1256.800, 2213.027 1258.439, 2217.142 1259.602 C 2218.337 1259.940, 2221.687 1255.984, 2229.463 1245.053 C 2235.336 1236.795, 2239.877 1229.610, 2239.553 1229.086 C 2238.761 1227.804, 2216.938 1212.471, 2214.844 1211.725 C 2213.907 1211.391, 2212.566 1211.865, 2211.755 1212.817 M 2196 1263.787 C 2196 1264.220, 2188.560 1272.297, 2179.466 1281.736 L 2162.932 1298.897 2166.216 1299.414 C 2172.333 1300.377, 2186.306 1302, 2188.484 1302 C 2190.099 1302, 2191.897 1300.026, 2195.544 1294.250 C 2198.235 1289.987, 2203.921 1281.905, 2208.179 1276.288 L 2215.922 1266.076 2212.711 1265.554 C 2210.945 1265.267, 2206.830 1264.575, 2203.566 1264.016 C 2196.431 1262.794, 2196 1262.781, 2196 1263.787 M 2212.370 1282.250 C 2197.727 1305.062, 2190.120 1318.190, 2180.188 1337.790 C 2163.491 1370.742, 2155.966 1390.200, 2130.025 1467.500 C 2084.608 1602.835, 2074.141 1631.615, 2050.193 1687 C 2020.339 1756.047, 2000.197 1794.496, 1970.817 1838.525 C 1931.468 1897.492, 1883.337 1950.225, 1823 2000.474 C 1782.895 2033.875, 1745.442 2058.764, 1699 2082.879 C 1689.375 2087.877, 1681.845 2091.974, 1682.267 2091.983 C 1682.688 2091.992, 1689.438 2089.462, 1697.267 2086.360 C 1780.856 2053.236, 1858.663 1999.257, 1923.412 1929.472 C 1969.168 1880.156, 2008.017 1821.816, 2039.445 1755.222 C 2059.504 1712.718, 2074.199 1675.804, 2109.993 1578 C 2142.106 1490.255, 2154.891 1459.085, 2176.444 1416 C 2201.294 1366.322, 2231.727 1320.375, 2264.868 1282.500 C 2268.237 1278.650, 2270.995 1275.247, 2270.997 1274.938 C 2270.999 1274.482, 2225.129 1266.901, 2222.830 1266.978 C 2222.461 1266.990, 2217.754 1273.862, 2212.370 1282.250 M 2269.376 1285.285 C 2231.922 1333.736, 2199.123 1385.877, 2177.714 1431 C 2158.782 1470.904, 2147.892 1498.038, 2117.513 1581 C 2076.381 1693.328, 2061.200 1730.647, 2036.820 1779.361 C 2012.191 1828.571, 1984.348 1871.415, 1950.621 1912 C 1936.546 1928.937, 1895.076 1970.920, 1876.801 1986.733 C 1815.715 2039.590, 1746.406 2079.440, 1671.753 2104.627 C 1631.187 2118.313, 1594.038 2127.969, 1560.500 2133.544 C 1539.823 2136.981, 1535.035 2138.001, 1539.583 2137.999 C 1543.487 2137.998, 1578.159 2133.842, 1598.500 2130.938 C 1654.130 2122.994, 1703.312 2109.634, 1750 2089.785 C 1818.388 2060.710, 1870.635 2026.512, 1928.819 1972.739 C 1966.681 1937.748, 1998.572 1900.191, 2026.249 1858 C 2066.386 1796.815, 2086.717 1752.674, 2131.491 1629.500 C 2165.547 1535.810, 2179.125 1502.231, 2201.442 1456.500 C 2233.043 1391.747, 2266.165 1345.102, 2312.164 1300.573 C 2321.580 1291.458, 2328.962 1284, 2328.568 1284 C 2328.174 1284, 2317.119 1282.200, 2304 1280 C 2290.881 1277.800, 2279.327 1276.016, 2278.324 1276.035 C 2277.228 1276.056, 2273.656 1279.749, 2269.376 1285.285 M 2318.419 1305.141 C 2282.457 1340.652, 2258.942 1370.045, 2235.662 1408.581 C 2204.976 1459.375, 2184.002 1506.824, 2144.638 1614.500 C 2141.019 1624.400, 2133.289 1645.550, 2127.460 1661.500 C 2091.719 1759.300, 2068.478 1808.183, 2030.268 1865.921 C 1996.226 1917.362, 1953.811 1964.194, 1903 2006.443 C 1825.853 2070.591, 1735.774 2113.111, 1634 2133.418 C 1614.310 2137.346, 1598.312 2139.355, 1572.471 2141.143 C 1555.820 2142.295, 1555.038 2142.438, 1559.005 2143.609 C 1565.167 2145.429, 1590.141 2143.393, 1635 2137.413 C 1685.313 2130.706, 1722.523 2122.734, 1758.851 2110.878 C 1820.963 2090.608, 1872.282 2064.695, 1918.657 2030.185 C 1993.731 1974.319, 2053.008 1904.528, 2106.606 1808.902 C 2135.568 1757.229, 2160.223 1701.392, 2193.991 1611 C 2229.095 1517.030, 2244.366 1480.285, 2268.067 1432.766 C 2295.864 1377.034, 2321.016 1336.735, 2356.258 1291.466 L 2358.015 1289.208 2351.258 1288.067 C 2347.541 1287.439, 2343.043 1286.668, 2341.262 1286.354 C 2338.160 1285.806, 2337.196 1286.599, 2318.419 1305.141 M 2359.247 1299.250 C 2324.256 1348.271, 2301.581 1385.308, 2278.414 1431.281 C 2253.727 1480.272, 2238.861 1515.299, 2210.203 1592 C 2172.232 1693.627, 2154.602 1735.806, 2130.582 1782.500 C 2089.953 1861.477, 2045.146 1924.862, 1993.035 1977.078 C 1931.582 2038.653, 1873.332 2077.123, 1795.561 2107.494 C 1776.735 2114.845, 1747.289 2124.609, 1731 2128.901 C 1690.054 2139.690, 1621.436 2150.710, 1593 2151.064 L 1586.500 2151.145 1600 2155.120 C 1613.225 2159.015, 1613.653 2159.073, 1621 2157.974 C 1647.662 2153.986, 1722.336 2141.345, 1742 2137.490 C 1830.632 2120.116, 1885.441 2099.460, 1940.500 2062.681 C 1980.053 2036.261, 2015.338 2003.571, 2052.641 1958.788 C 2099.601 1902.412, 2141.358 1836.608, 2179.009 1759.648 C 2199.927 1716.890, 2213.978 1683.009, 2245.010 1600.500 C 2274.629 1521.747, 2278.828 1511.026, 2292.915 1478.173 C 2322.372 1409.478, 2353.429 1357.101, 2395.302 1305.500 C 2398.872 1301.100, 2401.685 1297.383, 2401.553 1297.240 C 2401.173 1296.828, 2368.767 1291, 2366.856 1291 C 2365.844 1291, 2362.712 1294.397, 2359.247 1299.250 M 2397.466 1315.551 C 2365.420 1356.459, 2346.235 1386.128, 2324.431 1428.500 C 2303.040 1470.070, 2290.362 1500.754, 2249.079 1610.878 C 2213.168 1706.672, 2194.709 1749.766, 2167.982 1800.203 C 2108.506 1912.441, 2037.685 2002.256, 1966.500 2055.720 C 1926.750 2085.573, 1883.025 2108.215, 1835 2123.812 C 1780.163 2141.622, 1702.565 2156.768, 1633 2163.241 L 1629.500 2163.566 1633.682 2164.803 C 1637.950 2166.066, 1656.769 2164.155, 1725.500 2155.481 C 1802.438 2145.771, 1858.666 2131.745, 1912.365 2108.868 C 2001.053 2071.085, 2085.470 2001.310, 2155.992 1907.500 C 2200.298 1848.563, 2236.506 1781.745, 2270.331 1696.500 C 2281.228 1669.037, 2285.893 1656.364, 2307.327 1596 C 2339.552 1505.242, 2353.550 1470.584, 2379.420 1417.500 C 2398.713 1377.912, 2412.500 1353.539, 2433.561 1321.784 L 2444.647 1305.069 2439.574 1304.067 C 2426.723 1301.531, 2412.785 1299, 2411.665 1299 C 2410.987 1299, 2404.597 1306.448, 2397.466 1315.551 M 2159.200 1311.741 C 2159.562 1318.678, 2160.736 1319.481, 2172 1320.500 L 2179.500 1321.178 2182.778 1315.450 C 2184.581 1312.300, 2185.832 1309.499, 2185.558 1309.225 C 2185.084 1308.750, 2164.478 1306.105, 2160.700 1306.034 C 2159.138 1306.004, 2158.940 1306.758, 2159.200 1311.741 M 2819.810 1307.712 C 2818.947 1308.695, 2806.177 1326.375, 2791.432 1347 C 2776.687 1367.625, 2705.903 1466.625, 2634.135 1567 C 2562.366 1667.375, 2472.761 1792.700, 2435.012 1845.500 C 2366.447 1941.403, 2218.123 2148.626, 2137.612 2260.997 L 2094.984 2320.495 2102.025 2322.842 C 2105.898 2324.133, 2109.662 2324.960, 2110.391 2324.680 C 2111.119 2324.401, 2133.911 2293.421, 2161.039 2255.836 C 2214.694 2181.501, 2342.340 2004.749, 2418.725 1899.019 L 2466.755 1832.537 2465.384 1828.019 C 2464.630 1825.533, 2463.349 1821.337, 2462.537 1818.694 L 2461.062 1813.888 2465.281 1809.293 C 2467.601 1806.766, 2475.999 1798.905, 2483.941 1791.824 C 2495.013 1781.953, 2499.432 1778.643, 2502.881 1777.637 C 2507.878 1776.180, 2495.926 1792.212, 2618.910 1622 C 2638.581 1594.775, 2697.051 1513.879, 2748.844 1442.232 C 2800.636 1370.585, 2843.122 1311.451, 2843.256 1310.824 C 2843.407 1310.118, 2840.450 1309.228, 2835.500 1308.488 C 2831.100 1307.830, 2826.123 1306.984, 2824.439 1306.608 C 2822.146 1306.096, 2820.985 1306.372, 2819.810 1307.712 M 2451.651 1310.250 C 2450.304 1312.037, 2444.901 1320.098, 2439.644 1328.163 C 2394.365 1397.630, 2361.838 1466.504, 2324.017 1573 C 2288.587 1672.760, 2283.884 1685.595, 2272.702 1713.024 C 2256.791 1752.053, 2234.180 1799.805, 2218.260 1828 C 2166.270 1920.075, 2099.744 1997.524, 2023.500 2054.740 C 1965.268 2098.438, 1903.888 2127.148, 1827.500 2146.417 C 1789.491 2156.004, 1730.341 2165.225, 1685.857 2168.497 C 1663.738 2170.124, 1654.779 2171.056, 1656.500 2171.550 C 1657.050 2171.707, 1667.276 2174.807, 1679.224 2178.438 L 1700.947 2185.040 1756.224 2174.966 C 1830.078 2161.508, 1855.334 2156.059, 1894.500 2145.136 C 1979.476 2121.437, 2042.141 2089.277, 2098.500 2040.441 C 2113.853 2027.137, 2140.044 2000.777, 2152.591 1986 C 2192.116 1939.451, 2230.716 1879.551, 2263.767 1813.475 C 2289.648 1761.733, 2306.077 1721.500, 2345.019 1614.500 C 2391.404 1487.050, 2422.981 1421.859, 2480.480 1334.845 C 2487.855 1323.685, 2493.709 1314.376, 2493.491 1314.158 C 2493.063 1313.730, 2457.286 1307.037, 2455.301 1307.014 C 2454.641 1307.006, 2452.999 1308.463, 2451.651 1310.250 M 2811.013 1372.880 C 2765.132 1436.288, 2657.923 1584.487, 2604.393 1658.500 C 2586.094 1683.800, 2559.235 1720.925, 2544.704 1741 L 2518.286 1777.500 2524.393 1778.271 C 2532.177 1779.253, 2534.141 1781.463, 2537.708 1793.250 C 2539.165 1798.063, 2540.614 1801.978, 2540.928 1801.951 C 2541.243 1801.924, 2553.260 1785.386, 2567.633 1765.201 C 2591.014 1732.366, 2646.930 1654.190, 2710.829 1565 C 2774.882 1475.595, 2868.903 1344.078, 2870.416 1341.768 L 2872.140 1339.137 2862.785 1326.698 L 2853.430 1314.259 2811.013 1372.880 M 2490.265 1336.250 C 2425.987 1436.484, 2401.358 1488.042, 2348.505 1633 C 2313 1730.379, 2290.278 1784.391, 2263.735 1834.500 C 2221.639 1913.975, 2178.376 1975.577, 2132.015 2022.061 C 2100.925 2053.233, 2073.677 2074.685, 2037.500 2096.473 C 2022.904 2105.264, 1988.927 2122.201, 1971.500 2129.374 C 1927.259 2147.583, 1862.155 2165.372, 1793.500 2178.012 C 1779.617 2180.567, 1778.559 2180.885, 1785.500 2180.415 C 1797.686 2179.590, 1837.884 2175.133, 1852.500 2172.987 C 1899.155 2166.137, 1949.135 2153.103, 1988.500 2137.520 C 2004.869 2131.040, 2038.485 2114.627, 2053.304 2105.878 C 2126.248 2062.817, 2186.188 2001.627, 2252.530 1902.500 C 2280.175 1861.192, 2299.732 1827.240, 2321.361 1783 C 2344.606 1735.457, 2362.019 1692.412, 2404.492 1577.500 C 2427.346 1515.669, 2442.254 1480.009, 2461.572 1440.965 C 2479.424 1404.885, 2498.748 1371.104, 2520.643 1337.700 C 2526.339 1329.010, 2531 1321.540, 2531 1321.101 C 2531 1320.483, 2506.711 1315.898, 2503.876 1315.982 C 2503.532 1315.992, 2497.408 1325.112, 2490.265 1336.250 M 2534.932 1327.250 C 2509.867 1367.868, 2478.892 1424.217, 2462.953 1458.193 C 2444.667 1497.170, 2435.966 1519.013, 2397.694 1622 C 2344.115 1766.176, 2308.615 1837.724, 2246.115 1927.500 C 2176.751 2027.136, 2110.632 2088.074, 2028.500 2128.061 C 1994.228 2144.748, 1963.077 2156.129, 1925 2165.875 C 1881.476 2177.016, 1856.004 2181.162, 1789.500 2187.929 C 1773.550 2189.552, 1753.076 2191.663, 1744.002 2192.620 L 1727.504 2194.361 1733.002 2196.799 C 1746.370 2202.726, 1758.540 2206.648, 1762.500 2206.306 C 1764.700 2206.116, 1786.075 2204.385, 1810 2202.459 C 1897.157 2195.441, 1931.053 2189.836, 1982.883 2173.872 C 2042.333 2155.560, 2094.725 2129.065, 2141.989 2093.410 C 2227.065 2029.231, 2294.490 1945.776, 2348.734 1837.512 C 2366.668 1801.719, 2381.217 1767.277, 2401.964 1711.500 C 2444.947 1595.941, 2455.772 1568.597, 2478.770 1517.500 C 2493.727 1484.266, 2519.474 1433.800, 2542.797 1392 C 2550.543 1378.117, 2572.412 1340.512, 2576.739 1333.635 C 2578.076 1331.509, 2578.794 1329.432, 2578.335 1329.019 C 2577.610 1328.367, 2542.155 1322, 2539.249 1322 C 2538.656 1322, 2536.714 1324.362, 2534.932 1327.250 M 2565.500 1369.214 C 2495.458 1494.168, 2473.086 1543.355, 2418.004 1693.500 C 2391.407 1765.997, 2376.725 1801.528, 2357.260 1840.500 C 2303.743 1947.649, 2238.208 2029.596, 2152.500 2096.542 C 2138.632 2107.375, 2108.336 2127.533, 2092 2136.798 C 2038.590 2167.090, 1970.367 2190.606, 1905.948 2200.930 C 1876.965 2205.575, 1838.590 2209.353, 1809 2210.475 C 1800.475 2210.799, 1790.575 2211.358, 1787 2211.719 L 1780.500 2212.376 1791.500 2213.595 C 1851.754 2220.272, 1933.762 2216.540, 1990.894 2204.522 C 2059.897 2190.007, 2123.200 2161.775, 2182.500 2119.068 C 2285.788 2044.683, 2366.594 1941.162, 2414.774 1821.500 C 2416.988 1816, 2422.284 1802.500, 2426.542 1791.500 C 2430.800 1780.500, 2438.086 1762.050, 2442.733 1750.500 C 2452.034 1727.384, 2466.303 1689.543, 2491 1622.500 C 2518.487 1547.881, 2531.110 1517.349, 2551.568 1476 C 2570.321 1438.096, 2582.425 1416.712, 2602.720 1385.628 C 2614.152 1368.119, 2624.665 1353.569, 2632.283 1344.714 C 2635.021 1341.531, 2637.090 1338.799, 2636.880 1338.641 C 2636.671 1338.484, 2626.375 1336.660, 2614 1334.587 C 2601.625 1332.514, 2590.600 1330.627, 2589.500 1330.393 C 2587.787 1330.028, 2584.347 1335.592, 2565.500 1369.214 M 2633.856 1350.425 C 2605.100 1388.595, 2574.215 1440.462, 2551.637 1488.500 C 2532.795 1528.588, 2521.776 1556.157, 2491.564 1638.798 C 2482.576 1663.384, 2470.468 1696.325, 2464.657 1712 C 2458.846 1727.675, 2448.640 1755.575, 2441.977 1774 C 2424.263 1822.986, 2417.523 1839.560, 2403.342 1868.993 C 2398.706 1878.615, 2395.333 1886.040, 2395.845 1885.493 C 2396.358 1884.947, 2420.508 1851.276, 2449.511 1810.668 L 2502.245 1736.836 2513.670 1708.168 C 2527.334 1673.885, 2535.751 1651.680, 2552.019 1607 C 2576.551 1539.624, 2590.101 1506.900, 2611.021 1464.500 C 2635.616 1414.655, 2657.946 1379.126, 2679.791 1355.083 C 2686.548 1347.647, 2686.914 1347.020, 2684.791 1346.534 C 2683.531 1346.246, 2673.432 1344.511, 2662.350 1342.680 L 2642.200 1339.350 2633.856 1350.425 M 2686 1358.630 C 2660.622 1390.353, 2644.036 1416.221, 2623.891 1455.500 C 2600.315 1501.468, 2584.689 1539, 2554.118 1623.093 C 2541.342 1658.237, 2529.409 1689.012, 2522.590 1704.404 C 2521.151 1707.651, 2520.143 1710.476, 2520.348 1710.682 C 2520.554 1710.888, 2544.117 1678.306, 2572.709 1638.278 C 2628.074 1560.771, 2626.036 1564.023, 2630.522 1546 C 2633.893 1532.459, 2650.251 1474.978, 2654.143 1463 C 2666.876 1423.809, 2686.916 1389.965, 2714.398 1361.235 C 2718.746 1356.690, 2722.123 1352.821, 2721.902 1352.637 C 2721.681 1352.454, 2716.550 1351.517, 2710.500 1350.556 C 2704.450 1349.594, 2698.375 1348.627, 2697 1348.406 C 2694.847 1348.061, 2693.320 1349.480, 2686 1358.630 M 2726.613 1356.468 C 2725.723 1357.826, 2721.842 1362.509, 2717.989 1366.875 C 2708.441 1377.692, 2693.850 1397.275, 2694.759 1398.051 C 2695.167 1398.399, 2698.200 1399.258, 2701.500 1399.961 C 2704.800 1400.663, 2713.752 1403, 2721.392 1405.155 C 2729.033 1407.309, 2735.646 1408.943, 2736.087 1408.786 C 2736.528 1408.629, 2744.595 1397.700, 2754.014 1384.500 L 2771.138 1360.500 2751.819 1357.308 C 2741.194 1355.552, 2731.539 1354.090, 2730.365 1354.058 C 2729.154 1354.025, 2727.530 1355.068, 2726.613 1356.468 M 2075.342 1476.245 C 2028.052 1542.385, 1966.498 1628.450, 1938.556 1667.500 C 1910.613 1706.550, 1887.577 1738.950, 1887.364 1739.501 C 1887.151 1740.051, 1895.912 1764.351, 1906.833 1793.501 C 1917.754 1822.650, 1928.672 1852.006, 1931.095 1858.737 C 1933.518 1865.467, 1935.799 1870.979, 1936.165 1870.987 C 1937.008 1871.004, 1950.086 1853.222, 1961.187 1836.966 C 1986.464 1799.951, 2008.932 1759.164, 2029.749 1712.500 C 2058.079 1648.996, 2073.088 1610.301, 2098.015 1536.500 C 2103.402 1520.550, 2111.260 1497.375, 2115.477 1485 C 2119.694 1472.625, 2127.326 1450.125, 2132.437 1435 C 2143.806 1401.360, 2156.148 1368.416, 2160.625 1359.758 C 2161.462 1358.139, 2161.962 1356.629, 2161.736 1356.402 C 2161.509 1356.176, 2122.632 1410.105, 2075.342 1476.245 M 2811.685 1381.972 C 2804.966 1384.096, 2797.354 1392.617, 2796.920 1398.500 C 2796.153 1408.898, 2798.940 1414, 2805.387 1414 C 2810.281 1414, 2813.257 1412.665, 2818.104 1408.295 C 2828.771 1398.677, 2828.710 1382.808, 2818 1381.507 C 2816.075 1381.273, 2813.233 1381.482, 2811.685 1381.972 M 2810.970 1389.250 C 2803.678 1392.934, 2800.084 1400.551, 2803.035 1406.066 C 2805.672 1410.993, 2815.345 1405.851, 2819.135 1397.509 C 2821.384 1392.558, 2821.449 1390.592, 2819.429 1388.571 C 2817.350 1386.493, 2816.253 1386.581, 2810.970 1389.250 M 2686.827 1408.685 C 2685.422 1410.808, 2683.347 1414.360, 2682.215 1416.578 L 2680.158 1420.611 2701.101 1424.950 C 2712.620 1427.336, 2722.177 1429.111, 2722.338 1428.894 C 2722.499 1428.677, 2724.963 1425.246, 2727.813 1421.268 C 2732.773 1414.347, 2732.899 1414.015, 2730.748 1413.521 C 2729.511 1413.237, 2720.850 1411.411, 2711.500 1409.462 C 2702.150 1407.513, 2693.348 1405.673, 2691.940 1405.373 C 2689.803 1404.916, 2688.960 1405.463, 2686.827 1408.685 M 2671.496 1437.750 C 2666.120 1449.998, 2657.870 1474.899, 2649.049 1505.500 C 2645.719 1517.050, 2641.266 1531.814, 2639.153 1538.309 C 2637.039 1544.804, 2635.852 1549.529, 2636.514 1548.809 C 2637.176 1548.089, 2655.765 1522.192, 2677.823 1491.260 C 2713.803 1440.804, 2717.700 1434.968, 2715.714 1434.518 C 2712.089 1433.695, 2677.431 1427, 2676.798 1427 C 2676.477 1427, 2674.091 1431.838, 2671.496 1437.750 M 1811.166 1655.309 C 1804.750 1661.528, 1797.782 1668.190, 1795.682 1670.111 L 1791.865 1673.606 1799.412 1675.972 C 1805.265 1677.808, 1807.476 1678.104, 1809.258 1677.292 C 1810.522 1676.716, 1818.461 1669.565, 1826.900 1661.400 L 1842.243 1646.555 1835.872 1645.339 C 1823.505 1642.979, 1824.156 1642.716, 1811.166 1655.309 M 1832 1665.595 C 1824.025 1673.545, 1816.263 1680.811, 1814.750 1681.741 C 1813.237 1682.670, 1812 1683.866, 1812 1684.397 C 1812 1686.489, 1818.436 1700.958, 1819.052 1700.252 C 1819.413 1699.839, 1826.318 1690.154, 1834.396 1678.731 C 1848.184 1659.233, 1849.044 1657.749, 1848.430 1654.481 C 1848.071 1652.566, 1847.490 1651.032, 1847.139 1651.070 C 1846.787 1651.109, 1839.975 1657.645, 1832 1665.595 M 1793.771 1686.611 C 1795.389 1689.850, 1798.852 1698.008, 1801.469 1704.739 C 1804.085 1711.471, 1806.550 1716.778, 1806.946 1716.533 C 1807.343 1716.288, 1808.929 1714.267, 1810.471 1712.042 L 1813.274 1707.997 1809.921 1696.670 L 1806.567 1685.344 1801.034 1683.773 C 1797.990 1682.909, 1794.450 1681.869, 1793.166 1681.462 L 1790.831 1680.723 1793.771 1686.611 M 1865.830 1769.135 L 1850.160 1791.098 1852.938 1799.299 C 1857.897 1813.940, 1895.279 1918.485, 1895.739 1919 C 1895.985 1919.275, 1897.607 1917.864, 1899.343 1915.865 C 1913.826 1899.188, 1920.435 1891.431, 1925.761 1884.857 L 1931.953 1877.215 1927.935 1867.357 C 1922.391 1853.754, 1908.030 1816.549, 1893.857 1779.069 C 1887.320 1761.782, 1881.866 1747.533, 1881.736 1747.405 C 1881.606 1747.276, 1874.449 1757.055, 1865.830 1769.135 M 2486.231 1796.821 C 2476.434 1805.835, 2470.705 1811.784, 2471.388 1812.235 C 2472 1812.639, 2475.532 1812.976, 2479.238 1812.985 L 2485.976 1813 2499.816 1801.750 C 2507.427 1795.563, 2515.420 1789.089, 2517.577 1787.364 C 2519.735 1785.640, 2521.275 1784.014, 2521 1783.751 C 2520.725 1783.489, 2516.380 1783.020, 2511.343 1782.708 L 2502.187 1782.142 2486.231 1796.821 M 2522 1791.186 C 2518.975 1793.938, 2510.567 1801.138, 2503.317 1807.187 C 2496.066 1813.235, 2490.314 1818.705, 2490.536 1819.342 C 2490.757 1819.979, 2498.569 1846.150, 2507.896 1877.500 C 2517.223 1908.850, 2537.520 1976.800, 2553 2028.500 C 2653.003 2362.485, 2684.157 2467.335, 2708.546 2552 C 2713.379 2568.775, 2717.396 2582.601, 2717.474 2582.725 C 2717.552 2582.848, 2724.340 2580.112, 2732.558 2576.644 C 2740.776 2573.176, 2751.939 2568.591, 2757.363 2566.456 C 2762.788 2564.320, 2767.439 2562.020, 2767.698 2561.345 C 2767.957 2560.670, 2766.131 2553.454, 2763.639 2545.309 C 2761.148 2537.164, 2751.633 2505.075, 2742.494 2474 C 2719.589 2396.118, 2714.872 2380.812, 2679.477 2269.500 C 2630.591 2115.759, 2583.443 1965.749, 2565.386 1906.500 C 2540.721 1825.564, 2528.924 1787.680, 2528.127 1786.841 C 2527.782 1786.478, 2525.025 1788.433, 2522 1791.186 M 1841.347 1803.310 L 1838.309 1807.620 1847.157 1832.560 C 1852.023 1846.277, 1861.927 1874.508, 1869.165 1895.295 L 1882.324 1933.089 1886.162 1929.342 C 1888.273 1927.281, 1890 1925.167, 1890 1924.645 C 1890 1924.122, 1885.900 1912.851, 1880.888 1899.597 C 1872.489 1877.384, 1850.571 1816.512, 1846.558 1804.250 C 1845.613 1801.362, 1844.737 1799, 1844.612 1799 C 1844.487 1799, 1843.018 1800.939, 1841.347 1803.310 M 2516.024 1815.185 C 2514.112 1816.485, 2511.547 1819.032, 2510.324 1820.847 C 2499.853 1836.385, 2518.168 1856.986, 2532.060 1845.296 C 2536.290 1841.737, 2538.276 1837.374, 2538.328 1831.526 C 2538.446 1818.443, 2525.350 1808.849, 2516.024 1815.185 M 1829.354 1820.073 C 1827.170 1823.058, 1823.335 1828.425, 1820.832 1832 L 1816.282 1838.500 1834.561 1899.837 C 1844.615 1933.573, 1852.997 1961.330, 1853.188 1961.521 C 1853.379 1961.712, 1859.061 1956.427, 1865.814 1949.778 C 1874.599 1941.129, 1877.912 1937.234, 1877.453 1936.094 C 1875.757 1931.875, 1865.356 1903.352, 1850.801 1863 C 1841.972 1838.525, 1834.429 1817.633, 1834.037 1816.573 C 1833.425 1814.916, 1832.768 1815.407, 1829.354 1820.073 M 2470 1818.702 C 2470 1819.009, 2494.564 1899.414, 2524.587 1997.380 C 2632.964 2351.022, 2644.356 2388.211, 2658.494 2434.500 C 2674.472 2486.815, 2695.996 2558.364, 2701.060 2576 C 2702.877 2582.325, 2704.504 2587.685, 2704.676 2587.912 C 2705.142 2588.523, 2713 2585.790, 2713 2585.017 C 2713 2584.652, 2707.798 2567.511, 2701.441 2546.927 C 2671.214 2449.060, 2645.496 2363.778, 2544.500 2026.500 C 2510.573 1913.200, 2482.519 1820.220, 2482.157 1819.877 C 2481.301 1819.065, 2470 1817.973, 2470 1818.702 M 2519 1820.279 C 2512.405 1823.574, 2511.200 1835.109, 2516.917 1840.218 C 2522.840 1845.509, 2530.972 1842.388, 2532.611 1834.195 C 2533.540 1829.551, 2530.571 1822.347, 2526.959 1820.479 C 2523.496 1818.688, 2522.246 1818.657, 2519 1820.279 M 2449.369 1872.750 C 2425.800 1905.389, 2296.952 2083.406, 2193.484 2226.280 C 2153.343 2281.709, 2120.365 2327.450, 2120.201 2327.927 C 2120.037 2328.404, 2127.925 2331.473, 2137.730 2334.747 L 2155.558 2340.699 2172.466 2317.099 C 2202.898 2274.624, 2299.087 2140.278, 2362.988 2051 C 2397.434 2002.875, 2438.080 1946.096, 2453.312 1924.824 C 2468.544 1903.552, 2481.290 1885.408, 2481.637 1884.504 C 2482.277 1882.837, 2471.153 1845, 2470.023 1845 C 2469.684 1845, 2460.390 1857.487, 2449.369 1872.750 M 1795.017 1868.080 L 1780.700 1888.160 1796.040 1943.013 L 1811.380 1997.866 1813.940 1996.033 C 1816.670 1994.079, 1841.190 1973.111, 1844.435 1969.956 C 1846.344 1968.100, 1846.132 1967.281, 1828.453 1908.038 C 1818.599 1875.017, 1810.266 1848, 1809.936 1848 C 1809.605 1848, 1802.892 1857.036, 1795.017 1868.080 M 2471.829 1914.693 C 2458.034 1933.974, 2359.501 2071.595, 2307.652 2144 C 2291.701 2166.275, 2260.141 2210.375, 2237.519 2242 C 2214.897 2273.625, 2193.343 2303.704, 2189.621 2308.843 C 2185.899 2313.982, 2183.097 2318.430, 2183.394 2318.727 C 2183.995 2319.328, 2255.535 2340.906, 2345 2367.470 C 2398.536 2383.367, 2448.355 2397.965, 2566.500 2432.375 C 2590.150 2439.263, 2620.261 2448.309, 2633.413 2452.478 C 2646.566 2456.647, 2657.623 2459.932, 2657.985 2459.779 C 2658.347 2459.625, 2649.473 2429.575, 2638.265 2393 C 2610.924 2303.778, 2490.163 1908.804, 2488.298 1902.500 C 2487.484 1899.750, 2486.474 1897.137, 2486.052 1896.693 C 2485.630 1896.249, 2479.230 1904.349, 2471.829 1914.693 M 1739.769 1945.206 C 1720.771 1971.768, 1687.375 2018.418, 1665.555 2048.873 C 1631.594 2096.274, 1626.287 2104.146, 1628.691 2103.549 C 1630.236 2103.165, 1638.025 2100.238, 1646 2097.044 C 1694.819 2077.494, 1744.398 2049.228, 1789.960 2014.969 C 1805.265 2003.461, 1805.833 2002.907, 1805.049 2000.255 C 1804.601 1998.740, 1797.841 1975.225, 1790.026 1948 C 1782.212 1920.775, 1775.479 1898.143, 1775.065 1897.706 C 1774.650 1897.269, 1758.767 1918.644, 1739.769 1945.206 M 2280.016 2044.142 C 2267.912 2057.175, 2243.565 2079.849, 2224.627 2095.724 C 2167.494 2143.620, 2112.630 2174.862, 2047.785 2196.428 C 1978.415 2219.499, 1885.648 2229.086, 1805 2221.520 C 1800.642 2221.111, 1804.689 2222.769, 1824.485 2229.502 L 1849.470 2238 1868.041 2238 C 1910.641 2238, 1969.260 2232.215, 2015.839 2223.415 C 2078.126 2211.646, 2122.520 2196.963, 2175.696 2170.543 L 2201.947 2157.500 2240.072 2104 C 2261.041 2074.575, 2280.845 2046.787, 2284.081 2042.250 C 2287.318 2037.713, 2289.846 2034, 2289.701 2034 C 2289.555 2034, 2285.197 2038.564, 2280.016 2044.142 M 1199.111 2069.720 C 1194.909 2087.065, 1190.123 2111.513, 1190.805 2112.157 C 1191.389 2112.708, 1195.245 2113.919, 1208.141 2117.597 C 1209.284 2117.924, 1210.113 2117.114, 1210.875 2114.927 C 1211.836 2112.171, 1216.718 2083.819, 1218.473 2070.808 L 1219.105 2066.116 1211.803 2063.993 C 1207.786 2062.826, 1203.766 2061.661, 1202.869 2061.406 C 1201.552 2061.030, 1200.829 2062.631, 1199.111 2069.720 M 1223.989 2070.250 C 1223.941 2080.316, 1219.327 2111.379, 1216.952 2117.626 C 1216.287 2119.375, 1216.375 2120.181, 1217.261 2120.458 C 1217.943 2120.670, 1226.487 2123.298, 1236.250 2126.298 L 1254 2131.752 1254 2124.506 L 1254 2117.260 1247.792 2116.039 C 1239.085 2114.326, 1233.983 2112.085, 1233.020 2109.552 C 1232.196 2107.387, 1236.639 2082.652, 1238.923 2076.685 C 1239.515 2075.137, 1240 2073.518, 1240 2073.089 C 1240 2072.446, 1226.535 2068, 1224.586 2068 C 1224.264 2068, 1223.995 2069.012, 1223.989 2070.250 M 1285.500 2073.337 C 1283.850 2074.085, 1280.791 2076.591, 1278.701 2078.905 C 1267.523 2091.288, 1260.064 2109.770, 1260.017 2125.199 C 1260.001 2130.466, 1260.246 2131.085, 1263.250 2133.360 C 1265.037 2134.714, 1271.156 2137.437, 1276.847 2139.411 C 1287.477 2143.098, 1290.572 2143.735, 1289.509 2142.015 C 1288.482 2140.354, 1290.930 2125.597, 1294.111 2114.267 C 1297.274 2103.004, 1302.949 2089.871, 1308.170 2081.734 C 1309.868 2079.089, 1311.087 2076.788, 1310.879 2076.622 C 1310.670 2076.456, 1307.800 2075.593, 1304.500 2074.704 C 1295.342 2072.236, 1288.942 2071.776, 1285.500 2073.337 M 1244.621 2076.250 C 1244.392 2077.488, 1243.004 2084.682, 1241.536 2092.238 C 1240.069 2099.795, 1239.121 2106.387, 1239.430 2106.887 C 1239.984 2107.783, 1254.960 2111.492, 1255.372 2110.836 C 1255.488 2110.651, 1256.569 2107.350, 1257.773 2103.500 C 1258.977 2099.650, 1261.924 2093.061, 1264.322 2088.858 L 1268.682 2081.217 1257.791 2077.608 C 1251.802 2075.624, 1246.482 2074, 1245.970 2074 C 1245.457 2074, 1244.851 2075.012, 1244.621 2076.250 M 1315.739 2081.276 C 1308.721 2091.987, 1301.541 2110.892, 1298.144 2127.601 C 1294.650 2144.791, 1294.650 2144.737, 1298.322 2145.891 C 1306.510 2148.466, 1331.186 2156, 1331.429 2156 C 1331.580 2156, 1331.981 2152.287, 1332.320 2147.750 C 1332.660 2143.213, 1333.901 2136.125, 1335.080 2132 C 1338.191 2121.110, 1345.986 2104.175, 1351.345 2096.665 L 1355.992 2090.153 1352.746 2089.134 C 1342.206 2085.828, 1318.877 2079, 1318.122 2079 C 1317.632 2079, 1316.559 2080.024, 1315.739 2081.276 M 1360.772 2094.436 C 1349.807 2109.552, 1339.014 2138.352, 1339.014 2152.500 L 1339.013 2158.500 1359.757 2164.873 C 1371.166 2168.379, 1380.994 2171.431, 1381.597 2171.656 C 1382.317 2171.924, 1382.912 2168.875, 1383.327 2162.782 C 1384.408 2146.945, 1392.297 2122.873, 1400.395 2110.708 C 1402.515 2107.523, 1404.081 2104.771, 1403.875 2104.593 C 1403.669 2104.415, 1394.725 2101.668, 1384 2098.489 C 1373.275 2095.310, 1364.050 2092.562, 1363.500 2092.381 C 1362.950 2092.201, 1361.722 2093.126, 1360.772 2094.436 M 1409.238 2108.250 C 1406.695 2111.408, 1400.346 2125.522, 1396.948 2135.573 C 1392.186 2149.658, 1389.814 2161.285, 1390.198 2168.662 L 1390.500 2174.460 1408.500 2180.161 C 1418.400 2183.297, 1427.063 2185.894, 1427.750 2185.932 C 1428.626 2185.980, 1429 2184.096, 1429 2179.631 C 1429 2162.106, 1437.548 2135.472, 1447.199 2122.927 L 1450.717 2118.354 1431.608 2112.675 C 1421.099 2109.551, 1411.993 2106.996, 1411.372 2106.998 C 1410.752 2106.999, 1409.792 2107.563, 1409.238 2108.250 M 1454.774 2122.224 C 1445.635 2136.186, 1437.681 2161.093, 1436.344 2179.938 L 1435.712 2188.845 1439.606 2189.903 C 1441.748 2190.484, 1449.575 2192.903, 1457 2195.277 L 1470.500 2199.594 1470.598 2188.047 C 1470.658 2181.058, 1471.349 2173.809, 1472.350 2169.682 C 1474.981 2158.831, 1481.561 2142.409, 1485.855 2135.979 L 1489.806 2130.062 1481.153 2127.458 C 1476.394 2126.026, 1469.575 2123.974, 1466 2122.899 C 1462.425 2121.823, 1458.772 2120.720, 1457.882 2120.446 C 1456.916 2120.149, 1455.663 2120.866, 1454.774 2122.224 M 1493.253 2135.494 C 1492.017 2137.403, 1489.475 2142.685, 1487.605 2147.232 C 1479.656 2166.557, 1476.329 2182.421, 1477.575 2195.059 L 1478.259 2202.009 1495.471 2207.505 C 1504.937 2210.527, 1512.878 2213, 1513.117 2213 C 1513.357 2213, 1513.397 2211.313, 1513.206 2209.250 C 1512.656 2203.295, 1515.611 2186.239, 1519.067 2175.427 C 1522.812 2163.711, 1526.791 2155.410, 1532.010 2148.423 L 1535.803 2143.347 1516.152 2137.671 C 1505.343 2134.549, 1496.275 2132.001, 1496 2132.010 C 1495.725 2132.018, 1494.489 2133.586, 1493.253 2135.494 M 1538.071 2150.408 C 1528.901 2162.294, 1521.279 2185.699, 1520.292 2205 L 1519.755 2215.500 1543.151 2223.250 C 1556.018 2227.512, 1566.761 2230.999, 1567.023 2230.999 C 1567.285 2230.998, 1567.581 2226.386, 1567.679 2220.749 C 1568.005 2202.158, 1574.547 2183.204, 1586.286 2166.842 L 1591.710 2159.283 1577.105 2155.237 C 1569.072 2153.012, 1560.551 2150.912, 1558.169 2150.571 C 1555.787 2150.230, 1551.198 2148.878, 1547.971 2147.566 L 1542.103 2145.182 1538.071 2150.408 M 1594.158 2166.877 C 1587.737 2175.397, 1579.368 2193.151, 1576.894 2203.500 C 1575.477 2209.425, 1574.701 2216.087, 1574.621 2223 L 1574.500 2233.500 1592.500 2239.679 C 1602.400 2243.077, 1610.950 2245.890, 1611.500 2245.931 C 1612.121 2245.977, 1612.377 2242.556, 1612.177 2236.916 C 1611.651 2222.117, 1615.859 2205.373, 1624.519 2187.812 C 1626.875 2183.034, 1630.035 2177.509, 1631.541 2175.535 C 1633.047 2173.561, 1634.104 2171.814, 1633.889 2171.654 C 1633.540 2171.393, 1623.302 2168.377, 1604.854 2163.101 L 1598.395 2161.254 1594.158 2166.877 M 2187.500 2172.155 C 2163.561 2186.268, 2120.846 2204.053, 2087.500 2213.793 C 2027.741 2231.249, 1960.183 2241.493, 1895.774 2242.866 L 1866.047 2243.500 1884.723 2249.893 L 1903.398 2256.287 1918.449 2255.694 C 1935.504 2255.022, 1966.496 2252.013, 1988 2248.942 C 2031.303 2242.758, 2076.926 2231.091, 2123.500 2214.291 C 2140.628 2208.113, 2174.025 2193.972, 2176.804 2191.721 C 2178.489 2190.357, 2193.237 2169.897, 2192.818 2169.505 C 2192.643 2169.341, 2190.250 2170.534, 2187.500 2172.155 M 1637.181 2178.250 C 1630.282 2188.309, 1622.175 2207.641, 1619.587 2220.208 C 1617.914 2228.334, 1617.583 2236.676, 1618.630 2244.317 L 1619.260 2248.913 1635.630 2254.380 L 1652 2259.848 1652.001 2254.174 C 1652.005 2238.676, 1662.405 2201.247, 1670.597 2187.250 C 1671.965 2184.912, 1672.914 2183, 1672.706 2183 C 1672.498 2183, 1665.617 2180.980, 1657.414 2178.512 C 1649.211 2176.043, 1641.959 2174.018, 1641.298 2174.012 C 1640.637 2174.005, 1638.784 2175.912, 1637.181 2178.250 M 1674.956 2190.750 C 1666.158 2213.881, 1660.515 2234.804, 1658.879 2250.360 C 1657.940 2259.292, 1657.975 2261.367, 1659.078 2262.048 C 1659.816 2262.504, 1668.538 2265.677, 1678.460 2269.099 C 1688.382 2272.521, 1696.961 2275.483, 1697.525 2275.681 C 1698.220 2275.925, 1698.252 2273.332, 1697.626 2267.636 C 1695.534 2248.590, 1704.877 2213.808, 1715.465 2201.224 C 1716.888 2199.533, 1717.703 2197.942, 1717.276 2197.688 C 1716.069 2196.969, 1679.063 2185, 1678.047 2185 C 1677.550 2185, 1676.159 2187.588, 1674.956 2190.750 M 2166.500 2202.221 C 2153.072 2210.459, 2103.916 2228.758, 2073.166 2236.965 C 2069.660 2237.901, 2068.975 2238.445, 2069.578 2239.811 C 2069.988 2240.740, 2073.738 2251.567, 2077.912 2263.871 L 2085.500 2286.242 2095 2290.033 C 2100.225 2292.119, 2104.777 2293.527, 2105.115 2293.162 C 2105.602 2292.637, 2160.450 2215.610, 2169.850 2202.250 C 2171.107 2200.463, 2171.993 2199.035, 2171.818 2199.077 C 2171.643 2199.119, 2169.250 2200.534, 2166.500 2202.221 M 1720.982 2202.750 C 1714.972 2210.390, 1707.161 2231.358, 1704.363 2247.364 C 1702.689 2256.940, 1703.046 2276.446, 1704.929 2278.329 C 1706.939 2280.339, 1732.211 2271.703, 1734.325 2268.283 C 1734.634 2267.784, 1731.199 2266.169, 1726.693 2264.694 C 1715.470 2261.022, 1712.261 2258.908, 1711.464 2254.661 C 1710.764 2250.926, 1713.786 2239.149, 1721.626 2215.065 C 1724.032 2207.675, 1726 2201.263, 1726 2200.815 C 1726 2199.013, 1723.016 2200.164, 1720.982 2202.750 M 1730.632 2202.823 C 1730.414 2203.195, 1729.904 2205.075, 1729.499 2207 C 1729.094 2208.925, 1725.876 2219.924, 1722.348 2231.442 C 1718.820 2242.960, 1716.167 2252.993, 1716.453 2253.737 C 1716.983 2255.119, 1721.525 2257.341, 1726.242 2258.525 C 1728.680 2259.137, 1728.953 2258.867, 1729.970 2254.842 C 1730.573 2252.454, 1733.752 2241.004, 1737.033 2229.398 C 1740.315 2217.792, 1743 2207.892, 1742.999 2207.398 C 1742.998 2206.273, 1731.172 2201.899, 1730.632 2202.823 M 1440.836 2243.750 C 1346.751 2375.458, 1251.670 2508.050, 1220.150 2551.500 C 1212.171 2562.500, 1191.526 2591.485, 1174.273 2615.911 C 1150.953 2648.927, 1143.237 2660.548, 1144.202 2661.200 C 1144.916 2661.683, 1147.300 2663.022, 1149.500 2664.176 C 1151.700 2665.330, 1155.300 2667.486, 1157.500 2668.967 C 1159.700 2670.448, 1162.032 2671.969, 1162.683 2672.347 C 1163.437 2672.786, 1167.818 2667.502, 1174.774 2657.767 C 1180.774 2649.370, 1224.095 2588.500, 1271.044 2522.500 C 1317.993 2456.500, 1386.464 2360.261, 1423.203 2308.635 C 1459.941 2257.009, 1489.993 2214.484, 1489.984 2214.135 C 1489.970 2213.539, 1469.323 2206.859, 1467.794 2206.955 C 1467.406 2206.980, 1455.275 2223.537, 1440.836 2243.750 M 1747.029 2222.750 C 1745.023 2231.908, 1738.944 2254.536, 1737.524 2258.127 C 1737.022 2259.396, 1737.700 2259.909, 1740.597 2260.452 C 1742.642 2260.836, 1757.631 2265.872, 1773.907 2271.645 C 1790.183 2277.417, 1847.150 2296.918, 1900.500 2314.981 C 1953.850 2333.043, 2029.450 2358.709, 2068.500 2372.016 C 2107.550 2385.324, 2151.200 2400.166, 2165.500 2405 C 2179.800 2409.834, 2223.450 2424.670, 2262.500 2437.970 C 2330.399 2461.094, 2543.417 2533.477, 2648 2568.962 C 2675.225 2578.199, 2697.601 2585.673, 2697.724 2585.571 C 2697.848 2585.468, 2694.121 2573.261, 2689.443 2558.442 C 2684.765 2543.624, 2680.350 2529.504, 2679.633 2527.065 L 2678.329 2522.631 2214.524 2367.815 C 1959.432 2282.667, 1750.370 2213, 1749.942 2213 C 1749.514 2213, 1748.203 2217.387, 1747.029 2222.750 M 1494.564 2222.788 C 1490.667 2228.442, 1427.721 2316.949, 1317.819 2471.300 C 1286.569 2515.190, 1261 2551.271, 1261 2551.480 C 1261 2551.689, 1262.330 2551.479, 1263.957 2551.012 C 1267.339 2550.042, 1267.986 2550.160, 1281.370 2554.189 C 1286.799 2555.823, 1291.559 2556.786, 1291.949 2556.330 C 1294.816 2552.972, 1527 2226.886, 1527 2226.216 C 1527 2225.418, 1501.616 2216.954, 1499.472 2217.038 C 1498.937 2217.059, 1496.729 2219.646, 1494.564 2222.788 M 1525.923 2243.751 C 1520.106 2251.863, 1492.466 2290.450, 1464.501 2329.500 C 1436.536 2368.550, 1388.083 2436.139, 1356.828 2479.697 C 1325.572 2523.255, 1300 2559.123, 1300 2559.404 C 1300 2559.685, 1304.612 2561.318, 1310.250 2563.033 C 1393.319 2588.312, 1498.458 2623.843, 1671 2684.946 C 1731.775 2706.469, 1784.288 2725.060, 1787.695 2726.261 C 1791.103 2727.461, 1794.081 2728.231, 1794.314 2727.971 C 1794.546 2727.712, 1827.557 2681.600, 1867.671 2625.500 C 1907.784 2569.400, 1944.941 2517.469, 1950.242 2510.097 L 1959.879 2496.694 1957.554 2492.097 C 1952.781 2482.658, 1920.211 2379.424, 1918.366 2367.887 C 1918.024 2365.749, 1917.366 2364, 1916.903 2364 C 1915.457 2364, 1847.314 2339.139, 1830.500 2332.477 C 1821.700 2328.991, 1805.275 2322.773, 1794 2318.660 C 1782.725 2314.547, 1764.050 2307.724, 1752.500 2303.497 C 1720.529 2291.798, 1676.170 2276.093, 1639 2263.314 C 1601.143 2250.298, 1537.855 2229, 1537.039 2229.001 C 1536.743 2229.001, 1531.740 2235.639, 1525.923 2243.751 M 2053.500 2242.131 C 2046.341 2244.050, 2023.428 2249.219, 2016.832 2250.402 L 2013.164 2251.060 2015.470 2256.780 C 2016.738 2259.926, 2020.122 2269.925, 2022.991 2279 C 2025.859 2288.075, 2028.538 2296.162, 2028.944 2296.972 C 2029.519 2298.117, 2068.983 2312.667, 2072.250 2312.938 C 2072.662 2312.972, 2073.023 2310.637, 2073.051 2307.750 C 2073.159 2296.698, 2074.509 2289.151, 2076.817 2286.694 C 2078.913 2284.464, 2078.954 2284.134, 2077.552 2280.779 C 2076.735 2278.824, 2074.015 2271.212, 2071.508 2263.863 C 2065.511 2246.290, 2062.865 2239.972, 2061.566 2240.127 C 2060.980 2240.196, 2057.350 2241.098, 2053.500 2242.131 M 2002.250 2252.714 C 2000.463 2252.941, 1999 2253.257, 1999 2253.416 C 1999 2253.575, 2001.670 2260.919, 2004.933 2269.736 C 2008.196 2278.553, 2011.157 2287.320, 2011.513 2289.218 C 2012.094 2292.316, 2012.685 2292.837, 2017.276 2294.306 C 2020.090 2295.205, 2022.521 2295.812, 2022.680 2295.654 C 2022.838 2295.495, 2019.650 2285.721, 2015.595 2273.933 C 2010.994 2260.556, 2007.712 2252.463, 2006.862 2252.401 C 2006.113 2252.346, 2004.037 2252.487, 2002.250 2252.714 M 1987.501 2255.138 C 1975.602 2256.964, 1949.184 2259.259, 1933.202 2259.855 L 1915.904 2260.500 1960.518 2275.351 C 1985.055 2283.519, 2005.325 2290.008, 2005.561 2289.772 C 2005.996 2289.338, 1993.755 2255.334, 1992.939 2254.708 C 1992.698 2254.523, 1990.250 2254.716, 1987.501 2255.138 M 1737.388 2273.095 C 1732.408 2277.058, 1730.842 2277.884, 1723.247 2280.546 L 1716.993 2282.738 1724.747 2285.467 C 1729.011 2286.968, 1753.425 2295.871, 1779 2305.252 C 1804.575 2314.634, 1833.375 2324.664, 1843 2327.543 C 1872.709 2336.429, 2031.712 2385.778, 2036.046 2387.458 C 2037.151 2387.887, 2039.095 2385.906, 2042.855 2380.520 C 2046.473 2375.339, 2047.709 2372.835, 2046.809 2372.511 C 2046.089 2372.252, 2003.425 2357.677, 1952 2340.122 C 1900.575 2322.567, 1843.516 2302.999, 1825.202 2296.639 C 1794.944 2286.130, 1744.730 2270, 1742.272 2270 C 1741.724 2270, 1739.526 2271.393, 1737.388 2273.095 M 2079.678 2290.656 C 2079.305 2291.028, 2079 2296.669, 2079 2303.191 C 2079 2314.573, 2079.090 2315.083, 2081.250 2315.891 C 2087.523 2318.238, 2087.105 2318.491, 2094.742 2307.733 L 2101.983 2297.533 2093.242 2294.396 C 2081.324 2290.119, 2080.454 2289.879, 2079.678 2290.656 M 2175.225 2328.911 C 2171.620 2334.023, 2171.269 2334.945, 2172.761 2335.385 C 2173.717 2335.667, 2182.600 2338.202, 2192.500 2341.018 C 2286.493 2367.757, 2562.049 2455.467, 2638.500 2482.981 C 2655 2488.919, 2668.637 2493.653, 2668.804 2493.501 C 2668.971 2493.350, 2667.195 2487.105, 2664.857 2479.625 C 2660.843 2466.783, 2660.436 2465.972, 2657.553 2465.069 C 2655.874 2464.542, 2645.950 2461.799, 2635.500 2458.971 C 2564.079 2439.646, 2348.190 2376.156, 2256.264 2347.443 C 2225.708 2337.898, 2183.080 2324.347, 2180.464 2323.347 C 2179.895 2323.129, 2177.537 2325.633, 2175.225 2328.911 M 2166.580 2341.190 C 2165.736 2342.394, 2165.189 2343.522, 2165.363 2343.696 C 2165.785 2344.119, 2213.057 2359.989, 2464.111 2443.994 L 2675.722 2514.801 2673.398 2507.272 C 2672.121 2503.130, 2670.946 2499.653, 2670.788 2499.545 C 2670.629 2499.437, 2664.650 2497.637, 2657.500 2495.546 C 2650.350 2493.455, 2620.875 2483.964, 2592 2474.455 C 2489.267 2440.624, 2391.949 2409.314, 2286 2376.004 C 2256.025 2366.581, 2217.446 2354.399, 2200.269 2348.935 C 2183.092 2343.471, 2168.830 2339, 2168.576 2339 C 2168.321 2339, 2167.423 2339.985, 2166.580 2341.190 M 2118.337 2348.514 C 2113.857 2351.200, 2110 2357.575, 2110 2362.295 C 2110 2363.761, 2110.726 2366.774, 2111.614 2368.993 C 2116.486 2381.171, 2133.877 2380.149, 2140.087 2367.320 C 2146.848 2353.354, 2131.869 2340.403, 2118.337 2348.514 M 2121.763 2352.565 C 2115.884 2355.755, 2114.054 2365.145, 2118.455 2369.545 C 2121.775 2372.866, 2126.856 2372.834, 2130.857 2369.467 C 2140.941 2360.982, 2133.102 2346.413, 2121.763 2352.565 M 1916 2356.740 C 1916.825 2357.060, 1939.775 2365.089, 1967 2374.581 C 2026.033 2395.165, 2024.026 2394.445, 2027.692 2396.341 C 2030.389 2397.735, 2030.702 2397.707, 2031.786 2395.972 C 2032.431 2394.938, 2032.631 2393.898, 2032.230 2393.661 C 2031.828 2393.423, 2011.025 2386.626, 1986 2378.555 C 1960.975 2370.484, 1935.099 2362.107, 1928.499 2359.940 C 1921.898 2357.773, 1916.048 2356.036, 1915.499 2356.079 C 1914.949 2356.122, 1915.175 2356.420, 1916 2356.740 M 1925.252 2368.730 C 1926.252 2372.295, 1952.325 2456.035, 1957.870 2473.485 L 1963.584 2491.470 1978.325 2470.829 L 1993.067 2450.188 1984.386 2424.844 C 1979.611 2410.905, 1974.720 2395.928, 1973.517 2391.563 L 1971.330 2383.625 1960.415 2379.713 C 1923.709 2366.555, 1924.732 2366.875, 1925.252 2368.730 M 1928.892 2552.750 C 1798.163 2735.799, 1776.496 2765.994, 1745.019 2809 C 1734.754 2823.025, 1726.017 2835.073, 1725.604 2835.774 C 1725.085 2836.653, 1726.346 2837.697, 1729.676 2839.147 C 1732.329 2840.302, 1735.241 2841.894, 1736.147 2842.685 C 1737.634 2843.984, 1739.173 2842.164, 1752.098 2823.811 C 1785.087 2776.969, 1842.282 2697.413, 2011.332 2463.226 C 2043.599 2418.526, 2070 2381.602, 2070 2381.173 C 2070 2380.512, 2057.563 2376, 2055.740 2376 C 2055.400 2376, 1998.318 2455.537, 1928.892 2552.750 M 1992.892 2503.250 C 1854.018 2695.029, 1791.135 2781.454, 1755.306 2829.783 C 1749.002 2838.287, 1743.636 2845.784, 1743.383 2846.444 C 1743.130 2847.103, 1744.686 2849.860, 1746.841 2852.571 C 1748.996 2855.282, 1754.821 2863.479, 1759.785 2870.786 L 1768.811 2884.071 1780.094 2867.786 C 1826.308 2801.079, 1912.371 2680.075, 2075.284 2452.750 C 2097.653 2421.537, 2115.839 2396, 2115.699 2396 C 2115.559 2396, 2107.668 2393.300, 2098.165 2390 C 2088.662 2386.700, 2080.517 2384, 2080.066 2384 C 2079.614 2384, 2040.386 2437.662, 1992.892 2503.250 M 1978 2386.668 C 1978 2386.975, 1981.542 2397.412, 1985.871 2409.863 C 1990.200 2422.313, 1994.590 2435.094, 1995.626 2438.265 L 1997.510 2444.029 2011.845 2423.938 C 2019.730 2412.888, 2026.002 2403.669, 2025.784 2403.451 C 2024.714 2402.381, 1978 2385.973, 1978 2386.668 M 2119.433 2407.008 C 2116.328 2411.320, 2113.810 2415.192, 2113.837 2415.613 C 2113.864 2416.035, 2119.650 2418.099, 2126.693 2420.200 C 2143.304 2425.156, 2240.141 2457.378, 2292 2475.205 C 2314.275 2482.862, 2332.931 2489.211, 2333.457 2489.314 C 2334.201 2489.459, 2337.186 2472.163, 2336.567 2471.293 C 2336.485 2471.179, 2316.412 2464.279, 2291.960 2455.960 C 2267.507 2447.640, 2226.350 2433.625, 2200.500 2424.814 C 2174.650 2416.004, 2147.105 2406.629, 2139.289 2403.982 L 2125.077 2399.168 2119.433 2407.008 M 2107.123 2424.250 L 2105.050 2427.500 2111.775 2429.427 C 2115.474 2430.487, 2142.350 2439.423, 2171.500 2449.285 C 2306.766 2495.049, 2307.427 2495.248, 2318.636 2493.505 L 2323.500 2492.749 2318 2490.785 C 2306.086 2486.529, 2110.785 2421, 2110.016 2421 C 2109.565 2421, 2108.263 2422.463, 2107.123 2424.250 M 2719.218 2506.607 C 2713.553 2509.496, 2711.500 2513.479, 2711.500 2521.578 C 2711.500 2527.837, 2711.833 2529.093, 2714.382 2532.434 C 2721.228 2541.410, 2732.105 2540.774, 2738.750 2531.010 C 2740.434 2528.536, 2741 2526.269, 2741 2522 C 2741 2515.784, 2738.802 2511.389, 2733.864 2507.732 C 2730.228 2505.039, 2723.332 2504.509, 2719.218 2506.607 M 2719.589 2514.077 C 2716.606 2517.622, 2716.189 2522.532, 2718.494 2526.989 C 2721.911 2533.597, 2728.274 2534.880, 2733.200 2529.954 C 2735.991 2527.163, 2736.204 2526.478, 2735.751 2521.763 C 2735.351 2517.593, 2734.662 2516.087, 2732.113 2513.809 C 2727.707 2509.873, 2723.042 2509.972, 2719.589 2514.077 M 2775.298 2560.626 L 2775.500 2566.429 2770 2568.328 C 2763.170 2570.686, 2716.790 2590.042, 2715.715 2590.983 C 2715.283 2591.361, 2745.883 2602.166, 2783.715 2614.993 C 2821.547 2627.820, 2853.063 2638.517, 2853.750 2638.764 C 2854.706 2639.108, 2855.003 2636.311, 2855.015 2626.857 C 2855.030 2613.911, 2856.624 2586.759, 2857.538 2583.881 C 2857.987 2582.464, 2851.866 2580.170, 2818.085 2569.090 C 2796.093 2561.877, 2777.424 2555.716, 2776.598 2555.399 C 2775.355 2554.922, 2775.131 2555.825, 2775.298 2560.626 M 1261.832 2560.750 C 1260.434 2562.262, 1254.500 2569.723, 1248.645 2577.329 C 1239.369 2589.380, 1238 2591.653, 1238 2594.997 L 1238 2598.836 1246.250 2601.559 C 1250.787 2603.057, 1265.075 2608.073, 1278 2612.708 C 1315.537 2626.166, 1403.438 2657.472, 1416 2661.856 C 1422.325 2664.063, 1449.100 2673.356, 1475.500 2682.506 C 1543.780 2706.171, 1594.617 2724.146, 1647.500 2743.321 C 1696.844 2761.212, 1711.770 2766.844, 1733.321 2775.701 C 1745.029 2780.512, 1754.504 2783.873, 1754.968 2783.379 C 1756.465 2781.784, 1788.154 2736.762, 1788.584 2735.619 C 1788.837 2734.948, 1783.298 2732.557, 1774.753 2729.647 C 1766.914 2726.978, 1718.294 2709.766, 1666.710 2691.398 C 1542.177 2647.056, 1504.101 2633.841, 1431 2609.586 C 1405.425 2601.101, 1366.500 2588.468, 1344.500 2581.513 C 1322.500 2574.559, 1296.779 2566.423, 1287.343 2563.434 C 1277.906 2560.445, 1268.878 2558, 1267.280 2558 C 1265.393 2558, 1263.483 2558.964, 1261.832 2560.750 M 1200 2636.591 C 1183.775 2659.421, 1170.371 2678.666, 1170.214 2679.357 C 1170.057 2680.047, 1172.256 2684.833, 1175.102 2689.991 C 1177.947 2695.149, 1181.156 2701.359, 1182.232 2703.791 C 1183.307 2706.223, 1184.536 2707.827, 1184.961 2707.356 C 1185.386 2706.885, 1196.065 2691.650, 1208.691 2673.500 C 1221.317 2655.350, 1234.202 2636.945, 1237.324 2632.601 C 1240.446 2628.256, 1243 2624.387, 1243 2624.003 C 1243 2623.618, 1241.151 2622.470, 1238.891 2621.451 C 1236.632 2620.432, 1234.199 2618.676, 1233.485 2617.549 C 1232.772 2616.422, 1231.872 2610.887, 1231.486 2605.250 C 1231.100 2599.613, 1230.495 2595.018, 1230.142 2595.041 C 1229.789 2595.063, 1216.225 2613.761, 1200 2636.591 M 1239 2609.474 C 1239 2612.278, 1239.547 2613.232, 1241.832 2614.413 C 1246.495 2616.825, 1270.488 2625.519, 1305.500 2637.484 C 1342.514 2650.133, 1361.252 2656.821, 1427.500 2681.025 C 1452.800 2690.268, 1485.200 2701.874, 1499.500 2706.815 C 1531.425 2717.846, 1553.829 2725.924, 1591.500 2739.984 C 1607.450 2745.937, 1634 2755.845, 1650.500 2762.001 C 1667 2768.157, 1694.603 2778.775, 1711.839 2785.597 C 1729.075 2792.419, 1743.566 2798, 1744.041 2798 C 1744.516 2798, 1746.300 2795.970, 1748.007 2793.490 C 1750.237 2790.249, 1750.743 2788.846, 1749.805 2788.507 C 1749.087 2788.247, 1740.175 2785.150, 1730 2781.624 C 1719.825 2778.098, 1692.375 2768.237, 1669 2759.709 C 1603.625 2735.860, 1505.792 2701.183, 1430 2674.994 C 1357.383 2649.903, 1278.210 2621.284, 1247.724 2609.106 C 1243.447 2607.398, 1239.735 2606, 1239.474 2606 C 1239.213 2606, 1239 2607.563, 1239 2609.474 M 1152.942 2687.068 C 1157.285 2695.986, 1161.689 2704.134, 1162.729 2705.173 C 1164.648 2707.092, 1178.957 2713.376, 1179.705 2712.628 C 1179.930 2712.404, 1178.367 2709.358, 1176.233 2705.860 C 1174.099 2702.362, 1170.262 2695.653, 1167.705 2690.951 C 1162.334 2681.073, 1160.897 2679.594, 1151.773 2674.563 L 1145.046 2670.853 1152.942 2687.068 M 1816.429 2765.893 C 1803.619 2771.711, 1799.458 2792.049, 1809.967 2797.483 C 1815.675 2800.435, 1822.234 2799.042, 1827.838 2793.689 C 1837.034 2784.903, 1838.127 2771.680, 1830.102 2766.285 C 1826.009 2763.533, 1821.886 2763.414, 1816.429 2765.893 M 1820.319 2771.184 C 1818.504 2771.661, 1815.604 2773.813, 1813.569 2776.191 C 1805.435 2785.694, 1811.628 2797.183, 1821.605 2791.099 C 1825.888 2788.487, 1829.273 2782.674, 1829.273 2777.928 C 1829.273 2771.755, 1826.390 2769.584, 1820.319 2771.184 M 1732.722 2859.750 C 1746.939 2885.896, 1745.361 2883.699, 1750.743 2884.837 C 1753.359 2885.391, 1757.274 2886.170, 1759.443 2886.569 L 1763.386 2887.295 1758.842 2880.898 C 1756.343 2877.379, 1750.635 2869.022, 1746.158 2862.326 C 1738.296 2850.571, 1737.793 2850.047, 1731.506 2847.076 C 1727.925 2845.384, 1724.807 2844, 1724.577 2844 C 1724.347 2844, 1728.012 2851.088, 1732.722 2859.750" stroke="none" fill="#040404" fill-rule="evenodd"/></svg>