<svg xmlns="http://www.w3.org/2000/svg" width="3000" height="3000" viewBox="0 0 3000 3000" version="1.1"><path d="" stroke="none" fill="#080404" fill-rule="evenodd"/><path d="M 1500.369 79.778 L 1487.239 80.056 1486.619 83.153 C 1486.279 84.856, 1486 90.371, 1486 95.408 L 1486 104.565 1479.041 104.172 C 1459.344 103.059, 1324.981 110.827, 1299 114.581 C 1265.169 119.469, 1253.527 128.926, 1246.323 157.373 L 1243.691 167.769 1233.595 167.257 C 1205.439 165.831, 1140.112 177.168, 1096.500 191.048 C 1059.827 202.720, 1013.205 224.827, 1000.191 236.717 C 994.893 241.556, 994.066 244.803, 997.201 248.447 C 1001.222 253.122, 1007.531 254.126, 1036.500 254.702 C 1050.800 254.986, 1062.851 255.544, 1063.280 255.940 C 1063.710 256.336, 1056.735 263.452, 1047.780 271.753 C 1020.066 297.444, 1015 303.350, 1015 309.965 C 1015 312.637, 1015.711 314.318, 1017.585 316.076 C 1019.941 318.286, 1020.935 318.487, 1028.835 318.354 C 1034.435 318.259, 1044.751 316.762, 1058 314.121 C 1121.115 301.541, 1142.505 301.259, 1214.500 312.059 C 1233.828 314.958, 1249.195 314.524, 1257.089 310.856 C 1264.443 307.438, 1267.454 302.861, 1266.742 296.186 C 1266.467 293.609, 1265.913 290.707, 1265.510 289.739 C 1264.988 288.484, 1265.169 288.119, 1266.139 288.469 C 1266.887 288.739, 1280.325 290.778, 1296 293 C 1347.706 300.329, 1366.048 304.463, 1408.700 318.403 C 1447.587 331.113, 1464.762 335.261, 1478.250 335.201 L 1485 335.171 1485 355.144 L 1485 375.117 1471.314 391.309 C 1441.045 427.118, 1429.481 440.024, 1373.500 500.478 C 1263.198 619.595, 1174.791 723.901, 1054.371 877 C 864.222 1118.753, 717.400 1338.540, 597.782 1560.500 C 468.274 1800.809, 357.970 2066.044, 304.935 2264.674 C 283.806 2343.806, 272.586 2403.570, 267.014 2466.651 C 265.904 2479.218, 264.085 2494.675, 262.972 2501 C 258.893 2524.187, 258.824 2549.025, 262.817 2557.094 C 264.608 2560.715, 264.707 2561.499, 263.491 2562.420 C 261.489 2563.936, 259 2570.353, 259 2573.999 C 259 2588.062, 283.075 2629.709, 329.524 2696 C 367.698 2750.481, 398.369 2789.888, 431.869 2827.500 C 447.663 2845.232, 477.078 2875.050, 490.874 2887.313 C 502.235 2897.412, 502.245 2897.425, 499.374 2898.280 C 494.615 2899.699, 453.439 2899.372, 421.500 2897.662 C 373.577 2895.097, 328.476 2893.682, 315.443 2894.335 C 301.280 2895.044, 288.414 2897.386, 270.489 2902.515 C 255.542 2906.792, 250 2908.846, 250 2910.109 C 250 2911.609, 254.857 2911.119, 270.500 2908.039 C 290.017 2904.196, 306.947 2902.587, 320 2903.334 C 325.775 2903.665, 341.975 2904.610, 356 2905.434 C 441.339 2910.452, 459.932 2911.224, 482 2910.670 C 506.177 2910.062, 510.975 2909.495, 550 2902.639 C 581.309 2897.139, 596.839 2895.567, 612.500 2896.315 C 626.979 2897.007, 635.624 2898.516, 665 2905.480 C 700.331 2913.856, 704.789 2914.507, 726.500 2914.452 C 747.837 2914.399, 751.805 2913.755, 803 2902.042 C 837.848 2894.069, 846.955 2892.637, 863 2892.608 C 883.335 2892.571, 891.750 2894.496, 921.500 2905.990 C 940.458 2913.314, 949.507 2915.243, 965 2915.264 C 984.197 2915.290, 990.708 2913.811, 1047.500 2896.526 C 1085.557 2884.943, 1098.043 2882.308, 1119.500 2881.332 C 1141.913 2880.314, 1156.973 2883.377, 1189.750 2895.623 C 1227.750 2909.820, 1240.441 2912.441, 1271 2912.406 C 1294.009 2912.380, 1304.508 2911.418, 1347.500 2905.399 C 1391.109 2899.294, 1414.538 2896.904, 1436.500 2896.320 C 1462.529 2895.627, 1478.060 2897.062, 1519.513 2903.987 C 1595.978 2916.761, 1620.585 2917.038, 1700 2906.018 C 1746.021 2899.632, 1754.081 2899.626, 1797 2905.950 C 1849.090 2913.625, 1866.968 2913.640, 1917.248 2906.054 C 1971.515 2897.867, 1975.157 2897.921, 2042 2907.902 C 2095.277 2915.857, 2101.159 2916.418, 2131.500 2916.445 C 2159.764 2916.471, 2161.471 2916.335, 2209.500 2910.262 C 2236.702 2906.822, 2240.267 2906.592, 2267 2906.550 C 2296.930 2906.504, 2299.673 2906.716, 2343.500 2912.477 C 2396.746 2919.475, 2396.474 2919.451, 2421 2919.457 C 2447.703 2919.463, 2452.917 2918.884, 2488.500 2911.958 C 2528.830 2904.107, 2533.606 2903.541, 2559.500 2903.549 C 2585.115 2903.557, 2591.940 2904.361, 2622.750 2911.001 C 2646.636 2916.149, 2653.993 2917, 2674.618 2917 C 2693.949 2917, 2705.134 2916.054, 2729 2912.400 C 2747.670 2909.541, 2750 2909.064, 2750 2908.093 C 2750 2907.714, 2731.213 2907.425, 2708.250 2907.452 C 2660.615 2907.507, 2657.840 2907.255, 2626 2899.999 C 2600.552 2894.200, 2586.208 2891.994, 2568.351 2891.134 L 2555.202 2890.500 2561.137 2881.500 C 2585.029 2845.268, 2619.707 2781.487, 2634.536 2746.500 C 2649.373 2711.495, 2658.436 2680.466, 2656.631 2670.847 C 2655.652 2665.629, 2652.077 2660.802, 2647.487 2658.503 C 2642.179 2655.843, 2625.399 2655.409, 2585.500 2656.897 C 2569 2657.512, 2536.600 2658.457, 2513.500 2658.996 C 2490.400 2659.535, 2449.450 2660.529, 2422.500 2661.204 C 2368.300 2662.562, 2230.016 2662.452, 2167.500 2661 C 2101.690 2659.472, 2045.064 2657.663, 2044.241 2657.063 C 2043.815 2656.753, 2040.609 2648.850, 2037.116 2639.500 C 2024.194 2604.914, 1995.930 2544.161, 1981.107 2519.111 C 1957.184 2478.684, 1937.664 2469.728, 1865.500 2466.067 C 1854.500 2465.509, 1819.400 2464.600, 1787.500 2464.047 C 1755.600 2463.494, 1719.150 2462.812, 1706.500 2462.531 C 1693.850 2462.251, 1646.938 2461.718, 1602.250 2461.347 L 1521 2460.674 1521 2425.921 L 1521 2391.167 1796.250 2391.334 C 2040.226 2391.481, 2572.952 2390.188, 2573.834 2389.447 C 2574.017 2389.292, 2574.242 2384.476, 2574.334 2378.744 C 2574.530 2366.419, 2573.828 2365, 2567.524 2365 C 2565.197 2365, 2560.611 2364.720, 2557.333 2364.377 L 2551.373 2363.754 2547.019 2355.627 C 2530.926 2325.587, 2462.266 2199.964, 2453.706 2184.898 C 2447.957 2174.779, 2415.828 2118.800, 2382.308 2060.500 C 2222.568 1782.670, 2141.561 1637.216, 2056.788 1476 C 1898.046 1174.119, 1826.836 1031.399, 1713.258 787.500 C 1660.671 674.572, 1610.004 562.613, 1591.957 519.460 C 1580.534 492.146, 1538.529 400.048, 1526.527 376 L 1522.284 367.500 1521.661 226 C 1521.319 148.175, 1520.693 83.369, 1520.269 81.987 C 1519.670 80.029, 1518.839 79.478, 1516.500 79.487 C 1514.850 79.494, 1507.591 79.625, 1500.369 79.778 M 1495.500 1250 L 1495.500 2409 1503.500 2409 L 1511.500 2409 1511.500 1250 L 1511.500 91 1503.500 91 L 1495.500 91 1495.500 1250 M 1474.500 113.507 C 1473.950 113.699, 1462.250 114.361, 1448.500 114.976 C 1384.953 117.823, 1316.315 122.099, 1302.500 124.072 C 1276.341 127.809, 1265.129 134.087, 1259.912 147.921 C 1250.894 171.835, 1242.327 247.582, 1246.872 263.222 C 1247.627 265.820, 1249.681 269.424, 1251.436 271.231 C 1256.706 276.657, 1260.676 277.554, 1308 284.010 C 1353.881 290.269, 1370.329 293.984, 1412.036 307.507 C 1441.695 317.123, 1461.009 322.191, 1474.822 323.981 C 1479.950 324.645, 1484.277 325.034, 1484.438 324.844 C 1484.599 324.655, 1484.984 276.913, 1485.295 218.750 L 1485.860 113 1480.680 113.079 C 1477.831 113.122, 1475.050 113.315, 1474.500 113.507 M 1224.576 176.589 C 1167.767 181.747, 1110.022 194.725, 1065 212.452 C 1039.859 222.351, 1005.111 240.544, 1005.699 243.500 C 1006.050 245.266, 1012.011 245.860, 1035.500 246.472 C 1048.150 246.801, 1060.839 247.309, 1063.698 247.601 C 1070.348 248.279, 1073.995 251.009, 1074.014 255.323 C 1074.026 258.156, 1071.375 261.111, 1049.514 282.630 C 1036.031 295.901, 1025 307.467, 1025 308.332 C 1025 310.470, 1030.246 309.887, 1055.500 304.945 C 1097.794 296.668, 1112.895 294.859, 1139.500 294.883 C 1160.830 294.902, 1178.670 296.440, 1207 300.702 C 1229.836 304.138, 1246.934 304.420, 1251.997 301.446 C 1253.920 300.316, 1255.637 298.646, 1255.812 297.735 C 1256.328 295.058, 1253.218 289.568, 1246.969 282.125 C 1243.755 278.297, 1240.221 273.394, 1239.117 271.230 C 1233.908 261.018, 1233.866 241.795, 1238.966 201.560 C 1242.455 174.028, 1242.392 174.963, 1240.750 175.117 C 1240.063 175.181, 1232.784 175.844, 1224.576 176.589 M 1472 403.793 C 1465.125 412.265, 1458.919 419.997, 1458.209 420.975 C 1457.072 422.543, 1457.355 423.012, 1460.586 424.918 C 1462.602 426.108, 1464.342 426.950, 1464.452 426.791 C 1464.563 426.631, 1465.691 424.700, 1466.959 422.500 C 1468.228 420.300, 1472.838 413.034, 1477.204 406.354 C 1483.344 396.960, 1485.069 393.549, 1484.821 391.299 C 1484.524 388.608, 1483.561 389.547, 1472 403.793 M 1522 1376 L 1522 2361 1662.250 2360.903 C 1739.388 2360.850, 1863.025 2360.242, 1937 2359.553 C 2087.849 2358.146, 2248.366 2357.976, 2357.500 2359.107 C 2434.499 2359.905, 2474.814 2361.051, 2514.828 2363.581 C 2528.208 2364.427, 2539.968 2364.979, 2540.960 2364.809 C 2542.447 2364.554, 2541.412 2362.461, 2535.072 2352.902 C 2525.947 2339.144, 2516.349 2322.263, 2484.520 2264 C 2450.277 2201.317, 2446.816 2195.208, 2375.487 2071.500 C 2279.400 1904.855, 2192.792 1751.843, 2129.269 1636.500 C 2089.229 1563.796, 2037.624 1466.161, 1953.235 1303.448 C 1847.275 1099.143, 1781.420 963.642, 1666.271 713 C 1640.480 656.861, 1621.398 613.657, 1588.976 538 C 1560.475 471.490, 1524.102 391, 1522.548 391 C 1522.247 391, 1522 834.250, 1522 1376 M 1479.783 417.211 C 1460.131 449.236, 1460.449 448.519, 1430.972 527.500 C 1365.003 704.260, 1325.362 826.689, 1301.020 928.845 C 1260.518 1098.826, 1240.970 1270.496, 1239.573 1468.500 C 1238.766 1582.774, 1243.651 1688.101, 1254.529 1791 C 1270.571 1942.732, 1295.947 2048.919, 1356.832 2219.088 C 1363.442 2237.562, 1369.529 2255.955, 1370.358 2259.963 C 1371.558 2265.761, 1373.036 2269.014, 1377.589 2275.875 C 1390.335 2295.089, 1402.644 2310.575, 1430.940 2343 C 1445.500 2359.685, 1482.384 2401.569, 1484.615 2403.951 C 1485.760 2405.174, 1485.878 2248.649, 1485.365 1407.951 C 1485.030 859.353, 1484.643 410.370, 1484.505 410.211 C 1484.368 410.052, 1482.243 413.202, 1479.783 417.211 M 1440.895 440.750 C 1428.633 454.504, 1407.831 477.076, 1366.013 522 C 1324.677 566.406, 1318.054 573.872, 1264.439 636.500 C 1159.335 759.274, 1014.067 942.714, 929.856 1059 C 764.019 1288.006, 645.698 1481.552, 538.910 1698.500 C 421.136 1937.768, 332.890 2173.351, 295.618 2348 C 286.179 2392.230, 278.764 2442.148, 276.529 2476.500 C 276.207 2481.450, 275.699 2487.975, 275.399 2491 L 274.855 2496.500 293.723 2468.402 C 328.920 2415.984, 353.373 2385.759, 391.501 2347.540 C 452.087 2286.809, 521.040 2236.088, 585.171 2205.077 C 646.190 2175.571, 703.728 2159.999, 775.500 2153.567 C 880.054 2144.197, 997.718 2155.642, 1125.500 2187.613 C 1194.633 2204.910, 1242.660 2221.892, 1315.500 2254.794 C 1343.589 2267.483, 1354.927 2272, 1358.682 2272 C 1360.427 2272, 1360.402 2265.083, 1358.633 2258.500 C 1357.894 2255.750, 1351.771 2238.200, 1345.028 2219.500 C 1294.009 2078.032, 1268.196 1979.292, 1252.090 1864 C 1239.657 1775.002, 1232.301 1681.749, 1229.016 1571.500 C 1227.931 1535.073, 1228.532 1408.047, 1229.929 1378.500 C 1234.853 1274.386, 1240.860 1206.314, 1252.079 1127.500 C 1274.578 969.445, 1305.297 848.224, 1369.029 666 C 1402.627 569.935, 1415.711 535.433, 1445.434 464.521 C 1452.345 448.033, 1458 434.049, 1458 433.446 C 1458 432.347, 1453.861 428, 1452.816 428 C 1452.510 428, 1447.146 433.738, 1440.895 440.750 M 814.500 2160.699 C 781.915 2161.815, 742.254 2166.369, 711.500 2172.526 C 604.295 2193.988, 503.992 2251.520, 405.611 2347.980 C 363.021 2389.737, 337.431 2421.151, 299.971 2477.659 C 290.549 2491.872, 282.022 2504.342, 281.022 2505.371 C 279.412 2507.026, 279.355 2507.605, 280.524 2510.403 C 284.248 2519.317, 284.707 2541.903, 281.363 2551.751 C 280.534 2554.192, 280.001 2556.306, 280.178 2556.448 C 280.355 2556.591, 287.649 2557.242, 296.387 2557.896 C 305.124 2558.550, 325.149 2560.659, 340.887 2562.583 C 460.734 2577.231, 514.990 2582.747, 649.500 2593.959 C 818.108 2608.013, 896.899 2613.652, 1000.718 2619.097 L 1022.937 2620.262 1029.718 2614.311 C 1056.075 2591.180, 1150.689 2518.224, 1176.824 2500.877 C 1214.545 2475.842, 1248.531 2465.735, 1307.500 2462.016 C 1316.300 2461.461, 1360.325 2461.005, 1405.334 2461.004 L 1487.167 2461 1486.440 2446.305 L 1485.712 2431.609 1472.106 2416.504 C 1464.623 2408.196, 1442.638 2383.128, 1423.251 2360.798 C 1365.858 2294.691, 1354.350 2282.853, 1343.713 2278.977 C 1340.296 2277.733, 1324.729 2270.906, 1309.120 2263.808 C 1264.144 2243.354, 1242.544 2234.555, 1211.025 2223.849 C 1118.433 2192.399, 1010.715 2169.944, 919 2162.972 C 887.320 2160.564, 845.184 2159.648, 814.500 2160.699 M 1366.694 2279.585 C 1365.151 2280.913, 1363.235 2282, 1362.436 2282 C 1361.637 2282, 1367.649 2288.637, 1375.796 2296.750 C 1389.665 2310.561, 1403.499 2326.371, 1462 2395.265 L 1485.500 2422.940 1485.815 2418.809 C 1486.114 2414.897, 1485.766 2414.304, 1479.233 2407.589 C 1475.440 2403.690, 1462.902 2389.925, 1451.371 2377 C 1403.510 2323.351, 1386.777 2303.356, 1376.052 2287 C 1372.626 2281.775, 1369.750 2277.426, 1369.661 2277.335 C 1369.573 2277.244, 1368.237 2278.257, 1366.694 2279.585 M 1522 2376.520 C 1522 2384.406, 1522.163 2385.147, 1523.750 2384.497 C 1525.932 2383.604, 1606.498 2383.141, 1870.500 2382.502 C 1984.350 2382.227, 2172.450 2381.713, 2288.500 2381.359 C 2445.896 2380.880, 2508.097 2381.026, 2533.341 2381.934 C 2551.954 2382.603, 2567.281 2383.004, 2567.402 2382.825 C 2567.523 2382.646, 2567.438 2380.137, 2567.214 2377.250 L 2566.807 2372 2548.267 2372 C 2538.069 2372, 2498.625 2371.244, 2460.613 2370.320 C 2385.804 2368.502, 2166.604 2368.097, 1766 2369.038 C 1657.925 2369.292, 1558.813 2369.123, 1545.750 2368.663 L 1522 2367.826 1522 2376.520 M 1495 2423.500 L 1495 2431 1503.500 2431 L 1512 2431 1512 2423.500 L 1512 2416 1503.500 2416 L 1495 2416 1495 2423.500 M 1495 2449.473 L 1495 2461 1503.500 2461 L 1512 2461 1512 2449.618 L 1512 2438.236 1503.500 2438.091 L 1495 2437.947 1495 2449.473 M 1317.500 2472.033 C 1269.076 2474.252, 1236.013 2481.022, 1209.300 2494.187 L 1198.519 2499.500 1218.509 2500.042 C 1243.606 2500.723, 1246.462 2501.746, 1250.598 2511.537 C 1252.054 2514.982, 1252.250 2519.421, 1252.095 2545.500 C 1251.885 2580.760, 1250.914 2596.332, 1248.649 2600.711 C 1246.421 2605.019, 1242.657 2607.735, 1236.092 2609.768 C 1231.050 2611.330, 1225.186 2611.484, 1176.500 2611.337 C 1126.213 2611.186, 1068.750 2609.738, 1059.500 2608.388 C 1055.746 2607.841, 1055.021 2608.187, 1047.707 2614.026 C 1043.421 2617.448, 1040.097 2620.431, 1040.321 2620.654 C 1041.649 2621.982, 1269.042 2631.602, 1439 2637.519 C 1494.275 2639.444, 1563.800 2641.901, 1593.500 2642.979 C 1671.313 2645.804, 1730.029 2647.724, 1808.500 2650.011 C 1887.266 2652.307, 1992.516 2655.636, 2017.250 2656.615 C 2026.463 2656.979, 2034 2657, 2034 2656.662 C 2034 2656.324, 2029.900 2647.374, 2024.888 2636.773 C 2019.877 2626.173, 2011.338 2607.730, 2005.913 2595.789 C 1993.459 2568.379, 1977.815 2537.081, 1969.915 2523.773 C 1948.510 2487.714, 1930.642 2480.289, 1857.500 2477.061 C 1779.107 2473.602, 1367.011 2469.765, 1317.500 2472.033 M 1423.500 2499.495 C 1422.950 2499.680, 1399.550 2500.321, 1371.500 2500.918 C 1286.077 2502.739, 1287.248 2502.640, 1283.472 2508.402 C 1281.114 2512.001, 1280.193 2525.095, 1279.526 2564.513 L 1278.916 2600.526 1281.275 2604.988 C 1284.684 2611.435, 1289.830 2613.800, 1303.033 2614.990 C 1325.515 2617.015, 1474.367 2615.247, 1481.444 2612.870 C 1486.917 2611.032, 1491.469 2606.164, 1492.853 2600.671 C 1494.236 2595.177, 1494.372 2541.456, 1493.048 2523.245 C 1491.602 2503.354, 1489.423 2501.427, 1466.722 2499.961 C 1453.128 2499.083, 1425.603 2498.786, 1423.500 2499.495 M 1546.324 2501.002 C 1535.598 2501.939, 1529.351 2504.944, 1526.218 2510.673 C 1523.088 2516.396, 1522.171 2528.691, 1521.831 2569.528 C 1521.569 2601.003, 1521.650 2602.718, 1523.556 2606.028 C 1525.880 2610.063, 1530.410 2612.561, 1538.024 2614.005 C 1541.407 2614.646, 1564.097 2614.955, 1598.470 2614.827 C 1674.892 2614.542, 1713.642 2613.625, 1718 2612 C 1723.994 2609.764, 1727.167 2606.876, 1729.693 2601.360 C 1731.800 2596.758, 1732.198 2594.109, 1732.636 2581.769 C 1732.915 2573.921, 1732.761 2555.988, 1732.294 2541.919 C 1731.478 2517.370, 1731.342 2516.139, 1728.918 2511.419 C 1725.140 2504.062, 1720.603 2501.924, 1706.631 2500.917 C 1693.016 2499.936, 1557.700 2500.008, 1546.324 2501.002 M 1779 2500.856 C 1768.859 2501.653, 1764.604 2503.766, 1761.598 2509.500 C 1759.593 2513.323, 1759.486 2515.179, 1759.182 2551.500 C 1759.008 2572.400, 1759.154 2592.297, 1759.508 2595.715 C 1760.352 2603.869, 1763.067 2607.862, 1769.525 2610.450 C 1774.144 2612.301, 1776.790 2612.439, 1806.500 2612.388 C 1843.139 2612.325, 1848.180 2611.696, 1853.869 2606.479 L 1857.500 2603.149 1857.454 2593.825 C 1857.415 2585.926, 1856.602 2581.366, 1852.140 2564 C 1849.242 2552.725, 1845.104 2537.301, 1842.943 2529.724 C 1835.187 2502.530, 1833.030 2500.866, 1805 2500.449 C 1795.375 2500.306, 1783.675 2500.489, 1779 2500.856 M 1173.769 2515.901 C 1157.269 2527.736, 1136.308 2543.896, 1090.082 2580.418 L 1064.663 2600.500 1090.582 2601.194 C 1104.837 2601.576, 1142.375 2602.026, 1174 2602.194 C 1235.455 2602.521, 1238.634 2602.309, 1241.207 2597.716 C 1242.642 2595.155, 1244.191 2527.123, 1243.017 2518.196 C 1241.841 2509.244, 1242.894 2509.541, 1211.216 2509.211 L 1183.500 2508.922 1173.769 2515.901 M 1442 2509.261 C 1441.725 2509.520, 1408.906 2510.045, 1369.069 2510.427 C 1329.232 2510.810, 1295.364 2511.377, 1293.806 2511.689 C 1291.864 2512.077, 1290.821 2513.001, 1290.487 2514.628 C 1290.219 2515.932, 1289.780 2518.070, 1289.512 2519.377 C 1288.346 2525.054, 1286.946 2597.727, 1287.951 2600.372 C 1288.581 2602.028, 1290.460 2603.764, 1292.744 2604.798 C 1296.190 2606.359, 1303.811 2606.500, 1385 2606.500 C 1477.623 2606.500, 1480.663 2606.367, 1482.884 2602.216 C 1483.389 2601.272, 1484.099 2598.475, 1484.461 2596 C 1485.194 2590.986, 1483.353 2518.254, 1482.396 2514.442 C 1481.959 2512.702, 1480.762 2511.755, 1478.144 2511.080 C 1474.206 2510.064, 1442.823 2508.484, 1442 2509.261 M 1552.823 2509.876 C 1537.649 2510.568, 1534.426 2511.804, 1532.760 2517.568 C 1531.828 2520.795, 1529.817 2599.359, 1530.614 2601.436 C 1532.040 2605.153, 1535.515 2605.493, 1575 2605.777 C 1633.135 2606.194, 1713.866 2604.632, 1717.202 2603.025 C 1723.541 2599.970, 1724.492 2591.239, 1723.245 2547.500 C 1722.647 2526.502, 1722.008 2516.799, 1721.115 2515.165 C 1718.089 2509.629, 1718.784 2509.677, 1639.500 2509.456 C 1599.350 2509.343, 1560.345 2509.533, 1552.823 2509.876 M 1786.796 2509.884 C 1777.284 2510.257, 1770.650 2510.945, 1769.969 2511.628 C 1769.350 2512.248, 1768.445 2514.498, 1767.956 2516.628 C 1766.865 2521.384, 1767.936 2597.841, 1769.126 2600.165 C 1770.644 2603.128, 1779.185 2604.001, 1806.299 2603.967 C 1837.281 2603.929, 1845.677 2603.117, 1848.274 2599.910 C 1850.632 2596.998, 1850.170 2593.783, 1843.838 2569 C 1830.812 2518.022, 1829.251 2513.347, 1824.538 2511.199 C 1821.101 2509.633, 1806.310 2509.118, 1786.796 2509.884 M 267.554 2522.846 C 267.168 2528.811, 267.139 2535.448, 267.490 2537.596 C 269.190 2547.978, 271.358 2556.897, 272.075 2556.454 C 272.514 2556.183, 273.635 2552.532, 274.568 2548.341 C 275.852 2542.569, 276.138 2537.903, 275.746 2529.110 C 275.141 2515.517, 274.094 2512, 270.653 2512 C 268.316 2512, 268.240 2512.265, 267.554 2522.846 M 274.120 2571.079 C 272.006 2571.925, 271.803 2572.492, 272.294 2576.158 C 273.858 2587.818, 296.443 2626.096, 331.721 2676.877 C 392.499 2764.362, 436.694 2817.646, 495.976 2874.909 L 518.133 2896.312 541.817 2892.151 C 579.676 2885.500, 586.083 2884.741, 605 2884.663 C 624.926 2884.582, 630.255 2885.359, 662 2892.975 C 703.929 2903.034, 719.622 2905.126, 738.106 2903.122 C 750.049 2901.826, 777.788 2896.387, 804.859 2890.033 C 857.900 2877.583, 879.123 2878.207, 917.642 2893.352 C 944.490 2903.908, 952.566 2905.646, 970.304 2904.685 C 983.789 2903.955, 995.552 2901.301, 1024 2892.573 C 1079.630 2875.506, 1094.621 2871.936, 1117 2870.425 C 1137.565 2869.038, 1161.141 2873.543, 1190.416 2884.455 C 1227.825 2898.398, 1242.289 2901.457, 1270.500 2901.393 C 1289.019 2901.351, 1310.949 2899.294, 1344 2894.497 C 1394.558 2887.159, 1419.255 2884.797, 1445 2884.835 C 1468.803 2884.870, 1480.235 2886.058, 1523.527 2892.995 C 1565.258 2899.681, 1576.993 2901.007, 1600.500 2901.691 C 1629.280 2902.529, 1653.726 2900.650, 1701.500 2893.929 C 1717.921 2891.618, 1728.698 2890.706, 1744 2890.330 C 1763.999 2889.838, 1765.184 2889.925, 1792.500 2893.868 C 1807.900 2896.091, 1826.271 2898.440, 1833.324 2899.089 C 1847.545 2900.396, 1882.407 2899.809, 1893 2898.085 C 1943.217 2889.908, 1946.421 2889.563, 1972 2889.576 L 1996.500 2889.588 2038.500 2895.747 C 2097.500 2904.398, 2098.592 2904.501, 2131.500 2904.464 C 2161.825 2904.431, 2160.499 2904.538, 2213.500 2897.865 C 2258.635 2892.182, 2283.395 2892.765, 2346.309 2900.991 C 2389.678 2906.663, 2403.975 2908, 2421.228 2908 C 2441.196 2908, 2455.479 2906.243, 2489.500 2899.603 C 2504.900 2896.598, 2522.225 2893.630, 2528 2893.008 C 2546.445 2891.021, 2543.875 2892.585, 2552.296 2878.220 C 2577.733 2834.822, 2606.553 2780.642, 2620.006 2750.928 C 2635.929 2715.760, 2646.987 2681.612, 2645.303 2672.805 C 2644.947 2670.941, 2643.861 2669.799, 2641.746 2669.061 C 2637.992 2667.753, 2619.045 2667.719, 2596.500 2668.980 C 2573.035 2670.293, 2515.787 2671.799, 2444 2672.991 C 2365.660 2674.292, 2348.624 2674.388, 2263.500 2674.002 C 2167.343 2673.566, 2159.391 2673.379, 1944.500 2666.498 C 1919.200 2665.688, 1858.225 2663.893, 1809 2662.509 C 1712.615 2659.799, 1667.297 2658.347, 1559 2654.497 C 1520.775 2653.138, 1462.725 2651.119, 1430 2650.010 C 1303.769 2645.731, 1197.009 2641.386, 1073 2635.480 C 914.532 2627.934, 851.969 2623.686, 645.500 2606.454 C 516.121 2595.657, 468.237 2590.849, 367 2578.493 C 295.724 2569.793, 280.391 2568.569, 274.120 2571.079" stroke="none" fill="#040404" fill-rule="evenodd"/></svg>