<svg xmlns="http://www.w3.org/2000/svg" viewBox="0 0 598.21 37.18"><defs><style>.cls-1{fill:currentColor;}</style></defs><title>Asset 26</title><g id="Layer_2" data-name="Layer 2"><g id="Layer_1-2" data-name="Layer 1"><path class="cls-1" d="M301.88,14.15c-.3.8-1.2.8-1.6,0a.6.6,0,0,1-.1-.4l.7.7c-.9-.3-1.2-1-1.9-1.6-.9-.8-3.7-2-4.3-.1-.8,2.6-1.7,5.8,1.3,7.3,2.2,1.2,5.9,1.3,6.6-1.9.6-2.9-1.3-3.8-2.5-6a.77.77,0,0,1,.9-1.1c4.1,1,5.2,6.3,3.2,9.6s-6.8,3.5-9.7,1.3c-3.5-2.6-3.4-7.2-1.2-10.8.9-1.5,3-1.6,4.5-1.2a5.45,5.45,0,0,1,2.4,1.2c.5.4,1.1,1.5,1.6,1.7a.84.84,0,0,1,.4,1.1c-.2,0-.3.1-.3.2Zm13.9,1.4V15a1.24,1.24,0,0,0-2.3-.6c-10.6,17.8,40.9,22.1,49.5,22.6,15.5.9,31.1-1,46.4-3.3,16.3-2.4,33.7-4.6,49.3-10.3,13.7-5.1,28.8-8.1,42.9-12,16.7-4.7,33.7-8.3,51.1-8.4,13.4-.1,26.1,2.7,36.7,11a23.72,23.72,0,0,1,5.6,6.2c3.5,5.6-3.4,10.3-8.3,10.8-7.2.7-10.1-13.3-3.1-11.8a1.14,1.14,0,0,0,.6-2.2c-11.1-3.4-8.2,22,7.8,15.2,9.7-4.1,6.6-13.1.7-18.9-9.2-9-21.7-11.8-34.1-12.9-38.6-3.2-75.1,16.1-112,23.5-22.3,4.5-44.4,9-67.2,10.3-7.6.4-73.1-2.8-63.8-18.6l-2.3-.6v.6c.1,1.5,2.5,1.5,2.5,0Zm-1.6.7c1.3-.5,1.7-2.1,2.6-3.1,1.5-1.8,4.7-1.7,6.9-1.4,4.6.6,3.9,5.8.6,7.5a9.11,9.11,0,0,1-3.6.9c-1.6.1-1.3-2.5-1.3-3.4-.3.3-.5.7-.8,1a4.88,4.88,0,0,0,.7-.3.84.84,0,0,0,0-1.4,3.63,3.63,0,0,0-.7-.3,1,1,0,0,0-1.3,1c-.1,3.1.7,6,4.4,5.4s7.3-2.7,7.5-6.9c.2-4.4-4.5-5.8-8-5.7a8.35,8.35,0,0,0-4.6,1.2,6.17,6.17,0,0,0-1.8,1.8,12.4,12.4,0,0,1-1.2,2.3c-.7.5-.3,1.7.6,1.4Zm-29.2-.7V15l-2.3.6c9.1,15.5-53.3,18.9-60.5,18.7a292.85,292.85,0,0,1-67.8-9.8c-18.9-5.1-37.9-10.5-56.9-15.8-18.8-5.2-38.2-9.3-57.8-8.3C27.38,1,16.68,4.45,7,12c-6.9,5.4-10.3,13.2-2.5,19.1,15.6,11.9,22-18,9.5-14.2a1.14,1.14,0,0,0,.6,2.2c8.2-1.8,2.5,9.4,0,11.1-4.3,2.8-11.7-2.1-12.3-6.6-.4-3.2,3.1-6.5,5.1-8.4C16.78,6.05,30,3.65,42.48,3c31.8-1.7,63.9,11.5,94.2,19.5,30.9,8.2,62.9,15.2,95.2,14.6,8.8-.1,63.6-4.4,52.8-22.7a1.25,1.25,0,0,0-2.3.6v.6c.1,1.5,2.6,1.5,2.6,0Zm-.3-.7c-.3-.2-.6-1.3-.8-1.7a11,11,0,0,0-2-2.3,7.71,7.71,0,0,0-4.2-1.3c-3.6-.3-8,.8-8.5,5s3.1,6.7,6.8,7.5c4,.9,5.2-1.8,5.1-5.3a1,1,0,0,0-1.3-1,4.88,4.88,0,0,0-.7.3.84.84,0,0,0,0,1.4,3.63,3.63,0,0,0,.7.3c-.3-.3-.5-.7-.8-1a12.41,12.41,0,0,1-.3,2.7c-.3,1.4-2.8.5-3.6.2-3.7-1.1-5.7-6-1.2-7.8a9.44,9.44,0,0,1,6.8.6c1.6.9,1.7,3.1,3.4,3.8.9.3,1.3-.9.6-1.4Z"/></g></g></svg>