<svg xmlns="http://www.w3.org/2000/svg" width="3000" height="3000" viewBox="0 0 3000 3000" version="1.1"><path d="" stroke="none" fill="#080404" fill-rule="evenodd"/><path d="M 2232.500 57.338 C 2219.334 61.701, 2209.195 72.138, 2191.409 99.637 C 2187.189 106.162, 2182.265 113.760, 2180.466 116.523 C 2178.667 119.285, 2176.161 123.673, 2174.898 126.273 L 2172.601 131 2162.726 131 C 2147.741 131, 2039.974 136.463, 1906 144.014 C 1895.825 144.588, 1854.650 146.855, 1814.500 149.053 C 1629.014 159.207, 1553.403 165.158, 1471 176.087 C 1435.377 180.811, 1434 181.147, 1434 185.103 C 1434 187.560, 1435.352 187.773, 1455.500 188.494 C 1543.637 191.651, 1615.979 217.669, 1657.500 261.145 C 1669.515 273.725, 1673.021 280.706, 1675.710 297.406 C 1676.864 304.569, 1679.204 305.936, 1692.258 307.070 C 1720.271 309.502, 1752.698 318.856, 1779.372 332.199 C 1823.616 354.331, 1851.729 381.613, 1856.969 407.502 C 1858.555 415.336, 1860.186 417.719, 1864.747 418.862 C 1866.811 419.379, 1877.050 420.062, 1887.500 420.380 C 1907.580 420.990, 1920.549 422.566, 1938.399 426.565 C 1950.250 429.220, 1969.051 435.252, 1978.367 439.388 C 1984.066 441.919, 1984.192 442.058, 1982.765 444.247 C 1975.762 454.983, 1947.602 500.004, 1936.321 518.500 C 1920.993 543.631, 1889.882 594.389, 1889.623 594.686 C 1889.534 594.788, 1884.970 595.589, 1879.481 596.467 C 1846.498 601.737, 1802.507 613.911, 1770 626.765 C 1735.076 640.574, 1695.820 661.600, 1669.387 680.652 C 1654.319 691.513, 1650 696.239, 1650 701.867 C 1650 705.426, 1651.878 707.472, 1694.984 750.873 C 1719.725 775.783, 1742.944 799.490, 1746.582 803.555 L 1753.197 810.946 1751.151 814.256 L 1749.105 817.566 1728.303 815.372 C 1643.208 806.397, 1530.059 798.715, 1427.500 794.951 C 1321.561 791.063, 1187.259 791.083, 1092 795.003 C 876.201 803.881, 672.128 830.200, 579.674 861.076 C 532.210 876.927, 504.113 893.806, 495.916 911.390 L 493.068 917.500 493.438 944.500 C 493.833 973.287, 495.357 986.795, 501.508 1016 C 510.261 1057.563, 518.837 1083.040, 535.355 1116.550 C 549.395 1145.030, 560.760 1163.353, 582.561 1192.650 C 608.561 1227.591, 641.453 1260.062, 681.290 1290.117 C 698.508 1303.107, 717.556 1315.411, 757.228 1339.167 C 799.333 1364.381, 811.298 1372.075, 828.500 1385.003 C 867.131 1414.033, 892.699 1444.693, 915.643 1489.500 C 933.611 1524.590, 945.597 1558.382, 963.884 1625.500 C 981.359 1689.635, 996.441 1737.862, 1007.979 1766.500 C 1025.474 1809.922, 1047.526 1845.830, 1075.226 1876 C 1093.891 1896.328, 1110.508 1911.003, 1140.614 1933.741 C 1151.551 1942.002, 1163.425 1951.360, 1167 1954.536 C 1187.853 1973.063, 1197.746 1993.133, 1200.993 2023.500 C 1201.581 2029, 1202.477 2071.975, 1202.983 2119 C 1203.984 2212.017, 1205.120 2269.533, 1207.694 2357.500 C 1209.805 2429.674, 1210.106 2572.604, 1208.205 2600.500 C 1206.507 2625.417, 1204.340 2645.083, 1201.890 2657.811 C 1198.763 2674.050, 1200.355 2672.593, 1184.830 2673.415 C 1119.712 2676.861, 1027.422 2691.012, 961.500 2707.660 C 900.155 2723.152, 857.620 2739.596, 832.384 2757.576 C 811.541 2772.426, 805 2783.735, 805 2804.924 C 805 2823.900, 809.984 2834.996, 825.488 2850.534 C 837.472 2862.544, 846.512 2868.714, 866.500 2878.525 C 896.196 2893.100, 930.204 2903.923, 979.359 2914.443 C 1039.821 2927.383, 1137.199 2938.603, 1214.500 2941.537 C 1223.850 2941.892, 1232.625 2942.390, 1234 2942.644 C 1235.375 2942.898, 1263.950 2943.371, 1297.500 2943.695 C 1416.920 2944.850, 1506.125 2938.944, 1596.320 2923.913 C 1671.670 2911.357, 1720.398 2895.082, 1747.815 2873.317 C 1758.593 2864.761, 1766.346 2854.320, 1770.184 2843.190 C 1773.479 2833.634, 1773.282 2819.446, 1769.649 2804.635 C 1755.257 2745.972, 1687.849 2706.677, 1568.771 2687.538 C 1521.483 2679.938, 1442.110 2673.010, 1402.225 2673.002 C 1389.015 2673, 1390.280 2674.270, 1387.110 2657.811 C 1384.660 2645.083, 1382.493 2625.417, 1380.795 2600.500 C 1378.894 2572.604, 1379.195 2429.674, 1381.306 2357.500 C 1383.880 2269.533, 1385.016 2212.017, 1386.017 2119 C 1386.523 2071.975, 1387.419 2029, 1388.007 2023.500 C 1391.254 1993.133, 1401.147 1973.063, 1422 1954.536 C 1425.575 1951.360, 1437.449 1942.002, 1448.386 1933.741 C 1459.323 1925.481, 1471.473 1915.993, 1475.386 1912.657 C 1508.991 1884.009, 1533.255 1856.306, 1551.922 1825.273 C 1577.999 1781.917, 1595.547 1734.023, 1625.116 1625.500 C 1643.403 1558.382, 1655.389 1524.590, 1673.357 1489.500 C 1696.301 1444.693, 1721.869 1414.033, 1760.500 1385.003 C 1777.702 1372.075, 1789.667 1364.381, 1831.772 1339.167 C 1871.444 1315.411, 1890.492 1303.107, 1907.710 1290.117 C 1947.547 1260.062, 1980.439 1227.591, 2006.439 1192.650 C 2025.795 1166.639, 2039.065 1145.778, 2049.604 1124.793 C 2052.071 1119.882, 2054.514 1116.006, 2055.033 1116.181 C 2057.561 1117.034, 2127.792 1190.194, 2148.680 1213.732 C 2209.742 1282.545, 2236.943 1311.725, 2247.113 1319.327 C 2256.558 1326.388, 2265.315 1326.142, 2272.500 1318.613 C 2282.180 1308.471, 2301.168 1268.299, 2325.471 1206.545 C 2352.714 1137.320, 2364.359 1096.368, 2371.233 1045.614 C 2373.035 1032.305, 2373.422 1024.539, 2373.456 1001 C 2373.481 983.531, 2372.996 968.436, 2372.204 962 C 2361.339 873.702, 2325.222 794.795, 2263.953 725.500 C 2219.003 674.661, 2156.982 633.596, 2093 612.308 C 2061.865 601.950, 2023.751 594.895, 1980.327 591.453 L 1972.153 590.805 1978.775 580.153 C 1990.387 561.471, 2022.364 507.989, 2030.446 493.731 C 2034.739 486.159, 2038.595 479.750, 2039.016 479.490 C 2040.153 478.787, 2057.408 497.190, 2064.201 506.352 C 2067.454 510.739, 2072.172 518.557, 2074.687 523.726 C 2077.201 528.894, 2080.329 533.824, 2081.637 534.682 C 2083.636 535.991, 2086.130 536.129, 2097.258 535.546 C 2125.850 534.046, 2158.741 540.769, 2185.706 553.624 C 2204.664 562.662, 2225.931 578.991, 2239.500 594.928 C 2248.933 606.007, 2261.116 623.517, 2267.078 634.561 C 2273.794 647.004, 2275.560 648.513, 2283.333 648.452 C 2286.859 648.424, 2292.284 647.477, 2296 646.240 C 2312.466 640.761, 2329.370 640.646, 2344.952 645.906 C 2363.774 652.261, 2388.460 665.458, 2409.482 680.403 C 2437.769 700.515, 2474.458 735.083, 2495.023 761 C 2500.864 768.361, 2502.224 769.381, 2505.018 768.494 C 2509.696 767.009, 2508.780 763.925, 2495.708 737.175 C 2474.862 694.515, 2454.223 649.879, 2398.986 528 C 2353.719 428.118, 2347.324 414.185, 2306.739 327 C 2274.126 256.942, 2251.695 210.048, 2239.483 186.396 L 2229.103 166.293 2232.617 162.896 C 2242.981 152.881, 2264.796 114.802, 2269.587 98.364 C 2273.395 85.299, 2271.085 72.321, 2263.684 65.201 C 2255.904 57.717, 2241.964 54.203, 2232.500 57.338 M 2239 66.772 C 2228.698 68.094, 2222.695 73.888, 2201.986 102.500 C 2181.201 131.218, 2178.875 136.721, 2184.956 142.802 C 2188.463 146.309, 2202.591 155.746, 2209.816 159.407 C 2217.585 163.344, 2220.672 162.936, 2226.159 157.250 C 2237.163 145.846, 2256.550 111.387, 2260.419 96.356 C 2263.563 84.137, 2261.470 75.325, 2254.295 70.576 C 2250.305 67.936, 2243.371 66.211, 2239 66.772 M 2169.500 140.521 C 2168.286 140.961, 2122.313 143.473, 2078 145.520 C 2035.078 147.504, 1969.212 150.735, 1945.500 152.021 C 1935.050 152.588, 1890.950 154.848, 1847.500 157.043 C 1666.511 166.186, 1567.389 172.552, 1502.500 179.200 L 1480.500 181.454 1493.500 182.736 C 1544.655 187.781, 1596.283 203.735, 1629 224.608 C 1647.673 236.520, 1665.747 252.504, 1673.832 264.255 C 1678.400 270.896, 1682.746 280.458, 1684.050 286.742 C 1684.715 289.945, 1685.637 291.984, 1686.333 291.792 C 1686.975 291.615, 1697.252 288.224, 1709.172 284.258 C 1772.370 263.228, 2046.351 178.384, 2110 160.134 C 2125.442 155.707, 2170.220 144, 2171.714 144 C 2172.421 144, 2173 143.100, 2173 142 C 2173 140.133, 2171.878 139.658, 2169.500 140.521 M 2144.500 158.062 C 2128.550 163.449, 2090.300 175.570, 2059.500 184.998 C 1982.071 208.700, 1884.950 239.170, 1805.500 264.688 C 1768.650 276.523, 1730.541 288.723, 1720.812 291.800 C 1711.084 294.876, 1703.309 297.692, 1703.535 298.057 C 1703.761 298.422, 1706.034 299.007, 1708.587 299.357 C 1716.193 300.399, 1735.625 304.960, 1745.784 308.087 C 1784.806 320.099, 1829.347 346.851, 1847.700 369.300 C 1855.615 378.981, 1859.770 385.748, 1863.541 395.101 L 1866.696 402.927 1869.598 399.855 C 1873.486 395.740, 1896.854 376.230, 1954.500 328.969 C 2055.500 246.164, 2119.570 194.738, 2154.779 168.213 C 2167.583 158.568, 2177.898 150.187, 2177.701 149.588 C 2177.504 148.990, 2176.479 148.448, 2175.422 148.384 C 2174.365 148.320, 2160.450 152.675, 2144.500 158.062 M 2174.500 162.230 C 2157.655 177.092, 2130.571 199.565, 2091 231.514 C 2069.275 249.055, 2035.075 276.942, 2015 293.485 C 1956.560 341.642, 1884.587 400.536, 1876.159 407.093 L 1872.826 409.687 1891.163 410.311 C 1928.466 411.582, 1959.864 419.056, 1990.500 433.959 C 2025.790 451.124, 2059.727 480.065, 2078.753 509.217 L 2083.790 516.934 2084.459 513.217 C 2085.992 504.699, 2092.682 479.469, 2101.621 448.500 C 2124.724 368.455, 2183.895 171.970, 2188.694 159.363 C 2188.932 158.738, 2187.861 157.341, 2186.314 156.258 L 2183.500 154.289 2174.500 162.230 M 2193.658 175.752 C 2192.095 182.764, 2182.722 215.500, 2172.831 248.500 C 2162.939 281.500, 2147.939 331.675, 2139.497 360 C 2122.840 415.892, 2093.913 512.752, 2091.713 520 L 2090.347 524.500 2107.923 524.558 C 2121.616 524.603, 2128.152 525.107, 2137.500 526.836 C 2158.964 530.805, 2175.256 536.023, 2192.500 544.449 C 2216.861 556.353, 2235.096 571.365, 2254.317 595.342 C 2256.893 598.555, 2259 600.983, 2259 600.738 C 2259 600.492, 2258.093 594.371, 2256.984 587.135 C 2250.286 543.440, 2239.766 462.867, 2231.049 388.500 C 2227.761 360.450, 2223.495 324.450, 2221.569 308.500 C 2211.195 222.586, 2206.064 176.543, 2206.005 168.845 C 2206.001 168.278, 2197.699 162.996, 2196.822 163.002 C 2196.645 163.004, 2195.221 168.741, 2193.658 175.752 M 2214.305 173.190 C 2216.983 184.387, 2219.199 201.654, 2243.549 401 C 2251.471 465.862, 2256.803 507.678, 2264.904 568.500 C 2267.615 588.850, 2270.160 608.646, 2270.559 612.492 C 2271.146 618.146, 2272.230 621.253, 2276.228 628.736 C 2278.947 633.825, 2281.542 638.217, 2281.995 638.497 C 2282.448 638.777, 2287.697 637.476, 2293.659 635.607 C 2307.753 631.188, 2319.792 629.718, 2331.212 631.020 C 2359.404 634.234, 2404.300 659.090, 2441.998 692.356 C 2445.024 695.026, 2455.083 704.701, 2464.351 713.856 C 2477.350 726.695, 2480.856 729.700, 2479.689 727 C 2478.857 725.075, 2471.904 710.225, 2464.239 694 C 2450.668 665.272, 2443.064 648.627, 2393.207 538.500 C 2353.675 451.180, 2321.625 382.166, 2278.504 291.500 C 2247.438 226.181, 2243.768 218.292, 2232.450 192.500 L 2223.235 171.500 2218.494 171.190 C 2213.987 170.896, 2213.780 170.994, 2214.305 173.190 M 1990.657 448.240 C 1989.885 449.483, 1986.176 455.675, 1982.414 462 C 1969.300 484.046, 1922.234 561.693, 1906.037 588 C 1843.752 689.163, 1666.810 966.879, 1487.759 1244.500 C 1474.280 1265.400, 1463.323 1282.590, 1463.410 1282.701 C 1463.964 1283.403, 1529.177 1280.216, 1529.913 1279.450 C 1530.416 1278.928, 1541.391 1260.702, 1554.302 1238.948 C 1621.489 1125.752, 1683.049 1026.885, 1840.688 779 C 1932.222 635.064, 1941.102 620.943, 1999.358 526.683 C 2017.311 497.634, 2031.996 473.559, 2031.991 473.183 C 2031.967 471.432, 2004.928 452.634, 1995.187 447.597 C 1992.172 446.038, 1992.009 446.061, 1990.657 448.240 M 1965.291 602.212 C 1964.731 602.920, 1954.690 618.800, 1942.978 637.500 C 1926.324 664.091, 1872.236 749.441, 1850.389 783.604 L 1847.125 788.708 1851.386 795.104 C 1861.836 810.792, 1885 849.942, 1885 851.918 C 1885 854.142, 1883.238 852.858, 1879.965 848.250 C 1878.109 845.638, 1870.924 835.850, 1863.998 826.500 C 1857.072 817.150, 1849.423 806.683, 1846.999 803.240 C 1843.516 798.292, 1842.342 797.244, 1841.401 798.240 C 1839.398 800.358, 1808 850.138, 1808 851.194 C 1808 851.738, 1816.177 860.467, 1826.171 870.591 C 1843.946 888.599, 1844.432 889, 1848.496 889 C 1854.173 889, 1864.698 885.262, 1876.861 878.925 C 1889.290 872.450, 1894.400 871.761, 1906.667 874.906 C 1916.248 877.363, 1926.626 877.597, 1933.635 875.516 C 1936.384 874.699, 1945.128 870.933, 1953.066 867.145 C 1973.361 857.462, 1976.564 856.500, 1988.500 856.501 C 1997.471 856.501, 1999.036 856.784, 2003.705 859.245 C 2006.567 860.753, 2013.023 865.478, 2018.052 869.744 C 2037.262 886.042, 2043.010 890.425, 2059.628 901.452 C 2091.348 922.498, 2099.667 931.394, 2104.128 949.033 C 2106.892 959.965, 2106.292 970.810, 2101.972 987.959 C 2096.555 1009.462, 2096.462 1021.374, 2101.561 1040.500 C 2106.756 1059.987, 2107.949 1066.504, 2107.974 1075.540 C 2108.006 1086.815, 2106.172 1094.259, 2100.838 1104.500 C 2098.546 1108.900, 2095.138 1115.460, 2093.263 1119.078 C 2091.389 1122.696, 2089.603 1127.542, 2089.294 1129.848 L 2088.731 1134.039 2102.616 1148.275 C 2123.659 1169.852, 2138.431 1185.910, 2187.454 1240.500 C 2245.429 1305.059, 2254.308 1313.985, 2260.563 1313.996 C 2268.130 1314.010, 2284.190 1281.857, 2313.510 1208 C 2337.957 1146.415, 2348.614 1112.724, 2356.369 1072.500 C 2366.149 1021.777, 2366.180 977.477, 2356.471 929.440 C 2342.141 858.541, 2308.681 792.358, 2258.036 734.733 C 2214.153 684.803, 2154.394 644.566, 2092.773 623.459 C 2062.073 612.944, 2019.092 604.641, 1984.500 602.543 C 1979 602.210, 1972.657 601.709, 1970.404 601.430 C 1967.722 601.099, 1965.957 601.368, 1965.291 602.212 M 1865 609.479 C 1796.901 623.234, 1738.297 647.124, 1683.459 683.486 C 1675.737 688.607, 1667.248 694.761, 1664.596 697.163 L 1659.773 701.529 1709.468 751.383 C 1736.801 778.802, 1759.502 800.846, 1759.916 800.368 C 1761.898 798.083, 1801 735.999, 1801 735.138 C 1801 734.596, 1797.175 728.073, 1792.500 720.644 C 1787.825 713.214, 1784 706.655, 1784 706.068 C 1784 702.623, 1788.167 706.887, 1797.921 720.312 C 1801.393 725.090, 1804.524 729, 1804.879 729 C 1805.234 729, 1810.446 721.237, 1816.461 711.750 C 1828.301 693.077, 1867.039 631.255, 1876.303 616.250 L 1882.013 607 1879.257 607.078 C 1877.740 607.121, 1871.325 608.201, 1865 609.479 M 2056.630 672.790 C 2056.361 673.225, 2055.004 678.062, 2053.614 683.540 C 2052.223 689.018, 2047.297 707.675, 2042.665 725 C 2038.034 742.325, 2032.387 764.825, 2030.116 775 C 2017.494 831.548, 2015.151 842.485, 2015.571 842.905 C 2016.778 844.112, 2018.480 840.041, 2023.097 824.903 C 2037.720 776.957, 2043.470 754.580, 2051.851 713 C 2058.554 679.750, 2059.749 672, 2058.174 672 C 2057.593 672, 2056.898 672.356, 2056.630 672.790 M 1933 678.567 C 1933 679.429, 1934.797 690.567, 1936.994 703.317 C 1939.190 716.068, 1943.511 741.575, 1946.594 760 C 1959.137 834.938, 1960.498 842.333, 1961.835 842.778 C 1962.888 843.129, 1963.037 841.621, 1962.570 835.359 C 1960.429 806.647, 1959.774 799.042, 1958.402 787 C 1956.662 771.737, 1955.275 763.188, 1950.936 741 C 1947.578 723.828, 1937.327 681.492, 1935.864 678.750 C 1934.703 676.576, 1933 676.467, 1933 678.567 M 2184.386 708.191 C 2179.364 713.781, 2128.020 783.283, 2116.193 800.500 C 2100.263 823.690, 2072 867.535, 2072 869.058 C 2072 872.044, 2076.201 867.097, 2096.740 839.924 C 2124.819 802.775, 2138.135 783.733, 2161.028 748 C 2171.070 732.325, 2181.052 716.892, 2183.211 713.704 C 2187.272 707.709, 2188.035 704.128, 2184.386 708.191 M 1985 737.516 C 1985 761.307, 1986.369 794.293, 1987.589 799.895 C 1989.853 810.290, 1992.520 779.302, 1991.583 753.500 C 1990.851 733.386, 1988.202 712.885, 1986.250 712.244 C 1985.272 711.923, 1985 717.417, 1985 737.516 M 2097.748 743.750 C 2085.339 767.756, 2065.420 813.820, 2066.837 815.237 C 2067.914 816.314, 2069.385 813.973, 2078.300 797 C 2088.101 778.338, 2106 737.694, 2106 734.098 C 2106 733.494, 2105.394 733, 2104.652 733 C 2103.911 733, 2100.804 737.837, 2097.748 743.750 M 1886 752.864 C 1886 757.129, 1913.723 816.890, 1917.581 820.940 C 1920.491 823.997, 1920.068 820.642, 1915.987 808.305 C 1909.078 787.422, 1899.595 767.837, 1890.299 755.250 C 1888.001 752.140, 1886 751.029, 1886 752.864 M 2176.871 801.680 C 2158.285 818.080, 2123.617 852.352, 2124.115 853.834 C 2124.684 855.530, 2154.733 829.178, 2175.188 809.046 C 2191.259 793.228, 2194.830 789, 2192.121 789 C 2191.637 789, 2184.775 794.706, 2176.871 801.680 M 2234.475 807.571 C 2221.839 816.769, 2201.825 831.619, 2190 840.571 C 2165.971 858.763, 2105.875 907.813, 2105.242 909.750 C 2105.017 910.438, 2105.480 911, 2106.270 911 C 2107.912 911, 2166.264 867.273, 2191 847.506 C 2210.306 832.078, 2231.259 815.129, 2245.929 803.071 C 2251.664 798.357, 2256.782 794.215, 2257.300 793.866 C 2257.819 793.517, 2258.065 792.695, 2257.846 792.039 C 2257.620 791.359, 2247.597 798.019, 2234.475 807.571 M 1158 804.012 C 917.274 810.791, 689.167 837.691, 584.877 871.598 C 547.601 883.718, 522.832 896.083, 511.206 908.376 C 502.974 917.080, 501.214 923.680, 505.026 931.555 C 512.463 946.916, 539.142 960.834, 588 974.842 C 627.911 986.285, 664.361 993.086, 754.500 1005.912 C 861.963 1021.202, 991.002 1031.708, 1149.500 1038.074 C 1236.630 1041.573, 1370.993 1040.914, 1477 1036.468 C 1551.267 1033.353, 1612.974 1029.416, 1614.647 1027.686 C 1615.726 1026.570, 1663.278 952.374, 1718.269 866 C 1742.587 827.803, 1742.760 827.494, 1740.140 826.777 C 1735.297 825.451, 1669.142 819.700, 1611 815.552 C 1544.420 810.802, 1486.829 807.812, 1406.500 804.935 C 1368.765 803.584, 1196.003 802.942, 1158 804.012 M 1753.247 936.750 C 1726.881 978.413, 1704.072 1014.469, 1702.562 1016.876 L 1699.815 1021.253 1706.658 1020.568 C 1764.801 1014.745, 1871.201 999.151, 1917.237 989.703 L 1927.974 987.500 1865.395 924.250 C 1830.977 889.462, 1802.450 861, 1802.001 861 C 1801.552 861, 1779.613 895.087, 1753.247 936.750 M 1986 863.714 C 1978.963 864.659, 1972.949 866.861, 1956.500 874.515 C 1946.600 879.122, 1936.250 883.401, 1933.500 884.025 C 1925.161 885.915, 1915.199 885.389, 1904.592 882.500 C 1897.997 880.703, 1893.895 880.084, 1891.734 880.559 C 1889.988 880.942, 1883.371 883.863, 1877.030 887.049 C 1867.159 892.008, 1861.604 893.887, 1852.811 895.240 C 1851.695 895.412, 1866.208 910.667, 1895.664 940.285 C 1927.202 971.994, 1940.687 984.921, 1941.853 984.560 C 1942.759 984.280, 1948.370 982.906, 1954.322 981.506 C 2017.897 966.560, 2069.382 945.062, 2079.045 929.427 L 2081.318 925.749 2078.909 923.835 C 2077.584 922.782, 2068.400 916.486, 2058.500 909.843 C 2039.925 897.379, 2031.331 890.866, 2015 876.876 C 2002.712 866.351, 1994.415 862.585, 1986 863.714 M 2219.712 879.035 C 2189.541 889.764, 2174.898 895.792, 2174.248 897.750 C 2173.529 899.917, 2177.414 899.152, 2190.835 894.482 C 2206.323 889.094, 2249.917 871.483, 2251.374 870.026 C 2253.950 867.450, 2245.643 869.814, 2219.712 879.035 M 2274.500 914.680 C 2241.821 917.485, 2214.753 922.257, 2176.626 931.933 C 2143.310 940.389, 2140 941.387, 2140 942.975 C 2140 944.292, 2137.659 944.654, 2162.501 939.488 C 2186.105 934.580, 2249.909 922.575, 2274.273 918.458 C 2282.648 917.043, 2289.928 915.461, 2290.450 914.942 C 2291.373 914.027, 2283.598 913.899, 2274.500 914.680 M 2083.543 942.953 C 2080.546 946.264, 2067.923 954.536, 2059.162 958.930 C 2036.820 970.134, 1999.630 982.529, 1959.750 992.063 C 1954.388 993.345, 1950 994.666, 1950 994.998 C 1950 996.469, 2048.310 1094.087, 2049.038 1093.338 C 2050.276 1092.061, 2055.757 1077.999, 2060.667 1063.500 C 2069.006 1038.876, 2075.797 1007.773, 2081.520 968 C 2083.459 954.525, 2085.246 942.938, 2085.491 942.250 C 2086.116 940.500, 2085.592 940.688, 2083.543 942.953 M 2095.673 959.387 C 2095.289 965.926, 2094.495 974.369, 2093.909 978.150 C 2092.296 988.544, 2093.415 988.674, 2095.846 978.376 C 2097.236 972.487, 2097.965 966.283, 2097.900 960.876 C 2097.736 947.045, 2096.448 946.184, 2095.673 959.387 M 505 949.881 C 505 950.366, 506.348 960.154, 507.995 971.631 C 512.790 1005.047, 519.720 1037.180, 526.979 1059.655 C 546.022 1118.617, 584.663 1180.950, 631.958 1229 L 643.277 1240.500 644.266 1237.500 C 648.663 1224.165, 671.489 1212.838, 717.500 1201.159 C 846.258 1168.477, 1103.275 1148.399, 1368 1150.340 C 1442.454 1150.886, 1468.543 1151.448, 1518.042 1153.571 L 1533.584 1154.237 1570.148 1097.368 C 1590.259 1066.091, 1606.664 1040.424, 1606.604 1040.331 C 1606.545 1040.238, 1597.272 1040.775, 1585.998 1041.525 C 1496.258 1047.489, 1405.985 1050.271, 1298 1050.401 C 1198.088 1050.521, 1155.110 1049.370, 1058.500 1043.985 C 909.196 1035.664, 796.122 1023.730, 674.500 1003.457 C 633.766 996.667, 604.272 990.023, 575.500 981.155 C 542.030 970.839, 522.829 962.349, 510.332 952.339 C 505.988 948.860, 505 948.404, 505 949.881 M 2198 954.921 C 2198 955.959, 2196.912 955.714, 2222.500 960.454 C 2232.950 962.390, 2246.675 964.642, 2253 965.460 C 2269.894 967.643, 2304.894 970.439, 2305.667 969.667 C 2307.252 968.082, 2305.371 967.560, 2283.500 963.512 C 2259.889 959.143, 2244.322 957.139, 2221.537 955.537 C 2195.715 953.721, 2198 953.781, 2198 954.921 M 2130.524 979.962 C 2129.790 981.149, 2131.162 981.534, 2180.500 993.996 C 2215.774 1002.906, 2243.374 1009.382, 2302.756 1022.681 C 2317.050 1025.883, 2321.700 1026.367, 2319.787 1024.454 C 2318.449 1023.116, 2260.701 1006.208, 2235 999.630 C 2218.203 995.330, 2192.972 990.092, 2152.655 982.533 C 2131.888 978.640, 2131.377 978.580, 2130.524 979.962 M 1920 1000.594 C 1871.450 1010.516, 1783.879 1023.440, 1717.004 1030.552 C 1703.532 1031.985, 1692.435 1033.235, 1692.345 1033.329 C 1691.996 1033.692, 1677.139 1057.430, 1664.700 1077.500 C 1630.598 1132.521, 1614.962 1158.295, 1615.411 1158.744 C 1615.989 1159.322, 1616.886 1159.408, 1650 1162.060 C 1716.510 1167.385, 1766.757 1174.524, 1819.434 1186.129 C 1871.070 1197.506, 1904.129 1209.519, 1922.701 1223.656 C 1932.650 1231.228, 1935.913 1236.410, 1937.317 1246.866 C 1937.562 1248.693, 1965.182 1221.288, 1976.928 1207.563 C 2000.442 1180.088, 2023.778 1145.354, 2038.658 1115.686 L 2044.172 1104.690 2023.338 1083.595 C 1970.671 1030.269, 1937.469 997.009, 1937.006 997.111 C 1936.728 997.172, 1929.075 998.740, 1920 1000.594 M 2088.139 1012.500 C 2087.904 1015.710, 2081.280 1043.543, 2077.986 1055.157 C 2074.654 1066.909, 2068.947 1082.752, 2063.365 1095.748 L 2059.735 1104.199 2069.547 1114.047 C 2074.944 1119.464, 2079.694 1123.689, 2080.103 1123.437 C 2080.512 1123.184, 2081.132 1121.677, 2081.481 1120.087 C 2081.830 1118.498, 2084.855 1112.565, 2088.203 1106.902 C 2097.229 1091.635, 2098.428 1087.766, 2098.403 1074 C 2098.384 1063.671, 2097.948 1060.871, 2094.118 1046.500 C 2091.368 1036.178, 2089.576 1026.951, 2089.070 1020.500 C 2088.638 1015, 2088.219 1011.400, 2088.139 1012.500 M 2202.594 1031.848 C 2200.646 1035, 2219.609 1042.231, 2261.795 1054.424 C 2282.606 1060.438, 2283 1060.522, 2283 1058.949 C 2283 1057.321, 2262.463 1049.437, 2228 1037.836 C 2209.062 1031.461, 2203.625 1030.180, 2202.594 1031.848 M 2137 1064.823 C 2137 1065.276, 2148.137 1070.421, 2161.750 1076.257 C 2175.363 1082.093, 2194.244 1090.239, 2203.709 1094.361 C 2225.007 1103.634, 2299.687 1131, 2303.696 1131 C 2307.840 1131, 2301.884 1127.906, 2274.090 1115.620 C 2233.259 1097.571, 2217.123 1091.183, 2183 1079.560 C 2167.325 1074.221, 2150.752 1068.536, 2146.170 1066.926 C 2136.852 1063.653, 2137 1063.687, 2137 1064.823 M 2161 1108.737 C 2161 1110.358, 2164.074 1112.506, 2176.123 1119.305 C 2195.091 1130.008, 2246.323 1155.182, 2253.750 1157.448 C 2258.379 1158.861, 2255.793 1155.967, 2248.751 1151.854 C 2229.377 1140.540, 2197.472 1123.544, 2182.821 1116.734 C 2165.992 1108.911, 2161 1107.082, 2161 1108.737 M 2137.167 1149.863 C 2137.471 1150.651, 2157.567 1168.880, 2176.004 1185.091 C 2192.981 1200.019, 2209.762 1212.221, 2236 1228.715 C 2257.574 1242.277, 2264.900 1246.434, 2265.742 1245.591 C 2266.101 1245.233, 2265.293 1243.881, 2263.947 1242.587 C 2259.720 1238.524, 2210.496 1201.058, 2187 1184.020 C 2174.625 1175.047, 2158.815 1163.497, 2151.866 1158.353 C 2140.401 1149.865, 2136.239 1147.461, 2137.167 1149.863 M 1269 1161.059 C 1086.655 1164.026, 909.947 1177.860, 790 1198.559 C 713.920 1211.688, 666.160 1226.253, 656.645 1239.226 C 654.744 1241.817, 654.731 1242.045, 656.379 1243.866 C 667.632 1256.301, 737.468 1271.650, 829.500 1281.917 C 953.625 1295.763, 1102.113 1303.352, 1248 1303.306 C 1411.833 1303.254, 1563.953 1295.697, 1748 1278.467 C 1876.973 1266.394, 1915.603 1259.661, 1924.386 1247.725 C 1926.408 1244.977, 1926.409 1244.915, 1924.518 1241.404 C 1920.451 1233.851, 1906.488 1224.848, 1886.621 1216.967 C 1849.539 1202.259, 1775.392 1186.509, 1700.706 1177.476 C 1680.367 1175.016, 1630.494 1170.069, 1618.957 1169.366 L 1608.414 1168.724 1577.052 1221.112 C 1559.803 1249.926, 1544.808 1274.986, 1543.731 1276.802 L 1541.773 1280.104 1549.136 1279.546 C 1553.186 1279.240, 1564.825 1278.523, 1575 1277.954 C 1697.787 1271.089, 1760.484 1257.776, 1759.118 1238.858 C 1758.901 1235.842, 1750.286 1227.555, 1742.113 1222.500 C 1732.669 1216.658, 1731.228 1213.938, 1739.250 1217.095 C 1755.181 1223.364, 1766.300 1231.750, 1767.555 1238.444 C 1768.504 1243.503, 1765.810 1250.036, 1760.971 1254.407 C 1750.664 1263.719, 1727.743 1271.129, 1694.463 1275.909 C 1623.358 1286.120, 1458.431 1292.644, 1364.045 1288.979 C 1341.206 1288.092, 1335.043 1287.327, 1337.666 1285.706 C 1338.128 1285.421, 1359.205 1284.913, 1384.503 1284.578 C 1409.801 1284.243, 1435.013 1283.714, 1440.528 1283.403 L 1450.556 1282.838 1472.528 1248.756 C 1484.613 1230.011, 1501.780 1203.385, 1510.678 1189.587 L 1526.856 1164.500 1512.110 1163.853 C 1451.906 1161.209, 1339.302 1159.915, 1269 1161.059 M 1221.500 1202.101 C 1130.424 1207.780, 1060.774 1222.896, 1042.077 1241.041 C 1032.973 1249.876, 1035.488 1260.099, 1048.385 1266.678 C 1055.410 1270.262, 1072.323 1273.750, 1088.500 1274.952 C 1105.907 1276.245, 1119 1276.295, 1119 1275.067 C 1119 1273.852, 1117.392 1273.408, 1106 1271.482 C 1079.947 1267.076, 1055.802 1259.995, 1049.869 1255.019 L 1046.500 1252.193 1048.978 1249.540 C 1060.628 1237.063, 1109.347 1224.251, 1174.500 1216.531 C 1232.368 1209.674, 1289.425 1206.065, 1340.750 1206.016 C 1350.392 1206.006, 1357 1205.612, 1357 1205.045 C 1357 1203.578, 1352.488 1203.140, 1325.900 1202.029 C 1297.867 1200.856, 1240.825 1200.896, 1221.500 1202.101 M 671.527 1264.860 C 672.062 1265.358, 676.916 1269.193, 682.313 1273.383 C 704.280 1290.433, 720.927 1301.301, 769.500 1330.304 C 826.613 1364.405, 848.783 1380.593, 874.038 1406.635 C 903.768 1437.292, 925.707 1472.906, 945.788 1523.109 C 955.833 1548.223, 963.451 1572.350, 976.966 1621.849 C 999.101 1702.919, 1019.245 1763.796, 1028.846 1778.635 C 1040.349 1796.411, 1076.580 1834.897, 1097.487 1851.547 C 1133.292 1880.062, 1180.109 1902.971, 1224 1913.455 C 1251.128 1919.935, 1276.759 1922.564, 1304 1921.661 C 1351.232 1920.094, 1391.708 1909.368, 1437 1886.419 C 1488.220 1860.465, 1522.163 1830.466, 1552.773 1784.099 C 1566.584 1763.177, 1574.739 1745.674, 1583.803 1717.500 C 1596.252 1678.802, 1599.239 1668.678, 1612.029 1621.849 C 1625.553 1572.335, 1633.171 1548.212, 1643.212 1523.109 C 1663.293 1472.906, 1685.232 1437.292, 1714.962 1406.635 C 1740.217 1380.593, 1762.387 1364.405, 1819.500 1330.304 C 1850.646 1311.706, 1873.897 1297.276, 1882.500 1291.204 C 1891.314 1284.982, 1913.003 1268.668, 1912.747 1268.452 C 1912.611 1268.337, 1907.352 1269.545, 1901.060 1271.137 C 1887.214 1274.641, 1865.828 1277.783, 1824 1282.458 C 1757.055 1289.940, 1621.856 1301.172, 1551.500 1305.097 C 1539.400 1305.772, 1528.574 1306.658, 1527.442 1307.065 C 1526.133 1307.535, 1519.591 1317.591, 1509.493 1334.652 C 1449.339 1436.284, 1418.781 1486.202, 1345.528 1602.500 C 1289.384 1691.634, 1218.083 1800.335, 1205.300 1816.281 C 1198.832 1824.349, 1193.585 1828.067, 1187.738 1828.726 C 1181.886 1829.386, 1178.886 1827.972, 1158.382 1814.897 C 1138.492 1802.212, 1136 1799.606, 1136 1791.490 C 1136 1785.102, 1139.326 1778.515, 1156.197 1751.500 C 1163.066 1740.500, 1179.387 1713.950, 1192.466 1692.500 C 1255.699 1588.793, 1321.866 1483.369, 1410.842 1344.561 C 1422.454 1326.445, 1431.832 1311.499, 1431.682 1311.349 C 1431.532 1311.198, 1419.279 1311.531, 1404.454 1312.088 C 1328.770 1314.929, 1196.514 1315.374, 1127 1313.021 C 969.549 1307.691, 837.105 1296.920, 750.596 1282.409 C 721.391 1277.511, 689.157 1270.376, 676.527 1266.016 C 673.242 1264.882, 670.992 1264.362, 671.527 1264.860 M 1488.500 1308.561 C 1476.400 1309.250, 1462.162 1309.856, 1456.861 1309.907 C 1449.204 1309.981, 1446.809 1310.360, 1445.217 1311.750 C 1440.160 1316.164, 1275.574 1577.135, 1209.505 1685.500 C 1202.463 1697.050, 1186.479 1722.925, 1173.984 1743 C 1144.098 1791.020, 1143.794 1791.642, 1148.250 1795.700 C 1150.492 1797.742, 1177.531 1815.652, 1181.684 1817.846 C 1186.302 1820.286, 1189.429 1819.298, 1194.652 1813.750 C 1206.500 1801.165, 1300.882 1655.733, 1389.509 1513.500 C 1429.501 1449.318, 1513 1310.264, 1513 1307.845 C 1513 1307.380, 1512.438 1307.069, 1511.750 1307.154 C 1511.063 1307.239, 1500.600 1307.872, 1488.500 1308.561 M 1059.503 1835 C 1069.687 1849.820, 1080.032 1862.057, 1095.487 1877.566 C 1113.320 1895.461, 1125.292 1905.785, 1149.504 1924.150 C 1179.159 1946.643, 1188.561 1955.756, 1197.514 1970.679 C 1203.210 1980.175, 1206.537 1988.082, 1209.460 1999.073 C 1214.636 2018.533, 1215.048 2026.444, 1216.010 2125 C 1216.933 2219.597, 1217.843 2267.214, 1220.670 2369 C 1222.733 2443.273, 1223.037 2574.065, 1221.212 2602 C 1216.865 2668.509, 1206.592 2703.451, 1185.732 2722.679 C 1174.805 2732.752, 1166.372 2735.990, 1149.120 2736.741 C 1134.163 2737.392, 1133.361 2736.181, 1146.030 2732.075 C 1168.479 2724.799, 1180.405 2714.506, 1190.633 2693.580 C 1193.031 2688.674, 1194.801 2684.467, 1194.566 2684.233 C 1194.025 2683.691, 1165.204 2686.325, 1136 2689.585 C 1001.313 2704.618, 883.491 2735.610, 838.709 2767.783 C 820.385 2780.948, 813.557 2793.941, 818.889 2805.500 C 832.577 2835.175, 901.903 2864.582, 1007.500 2885.506 C 1096.635 2903.168, 1187.719 2910.016, 1315.500 2908.661 C 1475.635 2906.964, 1615.614 2893.885, 1685.555 2874.084 C 1749.169 2856.075, 1771.246 2828.442, 1752.333 2790.500 C 1737.751 2761.245, 1703.190 2736.482, 1653.853 2719.938 C 1601.645 2702.432, 1527.408 2690.987, 1434 2686.045 C 1423.275 2685.478, 1409.882 2684.742, 1404.238 2684.410 L 1393.976 2683.806 1394.926 2686.304 C 1397.267 2692.462, 1403.164 2703.020, 1407.439 2708.707 C 1415.655 2719.637, 1426.402 2726.705, 1442.970 2732.075 C 1455.639 2736.181, 1454.837 2737.392, 1439.880 2736.741 C 1422.628 2735.990, 1414.195 2732.752, 1403.268 2722.679 C 1382.408 2703.451, 1372.135 2668.509, 1367.788 2602 C 1365.963 2574.065, 1366.267 2443.273, 1368.330 2369 C 1371.157 2267.214, 1372.067 2219.597, 1372.990 2125 C 1373.952 2026.444, 1374.364 2018.533, 1379.540 1999.073 C 1382.463 1988.082, 1385.790 1980.175, 1391.486 1970.679 C 1400.439 1955.756, 1409.841 1946.643, 1439.496 1924.150 C 1463.708 1905.785, 1475.680 1895.461, 1493.513 1877.566 C 1508.818 1862.208, 1519.011 1850.176, 1529.571 1835 L 1535.486 1826.500 1521.993 1840.106 C 1497.854 1864.449, 1473.742 1881.639, 1440 1898.565 C 1376.685 1930.325, 1314.083 1940.950, 1248.859 1931.005 C 1192.111 1922.353, 1132.985 1895.965, 1089 1859.660 C 1084.325 1855.801, 1074.461 1846.762, 1067.081 1839.572 L 1053.662 1826.500 1059.503 1835 M 1234.518 2766.971 C 1233.622 2768.421, 1236.894 2769.563, 1250 2772.372 C 1277.313 2778.227, 1279.937 2778.502, 1308 2778.464 L 1334.500 2778.428 1352.488 2774.675 C 1369.496 2771.128, 1373.236 2769.903, 1371.714 2768.381 C 1371.355 2768.022, 1360.810 2768.307, 1348.281 2769.015 C 1318.845 2770.678, 1265.274 2769.431, 1239.824 2766.491 C 1237.119 2766.178, 1234.883 2766.381, 1234.518 2766.971 M 881.557 2782.250 C 879.289 2787.747, 877.761 2797.103, 878.439 2801.344 C 879.548 2808.279, 884.806 2816.621, 892.736 2824.027 C 912.119 2842.129, 962.641 2858.473, 1023.897 2866.458 C 1062.340 2871.470, 1128.963 2877.424, 1130.417 2875.977 C 1131.791 2874.612, 1131.115 2874.470, 1097 2868.949 C 1052.598 2861.764, 999.898 2852.406, 984 2848.884 C 937.040 2838.481, 909.080 2826.715, 895.184 2811.510 C 887.948 2803.593, 885.656 2798.237, 885.351 2788.525 C 885.212 2784.111, 885.077 2780.162, 885.049 2779.750 C 884.921 2777.795, 882.756 2779.345, 881.557 2782.250 M 820.957 2828.683 C 850.959 2882.412, 991.479 2919.304, 1210.500 2930.953 C 1392.773 2940.647, 1584.239 2925.220, 1684 2892.802 C 1711.536 2883.854, 1736.150 2870.967, 1746.418 2860.122 C 1748.564 2857.855, 1746.783 2858.723, 1739.681 2863.406 C 1700.400 2889.304, 1612.018 2905.337, 1455.500 2914.959 C 1351.489 2921.353, 1233.065 2921.541, 1151 2915.443 C 1070.389 2909.453, 997.931 2897.360, 935.226 2879.430 C 879.887 2863.607, 843.819 2847.426, 824.298 2829.665 L 818.622 2824.500 820.957 2828.683" stroke="none" fill="#040404" fill-rule="evenodd"/></svg>