<svg xmlns="http://www.w3.org/2000/svg" width="3000" height="3000" viewBox="0 0 3000 3000" version="1.1"><path d="" stroke="none" fill="#080404" fill-rule="evenodd"/><path d="M 629 80.481 C 604.723 84.085, 576.860 90.103, 545.500 98.516 C 507.467 108.718, 493.180 113.182, 417.500 138.506 C 337.902 165.141, 322.166 169.939, 281.962 179.827 C 247.243 188.366, 241.753 190.844, 238.464 199.456 C 237.001 203.287, 236.925 204.647, 237.949 208.723 C 239.776 215.994, 259.621 254.288, 264.340 259.649 C 273.871 270.477, 283.854 270.550, 309.500 259.980 C 366.637 236.429, 433.719 216.340, 565 183.465 C 617.097 170.419, 633.563 167.061, 649.096 166.316 C 660.188 165.784, 662.532 165.967, 668.725 167.848 C 681.701 171.789, 691.128 180.818, 706.981 204.490 C 716.656 218.936, 728.636 238.904, 780.779 327.500 C 916.868 558.725, 946.657 608.012, 1003.805 696.500 C 1036.807 747.599, 1115.755 864.734, 1149.338 912.427 L 1163.370 932.355 1158.309 936.927 C 1143.325 950.466, 1131.893 971.579, 1126.867 995 C 1123.852 1009.054, 1123.630 1033.704, 1126.387 1048.500 C 1129.874 1067.218, 1136.249 1083.431, 1146.062 1098.536 C 1152.896 1109.056, 1167.589 1123.514, 1175.902 1127.901 L 1182.304 1131.279 1174.902 1133.989 C 1142.294 1145.930, 1115.449 1169.141, 1101.313 1197.616 C 1097.179 1205.945, 1095.566 1208.031, 1087.697 1215.222 C 1069.372 1231.971, 1042.649 1262.335, 1023.206 1288.500 C 968.308 1362.380, 928.495 1442.586, 897.868 1541 C 848.789 1698.710, 833.091 1852.124, 850.082 2008 C 863.240 2128.715, 891.813 2226.188, 942.713 2324 C 1012.271 2457.665, 1100.040 2558.599, 1243.990 2670.468 C 1327.098 2735.053, 1391.978 2775.296, 1492.305 2824.486 C 1575.848 2865.447, 1680.377 2909.673, 1715 2918.709 C 1746.221 2926.857, 1780.460 2920.287, 1880 2887.048 C 1904.475 2878.875, 1934.600 2868.521, 1946.945 2864.039 C 2120.284 2801.104, 2254.277 2717.426, 2342.581 2616.968 C 2415.478 2534.037, 2493.479 2407.363, 2544.349 2289.295 C 2619.875 2114.002, 2650.445 1954.788, 2636.952 1807 C 2625.977 1686.794, 2586.138 1564.379, 2525.161 1463.500 C 2473.558 1378.127, 2409.192 1308.503, 2349.763 1273.775 C 2340.715 1268.487, 2339.115 1267.185, 2339.596 1265.500 C 2343.613 1251.420, 2337.398 1235.457, 2322.916 1222.660 C 2315.788 1216.361, 2303.631 1208.267, 2292.491 1202.405 C 2287.546 1199.802, 2283.369 1197.578, 2283.208 1197.462 C 2281.872 1196.492, 2391.143 995.341, 2398.297 985.600 C 2399.623 983.794, 2401.662 984.750, 2439.097 1004.733 C 2513.673 1044.544, 2552.526 1062.913, 2603.500 1082.459 C 2650.208 1100.370, 2688.831 1110.983, 2724 1115.573 C 2744.574 1118.259, 2755.901 1115.944, 2759.521 1108.314 C 2765.459 1095.802, 2750.264 1072.213, 2700.056 1016 C 2575.455 876.497, 2558.140 854.915, 2517.535 788.500 C 2495.872 753.067, 2491.565 749.431, 2471.500 749.633 C 2465.056 749.698, 2441.239 752.060, 2414 755.336 C 2342.722 763.909, 2285.206 768.110, 2152 774.474 C 2060.969 778.822, 2017.789 781.662, 2005 784.139 C 1991.468 786.761, 1987.481 793.099, 1994.487 800.854 C 2000.909 807.962, 2023.123 817.617, 2083.196 839.408 C 2166.160 869.502, 2215.520 890.563, 2294 929.354 C 2318.977 941.700, 2363.993 964.680, 2364.849 965.521 C 2365.041 965.710, 2360.497 973.432, 2354.753 982.682 C 2321.447 1036.312, 2288.155 1094.410, 2256.009 1155 C 2250.902 1164.625, 2245.667 1174.369, 2244.376 1176.654 L 2242.028 1180.808 2231.845 1177.352 C 2121.277 1139.819, 1924.016 1121.704, 1597 1119.051 C 1521.695 1118.440, 1505.676 1118.062, 1496 1116.667 C 1489.675 1115.754, 1481.891 1114.746, 1478.702 1114.426 L 1472.905 1113.844 1479.555 1106.794 C 1494.686 1090.755, 1506.697 1065.797, 1512.109 1039.151 C 1514.962 1025.102, 1515.623 1003.057, 1513.567 990.500 C 1509.791 967.440, 1501.615 950.649, 1487 935.938 C 1478.622 927.505, 1476.260 925.765, 1467 921.206 C 1451.735 913.691, 1442.122 911.648, 1425 912.282 C 1409.888 912.842, 1400.612 914.868, 1387.799 920.408 C 1370.291 927.977, 1351.622 942.190, 1339.713 957.014 C 1332.747 965.686, 1324.650 980.820, 1321.530 991 C 1320.603 994.025, 1319.647 997.118, 1319.406 997.874 C 1319.164 998.632, 1316.346 995.075, 1313.127 989.951 C 1295.338 961.634, 1271.774 938.959, 1247.390 926.693 L 1240.280 923.116 1199.799 865.308 C 1149.306 793.201, 1138.152 776.942, 1111.580 736.704 C 1059.840 658.354, 1013.572 582.918, 934.505 448 C 886.969 366.887, 848.813 303.073, 814.321 247 C 758.740 156.642, 742.817 133.711, 719.536 110.500 C 702.336 93.351, 687.713 84.291, 671.303 80.613 C 662.648 78.674, 641.617 78.608, 629 80.481 M 636 90.643 C 605.755 94.359, 554.953 106.232, 505.500 121.143 C 487.271 126.639, 470.014 132.363, 374.500 164.593 C 340.647 176.016, 320.560 181.996, 297.500 187.516 C 254.433 197.825, 250.025 199.217, 247.907 203.174 C 246.401 205.988, 247.884 209.796, 259.278 232.370 C 265.492 244.682, 270.639 253.573, 272.810 255.743 C 276.248 259.181, 276.436 259.237, 282.907 258.754 C 288.211 258.357, 293.663 256.564, 310.790 249.586 C 367.331 226.549, 426.820 208.164, 535.500 180.138 C 605.537 162.078, 628.184 157.285, 648.180 156.292 C 678.668 154.778, 692.194 164.159, 719.342 205.645 C 728.864 220.196, 749.763 255.079, 829.492 389.500 C 924.634 549.908, 948.829 589.694, 995.508 662.500 C 1027.434 712.297, 1116.498 845, 1117.992 845 C 1118.354 845, 1121.225 843.001, 1124.372 840.557 C 1127.519 838.114, 1135.454 832.649, 1142.005 828.414 L 1153.917 820.715 1144.846 807.607 C 1085.112 721.286, 1018.714 615.620, 944.010 488 C 859.612 343.819, 826.966 289.241, 778.047 210.540 C 729.625 132.639, 703.205 102.757, 674.370 93.276 C 667.716 91.089, 664.413 90.652, 653 90.451 C 645.575 90.320, 637.925 90.407, 636 90.643 M 2454 762.158 C 2326.357 777.480, 2278.809 781.187, 2122.500 788.006 C 2066.206 790.462, 2007.507 794.262, 2006.149 795.539 C 2004.897 796.715, 2035.865 809.724, 2064 819.842 C 2110.377 836.519, 2121.678 840.669, 2142 848.484 C 2216.485 877.131, 2304.265 919.056, 2420.500 981.500 C 2475.841 1011.230, 2499.735 1023.596, 2526.008 1036.103 C 2595.258 1069.068, 2652.905 1089.999, 2702.334 1100.126 C 2719.409 1103.624, 2724.493 1104.276, 2735.500 1104.379 L 2748.500 1104.500 2748.797 1101.475 C 2749.468 1094.627, 2732.301 1071.345, 2699.332 1034.393 C 2688.974 1022.785, 2665.688 996.685, 2647.583 976.393 C 2564.306 883.055, 2538.824 849.792, 2500.704 784.666 C 2492.411 770.498, 2487.488 764.535, 2482.282 762.350 C 2478.658 760.830, 2465.796 760.742, 2454 762.158 M 2379.500 786.629 C 2368.419 788.838, 2350.487 790.860, 2323.500 792.946 C 2283.212 796.059, 2281.317 796.148, 2240.331 796.842 C 2218.788 797.207, 2200.801 797.866, 2200.360 798.307 C 2198.762 799.905, 2202.486 800.757, 2220.331 802.875 C 2286.897 810.773, 2329.099 807.651, 2377.940 791.213 C 2384.231 789.095, 2389.556 786.831, 2389.773 786.181 C 2390.251 784.747, 2388.573 784.820, 2379.500 786.629 M 1157.444 830.936 C 1155.586 832.733, 1129.619 850.472, 1125.545 852.727 C 1123.673 853.763, 1123.749 854.048, 1127.305 859.404 C 1129.349 862.482, 1131.236 865, 1131.499 865 C 1131.762 865, 1134.570 863.036, 1137.739 860.635 C 1140.907 858.234, 1148.945 852.679, 1155.601 848.289 L 1167.702 840.309 1164.027 835.164 C 1159.267 828.499, 1159.686 828.768, 1157.444 830.936 M 1171.513 849.979 C 1171.144 850.575, 1163.341 856.051, 1154.171 862.148 C 1145.002 868.245, 1137.639 873.709, 1137.808 874.290 C 1138.205 875.655, 1146.156 887, 1146.715 887 C 1146.949 887, 1153.521 882.363, 1161.320 876.695 C 1169.119 871.027, 1177.188 865.365, 1179.250 864.113 L 1183 861.837 1178.598 855.701 C 1173.990 849.280, 1172.626 848.178, 1171.513 849.979 M 1176 878.653 C 1169.675 883.362, 1161.736 889.087, 1158.359 891.374 L 1152.217 895.533 1162.677 910.692 L 1173.137 925.850 1179.275 922.947 C 1188.699 918.491, 1198.128 916.766, 1210.905 917.160 C 1221.714 917.494, 1221.883 917.465, 1220.587 915.500 C 1215.452 907.713, 1188.762 870.459, 1188.200 870.295 C 1187.815 870.182, 1182.325 873.943, 1176 878.653 M 1411 925.554 C 1385.551 931.016, 1356.866 951.388, 1342.779 974.005 C 1337.576 982.358, 1330.971 998.087, 1328.498 1008.015 L 1326.875 1014.530 1331.850 1026.150 C 1345.054 1056.987, 1352.794 1090.098, 1353.729 1119.750 C 1354.028 1129.237, 1354.373 1137, 1354.496 1137 C 1354.618 1137, 1358.044 1135.471, 1362.109 1133.602 C 1383.471 1123.780, 1412.996 1117.173, 1447.733 1114.442 C 1457.489 1113.675, 1461.673 1111.361, 1470.453 1101.878 C 1485.104 1086.052, 1496.574 1061.383, 1501.547 1035 C 1503.864 1022.710, 1503.927 998.574, 1501.669 988.407 C 1496.444 964.881, 1484.920 946.679, 1468.087 935.366 C 1453.365 925.470, 1430.055 921.464, 1411 925.554 M 1199 927.625 C 1169.821 933.280, 1146.021 960.101, 1138.323 996 C 1135.770 1007.902, 1135.783 1037.015, 1138.346 1048.796 C 1143.547 1072.708, 1154.032 1092.757, 1169.311 1108.006 C 1178.207 1116.885, 1185.619 1121.594, 1194.787 1124.190 C 1200.870 1125.913, 1202.251 1125.970, 1209.500 1124.796 C 1214.420 1123.999, 1225.971 1123.523, 1239.500 1123.560 C 1257.437 1123.609, 1263.901 1124.030, 1274.500 1125.837 C 1289.914 1128.465, 1313.532 1133.850, 1330.380 1138.578 C 1337.046 1140.448, 1342.899 1141.984, 1343.386 1141.989 C 1345.360 1142.013, 1342.109 1104.856, 1338.523 1086.399 C 1323.608 1009.632, 1279.903 947.002, 1230 930.883 C 1220.653 927.863, 1205.814 926.304, 1199 927.625 M 1218.570 948.887 C 1217.692 950.307, 1220.019 951.475, 1227.500 953.370 C 1242.968 957.288, 1254.820 964.964, 1271.497 981.867 C 1276.996 987.440, 1281.833 992, 1282.247 992 C 1283.691 992, 1282.974 989.458, 1279.848 983.500 C 1269.600 963.965, 1258.267 953.287, 1243.650 949.395 C 1237.930 947.872, 1219.429 947.497, 1218.570 948.887 M 1458.674 948.659 C 1458.299 949.034, 1461.156 952.604, 1465.023 956.592 C 1469.835 961.554, 1472.943 965.840, 1474.872 970.171 C 1479.445 980.444, 1480.679 986.039, 1483.599 1009.750 C 1484.149 1014.212, 1485.294 1015.197, 1486.505 1012.250 C 1487.829 1009.029, 1488.311 982.679, 1487.145 977.243 C 1484.664 965.670, 1478.593 957.171, 1469.326 952.293 C 1462.504 948.703, 1459.616 947.717, 1458.674 948.659 M 2365.058 979.250 C 2348.674 1010.433, 2333.035 1039.308, 2310.492 1080 C 2272.280 1148.977, 2247.347 1195.577, 2205.623 1276 C 2189.707 1306.677, 2184.484 1317.587, 2185.593 1317.832 C 2188.071 1318.381, 2214.840 1313.847, 2216.313 1312.629 C 2217.064 1312.008, 2220.742 1304.525, 2224.487 1296 C 2249.242 1239.639, 2296.517 1145.559, 2328.755 1088.500 C 2342.157 1064.780, 2362.063 1031.667, 2379.445 1004.180 C 2387.556 991.353, 2394.037 980.741, 2393.846 980.596 C 2392.645 979.681, 2371.754 969, 2371.166 969 C 2370.769 969, 2368.020 973.612, 2365.058 979.250 M 1445 1127.655 C 1417.725 1130.269, 1390.507 1136.012, 1373.900 1142.657 L 1369.904 1144.256 1375.702 1147.745 C 1395.522 1159.672, 1416.516 1182.938, 1427.818 1205.500 C 1438.258 1226.341, 1441.829 1250.865, 1437.574 1272.500 C 1436.708 1276.900, 1436 1280.580, 1436 1280.677 C 1436 1280.775, 1439.623 1282.252, 1444.051 1283.959 C 1472.365 1294.879, 1522.106 1290.510, 1554.500 1274.258 C 1584.189 1259.364, 1602.680 1233.827, 1600.328 1210.967 C 1595.187 1160.989, 1537.942 1126.271, 1462.144 1127.160 C 1454.640 1127.248, 1446.925 1127.471, 1445 1127.655 M 1554.651 1134.432 C 1571.753 1143.569, 1585.376 1154.873, 1595.105 1168 L 1599.923 1174.500 1680.712 1174.599 C 1725.145 1174.653, 1773.875 1175.224, 1789 1175.868 C 1927.275 1181.754, 1990.267 1187.602, 2054.600 1200.527 C 2101.150 1209.879, 2129.564 1220.535, 2144.540 1234.257 C 2151.959 1241.056, 2154.503 1246.412, 2153.798 1253.748 C 2152.011 1272.344, 2124.138 1283.500, 2064 1289.685 C 2049.381 1291.189, 2037.282 1291.485, 1990.500 1291.484 C 1926.039 1291.483, 1893.662 1289.900, 1806 1282.464 C 1734.050 1276.361, 1702.114 1272.797, 1638.785 1263.803 L 1595.069 1257.595 1587.785 1264.619 C 1579.015 1273.077, 1570.698 1278.818, 1558 1285.182 C 1552.775 1287.800, 1548.835 1289.955, 1549.244 1289.971 C 1549.654 1289.987, 1566.754 1292.465, 1587.244 1295.479 C 1705.343 1312.846, 1784.254 1321.139, 1877.500 1325.982 C 1974.399 1331.016, 2076.519 1329.669, 2150.500 1322.381 C 2175.594 1319.909, 2172.238 1321.957, 2180.683 1303.963 C 2193.676 1276.276, 2206.071 1251.044, 2221.170 1221.545 C 2229.321 1205.620, 2235.655 1192.266, 2235.245 1191.869 C 2233.977 1190.642, 2206.416 1182.439, 2187.500 1177.659 C 2079.294 1150.316, 1921.158 1137.223, 1636.500 1132.036 C 1606.250 1131.484, 1573.632 1130.822, 1564.015 1130.563 L 1546.530 1130.092 1554.651 1134.432 M 1218 1136.035 C 1168.384 1142.137, 1128.898 1167.115, 1111.351 1203.500 C 1105.222 1216.210, 1102.927 1226.007, 1102.918 1239.500 C 1102.910 1252.930, 1105.217 1262.772, 1110.955 1273.787 C 1129.690 1309.748, 1172.143 1322.556, 1211.487 1304.119 C 1233.719 1293.701, 1248.741 1278.367, 1262.596 1251.949 C 1280.703 1217.424, 1311.885 1175.090, 1333.296 1155.964 L 1338.092 1151.680 1324.296 1148.794 C 1289.525 1141.520, 1276.756 1139.015, 1267 1137.553 C 1254.009 1135.605, 1228.034 1134.801, 1218 1136.035 M 1352.030 1155.123 C 1342.476 1160.947, 1332.163 1172.272, 1311.969 1199.115 C 1283.186 1237.374, 1268.466 1263.528, 1261.845 1288.173 C 1258.662 1300.023, 1258.667 1319.813, 1261.855 1328.500 C 1267.748 1344.555, 1278.521 1353.775, 1297.691 1359.172 C 1309.209 1362.415, 1327.813 1362.199, 1341.277 1358.667 C 1385.936 1346.950, 1422.059 1306.561, 1426.894 1262.939 C 1428.814 1245.622, 1426.123 1230.696, 1417.938 1213.257 C 1411.463 1199.465, 1404.464 1189.528, 1392.502 1177.149 C 1381.399 1165.659, 1373.027 1158.906, 1365.500 1155.369 C 1359.317 1152.464, 1356.477 1152.412, 1352.030 1155.123 M 1605.496 1185.750 C 1610.310 1197.623, 1612.493 1209.639, 1611.649 1219.626 C 1610.949 1227.909, 1609.160 1233.749, 1604.404 1243.285 C 1602.071 1247.964, 1601.405 1250.180, 1602.260 1250.425 C 1602.942 1250.619, 1611.375 1251.527, 1621 1252.442 C 1630.625 1253.357, 1659.200 1256.309, 1684.500 1259.002 C 1768.461 1267.940, 1831.950 1273.317, 1909.500 1278.057 C 1937.926 1279.794, 2021.952 1280.428, 2044.506 1279.075 C 2094.474 1276.078, 2127.928 1268.784, 2138.598 1258.561 C 2141.019 1256.241, 2143 1253.568, 2143 1252.622 C 2143 1243.037, 2122.171 1230.356, 2091.940 1221.536 C 2021.131 1200.878, 1903.020 1190.006, 1700.500 1185.505 C 1663.650 1184.686, 1627.039 1184.013, 1619.143 1184.008 C 1605.864 1184.001, 1604.839 1184.131, 1605.496 1185.750 M 2251.818 1259.549 C 2238.039 1287.351, 2227.031 1310.364, 2227.356 1310.690 C 2228.227 1311.560, 2256.589 1304.371, 2270.486 1299.758 C 2342.100 1275.986, 2348.101 1246.315, 2287.899 1213.665 C 2283.168 1211.099, 2278.751 1209, 2278.085 1209 C 2277.418 1209, 2265.598 1231.747, 2251.818 1259.549 M 1583.427 1219.594 C 1581.195 1226.689, 1575.947 1235.339, 1569.322 1242.839 C 1563.630 1249.284, 1553.849 1255.002, 1541.750 1258.957 C 1537.526 1260.337, 1535 1261.707, 1535 1262.616 C 1535 1263.779, 1536.048 1263.948, 1540.250 1263.463 C 1550.669 1262.261, 1560.599 1259.915, 1565.625 1257.470 C 1578.180 1251.359, 1588 1233.978, 1588 1217.864 C 1588 1211.982, 1585.527 1212.918, 1583.427 1219.594 M 1080.150 1239.481 C 1003.699 1323.373, 947.388 1424.146, 910.547 1543 C 885.572 1623.575, 869.245 1702.420, 861.575 1779.500 C 847.536 1920.582, 863.288 2080.979, 902.675 2198 C 939.136 2306.328, 1000.048 2411.515, 1078.614 2501.822 C 1094.402 2519.969, 1144.056 2569.802, 1165.292 2588.813 C 1236.956 2652.965, 1314.848 2711.202, 1385.892 2753.746 C 1455.574 2795.475, 1574.802 2853.132, 1662.927 2887.716 C 1706.502 2904.817, 1717.203 2908.329, 1731.001 2910.059 C 1757.920 2913.435, 1803.482 2901.813, 1915.582 2862.978 C 2056.549 2814.142, 2165.141 2757.379, 2253 2686.604 C 2314.710 2636.893, 2362.847 2581.703, 2419.245 2496 C 2482.232 2400.284, 2529.019 2306.702, 2566.980 2200.500 C 2601.897 2102.818, 2621.198 2013.708, 2626.976 1923.517 C 2628.285 1903.085, 2628.287 1855.329, 2626.979 1834 C 2622.599 1762.548, 2609.978 1697.057, 2587.566 1629.500 C 2563.997 1558.455, 2535.382 1499.395, 2495.752 1440 C 2452.750 1375.552, 2405.104 1325.090, 2345.733 1281.111 L 2335.966 1273.876 2330.827 1279.499 C 2311.984 1300.117, 2267.812 1316.597, 2202.500 1327.377 C 2162.646 1333.955, 2120.329 1337.718, 2059.500 1340.093 C 2025.876 1341.406, 1923.441 1340.779, 1890.500 1339.058 C 1836.618 1336.244, 1782.917 1332.230, 1742 1327.959 C 1677.527 1321.229, 1590.451 1309.016, 1545 1300.329 L 1526.500 1296.793 1513.500 1298.369 C 1494.929 1300.620, 1486.419 1300.950, 1472.639 1299.956 C 1458.683 1298.949, 1447.247 1296.279, 1438.796 1292.056 C 1433.518 1289.418, 1432.832 1289.286, 1432.294 1290.804 C 1427.607 1304.001, 1416.033 1321.908, 1404.250 1334.191 C 1385.232 1354.016, 1363.651 1366.183, 1338 1371.543 C 1325.741 1374.104, 1306.080 1373.908, 1295.500 1371.120 C 1275.877 1365.948, 1260.889 1354.805, 1253.643 1340 C 1248.314 1329.112, 1246.724 1320.256, 1247.231 1304.298 L 1247.652 1291.097 1241.137 1297.190 C 1213.785 1322.777, 1173.371 1330.684, 1141.500 1316.685 C 1117.741 1306.250, 1100.732 1286.171, 1093.904 1260.500 C 1092.322 1254.550, 1091.741 1249.233, 1091.638 1239.751 C 1091.562 1232.740, 1091.500 1227.008, 1091.500 1227.015 C 1091.500 1227.021, 1086.393 1232.631, 1080.150 1239.481 M 1208.863 1282.528 C 1197.928 1285.483, 1187.068 1287, 1176.840 1287 C 1170.467 1287, 1166.894 1286.347, 1159.400 1283.812 C 1151.793 1281.238, 1149.738 1280.869, 1148.738 1281.896 C 1145.915 1284.798, 1161.962 1294.858, 1173.130 1297.188 C 1181.872 1299.012, 1193.208 1296.249, 1208.415 1288.588 C 1219.455 1283.027, 1222.312 1280.760, 1218.803 1280.347 C 1218.086 1280.262, 1213.613 1281.244, 1208.863 1282.528 M 1360.486 1326.958 C 1338.975 1336.325, 1332.074 1338.207, 1317.250 1338.748 C 1307.506 1339.104, 1304 1339.566, 1304 1340.493 C 1304 1342.721, 1306.329 1343.803, 1314.830 1345.526 C 1327.384 1348.070, 1335.726 1347.318, 1345.250 1342.787 C 1352.222 1339.469, 1370.831 1326.700, 1372.405 1324.154 C 1373.896 1321.741, 1370.787 1322.473, 1360.486 1326.958 M 1082.528 1421.750 C 1061.814 1474.564, 1048.254 1512.360, 1038.475 1544.540 C 1019.987 1605.379, 1001.253 1690.888, 995.542 1740.500 C 990.647 1783.021, 988.731 1833.633, 990.063 1885.253 C 990.949 1919.600, 991.279 1924, 992.969 1924 C 993.884 1924, 994.649 1911.588, 995.524 1882.500 C 998.618 1779.634, 1013.632 1680.278, 1044.455 1558.696 C 1053.677 1522.315, 1060.174 1499.854, 1074.079 1456.271 C 1080.086 1437.446, 1085 1421.583, 1085 1421.021 C 1085 1419.351, 1083.268 1419.861, 1082.528 1421.750 M 2308.663 1442.737 C 2308.309 1443.309, 2312.127 1451.364, 2317.146 1460.638 C 2322.165 1469.912, 2331.636 1487.400, 2338.192 1499.500 C 2371.238 1560.493, 2399.497 1622.743, 2424.443 1689.500 C 2456.636 1775.650, 2470.940 1836.509, 2478.500 1919.500 C 2481.491 1952.337, 2481.818 1954.583, 2483.375 1953.023 C 2485.313 1951.082, 2484.768 1879.818, 2482.671 1861 C 2475.940 1800.603, 2460.136 1743.132, 2428.773 1665 C 2399.789 1592.794, 2378.450 1551.882, 2325.238 1466.500 C 2309.956 1441.979, 2309.519 1441.352, 2308.663 1442.737 M 1412.689 1586.695 C 1412.393 1587.173, 1410.787 1595.874, 1409.120 1606.032 C 1392.434 1707.677, 1386.794 1781.727, 1386.732 1900 C 1386.678 2003.779, 1391.693 2076.946, 1404.589 2160.500 C 1420.333 2262.509, 1442.631 2354.768, 1470.691 2434 C 1482.833 2468.283, 1511.978 2537.632, 1515.039 2539.524 C 1517.179 2540.847, 1515.662 2535.773, 1506.473 2510.875 C 1489.868 2465.885, 1481.034 2439.011, 1469.042 2397 C 1433.606 2272.857, 1410.271 2143.812, 1403.042 2032 C 1395.922 1921.892, 1396.984 1769.858, 1405.518 1677.500 C 1406.331 1668.700, 1408.828 1644.903, 1411.067 1624.619 C 1413.655 1601.166, 1414.789 1587.389, 1414.182 1586.782 C 1413.656 1586.256, 1412.984 1586.217, 1412.689 1586.695 M 1875 1636.807 C 1875 1637.801, 1875.882 1645.789, 1876.961 1654.557 C 1886.435 1731.590, 1888.515 1771.679, 1887.699 1861.500 C 1887.340 1901.029, 1886.669 1925.710, 1885.591 1939 C 1881.075 1994.702, 1875.931 2031.742, 1864.912 2087.913 C 1861.730 2104.131, 1860.273 2113.673, 1860.885 2114.285 C 1862.154 2115.554, 1864.510 2107.759, 1872.422 2076.121 C 1885.476 2023.926, 1892.765 1982.262, 1897.200 1934.500 C 1898.955 1915.596, 1898.950 1802.297, 1897.192 1778.500 C 1894.142 1737.201, 1889.805 1702.966, 1882.014 1658.686 C 1879.806 1646.138, 1878 1635.675, 1878 1635.436 C 1878 1635.196, 1877.325 1635, 1876.500 1635 C 1875.675 1635, 1875 1635.813, 1875 1636.807 M 1095 2143.332 C 1095 2151.955, 1103.232 2211.729, 1108.519 2241.500 C 1119.636 2304.093, 1145.373 2400.619, 1165.919 2456.776 C 1181.556 2499.517, 1198.285 2532.799, 1226.096 2576.500 C 1232.046 2585.850, 1237.986 2594.812, 1239.296 2596.416 C 1243.636 2601.733, 1243.138 2597.419, 1238.362 2588.338 C 1227.306 2567.315, 1206.658 2525.167, 1199.740 2509.500 C 1180.364 2465.614, 1168.676 2431.904, 1149.119 2363.500 C 1125.597 2281.225, 1113.145 2228.935, 1101.495 2163.500 C 1099.537 2152.500, 1097.694 2142.713, 1097.400 2141.750 C 1096.502 2138.810, 1095 2139.800, 1095 2143.332 M 2397.186 2155.210 C 2396.596 2157.569, 2393.362 2172.325, 2389.999 2188 C 2378.849 2239.968, 2372.078 2265.245, 2352.365 2328.500 C 2315.214 2447.706, 2289.757 2515.082, 2248.406 2603.644 C 2239.166 2623.431, 2236.839 2630.171, 2240.943 2625.251 C 2241.974 2624.014, 2248.430 2612.764, 2255.288 2600.251 C 2290.445 2536.105, 2316.715 2476.155, 2338.656 2410 C 2360.889 2342.962, 2377.575 2283.132, 2386.484 2238.500 C 2390.681 2217.473, 2399.557 2163.807, 2400.196 2155.594 C 2400.617 2150.186, 2398.508 2149.916, 2397.186 2155.210 M 2033.022 2511.442 C 2032.444 2512.963, 2030.198 2521.249, 2028.033 2529.854 C 2013.809 2586.371, 1989.649 2661.156, 1970.805 2707 C 1961.437 2729.791, 1958.855 2735.417, 1941.766 2770.266 C 1932.928 2788.287, 1925.980 2803.313, 1926.325 2803.658 C 1927.620 2804.954, 1930.428 2801.131, 1943.021 2780.928 C 1975.685 2728.526, 1989.328 2698.463, 2007.511 2638.819 C 2020.214 2597.153, 2038.240 2512.840, 2035.114 2509.714 C 2034.395 2508.995, 2033.750 2509.527, 2033.022 2511.442 M 1731.327 2554.524 C 1731.996 2570.730, 1733.235 2621.069, 1735.030 2705 C 1735.613 2732.225, 1736.505 2769.350, 1737.013 2787.500 C 1737.521 2805.650, 1737.951 2828.488, 1737.968 2838.250 C 1737.986 2848.012, 1738.401 2856, 1738.892 2856 C 1740.205 2856, 1740.751 2853.048, 1742.404 2837 C 1746.186 2800.273, 1746.500 2793.044, 1746.463 2743.500 C 1746.428 2695.095, 1745.563 2670.450, 1742.427 2628.500 C 1739.986 2595.841, 1734.438 2541.517, 1733.367 2539.785 C 1733.100 2539.353, 1732.388 2539, 1731.784 2539 C 1731.007 2539, 1730.874 2543.533, 1731.327 2554.524" stroke="none" fill="currentColor" fill-rule="evenodd"/></svg>