<svg xmlns="http://www.w3.org/2000/svg" width="3000" height="3000" viewBox="0 0 3000 3000" version="1.1"><path d="" stroke="none" fill="#080404" fill-rule="evenodd"/><path d="M 1328 95.459 C 1316.270 97.188, 1303.973 100.738, 1292.921 105.587 C 1283.134 109.881, 1280.561 111.278, 1252.500 127.533 C 1215.110 149.192, 1206.390 153.416, 1169.778 167.600 C 1126.595 184.331, 1109.886 193.882, 1091.971 212.076 C 1050.233 254.465, 1045.946 320.033, 1081.139 377.753 C 1089.976 392.247, 1108.407 415.180, 1125.579 433.050 C 1131.017 438.709, 1133.043 441.589, 1133.667 444.550 C 1134.125 446.723, 1134.494 457.725, 1134.486 469 C 1134.472 488.023, 1134.273 490.293, 1131.714 500.500 C 1126.189 522.544, 1119.218 541.048, 1104.023 574 C 1100.092 582.525, 1096.511 589.869, 1096.067 590.321 C 1095.622 590.772, 1092.220 589.104, 1088.505 586.613 C 1076.180 578.346, 1058.507 572.428, 1039 570.035 C 1027.190 568.586, 995.054 568.569, 968 569.998 C 941.539 571.395, 896.305 571.405, 883.500 570.015 C 849.388 566.313, 824.144 558.241, 789.500 539.958 C 730.639 508.895, 716.642 503.683, 692 503.654 C 676.712 503.635, 669.059 505.343, 636.500 516.035 C 600.943 527.712, 594.813 529.134, 577.402 529.747 C 556.396 530.486, 552.668 529.554, 506.908 512.116 C 471.237 498.524, 448.213 493.669, 419 493.582 C 398.477 493.521, 386.288 495.325, 369.976 500.839 C 323.017 516.713, 293.879 550.034, 274.600 609.907 C 265.623 637.783, 259.652 666.487, 252.007 718.500 C 244.690 768.289, 238.912 791.277, 228.509 811.985 C 219.454 830.009, 211.530 840.260, 185.284 867.907 C 176.195 877.481, 166.081 888.926, 162.807 893.341 C 154.566 904.455, 147.512 919.308, 144.801 931.250 C 142.750 940.286, 142.680 941.722, 143.805 951.734 C 145.027 962.615, 146.395 968.567, 153.795 995.194 C 160.823 1020.486, 161.459 1032.405, 157.778 1069.877 C 154.835 1099.830, 154.624 1147.779, 157.349 1167 C 162.448 1202.957, 171.899 1233.434, 187.056 1262.805 C 215.048 1317.045, 253.778 1350.820, 309.362 1369.464 C 316.987 1372.022, 339.712 1378.318, 359.862 1383.457 C 405.037 1394.976, 414.184 1397.937, 455 1414.252 C 472.875 1421.398, 494.025 1429.440, 502 1432.125 C 510.388 1434.949, 516.376 1437.484, 516.205 1438.139 C 515.626 1440.357, 509.514 1448.529, 500.649 1458.936 C 495.699 1464.746, 473.367 1487.950, 451.022 1510.500 C 400.852 1561.130, 388.626 1574.494, 366.860 1602.500 C 329.244 1650.898, 303.271 1700.325, 291.978 1745 C 285.672 1769.945, 283.513 1789.412, 284.280 1814.414 C 285.449 1852.479, 292.938 1879.070, 316.622 1929.238 C 329.459 1956.431, 334.491 1968.290, 339.048 1982.090 C 345.372 2001.239, 346.458 2008.620, 346.468 2032.500 C 346.478 2055.122, 346.214 2057.605, 339.516 2098 C 332.495 2140.336, 331.551 2150.022, 331.524 2180 C 331.509 2196.996, 331.984 2209.907, 332.848 2216 C 343.960 2294.288, 380.578 2362.688, 440.370 2416.842 C 447.123 2422.959, 462.065 2435.682, 473.574 2445.117 C 508.518 2473.760, 518.632 2482.848, 532.798 2498.335 C 554.248 2521.785, 562.445 2534.713, 591.257 2590.536 C 610.755 2628.315, 622.588 2646.245, 639.985 2664.372 C 672.287 2698.028, 723.943 2727.382, 803.500 2757.290 C 884.769 2787.842, 943.029 2802, 987.476 2802 C 1013.604 2802, 1026.713 2800.047, 1070.500 2789.633 C 1098.356 2783.008, 1106.288 2781.676, 1134 2778.970 C 1175.744 2774.894, 1192.253 2769.480, 1220.900 2750.469 C 1229.909 2744.490, 1235.959 2739.819, 1261.500 2719.124 C 1281.967 2702.541, 1299.300 2692.666, 1331 2679.531 C 1376.979 2660.478, 1395.840 2648.112, 1408.705 2628.585 C 1418.629 2613.520, 1422.831 2600.121, 1428.958 2563.998 C 1431.150 2551.074, 1433.883 2537.149, 1435.030 2533.053 C 1440.458 2513.676, 1451.014 2500.059, 1474.870 2481.658 C 1489.902 2470.064, 1497.347 2463.297, 1503.555 2455.583 C 1517.958 2437.689, 1523.045 2421.820, 1527.944 2379.500 C 1530.220 2359.830, 1534.272 2334.380, 1536.380 2326.500 L 1537.718 2321.500 1538.446 2326.500 C 1541.441 2347.095, 1546.502 2365.846, 1554.234 2385 C 1564.561 2410.582, 1572.612 2424.837, 1598.839 2463.977 C 1644.875 2532.681, 1651.192 2546.603, 1672.124 2625.500 C 1684.085 2670.586, 1692.961 2697.133, 1702.882 2717.500 C 1725.791 2764.529, 1759.083 2798.563, 1805.097 2821.991 C 1836.389 2837.923, 1858.449 2845.045, 1907.358 2855.007 C 1940.008 2861.657, 1949.167 2864.397, 1978.950 2876.423 C 2019.691 2892.874, 2028.231 2895.195, 2048 2895.189 C 2067.021 2895.184, 2077.839 2892.401, 2103 2881.042 C 2126.132 2870.599, 2138.735 2868.738, 2153.889 2873.525 C 2158.285 2874.913, 2170.346 2879.567, 2180.691 2883.865 C 2217.332 2899.090, 2232.192 2902.894, 2258.212 2903.711 C 2284.113 2904.525, 2303.177 2902.090, 2331.397 2894.365 C 2355.969 2887.639, 2372.874 2880.942, 2437 2852.527 C 2502.361 2823.564, 2515.397 2815.852, 2529.991 2797.511 C 2539.786 2785.202, 2545.152 2770.364, 2549.075 2744.740 C 2553.512 2715.755, 2555.864 2711.818, 2574.912 2701.492 C 2587.344 2694.754, 2594.780 2688.987, 2606.039 2677.355 C 2616.849 2666.187, 2624.496 2655.820, 2634.938 2638.173 C 2647.925 2616.227, 2657.492 2594.481, 2673.290 2551 C 2688.211 2509.932, 2696.314 2492.803, 2710.775 2471.757 C 2715.574 2464.772, 2723.606 2453.082, 2728.624 2445.779 C 2738.949 2430.753, 2745.565 2418.199, 2749.325 2406.500 C 2754.006 2391.938, 2754.502 2387.794, 2754.470 2363.500 C 2754.445 2343.879, 2753.973 2336.680, 2751.256 2314.500 C 2745.076 2264.051, 2744.681 2256.132, 2744.478 2178.500 C 2744.287 2105.455, 2743.738 2091.772, 2739.881 2064.034 C 2730.583 1997.155, 2708.906 1945.112, 2668.643 1893 C 2664.181 1887.225, 2652.874 1874.836, 2643.515 1865.468 C 2620.709 1842.639, 2607.459 1832.684, 2569 1809.482 C 2505.981 1771.464, 2499.468 1762.460, 2484.481 1692.651 C 2482.492 1683.384, 2481.007 1675.673, 2481.182 1675.516 C 2481.357 1675.358, 2484.875 1676.334, 2489 1677.684 C 2515.701 1686.425, 2543.916 1693.808, 2563.500 1697.178 C 2574.341 1699.044, 2580.237 1699.416, 2599 1699.414 C 2623.759 1699.412, 2632.015 1698.230, 2651.249 1691.935 C 2664.060 1687.742, 2684.751 1677.275, 2695.500 1669.548 C 2718.959 1652.687, 2740.924 1627.163, 2753.233 1602.461 C 2764.665 1579.520, 2768.938 1561.838, 2773.522 1518.500 C 2776.290 1492.326, 2781.460 1473.718, 2791.292 1454.544 C 2795.995 1445.372, 2800.830 1437.891, 2824.603 1403 C 2845.947 1371.673, 2855.139 1343.322, 2855.240 1308.500 C 2855.293 1290.315, 2854.302 1279.279, 2849.316 1242.500 C 2846.516 1221.850, 2845.683 1211.937, 2845.268 1194.321 C 2844.666 1168.816, 2845.329 1160.853, 2851.197 1123 C 2857.962 1079.366, 2857.624 1053.785, 2850.014 1033.696 C 2846.846 1025.331, 2839.100 1014.280, 2831.146 1006.777 C 2827.351 1003.196, 2816.362 995.046, 2806.727 988.664 C 2786.536 975.292, 2782.387 971.113, 2777.958 959.691 C 2774.297 950.250, 2772.626 939.326, 2770.512 911 C 2767.828 875.040, 2764.582 856.435, 2757.077 833.989 C 2746.861 803.432, 2727.618 777.095, 2702.500 759.288 C 2697 755.389, 2684.850 747.841, 2675.500 742.515 C 2647.278 726.439, 2642.920 722.424, 2619.008 690.479 C 2601.785 667.472, 2591.532 656.352, 2578.910 646.993 C 2559.706 632.755, 2543.063 627.792, 2501.940 624.040 C 2469.234 621.057, 2465.842 620.174, 2436.764 607.077 C 2408.599 594.391, 2397.041 591.551, 2373.500 591.533 C 2348.983 591.515, 2330.565 596.326, 2304 609.688 C 2283.094 620.203, 2267.212 632.102, 2239.500 658.008 C 2226.330 670.321, 2216.117 678.528, 2208.076 683.261 L 2203.652 685.865 2200.955 675.182 C 2195.951 655.369, 2183.428 624.569, 2171.808 603.500 C 2138.862 543.762, 2085.365 489.112, 2024.500 453.018 C 2017.350 448.778, 2005.425 442.025, 1998 438.010 C 1983.955 430.417, 1968.756 420.660, 1965.766 417.317 C 1964.710 416.136, 1963.613 412.278, 1962.958 407.439 C 1958.777 376.538, 1947.912 346.914, 1933.670 327.585 C 1920.566 309.802, 1905.981 297.771, 1870 275.069 C 1842.811 257.914, 1833.475 250.917, 1813.294 232.574 C 1804.778 224.833, 1794.141 215.852, 1789.655 212.615 C 1767.975 196.970, 1744.072 191.071, 1714 193.946 C 1667.063 198.433, 1613.772 217.504, 1592.097 237.571 C 1586.413 242.833, 1586.047 243.016, 1585.586 240.823 C 1585.318 239.545, 1582.824 229.129, 1580.045 217.676 C 1565.458 157.557, 1548.245 125.835, 1523.017 112.578 C 1508.703 105.057, 1495.851 103.152, 1445 101.015 C 1431.525 100.448, 1408.575 98.858, 1394 97.480 C 1359.681 94.236, 1340.323 93.643, 1328 95.459 M 1326.297 109.067 C 1309.983 111.596, 1294.460 118.602, 1259.898 139.038 C 1222.267 161.288, 1211.243 166.671, 1174 180.983 C 1137.285 195.093, 1120.870 203.939, 1106.201 217.520 C 1089.117 233.338, 1078.385 251.909, 1073.294 274.466 C 1070.805 285.495, 1071.092 310.752, 1073.854 323.734 C 1077.937 342.922, 1084.451 357.901, 1096.802 376.500 C 1110.099 396.522, 1124.327 412.355, 1174.983 463.500 C 1233.313 522.393, 1252.289 543.126, 1277.546 575.555 C 1294.258 597.014, 1331 653.648, 1331 657.950 C 1331 660.686, 1328.347 658.019, 1319.362 646.250 C 1280.610 595.493, 1265.487 577.205, 1234.021 543.047 C 1217.765 525.399, 1178.202 485.300, 1160.768 468.801 L 1147.036 455.805 1147.661 466.742 C 1149.250 494.501, 1141.048 524.563, 1118.262 574.500 C 1100.404 613.637, 1098.350 619.976, 1099.206 633.310 C 1099.823 642.925, 1103.956 650.765, 1113.471 660.373 C 1120.177 667.145, 1126.833 672.363, 1163 699.197 C 1183.812 714.638, 1197.290 726.477, 1217 746.630 C 1237.239 767.322, 1247.050 778.659, 1263.188 800 C 1282.672 825.766, 1309 864.094, 1309 866.693 C 1309 869.162, 1306.465 866.579, 1292.124 849.500 C 1258.968 810.013, 1224.486 770.752, 1213.244 759.687 L 1206.322 752.873 1208.376 760.187 C 1210.184 766.620, 1210.426 770.267, 1210.394 790.500 C 1210.351 818.011, 1209.540 822.947, 1196.511 874.993 C 1186.627 914.475, 1184.569 924.818, 1182.931 943.258 C 1181.994 953.809, 1181.976 959.651, 1182.855 968.321 C 1186.549 1004.765, 1200.188 1025.465, 1241.898 1057.936 C 1260.532 1072.443, 1268.370 1080.200, 1279.346 1095 C 1292.303 1112.472, 1299.832 1125, 1297.374 1125 C 1297.029 1125, 1287.242 1115.402, 1275.624 1103.670 C 1259.557 1087.446, 1251.223 1079.906, 1240.809 1072.170 C 1233.279 1066.577, 1226.921 1062, 1226.679 1062 C 1226.098 1062, 1225.163 1071.786, 1224.375 1086.116 C 1223.678 1098.803, 1224.520 1104.316, 1228.694 1114.377 C 1234.028 1127.234, 1245.088 1142.622, 1268.876 1170.283 C 1304.316 1211.492, 1315.344 1225.501, 1333.402 1252.249 C 1383.866 1326.995, 1413.267 1405.674, 1427.930 1505.206 C 1434.990 1553.130, 1438.831 1597.336, 1439.728 1641 C 1440.324 1669.989, 1440.428 1671.252, 1441.827 1666.500 C 1446.608 1650.269, 1465.298 1595.559, 1473.939 1572.500 L 1484.056 1545.500 1484.778 1521.500 C 1486.158 1475.615, 1483.735 1442.741, 1473.905 1374 C 1469.338 1342.061, 1465.123 1319.797, 1454.557 1271.797 C 1449.955 1250.888, 1449.079 1244.313, 1451.062 1245.538 C 1452.477 1246.413, 1453.412 1248.935, 1458.626 1265.950 C 1470.426 1304.452, 1478.898 1339.248, 1484.446 1372 C 1493.091 1423.027, 1496.278 1453.849, 1496.405 1487.660 C 1496.457 1501.498, 1496.571 1512.748, 1496.658 1512.660 C 1496.745 1512.572, 1502.661 1497.875, 1509.806 1480 C 1526.625 1437.920, 1539.883 1405.777, 1560.541 1357 C 1569.742 1335.275, 1577.644 1316.150, 1578.102 1314.500 C 1579.564 1309.229, 1582 1281.105, 1581.990 1269.610 C 1581.969 1244.612, 1579.497 1213.796, 1574.784 1179.765 C 1573.053 1167.261, 1571.950 1156.716, 1572.335 1156.332 C 1573.884 1154.783, 1575.138 1158.369, 1579.448 1176.670 C 1588.013 1213.037, 1591.288 1237.541, 1591.411 1266.173 C 1591.453 1275.893, 1591.571 1283.763, 1591.673 1283.661 C 1591.775 1283.558, 1595.897 1274.256, 1600.832 1262.987 C 1616.178 1227.953, 1626.617 1204.770, 1640.611 1174.650 L 1654.107 1145.603 1652.478 1135.052 C 1647.038 1099.832, 1639.794 1079.471, 1608.578 1011.660 L 1604.968 1003.820 1600.912 1009.894 C 1595.341 1018.237, 1587.056 1025.353, 1577.224 1030.239 C 1569.618 1034.020, 1568.283 1034.358, 1560.724 1034.419 C 1550.941 1034.498, 1546.422 1032.559, 1540.370 1025.683 C 1535.141 1019.743, 1532.989 1013.333, 1532.995 1003.718 C 1533.005 987.845, 1540.792 973.244, 1554.440 963.506 C 1563.609 956.964, 1568.010 955.500, 1578.500 955.500 C 1586.102 955.500, 1588.252 955.884, 1592.343 957.974 C 1601.753 962.780, 1606.606 970.919, 1607.657 983.655 C 1608.245 990.786, 1608.690 992.046, 1612.552 997.500 C 1624.169 1013.907, 1644.220 1057.222, 1653.288 1085.500 C 1657.200 1097.699, 1660.503 1112.179, 1661.573 1121.825 L 1662.275 1128.150 1687.156 1078.911 L 1712.037 1029.672 1710.414 1020.086 C 1707.442 1002.528, 1697.881 975.596, 1686.826 953.639 C 1684.252 948.528, 1664.240 912.158, 1663.474 911.201 C 1663.343 911.036, 1660.722 913.537, 1657.650 916.758 C 1650.095 924.678, 1644.650 927.272, 1634.458 927.807 C 1624.012 928.355, 1618.208 926.028, 1610.992 918.398 C 1604.132 911.145, 1601.843 905.654, 1601.235 894.990 C 1600.395 880.246, 1605.899 866.968, 1617.652 855.387 C 1632.112 841.139, 1650.758 837.832, 1663.187 847.312 C 1668.992 851.739, 1672.722 858.150, 1674.525 866.796 C 1676.303 875.326, 1675.362 883.687, 1671.575 893.007 C 1669.232 898.773, 1669.231 898.803, 1671.162 901.646 C 1676.689 909.787, 1689.682 932.389, 1695.445 943.890 C 1706.623 966.197, 1714.254 986.289, 1718.365 1004.235 L 1720.595 1013.971 1724.449 1006.735 C 1735.780 985.462, 1760.813 939.936, 1775.427 914.025 L 1792.051 884.549 1790.513 869.525 C 1788.263 847.534, 1784.477 826.069, 1778.956 804 C 1773.889 783.743, 1759.025 733.981, 1758.055 734.026 C 1757.750 734.040, 1755.957 736.326, 1754.071 739.106 C 1746.940 749.615, 1736.855 755.370, 1725.500 755.410 C 1709.581 755.464, 1697.454 743.495, 1694.770 725.076 C 1691.862 705.124, 1702.799 682.627, 1719.342 674.534 C 1726.427 671.067, 1736.432 670.771, 1743.332 673.823 C 1749.747 676.660, 1756.502 683.279, 1759.696 689.857 C 1762.157 694.926, 1762.459 696.720, 1762.664 707.500 C 1762.886 719.226, 1762.985 719.702, 1766.989 728.361 C 1781.566 759.887, 1798.217 825.173, 1799.851 857.210 L 1800.500 869.920 1810.454 852.710 C 1815.928 843.244, 1830.506 818.412, 1842.849 797.526 L 1865.291 759.552 1864.664 745.782 C 1863.431 718.660, 1856.447 683.054, 1847.290 657.198 L 1844.703 649.895 1841.602 652.893 C 1834.779 659.489, 1820.865 663.340, 1809.174 661.870 C 1800.901 660.829, 1792.120 655.953, 1785.201 648.556 C 1769.700 631.985, 1770.919 607.874, 1788.086 591.499 C 1808.029 572.477, 1840.361 576.081, 1850.898 598.500 C 1853.937 604.967, 1856.276 618.028, 1855.625 624.900 C 1855.344 627.870, 1854.109 633.147, 1852.880 636.626 C 1850.800 642.520, 1850.760 643.077, 1852.295 644.773 C 1860.863 654.241, 1872.816 700.444, 1874.833 731.897 L 1875.500 742.294 1895 709.901 C 1917.439 672.625, 1933.173 648.573, 1941.801 638.357 L 1947.833 631.215 1944.989 628.490 C 1943.425 626.991, 1941.109 623.455, 1939.842 620.632 C 1937.899 616.303, 1937.544 613.857, 1937.574 605 C 1937.605 595.908, 1938.019 593.335, 1940.666 585.806 C 1945.762 571.314, 1956.938 555.982, 1967.524 548.963 C 1977.386 542.424, 1991.294 540.952, 2000.528 545.470 C 2012.461 551.308, 2019.225 564.577, 2019.142 581.985 C 2019.017 608.408, 1999.187 633.064, 1974.686 637.261 C 1968.410 638.336, 1959.517 637.616, 1955 635.666 C 1953.862 635.175, 1951.930 638.084, 1947 647.706 C 1943.425 654.683, 1928.748 680.056, 1914.385 704.089 C 1900.021 728.122, 1886.837 750.290, 1885.085 753.351 L 1881.901 758.917 1890.200 755.052 C 1919.602 741.361, 1967.897 731.624, 1998.465 733.223 L 2007.589 733.700 2007.545 725.080 C 2007.504 717.307, 2007.823 715.803, 2010.787 709.782 C 2014.604 702.028, 2020.014 696.831, 2031 690.363 C 2041.205 684.356, 2049.233 682, 2059.500 682 C 2073.974 682, 2085.228 686.854, 2095.470 697.513 C 2100.658 702.913, 2105.532 711.409, 2106.651 717.006 C 2107.090 719.199, 2107.714 719.920, 2108.880 719.580 C 2109.771 719.321, 2117.475 717.247, 2126 714.973 C 2134.525 712.698, 2147.125 709.029, 2154 706.820 C 2169.023 701.992, 2193 692.115, 2193 690.755 C 2193 689.132, 2183.226 661.367, 2177.775 647.506 C 2160.810 604.363, 2132.447 562.401, 2094.971 525 C 2064.726 494.815, 2040.603 477.017, 1997.564 453.130 C 1987.149 447.350, 1975.449 440.228, 1971.564 437.303 L 1964.500 431.986 1963.791 450.820 C 1963.103 469.092, 1961.940 476.340, 1960.005 474.405 C 1959.498 473.898, 1957.474 461.338, 1955.506 446.492 C 1949.401 400.432, 1946.215 384.591, 1939.317 366 C 1930.361 341.863, 1915.939 323.235, 1893 306.174 C 1888.325 302.697, 1874.748 293.735, 1862.830 286.258 C 1835.960 269.401, 1826.037 261.996, 1805.601 243.552 C 1785.430 225.347, 1779.758 221.053, 1768.500 215.473 C 1756.226 209.389, 1749.936 207.922, 1733.500 207.309 C 1705.222 206.255, 1669.346 213.729, 1636.271 227.567 C 1616.189 235.968, 1589.053 252.410, 1589.016 256.199 C 1589.007 257.134, 1589.881 262.534, 1590.958 268.199 C 1598.574 308.256, 1605.313 353.754, 1610.480 400 C 1614.154 432.877, 1614.616 440, 1613.078 440 C 1611.766 440, 1610.737 436.328, 1604.998 411.160 C 1597.080 376.441, 1592.356 353.135, 1586.420 319.500 C 1568.853 219.958, 1557.356 176.677, 1541.287 149.602 C 1535.252 139.434, 1523.428 127.326, 1516 123.708 C 1503.250 117.499, 1498.478 116.919, 1436 113.986 C 1423.625 113.405, 1404.725 112.030, 1394 110.932 C 1371.680 108.646, 1335.451 107.648, 1326.297 109.067 M 405.780 508.069 C 366.597 511.363, 332.197 531.225, 311.508 562.500 C 290.852 593.724, 277.547 639.990, 265.397 722.844 L 262.707 741.189 267.375 750.344 C 275.757 766.784, 283.823 776.966, 305.930 799.018 C 317.244 810.303, 340 831.730, 356.500 846.634 C 389.391 876.344, 392.130 879, 389.870 879 C 385.385 879, 338.002 843.948, 309.500 819.546 C 284.204 797.888, 270.087 781.982, 261.996 766.020 L 259.724 761.540 255.974 776.520 C 251.205 795.569, 247.200 806.746, 240.287 820.299 C 231.017 838.474, 221.445 850.853, 196.652 876.734 C 173.162 901.253, 165.780 911.597, 160.419 927.500 C 155.899 940.906, 156.971 958.033, 163.592 978.218 C 165.721 984.708, 179.743 997.848, 199.977 1012.314 C 228.644 1032.807, 283.474 1072.297, 286.195 1074.409 C 287.677 1075.559, 288.914 1076.886, 288.945 1077.358 C 289.070 1079.310, 282.770 1076.311, 263.663 1065.325 C 226.797 1044.128, 187.764 1018.803, 176.598 1008.837 L 170.697 1003.570 171.450 1007.535 C 174.710 1024.690, 174.810 1044.968, 171.783 1075.290 C 168.619 1106.997, 168.647 1148.257, 171.847 1169 C 180.879 1227.546, 204.122 1276.597, 239.375 1311.508 C 259.140 1331.081, 281.857 1345.503, 297.616 1348.481 C 328.936 1354.400, 366.688 1354.409, 400.500 1348.506 C 416.076 1345.787, 437.247 1340.188, 455.296 1334.014 C 481.460 1325.064, 495.449 1318.955, 555.500 1290.255 C 582.373 1277.412, 593.427 1272.922, 606.608 1269.497 C 653.291 1257.368, 696.599 1275.340, 747.151 1327.818 C 776.582 1358.371, 797.690 1387.076, 836.769 1449.692 C 861.065 1488.621, 875.096 1507.914, 899.665 1536.173 C 926.369 1566.887, 952.793 1585.744, 979.314 1593.010 C 997.329 1597.946, 1003.027 1598.322, 1063 1598.536 C 1118.147 1598.732, 1134.537 1599.406, 1161 1602.567 C 1219.091 1609.507, 1271.373 1625.793, 1316.319 1650.952 C 1336.746 1662.386, 1361.642 1679.599, 1376.750 1692.735 C 1380.188 1695.724, 1383 1697.862, 1383 1697.487 C 1383 1696.411, 1363.464 1672.963, 1348.851 1656.500 C 1333.604 1639.324, 1293.362 1598.704, 1271.997 1578.926 C 1195.240 1507.871, 1109.680 1438.798, 987.135 1348.960 C 941.080 1315.196, 933.551 1309, 938.583 1309 C 941.768 1309, 968.773 1327.018, 1031.949 1371.293 C 1190.419 1482.354, 1334.293 1609.516, 1395.933 1693 C 1399.385 1697.675, 1402.399 1701.699, 1402.630 1701.942 C 1403.224 1702.566, 1393.233 1681.574, 1379.813 1654 C 1352.492 1597.866, 1326.913 1555.298, 1279.163 1486.500 C 1250.225 1444.807, 1238.138 1429.397, 1199.250 1384.618 C 1190.730 1374.807, 1188.424 1371, 1191.004 1371 C 1192.544 1371, 1220.572 1398.693, 1235.508 1414.973 C 1257.477 1438.918, 1274.105 1459.724, 1298.665 1494 C 1356.305 1574.441, 1392.266 1641.130, 1417.500 1714.373 L 1424.691 1735.246 1425.342 1723.373 C 1428.222 1670.834, 1426.825 1604.029, 1422.458 1585.462 C 1413.033 1545.397, 1399.809 1511.770, 1372.729 1459 C 1353.325 1421.190, 1337.415 1393.298, 1318.325 1363.621 C 1310.324 1351.182, 1308.527 1346.344, 1313.702 1351.175 C 1317.182 1354.423, 1332.100 1373.237, 1342.355 1387.310 C 1365.918 1419.648, 1394.760 1472.681, 1412.614 1516.500 C 1415.527 1523.650, 1417.931 1529.170, 1417.956 1528.767 C 1417.980 1528.363, 1416.846 1520.038, 1415.436 1510.267 C 1396.634 1379.985, 1355.266 1288.215, 1272.045 1192.177 C 1230.069 1143.736, 1219.066 1128.287, 1213.522 1110 C 1211 1101.680, 1210.510 1086.275, 1212.401 1074.761 C 1213.280 1069.404, 1214 1061.953, 1214 1058.204 L 1214 1051.386 1207.915 1045.500 C 1194.911 1032.921, 1187.740 1023.515, 1181.185 1010.440 C 1172.798 993.711, 1169.583 978.359, 1169.680 955.500 C 1169.771 934.213, 1172.477 918.236, 1183.455 874.180 C 1196.889 820.266, 1198.354 811.881, 1198.343 789 C 1198.335 771.705, 1196.164 759.682, 1189.985 742.717 L 1186.787 733.933 1175.006 724.217 C 1168.527 718.872, 1157.663 710.477, 1150.863 705.560 C 1111.638 677.195, 1102.285 669.169, 1093.999 656.761 C 1087.812 647.495, 1085.635 639.028, 1086.258 626.653 C 1086.567 620.514, 1087.572 614.003, 1088.800 610.184 L 1090.831 603.868 1087.666 601.883 C 1073.912 593.261, 1054.840 586.475, 1037.633 584.082 C 1027.627 582.690, 996.756 582.705, 972.500 584.113 C 943.722 585.784, 892.042 585.566, 877.500 583.713 C 853.160 580.611, 826.515 573.186, 805 563.511 C 799.225 560.914, 784.427 553.379, 772.115 546.766 C 726.876 522.468, 713.391 517.604, 691.500 517.685 C 677.253 517.738, 671.316 519.127, 638.514 530.076 C 611.715 539.021, 591.721 543.986, 582.374 544.015 C 573.846 544.042, 574.189 545.170, 584.726 551.760 C 604.696 564.248, 628.437 585.274, 674.250 631.049 C 693.362 650.145, 709 666.271, 709 666.885 C 709 667.498, 708.417 668, 707.705 668 C 706.993 668, 691.338 655.063, 672.916 639.250 C 609.630 584.929, 593.808 572.166, 576 561.075 C 553.231 546.895, 538.429 539.483, 515 530.534 C 502.625 525.806, 491.420 521.482, 490.101 520.923 C 488.781 520.364, 481.534 518.164, 473.995 516.033 C 449.630 509.147, 425.904 506.377, 405.780 508.069 M 1977.371 557.503 C 1956.020 568.142, 1941.975 605.652, 1954.150 619.518 C 1964.749 631.590, 1991.546 622.552, 2000.783 603.790 C 2007.117 590.923, 2008.393 580.720, 2005.029 569.830 C 2003.069 563.484, 1999.320 558.686, 1994.316 556.120 C 1990.496 554.162, 1982.818 554.788, 1977.371 557.503 M 1807.035 594.141 C 1795.378 598.747, 1787.484 610.547, 1787.701 623.040 C 1787.821 629.921, 1789.711 634.568, 1794.585 639.962 C 1805.207 651.720, 1822.356 652.779, 1833.910 642.391 C 1847.506 630.167, 1846.109 604.008, 1831.400 595.389 C 1824.959 591.614, 1814.753 591.091, 1807.035 594.141 M 2353.523 606.619 C 2349.135 607.411, 2340.251 609.829, 2333.781 611.992 C 2308.242 620.531, 2286.196 634.342, 2260.137 658.128 C 2235.156 680.929, 2231.108 684.350, 2221.102 691.106 C 2198.687 706.240, 2169.464 717.976, 2125.412 729.534 L 2107.323 734.280 2104.569 740.602 C 2095.803 760.723, 2069.166 771.210, 2043.500 764.645 C 2038.524 763.373, 2038.476 763.384, 2033.500 766.932 C 2025.564 772.591, 2012.292 785.795, 2005.789 794.500 C 1999.643 802.726, 1986.591 823.925, 1987.260 824.593 C 1987.466 824.800, 1990.980 824.257, 1995.068 823.388 C 2019.502 818.193, 2044.587 830.998, 2050.139 851.500 C 2052.006 858.398, 2050.727 869.081, 2047.166 876.313 C 2043.125 884.523, 2028.936 898.489, 2020.111 902.944 C 2005.432 910.354, 1989.452 910.943, 1977.058 904.531 C 1972.685 902.268, 1963.602 893.711, 1960.854 889.263 C 1959.695 887.388, 1958.416 886.224, 1958.013 886.677 C 1957.307 887.468, 1937 935.435, 1937 936.310 C 1937 936.545, 1940.265 936.947, 1944.255 937.203 C 1969.266 938.808, 1985.618 963.146, 1978.167 987.678 C 1975.533 996.347, 1971.611 1002.264, 1963.413 1009.932 C 1952.010 1020.599, 1939.766 1026, 1926.984 1026 C 1918.993 1026, 1909.352 1023.269, 1904.630 1019.667 L 1901.322 1017.144 1886.661 1048.168 C 1878.597 1065.231, 1872 1079.509, 1872 1079.896 C 1872 1080.283, 1874.784 1081.175, 1878.187 1081.878 C 1886.835 1083.664, 1892.665 1086.895, 1898.642 1093.215 C 1907.357 1102.430, 1910.718 1111.892, 1909.679 1124.286 C 1908.296 1140.789, 1897.742 1151.538, 1875.500 1159.100 C 1866.723 1162.084, 1849.214 1162.414, 1842.246 1159.726 L 1837.991 1158.086 1836.433 1161.793 C 1828.739 1180.100, 1814.110 1228.210, 1796.992 1291.500 C 1775.029 1372.707, 1760.236 1417.760, 1740.021 1465 C 1705.007 1546.827, 1656.697 1617.384, 1599.889 1669.663 C 1586.772 1681.734, 1562.572 1702.385, 1556.828 1706.408 C 1555.733 1707.175, 1554.728 1709.978, 1554.085 1714.059 C 1551.434 1730.880, 1542 1811.626, 1542 1817.488 C 1542 1819.526, 1543.571 1820.195, 1559.329 1824.865 C 1568.859 1827.689, 1577.184 1830, 1577.829 1830 C 1578.473 1830, 1579 1829.314, 1579 1828.475 C 1579 1827.636, 1580.633 1823.699, 1582.628 1819.725 C 1598.177 1788.761, 1624.463 1751.351, 1666.400 1700.500 C 1683.256 1680.062, 1727.317 1627.614, 1742.429 1610 C 1788.620 1556.160, 1863.437 1473, 1865.683 1473 C 1866.704 1473, 1866.818 1473.471, 1866.117 1474.781 C 1863.586 1479.510, 1769.672 1595.597, 1683.915 1700 C 1639.321 1754.290, 1616.834 1784.947, 1597.730 1817.500 C 1593.857 1824.100, 1590.011 1830.290, 1589.183 1831.256 C 1587.416 1833.319, 1587.403 1833.305, 1592.270 1834.725 C 1595.930 1835.793, 1596.086 1835.733, 1597.649 1832.662 C 1600.179 1827.694, 1613.681 1808.262, 1620.344 1800 C 1659.371 1751.610, 1712.702 1702.923, 1790.027 1645.095 C 1839.070 1608.417, 1861.219 1593.871, 1961 1532.813 C 1974.475 1524.568, 1986.963 1516.925, 1988.750 1515.829 C 1990.537 1514.733, 1992 1514.320, 1992 1514.910 C 1992 1515.501, 1978.473 1525.009, 1961.940 1536.040 C 1876.174 1593.265, 1816.698 1636.806, 1751.361 1690.202 C 1686.128 1743.512, 1640.886 1789.174, 1610.695 1832.171 L 1606.011 1838.843 1611.070 1840.523 C 1613.853 1841.448, 1616.281 1842.045, 1616.465 1841.852 C 1616.650 1841.658, 1619.132 1838.007, 1621.981 1833.737 C 1635.833 1812.981, 1672.784 1780.616, 1712.234 1754.684 C 1795.308 1700.080, 1955.236 1627.017, 2116.500 1569.996 C 2180.964 1547.202, 2244.727 1525.517, 2250.433 1524.447 C 2254.073 1523.764, 2255.124 1524.826, 2252.750 1526.789 C 2250.531 1528.624, 2225.375 1538.257, 2142.500 1569.011 C 2105.477 1582.750, 2048.064 1605.304, 2013.724 1619.599 C 1832.145 1695.187, 1729.348 1749.521, 1668.611 1802.009 C 1657.818 1811.336, 1639.377 1829.902, 1634.352 1836.500 C 1626.636 1846.632, 1628.606 1845.392, 1642.504 1831.373 C 1658.238 1815.501, 1669.536 1806.513, 1687 1795.973 C 1703.822 1785.820, 1722.591 1777.342, 1769.500 1758.706 C 1843.812 1729.185, 1876.917 1714.677, 1972.500 1669.746 C 1990.650 1661.214, 2008.425 1653.019, 2012 1651.534 C 2015.575 1650.050, 2020.750 1647.817, 2023.500 1646.572 C 2026.250 1645.328, 2031.200 1643.294, 2034.500 1642.053 C 2037.800 1640.812, 2042.525 1638.988, 2045 1638.001 C 2055.521 1633.803, 2085.228 1624.734, 2102.195 1620.540 C 2139.734 1611.261, 2166.001 1607.956, 2207.652 1607.272 C 2291.414 1605.897, 2358.150 1617.831, 2455.536 1651.598 C 2528.197 1676.792, 2559.773 1684.630, 2593 1685.718 C 2611.825 1686.334, 2621.842 1685.295, 2638.518 1680.995 C 2664.891 1674.195, 2686.870 1661.263, 2708.075 1640.070 C 2725.452 1622.702, 2738.491 1603.555, 2745.992 1584.390 C 2752.790 1567.024, 2756.266 1550.406, 2759.043 1522 C 2763.372 1477.726, 2773.005 1452.868, 2801.449 1412.568 C 2821.221 1384.555, 2829.088 1370.608, 2834.832 1353.384 C 2843.698 1326.800, 2844.016 1306.347, 2836.462 1248.500 C 2828.909 1190.660, 2829.035 1178.368, 2837.748 1123 C 2842.077 1095.490, 2842.393 1092.185, 2842.431 1074 C 2842.465 1058.114, 2842.137 1053.306, 2840.660 1048.060 C 2836.707 1034.021, 2829.141 1021.926, 2819 1013.438 C 2810.630 1006.432, 2786.122 991.059, 2781.445 989.882 C 2775.023 988.265, 2760.141 989.283, 2750.037 992.032 C 2739.058 995.019, 2725.805 1001.889, 2691.597 1022.328 C 2676.251 1031.498, 2663.313 1039, 2662.847 1039 C 2660.096 1039, 2663.357 1035.216, 2673.750 1026.348 C 2715.852 990.426, 2737.097 978.540, 2763.076 976.373 L 2770.861 975.724 2767.987 970.612 C 2762.397 960.669, 2759.905 947.588, 2757.488 915.500 C 2753.250 859.252, 2745.562 831.228, 2726.470 802.439 C 2714.108 783.798, 2697.968 770.274, 2668.147 753.571 C 2659.770 748.879, 2657.183 747.871, 2654.591 748.292 C 2650.055 749.028, 2633.860 756.936, 2625 762.742 C 2612.685 770.812, 2584.334 794.108, 2561.099 815.250 C 2554.536 821.222, 2551 823.359, 2551 821.353 C 2551 818.486, 2589.455 776.419, 2602.784 764.705 C 2617.451 751.814, 2627.738 745.701, 2643.400 740.570 C 2645.045 740.031, 2644.711 739.461, 2640.900 736.309 C 2632.270 729.170, 2623.555 719.226, 2609.229 700.172 C 2571.597 650.120, 2556.977 642.184, 2492.776 636.953 L 2478.052 635.753 2470.448 639.364 C 2458.620 644.981, 2446.738 653.221, 2437.215 662.410 C 2422.797 676.321, 2402.445 697.248, 2380.961 720.250 C 2369.788 732.212, 2360.276 742, 2359.823 742 C 2356.849 742, 2362.313 733.964, 2387.362 701.500 C 2417.920 661.896, 2434.409 645.012, 2452.317 634.989 C 2458.480 631.540, 2458.531 631.095, 2453 628.986 C 2451.075 628.252, 2441.625 624.178, 2432 619.933 C 2412.443 611.307, 2404.488 608.618, 2392.165 606.470 C 2381.709 604.646, 2364.077 604.714, 2353.523 606.619 M 1723.153 686.154 C 1715.154 690.113, 1708.010 701.907, 1706.439 713.745 C 1704.533 728.120, 1713.891 743, 1724.838 743 C 1734.492 743, 1745.694 732.504, 1749.416 719.972 C 1753.556 706.029, 1748.856 690.597, 1738.901 685.449 C 1734.868 683.363, 1728.185 683.662, 1723.153 686.154 M 2052.500 694.215 C 2045.193 695.149, 2035.918 699.559, 2029.642 705.084 C 2012.603 720.082, 2016.858 739.407, 2039.684 750.689 C 2047.287 754.446, 2047.559 754.500, 2058.948 754.475 C 2073.596 754.442, 2079.875 752.255, 2087.653 744.478 C 2099.369 732.762, 2098.109 716.651, 2084.496 704.103 C 2075.855 696.138, 2064.616 692.665, 2052.500 694.215 M 1979.500 745.140 C 1957.721 747.023, 1928.562 753.211, 1904.355 761.086 C 1889.939 765.776, 1876.327 771.394, 1873.768 773.710 C 1871.495 775.767, 1859.517 796.245, 1848.447 817 C 1838.565 835.528, 1816.984 879.317, 1817.487 879.820 C 1817.667 880, 1819.093 879.493, 1820.657 878.693 C 1829.654 874.088, 1870.390 863.218, 1896 858.587 C 1913.366 855.447, 1936.029 852.364, 1948.782 851.405 L 1958.064 850.708 1968.496 830.104 C 1986.560 794.424, 2001.165 774.547, 2020.496 759.329 L 2024.493 756.183 2018.996 750.204 L 2013.500 744.226 2001.500 744.250 C 1994.900 744.264, 1985 744.664, 1979.500 745.140 M 1999 834.985 C 1984.224 837.773, 1973.462 846.014, 1968.893 858.040 C 1966.465 864.430, 1966.492 870.570, 1968.980 877.212 C 1971.756 884.627, 1976.029 889.359, 1983.174 892.929 C 1997.629 900.152, 2015.859 895.095, 2029.107 880.186 C 2040.690 867.150, 2041.033 852.176, 2029.965 842.702 C 2022.411 836.236, 2009.466 833.010, 1999 834.985 M 1638.500 855.580 C 1633.233 857.452, 1624.214 864.615, 1620.673 869.739 C 1609.726 885.579, 1610.662 903.896, 1622.856 912.466 C 1628.292 916.287, 1636.641 916.690, 1641.862 913.384 C 1649.630 908.466, 1658.576 894.093, 1661.668 881.561 C 1663.043 875.991, 1663.111 874.073, 1662.094 869.529 C 1659.195 856.576, 1650.373 851.360, 1638.500 855.580 M 1943.500 864.121 C 1905.499 868.833, 1878.688 873.542, 1853 880.018 C 1837.490 883.927, 1812.320 891.346, 1811.382 892.285 C 1810.024 893.643, 1763 998.771, 1763 1000.449 C 1763 1000.722, 1766.037 999.426, 1769.750 997.570 C 1780.419 992.235, 1800.646 986.584, 1821.500 983.111 C 1838.293 980.314, 1871.379 977, 1882.509 977 L 1891.845 977 1893.043 973.250 C 1896.388 962.779, 1905.904 950.502, 1916 943.633 C 1919.042 941.563, 1920.474 938.914, 1926.949 923.376 C 1931.046 913.544, 1938.358 896.278, 1943.199 885.006 C 1952.085 864.312, 1952.606 862.898, 1951.250 863.126 C 1950.838 863.196, 1947.350 863.644, 1943.500 864.121 M 1932.438 948.876 C 1917.520 952.745, 1904.253 969.284, 1903.237 985.280 C 1902.420 998.144, 1905.958 1005.677, 1915.001 1010.329 C 1919.930 1012.864, 1921.285 1013.116, 1928.077 1012.754 C 1942.557 1011.983, 1956.683 1002.490, 1963.266 989.104 C 1966.095 983.352, 1966.500 981.526, 1966.500 974.515 C 1966.500 967.586, 1966.130 965.871, 1963.770 961.855 C 1960.672 956.586, 1956.050 952.346, 1951.175 950.304 C 1947.105 948.598, 1936.597 947.798, 1932.438 948.876 M 1769.680 951.750 C 1756.628 974.119, 1714.610 1053.784, 1691.754 1099.500 C 1651.839 1179.333, 1625.035 1238.460, 1573.208 1361 C 1505.217 1521.757, 1465.085 1627.815, 1442.658 1706 C 1438.330 1721.090, 1438.194 1722.003, 1437.499 1740.525 L 1436.786 1759.550 1440.741 1764.525 C 1449.569 1775.629, 1463.654 1787.538, 1477.096 1795.263 C 1486.690 1800.776, 1518.714 1813.550, 1527.750 1815.469 L 1531 1816.159 1531 1810.777 C 1531 1802.782, 1534.636 1764.868, 1538.075 1737 C 1553.122 1615.075, 1579.209 1491.769, 1616.141 1368 C 1655.891 1234.787, 1710.013 1088.220, 1766.339 961.250 C 1768.839 955.612, 1770.713 951, 1770.502 951 C 1770.291 951, 1769.921 951.337, 1769.680 951.750 M 1568.219 969.134 C 1560.773 971.995, 1551.840 980.548, 1547.866 988.621 C 1543.438 997.614, 1542.790 1007.538, 1546.208 1014 C 1549.312 1019.870, 1555.619 1023.356, 1561.500 1022.453 C 1578.395 1019.857, 1596 1001.785, 1596 987.037 C 1596 971.028, 1583.781 963.153, 1568.219 969.134 M 1884.886 987.448 C 1884.639 987.694, 1874.102 989.055, 1861.469 990.472 C 1848.836 991.889, 1831.720 994.169, 1823.433 995.539 C 1804.357 998.691, 1773.642 1006.269, 1764.451 1010.089 L 1757.403 1013.019 1752.119 1025.760 C 1740.201 1054.495, 1717.623 1111.164, 1708.198 1136 C 1702.667 1150.575, 1697.679 1163.716, 1697.114 1165.202 C 1696.109 1167.843, 1696.239 1167.806, 1702.793 1163.577 C 1716.263 1154.887, 1740.466 1143.865, 1760 1137.524 C 1773.701 1133.077, 1801.221 1127.246, 1812.750 1126.348 C 1820.384 1125.753, 1821 1125.541, 1821 1123.509 C 1821 1119.662, 1824.769 1110.187, 1828.587 1104.435 C 1832.902 1097.934, 1839.389 1092.097, 1848.519 1086.500 L 1855.044 1082.500 1873.538 1043.163 L 1892.032 1003.826 1890.816 995.413 C 1889.725 987.872, 1889.378 987, 1887.466 987 C 1886.293 987, 1885.132 987.202, 1884.886 987.448 M 1861.842 1094.334 C 1855.432 1096.137, 1846.473 1101.703, 1842.263 1106.500 C 1836.608 1112.941, 1832.902 1121.771, 1832.868 1128.879 C 1832.828 1137.054, 1835.569 1141.886, 1842.387 1145.665 C 1847.046 1148.248, 1848.388 1148.500, 1857.500 1148.500 C 1865.850 1148.500, 1868.849 1148.037, 1875.674 1145.693 C 1890.198 1140.706, 1896.936 1132.563, 1896.978 1119.946 C 1897.026 1105.517, 1887.027 1094.980, 1871.921 1093.541 C 1868.827 1093.247, 1864.500 1093.587, 1861.842 1094.334 M 1800.500 1140.447 C 1782.409 1144.173, 1772.797 1146.748, 1758.808 1151.616 C 1746.099 1156.039, 1704.081 1174.448, 1696.786 1178.790 C 1690.259 1182.675, 1691.626 1179.847, 1679.287 1215 C 1621.547 1379.511, 1585.381 1516.875, 1562.522 1658.500 C 1560.036 1673.900, 1557.788 1687.737, 1557.526 1689.250 C 1557.264 1690.763, 1557.411 1692, 1557.852 1692 C 1559.387 1692, 1618.580 1631.418, 1628.310 1619.889 C 1676.578 1562.693, 1710.298 1504.521, 1739.841 1427.482 C 1754.337 1389.679, 1764.647 1356.467, 1784.380 1284 C 1799.997 1226.653, 1810.172 1192.825, 1819.424 1167.500 L 1825.999 1149.500 1823.277 1143.250 C 1821.187 1138.451, 1820.084 1137.018, 1818.527 1137.076 C 1817.412 1137.118, 1809.300 1138.635, 1800.500 1140.447 M 617.831 1280.023 C 603.841 1282.384, 591.763 1287.278, 547.329 1308.593 C 527.435 1318.136, 504.935 1328.603, 497.329 1331.853 C 449.167 1352.431, 410.339 1362.387, 367.416 1365.165 L 348.731 1366.374 373.115 1372.578 C 405.559 1380.832, 420.265 1385.757, 459.500 1401.504 C 518.665 1425.250, 540.049 1430.844, 579.980 1433.020 C 596.743 1433.934, 613.255 1433.429, 661.500 1430.526 C 716.695 1427.205, 746.291 1429.324, 774.833 1438.640 C 792.066 1444.265, 809.921 1453.721, 825.512 1465.480 C 830.178 1469, 834.516 1472.201, 835.152 1472.594 C 836.547 1473.456, 837.710 1475.434, 822.161 1450.500 C 786.953 1394.043, 762.867 1361.969, 733.500 1332.436 C 703.445 1302.210, 677.870 1285.942, 651.778 1280.453 C 644.453 1278.912, 625.812 1278.676, 617.831 1280.023 M 525.698 1448.513 C 517.938 1461.597, 506.602 1474.164, 459.368 1522.040 C 414.890 1567.123, 397.759 1585.877, 379.021 1610 C 341.600 1658.177, 316.621 1705.428, 305.489 1749.097 C 300.045 1770.454, 298.581 1782.818, 298.574 1807.500 C 298.568 1827.365, 298.885 1832.204, 300.898 1843 C 303.866 1858.916, 308.644 1875.426, 314.504 1890.018 C 320.039 1903.798, 340.637 1948.398, 343.218 1952.188 C 344.225 1953.667, 347.625 1956.142, 350.774 1957.688 C 355.557 1960.037, 357.735 1960.491, 364 1960.446 C 373.528 1960.377, 378.554 1958.706, 398.500 1948.974 C 417.240 1939.830, 425.515 1935.123, 452.371 1918.327 C 472.136 1905.966, 478.751 1903.097, 472.062 1909.784 C 467.297 1914.549, 442.071 1934.620, 431 1942.456 C 410.338 1957.080, 387.243 1969.697, 375.732 1972.649 C 369.619 1974.217, 359.035 1974.090, 353.092 1972.378 C 351.053 1971.790, 350.768 1971.977, 351.228 1973.592 C 351.527 1974.641, 352.967 1979.550, 354.428 1984.500 C 359.210 2000.707, 360.400 2009.910, 360.443 2031 C 360.489 2053.304, 359.720 2060.456, 352.975 2100.500 C 347.210 2134.733, 345.260 2150.960, 344.385 2172 C 341.762 2235.085, 364.055 2304.098, 404.293 2357.460 C 422.934 2382.182, 446.813 2405.605, 487.710 2439.285 C 504.263 2452.917, 522.687 2468.714, 528.653 2474.390 L 539.500 2484.709 539.630 2473.605 C 539.844 2455.281, 542.909 2446.405, 555.720 2427 C 568.921 2407.003, 585.020 2388.044, 613.671 2358.750 C 628.935 2343.144, 632 2340.503, 632 2342.964 C 632 2343.494, 624.866 2352.831, 616.148 2363.714 C 595.423 2389.581, 585.567 2402.742, 575.491 2418 C 558.578 2443.612, 554.011 2453.353, 551.972 2468.167 C 550.031 2482.270, 553.904 2501.290, 560.592 2510.500 C 571.821 2525.962, 579.584 2539.371, 598.222 2575.500 C 620.904 2619.468, 630.011 2633.672, 648.076 2653.262 C 673.824 2681.180, 713.403 2705.641, 773.500 2730.774 C 790.080 2737.708, 829.916 2753, 831.400 2753 C 831.691 2753, 831.056 2750.964, 829.989 2748.475 C 824.897 2736.596, 824.880 2720.811, 829.943 2706.913 C 833.550 2697.011, 842.269 2680.881, 851.789 2666.500 C 860.121 2653.913, 886.823 2618.474, 890.922 2614.563 C 895.894 2609.819, 894.671 2613.569, 887.329 2625.584 C 860.108 2670.126, 847.832 2693.218, 841.922 2711 C 838.966 2719.891, 838.796 2721.173, 839.273 2731 C 839.888 2743.698, 841.785 2749.473, 847.348 2755.583 C 851.294 2759.917, 852.268 2760.382, 867 2764.981 C 927.860 2783.981, 968.213 2790.838, 1003.303 2788.142 C 1022.836 2786.641, 1030.926 2785.222, 1061 2778.020 C 1097.319 2769.322, 1102.703 2768.399, 1134 2765.495 C 1154.473 2763.596, 1165.905 2761.579, 1177.500 2757.820 C 1192.633 2752.915, 1212.205 2741.453, 1229.628 2727.293 C 1233.549 2724.107, 1242.549 2716.801, 1249.628 2711.058 C 1274.358 2690.997, 1292.392 2680.642, 1329 2665.484 C 1373.044 2647.246, 1390.779 2634.705, 1401.204 2614.427 C 1407.799 2601.597, 1410.348 2592.423, 1414.963 2564.904 C 1419.555 2537.518, 1422.535 2525.186, 1426.874 2515.618 C 1433.990 2499.923, 1443.473 2489.264, 1467 2470.511 C 1492.553 2450.144, 1501.126 2439.709, 1506.855 2422 C 1510.187 2411.703, 1511.825 2402.443, 1514.974 2376.111 C 1522.471 2313.425, 1532.263 2282.971, 1555.843 2249 C 1565.839 2234.600, 1572.682 2227.090, 1605.045 2195 C 1643.327 2157.041, 1656.270 2140.694, 1670.371 2112.500 C 1691.895 2069.462, 1703.996 2019.158, 1703.999 1972.711 C 1704.001 1936.717, 1697.683 1911.906, 1683.862 1893.636 C 1672.086 1878.068, 1655.227 1868.402, 1620.207 1857.139 C 1581.534 1844.700, 1563.817 1839.231, 1547 1834.539 C 1537.925 1832.007, 1525.211 1828.301, 1518.748 1826.303 C 1512.284 1824.306, 1506.853 1822.858, 1506.679 1823.086 C 1506.506 1823.314, 1502.532 1828.450, 1497.849 1834.500 C 1470.070 1870.386, 1447.148 1915.253, 1412.786 2001 C 1395.816 2043.344, 1386.732 2070.377, 1371.004 2125.327 C 1366.151 2142.281, 1361.915 2156.419, 1361.590 2156.743 C 1359.769 2158.565, 1359.869 2154.779, 1361.884 2145.722 C 1373.236 2094.680, 1387.848 2042.536, 1401.737 2003.500 C 1421.088 1949.113, 1441.243 1903.133, 1460.499 1869.448 C 1469.964 1852.889, 1484.494 1831.872, 1491.053 1825.250 L 1497.244 1819 1493.372 1817.413 C 1491.242 1816.540, 1485.411 1813.903, 1480.413 1811.553 L 1471.325 1807.281 1460.884 1810.955 C 1433.346 1820.645, 1397.177 1842.222, 1359.500 1871.435 C 1310.020 1909.801, 1249.002 1969.774, 1190.544 2037.500 C 1168.232 2063.349, 1163.894 2068.052, 1162.918 2067.449 C 1161.508 2066.578, 1162.548 2065.043, 1183.373 2037.272 C 1206.211 2006.817, 1219.776 1989.749, 1236.838 1970 C 1250.623 1954.044, 1292.821 1911.348, 1311.216 1894.743 C 1361.367 1849.474, 1412.856 1815.136, 1448.864 1802.947 L 1458.754 1799.599 1452.684 1794.748 L 1446.615 1789.896 1438.558 1790.502 C 1396.041 1793.702, 1370.206 1799.292, 1318.500 1816.481 C 1265.390 1834.136, 1236.838 1845.454, 1196.379 1864.891 C 1184.952 1870.381, 1175.174 1874.607, 1174.650 1874.283 C 1173.328 1873.466, 1175.049 1872.295, 1195.500 1860.091 C 1232.071 1838.267, 1255.718 1826.624, 1289.231 1813.941 C 1346.082 1792.424, 1383.237 1782.828, 1420.706 1779.984 C 1428.231 1779.413, 1434.588 1778.745, 1434.834 1778.499 C 1435.305 1778.028, 1428.404 1769.963, 1426.573 1768.845 C 1424.630 1767.659, 1406.368 1762.971, 1397.854 1761.473 C 1341.223 1751.504, 1252.956 1753.324, 1149.500 1766.593 C 1112.260 1771.370, 1072.772 1778.285, 1021.062 1789.084 C 1004.232 1792.599, 992.257 1794.657, 991.725 1794.125 C 990.418 1792.818, 991.033 1792.585, 1007.501 1788.151 C 1068.591 1771.699, 1116.166 1761.426, 1161 1755.005 C 1247.566 1742.609, 1314.739 1739.955, 1374.500 1746.572 C 1386.730 1747.926, 1409.263 1752.012, 1413.533 1753.651 C 1416.355 1754.734, 1414.931 1752.396, 1405.821 1740.991 C 1388.919 1719.832, 1366.047 1699.441, 1337.691 1680.251 C 1279.962 1641.182, 1223.984 1622.511, 1140 1614.314 C 1127.383 1613.082, 1110.085 1612.653, 1066.500 1612.491 C 1029.442 1612.353, 1006.351 1611.864, 1000.500 1611.092 C 975.457 1607.788, 955.857 1600.520, 935.774 1587.090 C 921.802 1577.748, 911.514 1568.544, 892 1547.933 C 838.352 1491.267, 819.090 1474.363, 793.137 1461.171 C 759.490 1444.068, 726.682 1440.314, 651 1444.907 C 596.140 1448.237, 565.705 1447.605, 540.984 1442.623 L 530.450 1440.500 525.698 1448.513 M 2192 1621.070 C 2142.440 1623.502, 2089.858 1635.135, 2041.141 1654.447 C 2022.769 1661.729, 2005.155 1669.626, 1963 1689.479 C 1943.475 1698.674, 1920.525 1709.350, 1912 1713.203 C 1903.475 1717.056, 1894.250 1721.244, 1891.500 1722.510 C 1888.750 1723.776, 1880.425 1727.603, 1873 1731.015 C 1855.932 1738.858, 1820.999 1753.536, 1797 1762.949 C 1741.031 1784.902, 1728.914 1789.922, 1712.500 1797.962 C 1689.208 1809.371, 1660.861 1828.030, 1676.086 1821.931 C 1721.542 1803.722, 1784.353 1793.557, 1859 1792.328 C 1895.415 1791.729, 1910.670 1792.539, 1948 1797.056 C 1965.021 1799.116, 1968.553 1799.781, 1967.590 1800.743 C 1967.282 1801.051, 1943.286 1801.378, 1914.265 1801.468 C 1859.716 1801.639, 1848.624 1802.232, 1800.500 1807.549 C 1757.944 1812.251, 1715.440 1820.989, 1690.638 1830.134 C 1686.190 1831.773, 1682.464 1833.202, 1682.357 1833.307 C 1682.250 1833.413, 1690.338 1833.345, 1700.331 1833.156 C 1735.375 1832.493, 1772.466 1837.763, 1822.500 1850.515 C 1858.631 1859.724, 1882.426 1868.285, 1918 1884.874 C 1939.643 1894.967, 1947.500 1899.288, 1947.500 1901.100 C 1947.500 1903.353, 1944.080 1902.382, 1919 1893.010 C 1873.987 1876.187, 1842.367 1867.066, 1796.335 1857.626 C 1745.296 1847.158, 1710.870 1844.429, 1673.500 1847.888 C 1659.078 1849.223, 1650.757 1850.788, 1657.292 1850.937 C 1669.644 1851.217, 1705.024 1862.211, 1735.500 1875.239 C 1750.745 1881.756, 1783.463 1897.835, 1797 1905.463 C 1850.328 1935.513, 1914.232 1980.291, 1961.011 2020.385 C 1986.946 2042.615, 2034 2088.042, 2034 2090.851 C 2034 2093.372, 2031.046 2091.561, 2021 2082.879 C 1966.659 2035.917, 1923.805 2002.896, 1866.500 1963.830 C 1804.521 1921.577, 1746.630 1891.125, 1694.608 1873.412 C 1685.867 1870.435, 1678.528 1868, 1678.298 1868 C 1678.069 1868, 1681.503 1871.487, 1685.930 1875.750 C 1695.587 1885.049, 1703.524 1897.336, 1708.052 1909.994 C 1710.735 1917.495, 1711.803 1919.267, 1714.867 1921.299 C 1733.552 1933.692, 1788.904 2000.877, 1831.794 2063.223 C 1858.691 2102.322, 1895.131 2162.554, 1924.436 2216.356 C 1941.958 2248.524, 1971.962 2310.371, 1970.672 2311.661 C 1970.376 2311.958, 1969.664 2311.910, 1969.091 2311.556 C 1967.967 2310.862, 1967.593 2310.199, 1948.445 2275 C 1932.059 2244.876, 1924.795 2232.252, 1902.703 2195.500 C 1846.553 2102.091, 1812.134 2051.666, 1764.138 1992.500 C 1747.355 1971.811, 1715.914 1935.753, 1715.242 1936.424 C 1715.096 1936.570, 1715.502 1940.247, 1716.145 1944.595 C 1717.685 1955.026, 1717.656 1989.766, 1716.095 2003 C 1710.397 2051.308, 1695.407 2097.399, 1673.163 2135 C 1660.446 2156.499, 1648.653 2170.499, 1614.198 2204.999 C 1596.348 2222.873, 1578.840 2241.098, 1575.293 2245.499 C 1566.619 2256.260, 1557.744 2269.749, 1552.821 2279.653 L 1548.769 2287.807 1549.936 2301.653 C 1553.080 2338.947, 1559.699 2364.285, 1574.477 2395.596 C 1583.118 2413.903, 1590.358 2426, 1611.680 2457.757 C 1636.830 2495.215, 1645.224 2509.083, 1655.103 2529.500 C 1667.332 2554.772, 1672.998 2571.992, 1688.934 2632.322 C 1699.217 2671.252, 1706.061 2691.518, 1715.850 2712.026 C 1742.218 2767.267, 1788.635 2805.857, 1854.500 2827.296 C 1872.397 2833.121, 1879.397 2834.872, 1907.500 2840.553 C 1943.083 2847.745, 1953.176 2850.620, 1976.500 2860.203 C 2023.315 2879.439, 2027.079 2880.500, 2048.500 2880.500 C 2067.567 2880.500, 2070.276 2879.817, 2097 2868.282 C 2121.945 2857.515, 2125.416 2854.765, 2129.133 2842.819 C 2131.385 2835.585, 2131.467 2829.678, 2129.499 2816.617 C 2127.305 2802.066, 2124.126 2790.316, 2112.013 2752 C 2098.610 2709.604, 2087 2671.261, 2087 2669.395 C 2087 2666.963, 2088.890 2667.886, 2090.572 2671.138 C 2093.086 2676, 2109.408 2714.530, 2117.201 2734 C 2137.114 2783.748, 2144.094 2808.879, 2144.166 2831.084 C 2144.196 2840.332, 2141.901 2852.325, 2139.861 2853.586 C 2139.387 2853.879, 2139 2854.766, 2139 2855.559 C 2139 2856.595, 2140.234 2857, 2143.388 2857 C 2150.051 2857, 2163.386 2861.254, 2185.667 2870.488 C 2225.572 2887.026, 2241.225 2890.572, 2270.500 2889.703 C 2291.344 2889.085, 2305.405 2886.917, 2327.449 2880.922 C 2341.748 2877.034, 2361.097 2870.356, 2375 2864.512 C 2388.956 2858.645, 2464.060 2825.524, 2473.766 2820.956 C 2509.930 2803.936, 2525.817 2787.774, 2532.006 2761.709 C 2538.223 2735.529, 2539.873 2707.895, 2536.078 2693.500 C 2531.685 2676.838, 2529.743 2673.067, 2502.672 2628.621 C 2497.352 2619.888, 2493 2612.350, 2493 2611.871 C 2493 2609.136, 2496.821 2612.238, 2505.566 2622.074 C 2525.253 2644.218, 2536.773 2659.898, 2542.569 2672.442 C 2545.932 2679.721, 2550 2693.542, 2550 2697.688 C 2550 2700.633, 2550.811 2700.594, 2555.056 2697.444 C 2556.950 2696.039, 2561.875 2693.036, 2566 2690.772 C 2588.863 2678.223, 2603.602 2663.239, 2620.733 2635.132 C 2633.854 2613.605, 2644.124 2590.380, 2661.030 2544.004 C 2676.117 2502.620, 2685.070 2484.416, 2702.215 2460.266 C 2717.894 2438.182, 2717.557 2438.879, 2716.253 2431.269 C 2713.804 2416.972, 2706.288 2407.849, 2673 2378.767 C 2661.725 2368.917, 2651.883 2359.989, 2651.128 2358.929 C 2648.568 2355.329, 2653.016 2356.705, 2664.391 2363.031 C 2686.377 2375.258, 2706.035 2389.609, 2715.795 2400.560 C 2718.607 2403.715, 2722.594 2409.709, 2724.655 2413.880 L 2728.402 2421.463 2732.240 2413.241 C 2742.726 2390.772, 2743.937 2368.754, 2737.531 2317 C 2731.269 2266.412, 2730.022 2241.692, 2730.010 2167.950 C 2730.004 2136.297, 2729.532 2104.347, 2728.961 2096.950 C 2724.418 2038.159, 2711.383 1990.477, 2688.441 1948.730 C 2663.608 1903.541, 2629.025 1865.522, 2588 1838.306 C 2525.833 1797.066, 2488.923 1784.843, 2409 1779.029 C 2383.661 1777.186, 2382 1776.964, 2382 1775.420 C 2382 1774.639, 2382.182 1774, 2382.405 1774 C 2382.628 1774, 2388.815 1773.264, 2396.155 1772.365 C 2414.237 1770.149, 2447.539 1770.128, 2463.500 1772.322 C 2474.984 1773.900, 2496.292 1778.631, 2502.391 1780.956 C 2505.132 1782.001, 2505.210 1781.958, 2503.891 1780.144 C 2503.126 1779.091, 2500.368 1775.316, 2497.762 1771.755 C 2487.028 1757.084, 2479.911 1738.075, 2472.547 1704.399 C 2466.048 1674.681, 2464.899 1670.055, 2463.849 1669.407 C 2461.935 1668.224, 2422.132 1654.768, 2406.120 1649.890 C 2349.633 1632.684, 2298.017 1623.740, 2239.500 1621.020 C 2216.545 1619.953, 2214.712 1619.955, 2192 1621.070" stroke="none" fill="#040404" fill-rule="evenodd"/></svg>