<?xml version="1.0" encoding="UTF-8" standalone="no"?>
<!-- Created with Inkscape (http://www.inkscape.org/) -->

<svg
   version="1.1"
   id="svg2"
   width="1511.8134"
   height="1133.8533"
   viewBox="0 0 1511.8134 1133.8533"
   sodipodi:docname="1106889_5554.eps"
   xmlns:inkscape="http://www.inkscape.org/namespaces/inkscape"
   xmlns:sodipodi="http://sodipodi.sourceforge.net/DTD/sodipodi-0.dtd"
   xmlns="http://www.w3.org/2000/svg"
   xmlns:svg="http://www.w3.org/2000/svg">
  <defs
     id="defs6" />
  <sodipodi:namedview
     id="namedview4"
     pagecolor="#ffffff"
     bordercolor="#000000"
     borderopacity="0.25"
     inkscape:showpageshadow="2"
     inkscape:pageopacity="0.0"
     inkscape:pagecheckerboard="0"
     inkscape:deskcolor="#d1d1d1" />
  <g
     id="g8"
     inkscape:groupmode="layer"
     inkscape:label="ink_ext_XXXXXX"
     transform="matrix(1.3333333,0,0,-1.3333333,0,1133.8533)">
    <g
       id="g10"
       transform="scale(0.1)">
      <path
         d="m 1397.76,8241.73 v 18 h 8543.15 v -18 H 1397.76 v 0"
         style="fill:#100f0d;fill-opacity:1;fill-rule:nonzero;stroke:none"
         id="path12" />
      <path
         d="m 1397.76,253.055 v 18 h 8543.15 v -18 H 1397.76 v 0"
         style="fill:#100f0d;fill-opacity:1;fill-rule:nonzero;stroke:none"
         id="path14" />
      <path
         d="m 243.754,1408.87 h -17.996 v 5685.86 h 17.996 v -5685.86 0"
         style="fill:#100f0d;fill-opacity:1;fill-rule:nonzero;stroke:none"
         id="path16" />
      <path
         d="m 205.297,7364.72 -2.938,27.7 c -11.578,109.27 3.137,198.87 44.168,268.81 46.223,78.04 121.973,122.66 227.243,133.81 95.793,10.16 177.761,-13.45 245.898,-70.81 68.187,-57.86 107.383,-134.93 117.594,-231.22 8.875,-83.83 -10.676,-158.8 -58.657,-224.93 -47.98,-66.13 -113.332,-108.88 -196.042,-128.24 -44.032,-74.8 -99.227,-115.72 -165.59,-122.76 -59.871,-6.34 -120.551,16.24 -182.008,67.74 l 8.773,10.02 c 60.758,-49.55 117.332,-71.57 169.703,-66.02 32.942,3.48 62.821,15.5 89.661,35.99 26.855,20.51 47.214,46.14 61.109,76.87 -3.738,-2.93 -8.336,-4.67 -13.836,-5.26 -65.359,-6.92 -122.977,10.69 -172.836,52.81 -49.937,42.66 -78.363,96.66 -85.297,162.01 -0.793,7.48 -1.445,14.97 -2,22.49 -0.539,7.52 -0.926,14.79 -1.187,21.82 -1.926,-0.69 -8.688,-3.68 -20.215,-8.96 -1.512,-0.15 -2.152,-1.23 -1.945,-3.23 -9.332,-202.29 -51.434,-307.4 -126.25,-315.33 -16.485,-1.76 -30.489,4.33 -42.0669,18.23 -9.2929,11.65 -14.9218,26.69 -16.8789,45.14 -7.5664,71.35 33.6448,149.13 123.5978,233.32 z m 85.926,46.21 c 19.867,126.73 83.949,195.81 192.207,207.28 49.898,5.29 93.441,-5.72 130.64,-33.05 36.774,-27.9 57.766,-66.55 63,-115.94 2.325,-21.96 -0.347,-41.92 -8.031,-59.88 l -9.465,3.53 c 3.453,24.59 4.535,42.86 3.27,54.84 -4.403,41.42 -22.656,75.8 -54.832,103.17 -32.145,27.38 -69.203,38.84 -111.098,34.39 -48.902,-5.18 -90.062,-26.2 -123.496,-63.03 -29.371,-32.38 -50.875,-74.52 -64.547,-126.43 8.379,1.91 16.777,3.55 25.199,4.96 8.446,1.4 16.887,2.53 25.364,3.43 59.867,6.34 113.226,-6.66 160.043,-39.04 48.535,-34.21 75.945,-81 82.242,-140.38 2.738,-25.93 -0.778,-54.57 -10.582,-85.87 73.519,20.41 131.972,63.92 175.367,130.59 42.937,66.11 60.367,137.33 52.269,213.66 -8.777,82.83 -43.085,151.84 -102.918,207.05 -62.98,56.38 -135.148,80.28 -216.48,71.67 -87.805,-9.32 -150.25,-55.55 -187.363,-138.68 -24.5,-54.57 -40.082,-135.94 -46.782,-244.11 5.329,2.07 14,6.03 25.993,11.84 z m 96.652,-212.27 c 47.363,-37.36 101.719,-52.79 163.082,-46.28 l 20.961,2.21 c 12.344,31.09 17.031,60.6 14.074,88.54 -6.027,56.87 -31.64,101.07 -76.871,132.61 -43.058,30.25 -93.777,42.28 -152.152,36.1 -18.457,-1.96 -34.68,-5.95 -48.68,-11.98 -2.855,-15.93 -3.23,-33.88 -1.109,-53.85 6.508,-61.38 33.418,-110.47 80.695,-147.35 z M 139.281,7080.75 c 35.918,3.8 58.285,42.76 67.074,116.83 2.329,20.94 3.567,43.78 3.723,68.51 0.156,24.75 -0.824,51.89 -2.961,81.41 -76.07,-77.17 -110.1482,-153.18 -102.219,-228.03 2.969,-27.93 14.434,-40.84 34.383,-38.72"
         style="fill:#100f0d;fill-opacity:1;fill-rule:nonzero;stroke:none"
         id="path18" />
      <path
         d="m 1361.16,8404.39 c 18.45,-1.96 33.49,-7.59 45.14,-16.88 13.9,-11.58 19.99,-25.58 18.24,-42.06 -7.94,-74.82 -113.05,-116.93 -315.34,-126.25 -2,0.2 -3.08,-0.44 -3.23,-1.95 -5.28,-11.53 -8.27,-18.29 -8.97,-20.21 7.04,-0.27 14.31,-0.65 21.83,-1.2 7.52,-0.55 15.01,-1.2 22.49,-1.99 65.35,-6.94 119.34,-35.36 162,-85.3 42.13,-49.86 59.74,-107.48 52.82,-172.84 -0.59,-5.5 -2.34,-10.1 -5.26,-13.83 30.73,13.89 56.35,34.25 76.87,61.11 20.49,26.83 32.5,56.72 35.99,89.66 5.55,52.37 -16.47,108.94 -66.02,169.7 l 10.01,8.78 c 51.5,-61.47 74.09,-122.14 67.75,-182.01 -7.04,-66.37 -47.96,-121.56 -122.75,-165.59 -19.37,-82.71 -62.12,-148.07 -128.25,-196.05 -66.14,-47.98 -141.1,-67.53 -224.933,-58.65 -96.293,10.21 -173.359,49.4 -231.223,117.59 -57.351,68.13 -80.961,150.1 -70.808,245.9 11.152,105.27 55.769,181.02 133.812,227.24 69.942,41.03 159.539,55.75 268.812,44.17 l 27.7,-2.94 c 84.19,89.96 161.97,131.17 233.32,123.6 z m -267.69,-183.53 c -108.161,-6.7 -189.544,-22.28 -244.111,-46.79 -83.132,-37.11 -129.359,-99.55 -138.675,-187.36 -8.614,-81.33 15.285,-153.5 71.66,-216.48 55.215,-59.83 124.222,-94.14 207.058,-102.91 76.328,-8.1 147.548,9.32 213.658,52.26 66.67,43.39 110.19,101.85 130.59,175.37 -31.31,-9.8 -59.94,-13.32 -85.87,-10.58 -59.38,6.29 -106.17,33.71 -140.38,82.24 -32.38,46.82 -45.38,100.17 -39.04,160.05 0.9,8.47 2.03,16.91 3.44,25.36 1.4,8.42 3.04,16.82 4.95,25.2 -51.91,-13.68 -94.055,-35.18 -126.43,-64.55 -36.836,-33.43 -57.855,-74.59 -63.031,-123.49 -4.445,-41.9 7.008,-78.96 34.387,-111.1 27.371,-32.18 61.754,-50.43 103.174,-54.84 11.97,-1.26 30.25,-0.18 54.84,3.27 l 3.53,-9.46 c -17.96,-7.68 -37.92,-10.35 -59.88,-8.03 -49.395,5.23 -88.031,26.23 -115.938,63 -27.328,37.2 -38.343,80.73 -33.054,130.64 11.468,108.26 80.554,172.34 207.282,192.21 5.82,11.99 9.77,20.66 11.84,25.99 z m 53.08,-41.95 c -19.97,2.12 -37.92,1.75 -53.85,-1.11 -6.03,-14 -10.02,-30.22 -11.98,-48.68 -6.18,-58.37 5.85,-109.1 36.1,-152.16 31.54,-45.22 75.74,-70.84 132.61,-76.86 27.94,-2.96 57.45,1.73 88.54,14.07 l 2.21,20.96 c 6.51,61.36 -8.93,115.72 -46.29,163.08 -36.87,47.28 -85.96,74.19 -147.34,80.7 z m 226.54,202.28 c -74.85,7.93 -150.86,-26.15 -228.04,-102.23 29.52,-2.12 56.67,-3.11 81.41,-2.95 24.74,0.16 47.58,1.4 68.52,3.72 74.07,8.79 113.03,31.16 116.83,67.07 2.13,19.95 -10.79,31.42 -38.72,34.39"
         style="fill:#100f0d;fill-opacity:1;fill-rule:nonzero;stroke:none"
         id="path20" />
      <path
         d="m 419.922,8486.24 c -20.613,18.19 -51.266,21.63 -75.078,13.6 -25.668,-8.66 -44.809,-29.31 -54.082,-50.66 -20.078,-49.74 5.168,-125.76 75.176,-137.06 39.792,-1.74 69.175,-3.67 90.937,-5.51 -5.812,-1.36 -11.445,-3.17 -16.863,-5.45 -33.446,-14.09 -55.813,-44.63 -64.27,-73.23 -3.734,-12.67 -5.054,-24.8 -4.89,-35.88 -13.579,31.27 -25.95,61.23 -42.422,85.81 -24.305,36.22 -57.809,59.4 -89.86,72.84 -66.754,27.95 -117.664,32.3 -117.664,32.3 0,0 4.36,-50.9 32.313,-117.65 13.445,-32.05 36.621,-65.55 72.844,-89.86 24.582,-16.47 54.535,-28.86 85.796,-42.42 -11.07,0.16 -23.203,-1.16 -35.867,-4.89 -28.597,-8.46 -59.14,-30.82 -73.234,-64.27 -2.274,-5.42 -4.086,-11.05 -5.445,-16.86 -1.848,21.76 -3.766,51.14 -5.52,90.93 -11.297,70.01 -87.313,95.26 -137.043,75.18 -21.3594,-9.27 -42.0156,-28.41 -50.66797,-54.08 -8.02734,-23.82 -4.585936,-54.46 13.59767,-75.08 16.7656,-19 47.4922,-27.6 70.2305,-15.75 20.2028,10.75 30.6758,38.61 18.2378,56.18 -11.2613,13.96 -30.9917,11.73 -38.9957,3.36 -4.7343,-4.96 -11.2734,-7.33 -14.5039,-3.36 -5.8046,7.19 -5.0742,20.13 0.0586,30.16 7.0547,13.65 21.3907,23.13 35.8594,26.25 19.9566,3.67 40.3166,-0.43 56.6756,-8.79 27.746,-17.46 31.613,-64.85 35.75,-93.51 5.75,-36.5 9.828,-84.19 34.762,-113.5 10.531,-12.4 24.066,-20.75 37.566,-24.55 12.809,-3.6 25.582,-3.13 36.168,0.17 10,3.13 18.086,8.76 23.524,15.13 5.136,6.01 8.027,12.7 9.035,18.71 2.074,12.55 -3.801,24.55 -16.016,28.84 -9.156,3.2 -19.172,-1.62 -22.379,-10.77 -3.214,-9.17 1.602,-19.19 10.762,-22.39 2.371,-0.84 4.82,-1.13 7.168,-0.93 -2.68,-2.57 -6.031,-4.89 -9.973,-6.65 -7,-3.11 -15.929,-4.47 -25.375,-2.85 -10.035,1.72 -20.636,6.88 -29.414,15.43 -9.281,9.05 -15.925,21.39 -18.824,34.69 -3.031,13.94 -2.051,28.9 2.391,42.55 9.375,28.81 33.715,50.28 58.058,60.08 24.145,9.74 47.512,9.3 64.114,6.8 5.972,-2.8 11.929,-5.7 17.863,-8.75 0.801,-0.42 1.625,-0.83 2.433,-1.26 0.805,-0.44 1.614,-0.86 2.426,-1.29 27.766,-14.8 50.633,-34.17 70.371,-55.21 l -45.839,-45.84 42.277,-42.27 40.723,40.71 c -0.602,-33.01 -5.047,-65.44 -1.844,-88.03 6.301,-44.09 35.972,-55.62 35.972,-55.62 0,0 18.825,35.92 16.465,76.19 5.242,-6.5 10.504,-12.54 15.871,-17.93 46.606,-46.76 97.289,-52.66 97.289,-52.66 0,0 -5.906,50.68 -52.648,97.3 -5.387,5.37 -11.43,10.63 -17.926,15.87 40.254,-2.37 76.18,16.45 76.18,16.45 0,0 -11.524,29.69 -55.609,35.99 -22.598,3.2 -55.024,-1.24 -88.032,-1.84 l 40.711,40.72 -42.273,42.27 -45.832,-45.83 c -21.071,19.74 -40.422,42.61 -55.219,70.37 -0.426,0.81 -0.852,1.62 -1.293,2.43 -0.422,0.81 -0.848,1.61 -1.258,2.44 -3.047,5.92 -5.945,11.88 -8.742,17.84 -2.512,16.61 -2.945,39.98 6.797,64.13 9.801,24.34 31.273,48.68 60.07,58.05 13.649,4.43 28.613,5.43 42.563,2.4 13.3,-2.9 25.633,-9.55 34.691,-18.83 8.551,-8.77 13.711,-19.37 15.43,-29.41 1.609,-9.45 0.258,-18.38 -2.852,-25.39 -1.761,-3.94 -4.082,-7.28 -6.668,-9.97 0.207,2.36 -0.086,4.81 -0.91,7.18 -3.211,9.16 -13.223,13.98 -22.394,10.75 -9.157,-3.2 -13.973,-13.21 -10.77,-22.37 4.285,-12.21 16.289,-18.09 28.836,-16.01 6.012,1 12.691,3.88 18.719,9.03 6.367,5.44 11.996,13.52 15.125,23.52 3.304,10.59 3.75,23.36 0.172,36.17 -3.793,13.5 -12.161,27.04 -24.555,37.57 -29.309,24.93 -77.004,29.01 -113.496,34.76 -28.668,4.14 -76.051,8 -93.52,35.75 -8.351,16.36 -12.461,36.72 -8.781,56.68 3.117,14.46 12.606,28.8 26.25,35.85 10.027,5.14 22.969,5.86 30.164,0.07 3.973,-3.24 1.594,-9.78 -3.363,-14.52 -8.375,-7.99 -10.61,-27.72 3.363,-38.99 17.567,-12.43 45.422,-1.97 56.172,18.24 11.852,22.74 3.238,53.46 -15.746,70.23"
         style="fill:#211d1d;fill-opacity:1;fill-rule:nonzero;stroke:none"
         id="path22" />
      <path
         d="m 11256.9,7131.4 c -2,-18.45 -7.6,-33.49 -16.9,-45.14 -11.6,-13.9 -25.6,-19.99 -42.1,-18.23 -74.8,7.93 -116.9,113.04 -126.2,315.33 0.2,2 -0.4,3.08 -2,3.23 -11.5,5.28 -18.2,8.27 -20.2,8.96 -0.2,-7.03 -0.6,-14.3 -1.2,-21.82 -0.5,-7.52 -1.2,-15.01 -2,-22.49 -6.9,-65.35 -35.3,-119.35 -85.3,-162.01 -49.8,-42.12 -107.4,-59.73 -172.8,-52.81 -5.5,0.59 -10.1,2.33 -13.8,5.26 13.9,-30.73 34.2,-56.36 61.1,-76.87 26.8,-20.49 56.7,-32.51 89.6,-35.99 52.4,-5.55 109,16.47 169.7,66.02 l 8.8,-10.02 c -61.4,-51.5 -122.1,-74.08 -182,-67.74 -66.3,7.04 -121.5,47.96 -165.6,122.76 -82.7,19.36 -148,62.11 -196,128.24 -48,66.13 -67.6,141.1 -58.7,224.93 10.2,96.29 49.4,173.36 117.6,231.22 68.2,57.36 150.1,80.97 245.9,70.81 105.3,-11.15 181,-55.77 227.3,-133.81 41,-69.94 55.7,-159.54 44.1,-268.81 l -2.9,-27.7 c 89.9,-84.19 131.2,-161.97 123.6,-233.32 z m -183.5,267.69 c -6.7,108.17 -22.3,189.54 -46.8,244.11 -37.1,83.13 -99.6,129.36 -187.4,138.68 -81.3,8.61 -153.5,-15.29 -216.5,-71.67 -59.8,-55.21 -94.1,-124.22 -102.9,-207.05 -8.1,-76.33 9.3,-147.55 52.3,-213.66 43.4,-66.67 101.8,-110.18 175.3,-130.59 -9.8,31.3 -13.3,59.94 -10.5,85.87 6.3,59.38 33.7,106.17 82.2,140.38 46.8,32.38 100.2,45.38 160.1,39.04 8.4,-0.9 16.9,-2.03 25.3,-3.43 8.4,-1.41 16.8,-3.05 25.2,-4.96 -13.7,51.91 -35.2,94.05 -64.5,126.43 -33.5,36.83 -74.6,57.85 -123.5,63.03 -41.9,4.45 -79,-7.01 -111.1,-34.39 -32.2,-27.37 -50.5,-61.75 -54.9,-103.17 -1.2,-11.98 -0.1,-30.25 3.3,-54.84 l -9.4,-3.53 c -7.7,17.96 -10.4,37.92 -8.1,59.88 5.3,49.39 26.2,88.04 63,115.94 37.2,27.33 80.8,38.34 130.7,33.05 108.2,-11.47 172.3,-80.55 192.2,-207.28 12,-5.81 20.6,-9.77 26,-11.84 z m -42,-53.08 c 2.1,19.97 1.7,37.92 -1.1,53.85 -14,6.03 -30.2,10.02 -48.7,11.98 -58.4,6.18 -109.1,-5.85 -152.1,-36.1 -45.3,-31.54 -70.9,-75.74 -76.9,-132.61 -3,-27.94 1.7,-57.45 14.1,-88.54 l 20.9,-2.21 c 61.4,-6.51 115.7,8.92 163.1,46.28 47.3,36.88 74.2,85.97 80.7,147.35 z m 202.3,-226.54 c 7.9,74.85 -26.2,150.86 -102.2,228.03 -2.2,-29.52 -3.1,-56.66 -3,-81.41 0.2,-24.73 1.4,-47.57 3.7,-68.51 8.8,-74.07 31.2,-113.03 67.1,-116.83 20,-2.12 31.4,10.79 34.4,38.72"
         style="fill:#100f0d;fill-opacity:1;fill-rule:nonzero;stroke:none"
         id="path24" />
      <path
         d="m 10210.7,8280.79 27.7,2.94 c 109.3,11.58 198.9,-3.14 268.9,-44.17 78,-46.22 122.6,-121.97 133.8,-227.24 10.1,-95.8 -13.5,-177.77 -70.8,-245.9 -57.9,-68.19 -135,-107.38 -231.3,-117.59 -83.8,-8.88 -158.8,10.67 -224.9,58.65 -66.1,47.98 -108.9,113.34 -128.24,196.05 -74.8,44.03 -115.72,99.22 -122.75,165.59 -6.35,59.87 16.25,120.54 67.74,182.01 l 10.01,-8.78 c -49.55,-60.76 -71.56,-117.33 -66.02,-169.7 3.49,-32.94 15.51,-62.83 36,-89.66 20.51,-26.86 46.13,-47.22 76.86,-61.11 -2.91,3.73 -4.67,8.33 -5.26,13.83 -6.91,65.36 10.7,122.98 52.86,172.84 42.6,49.94 96.6,78.36 162,85.3 7.4,0.79 14.9,1.44 22.5,1.99 7.5,0.55 14.7,0.93 21.8,1.2 -0.7,1.92 -3.7,8.68 -9,20.21 -0.1,1.51 -1.2,2.15 -3.2,1.95 -202.3,9.32 -307.42,51.43 -315.36,126.25 -1.74,16.48 4.34,30.48 18.25,42.06 11.64,9.29 26.67,14.92 45.13,16.88 71.38,7.57 149.18,-33.64 233.28,-123.6 z m 46.3,-85.92 c 126.7,-19.87 195.8,-83.95 207.2,-192.21 5.3,-49.91 -5.7,-93.44 -33,-130.64 -27.9,-36.77 -66.6,-57.77 -116,-63 -21.9,-2.32 -41.9,0.35 -59.8,8.03 l 3.5,9.46 c 24.6,-3.45 42.9,-4.53 54.8,-3.27 41.5,4.41 75.8,22.66 103.2,54.84 27.4,32.14 38.8,69.2 34.4,111.1 -5.2,48.9 -26.2,90.06 -63,123.49 -32.4,29.37 -74.5,50.87 -126.5,64.55 2,-8.38 3.6,-16.78 5,-25.2 1.4,-8.45 2.5,-16.89 3.4,-25.36 6.4,-59.88 -6.6,-113.23 -39,-160.05 -34.2,-48.53 -81,-75.95 -140.4,-82.24 -25.9,-2.74 -54.6,0.78 -85.9,10.58 20.4,-73.52 64,-131.98 130.6,-175.37 66.1,-42.94 137.4,-60.36 213.7,-52.26 82.8,8.77 151.8,43.08 207,102.91 56.4,62.98 80.3,135.15 71.7,216.48 -9.3,87.81 -55.5,150.25 -138.7,187.36 -54.5,24.51 -135.9,40.09 -244.1,46.79 2.1,-5.33 6,-14 11.9,-25.99 z m -212.3,-96.66 c -37.4,-47.36 -52.81,-101.72 -46.3,-163.08 l 2.2,-20.96 c 31.1,-12.34 60.6,-17.03 88.5,-14.07 56.9,6.02 101.1,31.64 132.7,76.86 30.2,43.06 42.2,93.79 36.1,152.16 -2,18.46 -6,34.68 -12,48.68 -15.9,2.86 -33.9,3.23 -53.9,1.11 -61.3,-6.51 -110.4,-33.42 -147.3,-80.7 z m -117.92,248.59 c 3.79,-35.91 42.75,-58.28 116.82,-67.07 21,-2.32 43.8,-3.56 68.5,-3.72 24.8,-0.16 51.9,0.83 81.4,2.95 -77.1,76.08 -153.2,110.16 -228,102.23 -27.94,-2.97 -40.85,-14.44 -38.72,-34.39"
         style="fill:#100f0d;fill-opacity:1;fill-rule:nonzero;stroke:none"
         id="path26" />
      <path
         d="m 10918.7,8486.24 c 20.6,18.19 51.2,21.63 75,13.6 25.7,-8.66 44.9,-29.31 54.1,-50.66 20.1,-49.74 -5.1,-125.76 -75.2,-137.06 -39.7,-1.74 -69.1,-3.67 -90.9,-5.51 5.8,-1.36 11.5,-3.17 16.9,-5.45 33.4,-14.09 55.8,-44.63 64.2,-73.23 3.8,-12.67 5.1,-24.8 4.9,-35.88 13.6,31.27 26,61.23 42.5,85.81 24.3,36.22 57.8,59.4 89.8,72.84 66.8,27.95 117.7,32.3 117.7,32.3 0,0 -4.4,-50.9 -32.3,-117.65 -13.5,-32.05 -36.6,-65.55 -72.9,-89.86 -24.6,-16.47 -54.5,-28.86 -85.8,-42.42 11.1,0.16 23.2,-1.16 35.9,-4.89 28.6,-8.46 59.1,-30.82 73.2,-64.27 2.3,-5.42 4.1,-11.05 5.5,-16.86 1.8,21.76 3.7,51.14 5.5,90.93 11.3,70.01 87.3,95.26 137,75.18 21.4,-9.27 42.1,-28.41 50.7,-54.08 8,-23.82 4.6,-54.46 -13.6,-75.08 -16.8,-19 -47.5,-27.6 -70.2,-15.75 -20.2,10.75 -30.7,38.61 -18.3,56.18 11.3,13.96 31,11.73 39,3.36 4.8,-4.96 11.3,-7.33 14.5,-3.36 5.8,7.19 5.1,20.13 0,30.16 -7.1,13.65 -21.4,23.13 -35.9,26.25 -19.9,3.67 -40.3,-0.43 -56.7,-8.79 -27.7,-17.46 -31.6,-64.85 -35.7,-93.51 -5.8,-36.5 -9.8,-84.19 -34.8,-113.5 -10.5,-12.4 -24,-20.75 -37.5,-24.55 -12.8,-3.6 -25.6,-3.13 -36.2,0.17 -10,3.13 -18.1,8.76 -23.5,15.13 -5.2,6.01 -8.1,12.7 -9.1,18.71 -2,12.55 3.8,24.55 16.1,28.84 9.1,3.2 19.1,-1.62 22.3,-10.77 3.2,-9.17 -1.6,-19.19 -10.7,-22.39 -2.4,-0.84 -4.8,-1.13 -7.2,-0.93 2.7,-2.57 6,-4.89 10,-6.65 7,-3.11 15.9,-4.47 25.3,-2.85 10.1,1.72 20.7,6.88 29.5,15.43 9.2,9.05 15.9,21.39 18.8,34.69 3,13.94 2,28.9 -2.4,42.55 -9.4,28.81 -33.7,50.28 -58.1,60.08 -24.1,9.74 -47.5,9.3 -64.1,6.8 -5.9,-2.8 -11.9,-5.7 -17.8,-8.75 -0.8,-0.42 -1.7,-0.83 -2.5,-1.26 -0.8,-0.44 -1.6,-0.86 -2.4,-1.29 -27.8,-14.8 -50.6,-34.17 -70.4,-55.21 l 45.9,-45.84 -42.3,-42.27 -40.7,40.71 c 0.6,-33.01 5,-65.44 1.8,-88.03 -6.3,-44.09 -36,-55.62 -36,-55.62 0,0 -18.8,35.92 -16.4,76.19 -5.3,-6.5 -10.5,-12.54 -15.9,-17.93 -46.6,-46.76 -97.3,-52.66 -97.3,-52.66 0,0 5.9,50.68 52.7,97.3 5.4,5.37 11.4,10.63 17.9,15.87 -40.3,-2.37 -76.2,16.45 -76.2,16.45 0,0 11.5,29.69 55.6,35.99 22.6,3.2 55.1,-1.24 88.1,-1.84 l -40.8,40.72 42.3,42.27 45.8,-45.83 c 21.1,19.74 40.5,42.61 55.3,70.37 0.4,0.81 0.8,1.62 1.3,2.43 0.4,0.81 0.8,1.61 1.2,2.44 3.1,5.92 6,11.88 8.8,17.84 2.5,16.61 2.9,39.98 -6.8,64.13 -9.8,24.34 -31.3,48.68 -60.1,58.05 -13.7,4.43 -28.6,5.43 -42.6,2.4 -13.3,-2.9 -25.6,-9.55 -34.7,-18.83 -8.5,-8.77 -13.7,-19.37 -15.4,-29.41 -1.6,-9.45 -0.2,-18.38 2.9,-25.39 1.7,-3.94 4,-7.28 6.6,-9.97 -0.2,2.36 0.1,4.81 0.9,7.18 3.2,9.16 13.3,13.98 22.4,10.75 9.2,-3.2 14,-13.21 10.8,-22.37 -4.3,-12.21 -16.3,-18.09 -28.8,-16.01 -6,1 -12.7,3.88 -18.8,9.03 -6.3,5.44 -11.9,13.52 -15.1,23.52 -3.3,10.59 -3.7,23.36 -0.1,36.17 3.7,13.5 12.1,27.04 24.5,37.57 29.3,24.93 77,29.01 113.5,34.76 28.7,4.14 76.1,8 93.5,35.75 8.4,16.36 12.5,36.72 8.8,56.68 -3.1,14.46 -12.6,28.8 -26.2,35.85 -10.1,5.14 -23,5.86 -30.2,0.07 -4,-3.24 -1.6,-9.78 3.4,-14.52 8.3,-7.99 10.6,-27.72 -3.4,-38.99 -17.6,-12.43 -45.4,-1.97 -56.2,18.24 -11.8,22.74 -3.2,53.46 15.8,70.23"
         style="fill:#211d1d;fill-opacity:1;fill-rule:nonzero;stroke:none"
         id="path28" />
      <path
         d="m 81.6992,1372.52 c 1.9571,18.46 7.586,33.5 16.8789,45.14 11.5779,13.9 25.5819,20 42.0669,18.24 74.816,-7.93 116.918,-113.05 126.25,-315.35 -0.207,-2 0.433,-3.07 1.945,-3.23 11.527,-5.27 18.289,-8.26 20.215,-8.96 0.261,7.05 0.648,14.32 1.187,21.84 0.555,7.51 1.207,15 2,22.48 6.934,65.35 35.36,119.35 85.297,162.01 49.859,42.13 107.477,59.74 172.836,52.81 5.5,-0.59 10.098,-2.33 13.836,-5.25 -13.895,30.72 -34.254,56.34 -61.109,76.86 -26.84,20.49 -56.719,32.51 -89.661,35.99 -52.371,5.56 -108.945,-16.47 -169.703,-66.02 l -8.773,10.02 c 61.457,51.49 122.137,74.08 182.008,67.74 66.363,-7.04 121.558,-47.95 165.59,-122.76 82.71,-19.35 148.062,-62.11 196.042,-128.24 47.981,-66.13 67.532,-141.09 58.657,-224.93 C 827.051,914.609 787.855,837.551 719.668,779.688 651.531,722.336 569.563,698.73 473.77,708.879 368.5,720.027 292.75,764.648 246.527,842.695 205.496,912.637 190.781,1002.23 202.359,1111.5 l 2.938,27.7 C 115.344,1223.39 74.1328,1301.17 81.6992,1372.52 Z M 265.23,1104.84 c 6.7,-108.18 22.282,-189.547 46.782,-244.117 37.113,-83.133 99.558,-129.356 187.363,-138.672 81.332,-8.613 153.5,15.273 216.48,71.66 59.833,55.215 94.141,124.219 102.918,207.049 8.098,76.33 -9.332,147.55 -52.269,213.67 -43.395,66.66 -101.848,110.18 -175.367,130.59 9.804,-31.31 13.32,-59.95 10.582,-85.88 -6.297,-59.38 -33.707,-106.17 -82.242,-140.38 -46.817,-32.37 -100.176,-45.38 -160.043,-39.03 -8.477,0.89 -16.918,2.03 -25.364,3.42 -8.422,1.41 -16.82,3.05 -25.199,4.96 13.672,-51.91 35.176,-94.047 64.547,-126.43 33.434,-36.836 74.594,-57.852 123.496,-63.028 41.895,-4.453 78.953,7.012 111.098,34.387 32.176,27.371 50.429,61.746 54.832,103.171 1.265,11.97 0.183,30.25 -3.27,54.84 l 9.465,3.54 c 7.684,-17.97 10.356,-37.93 8.031,-59.88 -5.234,-49.397 -26.226,-88.05 -63,-115.94 -37.199,-27.344 -80.742,-38.348 -130.64,-33.067 -108.258,11.477 -172.34,80.567 -192.207,207.287 -11.993,5.82 -20.664,9.77 -25.993,11.85 z m 41.95,53.07 c -2.121,-19.96 -1.746,-37.92 1.109,-53.85 14,-6.03 30.223,-10.02 48.68,-11.97 58.375,-6.19 109.094,5.84 152.152,36.09 45.231,31.54 70.844,75.75 76.871,132.62 2.957,27.93 -1.73,57.44 -14.074,88.54 l -20.961,2.2 c -61.363,6.51 -115.719,-8.92 -163.082,-46.29 -47.277,-36.87 -74.187,-85.96 -80.695,-147.34 z m -202.282,226.54 c -7.9292,-74.84 26.149,-150.86 102.219,-228.03 2.137,29.52 3.117,56.67 2.961,81.41 -0.156,24.73 -1.394,47.57 -3.723,68.51 -8.789,74.07 -31.156,113.04 -67.074,116.84 -19.949,2.11 -31.414,-10.8 -34.383,-38.73"
         style="fill:#100f0d;fill-opacity:1;fill-rule:nonzero;stroke:none"
         id="path30" />
      <path
         d="m 1127.84,223.137 -27.7,-2.942 c -109.273,-11.582 -198.87,3.137 -268.812,44.16 -78.043,46.231 -122.66,121.973 -133.812,227.247 -10.153,95.8 13.457,177.765 70.808,245.898 57.864,68.184 134.93,107.383 231.223,117.598 83.833,8.867 158.793,-10.684 224.933,-58.664 66.13,-47.977 108.88,-113.329 128.25,-196.043 74.79,-44.024 115.71,-99.219 122.75,-165.586 6.34,-59.875 -16.25,-120.547 -67.75,-182.012 l -10.01,8.777 c 49.55,60.766 71.57,117.336 66.02,169.7 -3.49,32.949 -15.5,62.832 -35.99,89.668 -20.52,26.855 -46.14,47.207 -76.87,61.105 2.92,-3.734 4.67,-8.332 5.26,-13.84 6.92,-65.351 -10.69,-122.969 -52.82,-172.832 -42.66,-49.941 -96.65,-78.359 -162,-85.293 -7.48,-0.801 -14.97,-1.445 -22.49,-2 -7.52,-0.539 -14.79,-0.93 -21.83,-1.191 0.7,-1.926 3.69,-8.684 8.97,-20.215 0.15,-1.516 1.23,-2.152 3.23,-1.945 202.29,-9.329 307.4,-51.434 315.34,-126.25 1.75,-16.485 -4.34,-30.489 -18.24,-42.071 -11.65,-9.285 -26.69,-14.922 -45.14,-16.8747 -71.35,-7.5665 -149.13,33.6447 -233.32,123.6057 z m -46.21,85.918 c -126.728,19.871 -195.814,83.953 -207.282,192.207 -5.289,49.91 5.726,93.445 33.054,130.64 27.907,36.77 66.543,57.766 115.938,63 21.96,2.325 41.92,-0.351 59.88,-8.027 l -3.53,-9.473 c -24.59,3.457 -42.87,4.539 -54.84,3.282 -41.42,-4.414 -75.803,-22.657 -103.174,-54.844 -27.379,-32.137 -38.832,-69.199 -34.387,-111.094 5.176,-48.906 26.195,-90.058 63.031,-123.496 32.375,-29.375 74.52,-50.867 126.43,-64.551 -1.91,8.379 -3.55,16.778 -4.95,25.203 -1.41,8.45 -2.54,16.887 -3.44,25.364 -6.34,59.871 6.66,113.222 39.04,160.047 34.21,48.527 81,75.949 140.38,82.238 25.93,2.734 54.56,-0.781 85.87,-10.578 -20.4,73.519 -63.92,131.976 -130.59,175.363 -66.11,42.949 -137.33,60.371 -213.658,52.266 C 906.566,827.832 837.559,793.516 782.344,733.691 725.969,670.703 702.07,598.535 710.684,517.207 720,429.402 766.227,366.953 849.359,329.844 c 54.567,-24.5 135.95,-40.078 244.111,-46.778 -2.07,5.321 -6.02,14.004 -11.84,25.989 z m 212.26,96.648 c 37.36,47.363 52.8,101.727 46.29,163.086 l -2.21,20.957 c -31.09,12.344 -60.6,17.031 -88.54,14.082 -56.87,-6.023 -101.07,-31.64 -132.61,-76.875 -30.25,-43.058 -42.28,-93.777 -36.1,-152.148 1.96,-18.457 5.95,-34.688 11.98,-48.68 15.93,-2.863 33.88,-3.234 53.85,-1.113 61.38,6.511 110.47,33.418 147.34,80.691 z m 117.92,-248.594 c -3.8,35.918 -42.76,58.289 -116.83,67.09 -20.94,2.313 -43.78,3.555 -68.52,3.711 -24.74,0.156 -51.89,-0.82 -81.41,-2.949 77.18,-76.074 153.19,-110.156 228.04,-102.227 27.93,2.969 40.85,14.434 38.72,34.375"
         style="fill:#100f0d;fill-opacity:1;fill-rule:nonzero;stroke:none"
         id="path32" />
      <path
         d="M 419.922,17.6758 C 399.309,-0.507813 368.656,-3.94531 344.844,4.08203 319.176,12.7344 300.035,33.3867 290.762,54.7461 270.684,104.48 295.93,180.508 365.938,191.797 c 39.792,1.75 69.175,3.672 90.937,5.516 -5.812,1.359 -11.445,3.175 -16.863,5.441 -33.446,14.101 -55.813,44.637 -64.27,73.242 -3.734,12.668 -5.054,24.805 -4.89,35.871 -13.579,-31.262 -25.95,-61.222 -42.422,-85.804 -24.305,-36.219 -57.809,-59.403 -89.86,-72.84 -66.754,-27.95 -117.664,-32.305 -117.664,-32.305 0,0 4.36,50.898 32.313,117.656 13.445,32.051 36.621,65.547 72.844,89.864 24.582,16.464 54.535,28.847 85.796,42.41 -11.07,-0.164 -23.203,1.164 -35.867,4.894 -28.597,8.457 -59.14,30.821 -73.234,64.27 -2.274,5.418 -4.086,11.051 -5.445,16.863 -1.848,-21.758 -3.766,-51.145 -5.52,-90.937 C 180.496,295.93 104.48,270.684 54.75,290.762 33.3906,300.039 12.7344,319.18 4.08203,344.844 c -8.02734,23.808 -4.585936,54.453 13.59767,75.078 16.7656,18.996 47.4922,27.598 70.2305,15.742 20.2028,-10.742 30.6758,-38.605 18.2378,-56.172 -11.2613,-13.965 -30.9917,-11.738 -38.9957,-3.359 -4.7343,4.961 -11.2734,7.324 -14.5039,3.359 -5.8046,-7.187 -5.0742,-20.137 0.0586,-30.156 7.0547,-13.652 21.3907,-23.133 35.8594,-26.25 19.9566,-3.672 40.3166,0.43 56.6756,8.781 27.746,17.469 31.613,64.852 35.75,93.516 5.75,36.492 9.828,84.187 34.762,113.504 10.531,12.39 24.066,20.742 37.566,24.551 12.809,3.593 25.582,3.125 36.168,-0.176 10,-3.125 18.086,-8.758 23.524,-15.137 5.136,-5.996 8.027,-12.695 9.035,-18.699 2.074,-12.551 -3.801,-24.563 -16.016,-28.84 -9.156,-3.203 -19.172,1.609 -22.379,10.762 -3.214,9.168 1.602,19.191 10.762,22.402 2.371,0.82 4.82,1.113 7.168,0.918 -2.68,2.578 -6.031,4.891 -9.973,6.66 -7,3.106 -15.929,4.465 -25.375,2.844 -10.035,-1.731 -20.636,-6.887 -29.414,-15.422 -9.281,-9.062 -15.925,-21.398 -18.824,-34.695 -3.031,-13.95 -2.051,-28.899 2.391,-42.551 9.375,-28.809 33.715,-50.285 58.058,-60.078 24.145,-9.746 47.512,-9.317 64.114,-6.817 5.972,2.813 11.929,5.711 17.863,8.75 0.801,0.43 1.625,0.84 2.433,1.27 0.805,0.437 1.614,0.859 2.426,1.289 27.766,14.805 50.633,34.172 70.371,55.215 l -45.839,45.84 42.277,42.265 40.723,-40.715 c -0.602,33.02 -5.047,65.45 -1.844,88.04 6.301,44.082 35.972,55.625 35.972,55.625 0,0 18.825,-35.926 16.465,-76.192 5.242,6.504 10.504,12.539 15.871,17.922 46.606,46.766 97.289,52.664 97.289,52.664 0,0 -5.906,-50.684 -52.648,-97.305 -5.387,-5.371 -11.43,-10.625 -17.926,-15.867 40.254,2.371 76.18,-16.457 76.18,-16.457 0,0 -11.524,-29.687 -55.609,-35.984 -22.598,-3.196 -55.024,1.238 -88.032,1.844 l 40.711,-40.723 -42.273,-42.266 -45.832,45.821 c -21.071,-19.735 -40.422,-42.598 -55.219,-70.372 -0.426,-0.8 -0.852,-1.621 -1.293,-2.421 -0.422,-0.801 -0.848,-1.622 -1.258,-2.442 -3.047,-5.918 -5.945,-11.875 -8.742,-17.832 -2.512,-16.621 -2.945,-39.98 6.797,-64.14 9.801,-24.336 31.273,-48.672 60.07,-58.047 13.649,-4.434 28.613,-5.43 42.563,-2.391 13.3,2.898 25.633,9.539 34.691,18.816 8.551,8.77 13.711,19.375 15.43,29.414 1.609,9.454 0.258,18.379 -2.852,25.391 -1.761,3.934 -4.082,7.285 -6.668,9.973 0.207,-2.356 -0.086,-4.805 -0.91,-7.18 -3.211,-9.16 -13.223,-13.984 -22.394,-10.762 -9.157,3.203 -13.973,13.223 -10.77,22.383 4.285,12.207 16.289,18.086 28.836,16.016 6.012,-1.016 12.691,-3.887 18.719,-9.043 6.367,-5.43 11.996,-13.516 15.125,-23.516 3.304,-10.586 3.75,-23.359 0.172,-36.172 -3.793,-13.496 -12.161,-27.031 -24.555,-37.566 -29.309,-24.934 -77.004,-29.016 -113.496,-34.758 -28.668,-4.141 -76.051,-8.008 -93.52,-35.75 -8.351,-16.359 -12.461,-36.73 -8.781,-56.6835 3.117,-14.4609 12.606,-28.8086 26.25,-35.8477 10.027,-5.1367 22.969,-5.8593 30.164,-0.0781 3.973,3.2422 1.594,9.7852 -3.363,14.5235 -8.375,7.9961 -10.61,27.7226 3.363,38.9918 17.567,12.434 45.422,1.973 56.172,-18.2418 11.852,-22.7344 3.238,-53.4571 -15.746,-70.2344"
         style="fill:#211d1d;fill-opacity:1;fill-rule:nonzero;stroke:none"
         id="path34" />
      <path
         d="m 11133.3,1139.2 2.9,-27.7 c 11.6,-109.27 -3.1,-198.863 -44.1,-268.805 -46.3,-78.047 -122,-122.668 -227.3,-133.816 -95.8,-10.149 -177.7,13.457 -245.9,70.809 -68.2,57.863 -107.4,134.921 -117.6,231.222 -8.9,83.84 10.7,158.8 58.7,224.93 48,66.13 113.3,108.89 196,128.24 44.1,74.81 99.3,115.72 165.6,122.76 59.9,6.34 120.6,-16.25 182,-67.74 l -8.8,-10.02 c -60.7,49.55 -117.3,71.58 -169.7,66.02 -32.9,-3.48 -62.8,-15.5 -89.6,-35.99 -26.9,-20.52 -47.2,-46.14 -61.1,-76.86 3.7,2.92 8.3,4.66 13.8,5.25 65.4,6.93 123,-10.68 172.8,-52.81 50,-42.66 78.4,-96.66 85.3,-162.01 0.8,-7.48 1.5,-14.97 2,-22.48 0.6,-7.52 1,-14.79 1.2,-21.84 2,0.7 8.7,3.69 20.2,8.96 1.6,0.16 2.2,1.23 2,3.23 9.3,202.3 51.4,307.42 126.2,315.35 16.5,1.76 30.5,-4.34 42.1,-18.24 9.3,-11.64 14.9,-26.68 16.9,-45.14 7.6,-71.35 -33.7,-149.13 -123.6,-233.32 z m -85.9,-46.21 c -19.9,-126.72 -84,-195.81 -192.2,-207.287 -49.9,-5.281 -93.5,5.723 -130.7,33.067 -36.8,27.89 -57.7,66.543 -63,115.94 -2.3,21.95 0.4,41.91 8.1,59.88 l 9.4,-3.54 c -3.4,-24.59 -4.5,-42.87 -3.3,-54.84 4.4,-41.425 22.7,-75.8 54.9,-103.171 32.1,-27.375 69.2,-38.84 111.1,-34.387 48.9,5.176 90,26.192 123.5,63.028 29.3,32.383 50.8,74.52 64.5,126.43 -8.4,-1.91 -16.8,-3.55 -25.2,-4.96 -8.4,-1.39 -16.9,-2.53 -25.3,-3.42 -59.9,-6.35 -113.3,6.66 -160.1,39.03 -48.5,34.21 -75.9,81 -82.2,140.38 -2.8,25.93 0.7,54.57 10.5,85.88 -73.5,-20.41 -131.9,-63.93 -175.3,-130.59 -43,-66.12 -60.4,-137.34 -52.3,-213.67 8.8,-82.83 43.1,-151.834 102.9,-207.049 63,-56.387 135.2,-80.273 216.5,-71.66 87.8,9.316 150.3,55.539 187.4,138.672 24.5,54.57 40.1,135.937 46.8,244.117 -5.4,-2.08 -14,-6.03 -26,-11.85 z m -96.7,212.26 c -47.4,37.37 -101.7,52.8 -163.1,46.29 l -20.9,-2.2 c -12.4,-31.1 -17.1,-60.61 -14.1,-88.54 6,-56.87 31.6,-101.08 76.9,-132.62 43,-30.25 93.7,-42.28 152.1,-36.09 18.5,1.95 34.7,5.94 48.7,11.97 2.8,15.93 3.2,33.89 1.1,53.85 -6.5,61.38 -33.4,110.47 -80.7,147.34 z m 248.6,117.93 c -35.9,-3.8 -58.3,-42.77 -67.1,-116.84 -2.3,-20.94 -3.5,-43.78 -3.7,-68.51 -0.1,-24.74 0.8,-51.89 3,-81.41 76,77.17 110.1,153.19 102.2,228.03 -3,27.93 -14.4,40.84 -34.4,38.73"
         style="fill:#100f0d;fill-opacity:1;fill-rule:nonzero;stroke:none"
         id="path36" />
      <path
         d="m 9977.42,99.5313 c -18.46,1.9527 -33.49,7.5897 -45.13,16.8747 -13.91,11.582 -19.99,25.586 -18.25,42.071 7.94,74.816 113.06,116.921 315.36,126.25 2,-0.207 3.1,0.429 3.2,1.945 5.3,11.531 8.3,18.289 9,20.215 -7.1,0.261 -14.3,0.652 -21.8,1.191 -7.6,0.555 -15.1,1.199 -22.5,2 -65.4,6.934 -119.4,35.352 -162,85.293 -42.16,49.863 -59.77,107.481 -52.86,172.832 0.59,5.508 2.35,10.106 5.26,13.84 -30.73,-13.898 -56.35,-34.25 -76.86,-61.105 -20.49,-26.836 -32.51,-56.719 -36,-89.668 -5.54,-52.364 16.47,-108.934 66.02,-169.7 l -10.01,-8.777 c -51.49,61.465 -74.09,122.137 -67.74,182.012 7.03,66.367 47.95,121.562 122.75,165.586 19.34,82.714 62.14,148.066 128.24,196.043 66.1,47.98 141.1,67.531 224.9,58.664 96.3,-10.215 173.4,-49.414 231.3,-117.598 57.3,-68.133 80.9,-150.098 70.8,-245.898 -11.2,-105.274 -55.8,-181.016 -133.8,-227.247 -70,-41.023 -159.6,-55.742 -268.9,-44.16 l -27.7,2.942 C 10126.6,133.176 10048.8,91.9648 9977.42,99.5313 Z m 267.68,183.5347 c 108.2,6.7 189.6,22.278 244.1,46.778 83.2,37.109 129.4,99.558 138.7,187.363 8.6,81.328 -15.3,153.496 -71.7,216.484 -55.2,59.825 -124.2,94.141 -207,102.911 -76.3,8.105 -147.6,-9.317 -213.7,-52.266 -66.6,-43.387 -110.2,-101.844 -130.6,-175.363 31.3,9.797 60,13.312 85.9,10.578 59.4,-6.289 106.2,-33.711 140.4,-82.238 32.4,-46.825 45.4,-100.176 39,-160.047 -0.9,-8.477 -2,-16.914 -3.4,-25.364 -1.4,-8.425 -3,-16.824 -5,-25.203 52,13.684 94.1,35.176 126.5,64.551 36.8,33.438 57.8,74.59 63,123.496 4.4,41.895 -7,78.957 -34.4,111.094 -27.4,32.187 -61.7,50.43 -103.2,54.844 -11.9,1.257 -30.2,0.175 -54.8,-3.282 l -3.5,9.473 c 17.9,7.676 37.9,10.352 59.8,8.027 49.4,-5.234 88.1,-26.23 116,-63 27.3,-37.195 38.3,-80.73 33,-130.64 -11.4,-108.254 -80.5,-172.336 -207.2,-192.207 -5.9,-11.985 -9.8,-20.668 -11.9,-25.989 z m -53.1,41.946 c 20,-2.121 38,-1.75 53.9,1.113 6,13.992 10,30.223 12,48.68 6.1,58.371 -5.9,109.09 -36.1,152.148 -31.6,45.235 -75.8,70.852 -132.7,76.875 -27.9,2.949 -57.4,-1.738 -88.5,-14.082 l -2.2,-20.957 c -6.51,-61.359 8.9,-115.723 46.3,-163.086 36.9,-47.273 86,-74.18 147.3,-80.691 z M 9965.5,122.734 c 74.8,-7.929 150.9,26.153 228,102.227 -29.5,2.129 -56.6,3.105 -81.4,2.949 -24.7,-0.156 -47.5,-1.398 -68.5,-3.711 -74.07,-8.801 -113.03,-31.172 -116.82,-67.09 -2.13,-19.941 10.78,-31.406 38.72,-34.375"
         style="fill:#100f0d;fill-opacity:1;fill-rule:nonzero;stroke:none"
         id="path38" />
      <path
         d="m 10918.7,17.6758 c 20.6,-18.183613 51.2,-21.62111 75,-13.59377 25.7,8.65237 44.9,29.30467 54.1,50.66407 20.1,49.7339 -5.1,125.7619 -75.2,137.0509 -39.7,1.75 -69.1,3.672 -90.9,5.516 5.8,1.359 11.5,3.175 16.9,5.441 33.4,14.101 55.8,44.637 64.2,73.242 3.8,12.668 5.1,24.805 4.9,35.871 13.6,-31.262 26,-61.222 42.5,-85.804 24.3,-36.219 57.8,-59.403 89.8,-72.84 66.8,-27.95 117.7,-32.305 117.7,-32.305 0,0 -4.4,50.898 -32.3,117.656 -13.5,32.051 -36.6,65.547 -72.9,89.864 -24.6,16.464 -54.5,28.847 -85.8,42.41 11.1,-0.164 23.2,1.164 35.9,4.894 28.6,8.457 59.1,30.821 73.2,64.27 2.3,5.418 4.1,11.051 5.5,16.863 1.8,-21.758 3.7,-51.145 5.5,-90.937 11.3,-70.008 87.3,-95.254 137,-75.176 21.4,9.277 42.1,28.418 50.7,54.082 8,23.808 4.6,54.453 -13.6,75.078 -16.8,18.996 -47.5,27.598 -70.2,15.742 -20.2,-10.742 -30.7,-38.605 -18.3,-56.172 11.3,-13.965 31,-11.738 39,-3.359 4.8,4.961 11.3,7.324 14.5,3.359 5.8,-7.187 5.1,-20.137 0,-30.156 -7.1,-13.652 -21.4,-23.133 -35.9,-26.25 -19.9,-3.672 -40.3,0.43 -56.7,8.781 -27.7,17.469 -31.6,64.852 -35.7,93.516 -5.8,36.492 -9.8,84.187 -34.8,113.504 -10.5,12.39 -24,20.742 -37.5,24.551 -12.8,3.593 -25.6,3.125 -36.2,-0.176 -10,-3.125 -18.1,-8.758 -23.5,-15.137 -5.2,-5.996 -8.1,-12.695 -9.1,-18.699 -2,-12.551 3.8,-24.563 16.1,-28.84 9.1,-3.203 19.1,1.609 22.3,10.762 3.2,9.168 -1.6,19.191 -10.7,22.402 -2.4,0.82 -4.8,1.113 -7.2,0.918 2.7,2.578 6,4.891 10,6.66 7,3.106 15.9,4.465 25.3,2.844 10.1,-1.731 20.7,-6.887 29.5,-15.422 9.2,-9.062 15.9,-21.398 18.8,-34.695 3,-13.95 2,-28.899 -2.4,-42.551 -9.4,-28.809 -33.7,-50.285 -58.1,-60.078 -24.1,-9.746 -47.5,-9.317 -64.1,-6.817 -5.9,2.813 -11.9,5.711 -17.8,8.75 -0.8,0.43 -1.7,0.84 -2.5,1.27 -0.8,0.437 -1.6,0.859 -2.4,1.289 -27.8,14.805 -50.6,34.172 -70.4,55.215 l 45.9,45.84 -42.3,42.265 -40.7,-40.715 c 0.6,33.02 5,65.45 1.8,88.04 -6.3,44.082 -36,55.625 -36,55.625 0,0 -18.8,-35.926 -16.4,-76.192 -5.3,6.504 -10.5,12.539 -15.9,17.922 -46.6,46.766 -97.3,52.664 -97.3,52.664 0,0 5.9,-50.684 52.7,-97.305 5.4,-5.371 11.4,-10.625 17.9,-15.867 -40.3,2.371 -76.2,-16.457 -76.2,-16.457 0,0 11.5,-29.687 55.6,-35.984 22.6,-3.196 55.1,1.238 88.1,1.844 l -40.8,-40.723 42.3,-42.266 45.8,45.821 c 21.1,-19.735 40.5,-42.598 55.3,-70.372 0.4,-0.8 0.8,-1.621 1.3,-2.421 0.4,-0.801 0.8,-1.622 1.2,-2.442 3.1,-5.918 6,-11.875 8.8,-17.832 2.5,-16.621 2.9,-39.98 -6.8,-64.14 -9.8,-24.336 -31.3,-48.672 -60.1,-58.047 -13.7,-4.434 -28.6,-5.43 -42.6,-2.391 -13.3,2.898 -25.6,9.539 -34.7,18.816 -8.5,8.77 -13.7,19.375 -15.4,29.414 -1.6,9.454 -0.2,18.379 2.9,25.391 1.7,3.934 4,7.285 6.6,9.973 -0.2,-2.356 0.1,-4.805 0.9,-7.18 3.2,-9.16 13.3,-13.984 22.4,-10.762 9.2,3.203 14,13.223 10.8,22.383 -4.3,12.207 -16.3,18.086 -28.8,16.016 -6,-1.016 -12.7,-3.887 -18.8,-9.043 -6.3,-5.43 -11.9,-13.516 -15.1,-23.516 -3.3,-10.586 -3.7,-23.359 -0.1,-36.172 3.7,-13.496 12.1,-27.031 24.5,-37.566 29.3,-24.934 77,-29.016 113.5,-34.758 28.7,-4.141 76.1,-8.008 93.5,-35.75 8.4,-16.359 12.5,-36.73 8.8,-56.6835 -3.1,-14.4609 -12.6,-28.8086 -26.2,-35.8477 -10.1,-5.1367 -23,-5.8593 -30.2,-0.0781 -4,3.2422 -1.6,9.7852 3.4,14.5235 8.3,7.9961 10.6,27.7226 -3.4,38.9918 -17.6,12.434 -45.4,1.973 -56.2,-18.2418 -11.8,-22.7344 -3.2,-53.4571 15.8,-70.2344"
         style="fill:#211d1d;fill-opacity:1;fill-rule:nonzero;stroke:none"
         id="path40" />
      <path
         d="m 11112.7,1408.98 h -18 v 5685.86 h 18 v -5685.86 0"
         style="fill:#100f0d;fill-opacity:1;fill-rule:nonzero;stroke:none"
         id="path42" />
    </g>
  </g>
</svg>
