<svg xmlns="http://www.w3.org/2000/svg" width="3000" height="3000" viewBox="0 0 3000 3000" version="1.1"><path d="" stroke="none" fill="#080404" fill-rule="evenodd"/><path d="M 1302.500 234.055 C 1226.403 236.985, 1151.326 245.566, 1110.316 256.019 C 1068.723 266.621, 1048.562 280.682, 1050.220 297.933 C 1050.684 302.769, 1052.210 306.332, 1058.934 318.284 C 1060.723 321.466, 1061.956 324.672, 1061.673 325.409 C 1060.903 327.417, 1055.587 327.871, 1045 326.834 C 1010.474 323.452, 990.448 328.544, 973.988 344.891 C 969.774 349.076, 964.523 355.200, 962.318 358.500 C 951.100 375.290, 933.373 409.414, 925.653 429.079 C 917.896 448.840, 907.295 485.695, 908.905 487.305 C 910.172 488.572, 911.037 486.712, 918.919 465.787 C 931.139 433.345, 935.310 424.770, 955.787 390 C 975.564 356.420, 981.468 349.324, 995.295 342.518 C 1008.810 335.866, 1014.661 335.336, 1049.602 337.599 C 1061.684 338.381, 1065.597 337.362, 1070.069 332.268 C 1072.980 328.953, 1073.190 328.252, 1072.646 323.661 C 1072.237 320.204, 1070.473 315.924, 1066.924 309.775 C 1064.103 304.886, 1061.564 299.170, 1061.283 297.072 C 1060.834 293.725, 1061.227 292.755, 1064.499 289.133 C 1079.825 272.169, 1132.231 259.088, 1217 251.068 C 1348.796 238.599, 1447.050 243.325, 1536.500 266.436 C 1581.101 277.959, 1597.092 289.943, 1587.441 304.610 C 1584.315 309.360, 1580.209 313.117, 1568.500 321.940 C 1547.869 337.485, 1535.565 343.139, 1520.947 343.791 C 1509.111 344.319, 1501.269 342.489, 1491.505 336.922 C 1472.874 326.300, 1464.888 324.216, 1455.172 327.443 C 1447.435 330.013, 1441.391 336.261, 1428.903 354.598 C 1422.044 364.670, 1415.497 373.071, 1412.253 375.962 C 1406.420 381.161, 1397.483 385.931, 1388.905 388.425 C 1373.282 392.967, 1368.812 393.279, 1309 393.997 C 1247.224 394.738, 1246 394.846, 1240.829 400.017 C 1236.912 403.934, 1237.081 408.128, 1241.433 415.044 C 1243.321 418.045, 1246.059 422.404, 1247.517 424.731 C 1250.866 430.076, 1250.247 433.756, 1245.141 438.852 C 1237.579 446.398, 1223.257 454.374, 1192 468.448 C 1137.957 492.781, 1118.897 502.286, 1093.052 517.797 C 1076.544 527.705, 1048 546.882, 1048 548.067 C 1048 549.859, 1050.395 548.956, 1061.906 542.821 C 1095.675 524.824, 1131.609 507.744, 1181.500 485.978 C 1225.730 466.681, 1242.263 457.852, 1252.331 448.154 C 1258.786 441.935, 1261 437.426, 1261 430.500 C 1261 424.274, 1259.221 420.050, 1253.634 413.014 C 1251.230 409.985, 1250.402 408.198, 1251.085 407.514 C 1251.730 406.868, 1272.329 406.277, 1307.799 405.885 C 1367.994 405.220, 1375.462 404.642, 1392.407 399.333 C 1412.163 393.143, 1421.749 385.359, 1436.886 363.216 C 1456.554 334.442, 1459.163 333.430, 1482.655 345.462 C 1497.946 353.294, 1504.147 355, 1517.316 355 C 1529.482 355, 1536.695 353.240, 1548.500 347.390 C 1564.979 339.224, 1589.153 320.257, 1595.755 310.315 C 1598.905 305.569, 1599.505 303.763, 1599.828 298.039 C 1600.301 289.665, 1598.271 285.227, 1590.962 278.655 C 1581.209 269.887, 1564.074 263.006, 1531.955 254.958 C 1491.307 244.774, 1447.237 238.052, 1401 234.985 C 1379.651 233.569, 1327.827 233.080, 1302.500 234.055 M 1349 294.117 C 1322.307 295.115, 1299.534 298.370, 1272 305.123 C 1219.956 317.887, 1155.219 351.524, 1093.500 397.871 C 1060.260 422.832, 1029.829 452.776, 1000.384 489.500 C 989.853 502.634, 980 515.633, 980 516.393 C 980 518.876, 984.114 515.175, 994.014 503.787 C 1034.274 457.476, 1065.850 429.203, 1114 396.352 C 1146.050 374.486, 1171.912 359.148, 1200.500 345.051 C 1232.130 329.453, 1252.006 321.862, 1280.500 314.495 C 1318.401 304.696, 1345.967 300.889, 1392.392 299.040 C 1406.083 298.495, 1417.545 297.789, 1417.863 297.470 C 1419.344 295.989, 1414.578 295.145, 1401.597 294.588 C 1378.015 293.578, 1366.242 293.472, 1349 294.117 M 601 382.058 C 490.858 389.402, 406.411 411.923, 322.500 456.329 C 256.380 491.321, 198.790 538.913, 187.649 567.770 C 184.156 576.816, 186.772 583.650, 195.358 587.907 C 203.078 591.735, 213.888 591.729, 254 587.871 C 286.600 584.736, 290.730 584.553, 329 584.555 C 364.838 584.556, 371.548 584.812, 387.289 586.778 C 416.205 590.390, 431.960 589.650, 444.529 584.090 L 448.683 582.253 445.855 590.376 C 441.489 602.917, 442.098 611.298, 447.814 617.339 C 453.820 623.687, 462.776 626.063, 480.759 626.078 C 497.420 626.093, 511.705 624.280, 549.500 617.356 C 604.609 607.259, 620.165 606.463, 625.955 613.445 C 626.962 614.659, 627.624 619.106, 628.103 627.887 C 629.070 645.600, 631.655 651.093, 641 655.295 C 646.482 657.761, 656.464 657.910, 666 655.670 C 669.575 654.830, 683.006 650.717, 695.847 646.530 C 718.258 639.222, 735.115 634.570, 749 631.862 C 752.845 631.112, 763.056 630.603, 774 630.615 C 794.419 630.638, 805.322 631.913, 833.174 637.535 C 842.612 639.440, 850.596 640.738, 850.916 640.418 C 852.136 639.198, 847.320 636.972, 834.033 632.616 C 805.116 623.134, 787.284 619.741, 766 619.669 C 745.434 619.600, 726.959 623.333, 695.500 633.913 C 657.019 646.854, 647.520 648.256, 642.635 641.712 C 640.940 639.443, 640.474 636.852, 639.935 626.700 C 639.149 611.885, 637.249 606.642, 631.036 602.141 C 620.494 594.505, 605.665 595.108, 549 605.481 C 508.319 612.927, 497.740 614.317, 481 614.415 C 465.614 614.505, 460.437 613.520, 456.250 609.703 C 452.030 605.855, 453.630 598.441, 463.171 577.650 C 472.265 557.834, 473.113 555.426, 472.016 552.541 C 470.931 549.689, 467.077 548.353, 464.269 549.856 C 463.215 550.420, 459.271 554.950, 455.504 559.922 C 451.738 564.893, 447.009 570.052, 444.995 571.384 C 434.598 578.265, 420.593 579.416, 390.500 575.862 C 372.300 573.713, 366.630 573.506, 327.500 573.563 C 290.645 573.617, 281.356 573.944, 262.500 575.849 C 222.436 579.897, 212.492 580.490, 205.308 579.260 C 201.692 578.641, 198.268 577.668, 197.699 577.099 C 195.996 575.396, 198.509 569.013, 203.908 561.325 C 224.877 531.466, 278.344 491.292, 335.959 462.104 C 421.577 418.730, 508.323 397.545, 618.726 393.047 C 666.219 391.112, 697.374 394.514, 717 403.776 C 726.323 408.176, 736.257 417.591, 737.873 423.560 C 738.459 425.727, 739.632 430.058, 740.478 433.184 C 743.907 445.848, 752.539 452.076, 773.500 457.010 C 796.566 462.439, 821.410 471.533, 835.094 479.555 C 839.590 482.191, 849.353 488.769, 856.789 494.174 C 869.933 503.727, 872 504.944, 872 503.129 C 872 502.035, 859.748 490.139, 850.500 482.253 C 831.454 466.013, 808.828 454.993, 779 447.430 C 771.025 445.408, 762.882 442.936, 760.905 441.936 C 754.864 438.881, 751.396 434.035, 750.138 426.894 C 748.498 417.583, 744.858 411.032, 737.500 404.149 C 726.492 393.851, 709.298 386.911, 686.291 383.479 C 673.324 381.544, 621.618 380.683, 601 382.058 M 530.500 474.669 C 497.637 476.696, 460.733 483.633, 429.779 493.601 C 417.917 497.422, 382.097 511.049, 371.955 515.601 C 366.439 518.076, 364.355 520, 367.189 520 C 367.843 520, 379.430 516.594, 392.939 512.431 C 455.687 493.093, 495.470 486.594, 550.500 486.688 C 617.364 486.803, 687.677 496.322, 761 515.186 C 773.925 518.511, 788.903 522.364, 794.284 523.748 C 803.977 526.242, 807.270 526.133, 803.590 523.442 C 800.881 521.462, 744.672 503.030, 725 497.672 C 695.986 489.769, 673.143 485.088, 644 481.073 C 604.633 475.650, 557.611 472.996, 530.500 474.669 M 1303.081 504.206 C 1252.709 506.351, 1192.892 517.358, 1138.639 534.465 C 1097.708 547.372, 1053.221 568.100, 999.652 599.224 C 995.078 601.882, 993.136 603.536, 993.805 604.205 C 994.474 604.874, 1002.561 601.801, 1018.153 594.954 C 1118.737 550.780, 1172.607 533.699, 1245.022 523.020 C 1317.384 512.348, 1400.544 515.438, 1432.640 529.991 C 1447.919 536.918, 1447.662 542.247, 1431.273 558.312 L 1424.324 565.125 1403.912 567.120 C 1382.079 569.254, 1381 569.431, 1381 570.881 C 1381 572.485, 1387.176 572.954, 1428.500 574.487 C 1483.447 576.526, 1489.462 577.204, 1500 582.536 C 1507.464 586.313, 1509.744 589.488, 1511.469 598.502 C 1513.531 609.279, 1516.953 614.644, 1524.092 618.295 C 1529.097 620.855, 1531.334 621.254, 1547.891 622.545 C 1570.329 624.295, 1577.284 625.448, 1587.324 629.082 C 1604.355 635.247, 1625.832 653.672, 1639.684 674 C 1643.619 679.775, 1648.329 686.500, 1650.150 688.945 C 1652.782 692.479, 1653.054 693.227, 1651.480 692.595 C 1647.788 691.111, 1628.426 690.708, 1619.887 691.938 C 1607.715 693.691, 1594.854 697.061, 1595.294 698.382 C 1595.833 699.998, 1602.962 700.851, 1625 701.934 C 1646.930 703.012, 1652.851 704.223, 1664.231 709.961 C 1675.131 715.457, 1685.022 723.218, 1697.085 735.741 C 1710.490 749.657, 1719.587 761.481, 1755.373 811.500 C 1796.314 868.724, 1805.790 883.170, 1812.565 898.689 C 1818.914 913.230, 1816.762 918.252, 1802.775 921.537 C 1788.056 924.993, 1724.665 924.365, 1690 920.419 C 1650.853 915.962, 1622.890 906.807, 1615.593 896.057 C 1602.243 876.390, 1583.960 872.232, 1522.500 874.882 C 1478.380 876.785, 1422.976 877.381, 1407.330 876.122 C 1373.796 873.424, 1354.108 866.964, 1346.550 856.179 C 1342.531 850.445, 1342.625 843.918, 1346.905 831.562 C 1351.551 818.148, 1351.016 811.611, 1345.020 808.510 C 1339.215 805.509, 1332.116 807.047, 1311.500 815.772 C 1279.643 829.254, 1254.888 834.935, 1227.801 834.980 C 1190.978 835.042, 1160.088 825.543, 1101 795.989 C 1044.491 767.725, 1009.613 746.683, 951.398 705.733 C 941.441 698.730, 933.004 693, 932.648 693 C 930.200 693, 933.414 696.545, 941.710 703 C 997.246 746.204, 1025.779 765.809, 1065 787.713 C 1096.204 805.140, 1132.262 822.589, 1153.109 830.350 C 1207.604 850.638, 1255.271 849.474, 1313.148 826.441 C 1323.667 822.255, 1333.787 818.584, 1335.637 818.284 C 1339.952 817.584, 1339.966 818.492, 1335.821 830.381 C 1330.021 847.016, 1331.681 857.454, 1341.697 867.328 C 1354.168 879.624, 1377.495 885.995, 1417.500 888.033 C 1437.531 889.053, 1444.019 888.976, 1516.405 886.855 C 1537.803 886.228, 1559.972 886, 1565.670 886.349 C 1585.025 887.533, 1597.496 891.713, 1602.626 898.735 C 1607.815 905.839, 1613.507 911.148, 1619.500 914.474 C 1633.962 922.499, 1659.882 929.125, 1689.787 932.441 C 1727.103 936.578, 1791.137 937.025, 1806.128 933.253 C 1824.123 928.724, 1830.663 919.927, 1827.468 904.546 C 1824.323 889.410, 1811.930 869.027, 1771.505 812.500 C 1728.943 752.985, 1722.020 744.028, 1705.561 727.174 C 1693.621 714.949, 1684.746 707.803, 1673.663 701.491 L 1666.623 697.482 1656.061 679.858 C 1643.672 659.183, 1639.978 654.243, 1628.812 643.416 C 1619.069 633.969, 1612.001 628.558, 1602.934 623.605 C 1589.807 616.435, 1578.806 613.892, 1551 611.599 C 1541.375 610.805, 1532.263 609.682, 1530.750 609.103 C 1526.890 607.624, 1524.360 602.911, 1523.550 595.686 C 1523.169 592.284, 1522.061 587.700, 1521.089 585.500 C 1517.609 577.628, 1506.235 570.079, 1492.500 566.524 C 1484.194 564.375, 1461.604 562.875, 1449 563.636 L 1438.500 564.270 1443.500 560.525 C 1453.826 552.790, 1457.765 544.610, 1455.486 535.635 C 1451.805 521.136, 1428.778 511.465, 1386.036 506.465 C 1372.880 504.926, 1330.752 502.726, 1323.774 503.213 C 1321.513 503.371, 1312.201 503.818, 1303.081 504.206 M 785.500 651.136 C 730.257 661.447, 672.801 677.029, 630 693.306 C 557.626 720.831, 497.268 754.709, 462.022 787.590 C 431.145 816.395, 414.996 840.802, 417.607 854.717 C 419.220 863.317, 429.385 868.913, 440.856 867.517 C 444.421 867.083, 446.132 867.178, 445.500 867.777 C 444.950 868.298, 438.054 873.384, 430.177 879.080 C 379.006 916.077, 335.591 953.826, 326.754 969.006 C 322.142 976.929, 321.377 980.573, 323.340 985.272 C 326.707 993.330, 336.909 994.316, 363 989.104 C 379.080 985.892, 383 985.441, 383 986.803 C 383 987.244, 379.900 992.368, 376.111 998.189 C 341.519 1051.331, 324.637 1090.301, 323.344 1120 C 322.881 1130.627, 323.019 1131.841, 325.171 1135.992 C 328.186 1141.806, 332.963 1145, 338.648 1145 C 341.042 1145, 343 1145.139, 343 1145.309 C 343 1145.478, 341.697 1149.191, 340.105 1153.559 C 331.111 1178.233, 327.544 1219.529, 329.916 1271.500 C 331.368 1303.313, 334.624 1358.066, 336.071 1375 C 337.256 1388.877, 339.971 1403.541, 342.403 1409.213 C 347.797 1421.789, 359.074 1425.966, 373.241 1420.634 C 384.714 1416.315, 395.529 1408.907, 432.500 1380.041 C 479.600 1343.267, 501.640 1327.052, 539 1301.688 C 587.317 1268.885, 600.349 1257.199, 609.977 1238.042 C 620.872 1216.365, 621.989 1198.114, 615.499 1147.817 C 614.128 1137.193, 613.034 1126.925, 613.068 1125 C 613.127 1121.719, 613.350 1121.968, 616.643 1129 C 618.575 1133.125, 623.777 1145.050, 628.203 1155.500 C 641.867 1187.759, 646.084 1194.822, 653.684 1198.185 C 660.031 1200.992, 665.472 1199.433, 671.956 1192.949 C 683.489 1181.416, 697.605 1143.142, 712.103 1084.096 C 719.755 1052.930, 722.135 1046, 725.189 1046 C 728.790 1046, 731.010 1048.050, 742.965 1062.417 C 755.300 1077.241, 759.349 1081.065, 767 1085.117 C 770.879 1087.171, 772.887 1087.500, 781.552 1087.500 C 791.179 1087.500, 791.929 1087.339, 799.310 1083.691 C 822.966 1072, 847.494 1042.834, 858.695 1013.078 C 864.215 998.413, 865.182 992.034, 865.861 965.798 C 866.312 948.348, 866.861 940.736, 867.728 939.870 C 869.012 938.588, 871.413 939.663, 893.644 951.464 C 908.931 959.579, 917.928 958.690, 922.943 948.571 C 926.431 941.531, 926.899 926.189, 924.165 908.500 C 923.060 901.350, 918.301 870.075, 913.588 839 C 904.023 775.929, 904.006 775.835, 902.079 775.193 C 900.920 774.807, 900.807 777.699, 901.378 793.116 C 903.156 841.088, 905.677 870.938, 910.151 897 C 913.625 917.241, 914.877 936.812, 913.051 942.344 C 912.110 945.196, 911.319 946, 909.454 946 C 907.249 946, 898.698 941.854, 881.798 932.591 C 869.621 925.916, 861.256 926.812, 856.783 935.271 C 854.676 939.256, 854.535 940.828, 854.343 962.500 C 854.179 980.949, 853.754 987.285, 852.194 994.522 C 846.225 1022.214, 826.582 1052.066, 803.483 1068.549 C 795.093 1074.536, 788.016 1077.260, 780.919 1077.234 C 771.103 1077.197, 765.740 1073.197, 750.164 1054.299 C 739.427 1041.272, 734.484 1036.761, 729.217 1035.183 C 721.241 1032.794, 713.767 1037.727, 709.893 1047.938 C 708.732 1050.997, 704.515 1066.325, 700.520 1082 C 688.874 1127.702, 677.048 1163.710, 669.400 1176.760 C 665.833 1182.847, 661.098 1188, 659.071 1188 C 654.765 1188, 651.713 1182.456, 636.500 1147 C 622.703 1114.843, 618.349 1106.206, 614.350 1103.061 C 610.794 1100.263, 606.878 1100.437, 603.981 1103.520 C 600.178 1107.568, 600.182 1118.605, 603.996 1148 C 611.014 1202.090, 609.008 1222.287, 594.626 1242.346 C 584.927 1255.875, 572.657 1265.971, 533.353 1292.765 C 497.237 1317.386, 478.167 1331.374, 433.500 1366.007 C 386.566 1402.399, 377.694 1408.528, 367.630 1411.517 C 360.879 1413.522, 359.640 1413.409, 356.147 1410.470 C 349.427 1404.816, 347.744 1393.493, 344.035 1329 C 340.990 1276.064, 339.792 1240.949, 340.485 1225 C 342.164 1186.344, 347.654 1152.517, 353.893 1142.378 C 357.359 1136.747, 380.623 1124.633, 398.750 1119.019 C 404.387 1117.273, 409 1115.430, 409 1114.922 C 409 1112.246, 386.043 1115.633, 373.004 1120.233 C 368.331 1121.882, 359.781 1125.588, 354.004 1128.469 C 340.819 1135.044, 338.886 1135.538, 335.874 1133.099 C 333.798 1131.418, 333.553 1130.410, 333.631 1123.856 C 333.934 1098.415, 349.853 1059.388, 377.832 1015.500 C 391.070 994.734, 395.318 986.375, 394.583 982.537 C 394.264 980.867, 392.852 978.487, 391.445 977.250 C 387.970 974.192, 383.011 974.338, 364.500 978.042 C 356.250 979.693, 346.024 981.325, 341.775 981.668 C 331.902 982.466, 331.192 981.326, 336.510 973.217 C 346.699 957.681, 388.126 922.259, 442.362 882.707 C 461.720 868.590, 470 861.393, 470 858.684 C 470 857.758, 469.056 856.056, 467.902 854.902 C 465.515 852.515, 465.082 852.539, 448.728 855.961 C 433.372 859.174, 427.537 857.691, 427.802 850.644 C 428.215 839.666, 446.635 814.997, 469.900 794.264 C 495.365 771.570, 524.510 752.767, 567 731.618 C 631.021 699.753, 680.644 681.655, 755 663.053 C 786.928 655.065, 794.143 652.929, 793.699 651.595 C 793.210 650.125, 791.445 650.026, 785.500 651.136 M 1155.688 653.768 C 1150.359 654.271, 1151.510 656.338, 1157.583 657.170 C 1160.287 657.540, 1172.850 658.567, 1185.500 659.452 C 1263.909 664.936, 1305.715 670.131, 1358.500 680.951 C 1470.601 703.930, 1528.771 724.633, 1616.296 772.702 C 1641.682 786.644, 1644.824 788.225, 1646.221 787.760 C 1647.836 787.221, 1641.325 782.434, 1622.500 770.316 C 1537.703 715.732, 1481.255 693.408, 1375.500 672.636 C 1332.131 664.117, 1306.514 660.554, 1267 657.545 C 1238.224 655.354, 1165.145 652.874, 1155.688 653.768 M 763.874 741.070 C 727.572 764.202, 702.316 784.051, 670.802 814.217 C 608.554 873.802, 536.033 979.845, 477.751 1096.500 C 451.005 1150.035, 434.439 1193.475, 415.421 1259.942 C 409.132 1281.921, 408.095 1287, 409.893 1287 C 411.020 1287, 410.285 1288.953, 422.693 1253 C 450.651 1171.989, 472.703 1124.042, 519.508 1042.500 C 576.325 943.515, 624.064 877.574, 680.492 820.133 C 710.474 789.613, 730.265 772.300, 766.264 745.098 C 776.019 737.727, 784 731.314, 784 730.848 C 784 728.749, 780.111 730.724, 763.874 741.070 M 1173 875.389 C 1173 878.352, 1199.818 914.970, 1214.066 931.461 C 1241.545 963.267, 1272.551 984.844, 1306.741 995.954 C 1314.010 998.316, 1320.659 1000.761, 1321.517 1001.389 C 1322.375 1002.016, 1323.699 1005.503, 1324.460 1009.137 C 1327.125 1021.876, 1335.672 1035.617, 1350.429 1050.887 C 1362.393 1063.268, 1374.215 1071.984, 1399.487 1087.055 C 1424.346 1101.880, 1431.922 1108.353, 1434.407 1116.892 C 1438.899 1132.326, 1446.751 1138.185, 1485.500 1155.015 C 1499.959 1161.295, 1507.714 1165.409, 1536.818 1182.237 C 1583.035 1208.961, 1596.108 1213.167, 1608.718 1205.371 C 1614.685 1201.682, 1618.354 1195.792, 1621.097 1185.500 C 1622.881 1178.807, 1623.313 1173.701, 1623.741 1154.243 C 1624.444 1122.232, 1622.042 1098.813, 1615.443 1073.355 C 1606.027 1037.027, 1591.255 1007.400, 1566.407 975 C 1546.630 949.213, 1529.130 933.299, 1501.238 915.740 C 1482.359 903.854, 1471.505 899.060, 1476.107 904.640 C 1476.873 905.568, 1482.588 910.114, 1488.806 914.742 C 1523.407 940.493, 1542.605 960.701, 1566.478 996.500 C 1585.627 1025.215, 1595.146 1046.186, 1603.020 1077.002 C 1612.432 1113.841, 1615.002 1164.264, 1608.554 1185.597 C 1603.394 1202.670, 1592.542 1200.829, 1548 1175.323 C 1518.322 1158.329, 1509.077 1153.462, 1492.500 1146.109 C 1456.271 1130.038, 1448.465 1124.881, 1446.094 1115.452 C 1442.868 1102.625, 1434.523 1093.852, 1413.853 1081.558 C 1380.723 1061.852, 1366.945 1051.592, 1354.845 1037.612 C 1344.317 1025.449, 1339.471 1017.039, 1336.603 1005.956 C 1333.240 992.960, 1330.984 990.993, 1312.828 985.231 C 1290.053 978.002, 1269.390 966.462, 1248.500 949.305 C 1236.694 939.609, 1207.263 910.106, 1187.096 887.750 C 1180.274 880.188, 1174.311 874, 1173.846 874 C 1173.381 874, 1173 874.625, 1173 875.389 M 1131 887.844 C 1131 888.309, 1134.456 893.596, 1138.679 899.594 C 1142.903 905.592, 1148.110 913.010, 1150.251 916.078 C 1152.593 919.433, 1154.362 923.284, 1154.692 925.742 C 1155.203 929.550, 1154.917 930.175, 1150.487 934.910 C 1132.756 953.866, 1106.205 964.329, 1093.070 957.536 C 1089.026 955.445, 1085.336 950.866, 1064.765 922.413 C 1042.864 892.120, 1041.417 890.264, 1040.447 891.226 C 1040.044 891.626, 1050.973 908.951, 1064.735 929.726 C 1115.124 1005.799, 1145.538 1057.463, 1193.230 1148 C 1273.763 1300.881, 1329.226 1431.560, 1383.795 1597 C 1442.957 1776.365, 1497.005 1998.481, 1528.944 2193.500 C 1531.195 2207.250, 1534.141 2225.025, 1535.490 2233 C 1536.838 2240.975, 1538.651 2252.900, 1539.518 2259.500 C 1540.385 2266.100, 1542.404 2280.725, 1544.005 2292 C 1545.605 2303.275, 1548.047 2320.600, 1549.431 2330.500 C 1553.294 2358.132, 1557.924 2387.113, 1559.096 2391 C 1561.068 2397.538, 1560.992 2397.408, 1562.157 2396.243 C 1564.876 2393.524, 1557.557 2310.035, 1552.292 2283.708 L 1551.655 2280.527 1556.457 2284.753 C 1567.714 2294.662, 1578.725 2297.424, 1604 2296.679 C 1622.245 2296.141, 1636.630 2294.207, 1673 2287.403 C 1712.272 2280.056, 1726.994 2275.177, 1734.304 2267.086 C 1737.214 2263.864, 1737.996 2263.429, 1738.409 2264.803 C 1738.689 2265.736, 1741.641 2277.716, 1744.969 2291.424 C 1751.175 2316.990, 1752.609 2322.282, 1758.614 2341.782 C 1762.450 2354.236, 1764.614 2355.939, 1763.516 2345.638 C 1759.840 2311.157, 1752.011 2273.082, 1739.533 2229 C 1737.587 2222.125, 1734.178 2208.400, 1731.957 2198.500 C 1692.920 2024.439, 1643.762 1858.819, 1582.825 1696.056 C 1512.610 1508.510, 1433.510 1344.406, 1330.275 1172.108 C 1265.816 1064.526, 1211.432 985.470, 1142.228 898.750 C 1133.709 888.075, 1131 885.443, 1131 887.844 M 1014.344 900.750 C 1019.180 989.036, 1020.681 1050.427, 1018.205 1058.705 C 1015.565 1067.530, 1010.511 1070.666, 1003.326 1067.934 C 996.135 1065.200, 988.017 1067.644, 986.108 1073.119 C 983.347 1081.040, 985.482 1089.357, 997.972 1119.332 C 1002.975 1131.339, 1008.183 1144.483, 1009.546 1148.541 C 1012.283 1156.695, 1013.601 1166.774, 1012.198 1168.822 C 1010.949 1170.647, 1004.742 1171.944, 997 1171.998 C 989.245 1172.053, 983.823 1174.244, 978.656 1179.411 C 967.078 1190.988, 964.235 1210.398, 966.192 1264.500 C 966.848 1282.650, 967.411 1309.425, 967.443 1324 C 967.493 1347.381, 967.295 1350.875, 965.757 1353.687 C 964.799 1355.439, 963.532 1357.171, 962.942 1357.536 C 956.366 1361.600, 927.583 1338.737, 900.578 1308 C 871.891 1275.347, 851.988 1244.501, 833.474 1204 C 812.840 1158.861, 809.190 1145.606, 808.140 1112 C 807.510 1091.808, 806.345 1086.273, 804.773 1096 C 803.256 1105.389, 802.719 1135.416, 803.907 1144.500 C 806.731 1166.106, 818.112 1198.256, 834.579 1231.140 C 853.275 1268.477, 883.231 1308.734, 915.591 1340.009 C 944.858 1368.295, 961.898 1375.403, 972.702 1363.831 C 979.771 1356.261, 980.671 1345.964, 978.630 1296 C 975.741 1225.293, 976.542 1205.420, 982.781 1193.028 C 986.817 1185.011, 989.770 1183.414, 1001.777 1182.752 C 1012.677 1182.151, 1016.268 1180.847, 1020.341 1176.006 C 1027.457 1167.550, 1024.795 1153.530, 1009.043 1116.500 C 997.848 1090.183, 993.537 1075.841, 997.250 1077.266 C 997.938 1077.529, 1001.087 1078.324, 1004.248 1079.031 C 1014.448 1081.314, 1021.307 1077.759, 1026.048 1067.734 C 1030.558 1058.197, 1031.341 1050.575, 1030.695 1022.500 C 1029.979 991.458, 1025.321 944.860, 1018.949 905 C 1016.627 890.482, 1016.242 889, 1014.783 889 C 1014.031 889, 1013.897 892.589, 1014.344 900.750 M 1279.218 899.250 C 1279.429 899.938, 1290.279 905.963, 1303.329 912.641 C 1363.363 943.361, 1395.598 964.153, 1446 1004.668 C 1477.718 1030.164, 1506.326 1056.864, 1539.002 1091.465 C 1549.698 1102.791, 1553.445 1104.283, 1545.911 1094.216 C 1537.998 1083.642, 1513.385 1054.589, 1503.401 1044.036 C 1441.852 978.987, 1381.284 938.285, 1292.633 902.399 C 1281.271 897.800, 1278.577 897.168, 1279.218 899.250 M 1159.496 934.637 C 1156.984 939.301, 1144.685 950.726, 1135.860 956.593 C 1125.412 963.539, 1116.528 966.424, 1105.460 966.466 L 1096.421 966.500 1109.860 986.500 C 1117.252 997.500, 1124.622 1007.913, 1126.239 1009.640 C 1132.800 1016.648, 1147.088 1021.735, 1156.955 1020.575 C 1167.097 1019.383, 1181.260 1011.066, 1190.337 1000.971 C 1195.569 995.151, 1196.595 991.594, 1195.039 984.664 C 1193.410 977.408, 1191.036 973.332, 1175.722 951.500 C 1168.006 940.500, 1161.630 931.405, 1161.553 931.289 C 1161.476 931.174, 1160.550 932.680, 1159.496 934.637 M 2090.500 969.620 C 2039.477 973.705, 1989.921 987.179, 1948.781 1008.153 C 1929.110 1018.181, 1914.880 1028.464, 1911.423 1035.148 C 1909.554 1038.763, 1909.612 1044.479, 1911.548 1047.433 C 1912.399 1048.732, 1915.226 1050.711, 1917.829 1051.831 C 1923.193 1054.139, 1928.842 1054.926, 1965.783 1058.519 C 2012.775 1063.089, 2031.452 1067.974, 2040.676 1078.109 C 2042.662 1080.291, 2042.755 1080.920, 2041.746 1085.301 C 2040.671 1089.965, 2040.727 1090.189, 2043.705 1093.166 C 2047.446 1096.907, 2050.497 1097.053, 2069.500 1094.395 C 2090.113 1091.512, 2140.995 1092.595, 2144.388 1095.988 C 2145.320 1096.920, 2142.879 1101.021, 2137.372 1107.778 C 2135.563 1109.998, 2134.550 1112.625, 2134.233 1115.923 C 2133.790 1120.542, 2133.987 1121.031, 2138.106 1125.500 C 2141.890 1129.605, 2146.555 1132.237, 2174.474 1146.024 C 2207.595 1162.380, 2224.312 1171.533, 2241.500 1182.720 C 2251.775 1189.408, 2269 1201.873, 2269 1202.621 C 2269 1202.852, 2267.231 1202.138, 2265.069 1201.035 C 2256.976 1196.906, 2236.578 1188.980, 2220.314 1183.644 C 2183.143 1171.447, 2137.231 1162.146, 2098.272 1158.919 C 2080.945 1157.484, 2047.850 1158.237, 2040 1160.245 C 2026.349 1163.738, 2021.108 1170.508, 2025.492 1178.985 C 2027.020 1181.939, 2034.031 1187.707, 2044.252 1194.420 C 2049.914 1198.138, 2051.606 1199.727, 2050.782 1200.551 C 2049.302 1202.031, 2030.742 1203.140, 2004.240 1203.331 C 1977.473 1203.524, 1972.976 1203.779, 1969.448 1205.305 C 1961.685 1208.664, 1960.486 1215.723, 1966.595 1222.100 L 1969.230 1224.850 1964.365 1227.312 C 1958.263 1230.402, 1930.250 1242.294, 1910.500 1250.180 C 1892.002 1257.567, 1885.149 1261.161, 1878.964 1266.723 C 1870.312 1274.502, 1867.880 1283.731, 1872.058 1292.939 L 1874.072 1297.379 1870.581 1302.439 C 1865.743 1309.453, 1852.106 1324.946, 1830.038 1348.500 C 1805.960 1374.198, 1800.899 1380.004, 1795.326 1388.318 C 1789.464 1397.064, 1786.793 1404.138, 1786.866 1410.726 C 1786.935 1416.958, 1788.839 1421.022, 1793.249 1424.350 C 1800.456 1429.789, 1808.327 1430.138, 1841.355 1426.483 C 1853.863 1425.099, 1872.767 1423.579, 1883.362 1423.106 C 1904.049 1422.181, 1907.406 1421.362, 1910.618 1416.460 C 1912.883 1413.004, 1911.869 1407.885, 1907.937 1402.920 C 1906.189 1400.713, 1904.942 1398.725, 1905.165 1398.502 C 1905.592 1398.074, 1936.793 1411.261, 1955.527 1419.787 C 1970.864 1426.767, 1978.175 1429, 1985.697 1429 C 1993.686 1429, 1997.949 1427.245, 2001.607 1422.449 C 2004.029 1419.273, 2004.534 1417.557, 2004.843 1411.448 C 2005.063 1407.085, 2004.573 1401.416, 2003.608 1397.176 C 2002.728 1393.307, 2002.269 1389.462, 2002.588 1388.632 C 2004.196 1384.442, 2015.175 1386.136, 2036.500 1393.867 C 2064.922 1404.170, 2073.987 1404.477, 2082.701 1395.429 C 2087.908 1390.022, 2089.610 1384.642, 2090.471 1370.866 C 2090.827 1365.165, 2091.804 1358.588, 2092.642 1356.250 C 2094.079 1352.240, 2094.385 1352, 2098.054 1352 C 2103.247 1352, 2110.185 1355.212, 2123.901 1363.968 C 2143.717 1376.618, 2153.155 1380, 2168.645 1380 C 2173.718 1380, 2180.978 1379.346, 2184.778 1378.547 C 2204.659 1374.365, 2230.757 1360.844, 2269 1334.914 C 2288.166 1321.918, 2298.208 1313.793, 2311.529 1300.503 C 2322.616 1289.441, 2343 1265.779, 2343 1263.970 C 2343 1261.931, 2340.456 1263.173, 2335.078 1267.839 C 2295.861 1301.860, 2259.902 1328.077, 2225.082 1348.032 C 2200.846 1361.922, 2184.037 1368, 2169.859 1368 C 2156.207 1368, 2147.540 1364.818, 2129.099 1353.037 C 2103.200 1336.491, 2092.256 1334.968, 2083.393 1346.676 C 2079.759 1351.476, 2078 1359.398, 2078 1370.966 C 2078 1391.819, 2072.193 1393.815, 2042.500 1383.167 C 2021.268 1375.553, 2013.308 1373.645, 2005.597 1374.321 C 1999.062 1374.894, 1995.810 1376.774, 1992.161 1382.092 C 1989.561 1385.882, 1989.545 1389.896, 1992.077 1403.730 C 1992.986 1408.695, 1993.096 1411.828, 1992.431 1413.730 C 1991.561 1416.216, 1990.926 1416.531, 1986.239 1416.802 C 1979.737 1417.178, 1971.720 1414.406, 1945.086 1402.574 C 1934.409 1397.830, 1920.515 1391.885, 1914.212 1389.364 C 1901.132 1384.130, 1897.181 1383.996, 1893.141 1388.649 C 1889.987 1392.280, 1890.634 1398.283, 1894.921 1405.181 C 1896.657 1407.972, 1897.938 1410.395, 1897.768 1410.565 C 1897.598 1410.735, 1888.919 1411.340, 1878.480 1411.911 C 1868.041 1412.481, 1849.375 1414.120, 1837 1415.553 C 1805.128 1419.245, 1798 1418.312, 1798 1410.448 C 1798 1401.993, 1806.262 1390.610, 1833.528 1361.500 C 1853.702 1339.962, 1869.368 1322.309, 1876.127 1313.500 C 1885.210 1301.661, 1886.762 1296.402, 1882.996 1290.226 C 1879.542 1284.560, 1880.683 1279.538, 1886.500 1274.809 C 1891.814 1270.489, 1896.151 1268.309, 1915 1260.486 C 1938.982 1250.532, 1961.951 1240.522, 1969.462 1236.750 C 1981.191 1230.862, 1983.932 1224.732, 1977.647 1218.447 L 1974.294 1215.094 1976.897 1214.545 C 1978.329 1214.243, 1992.550 1214.072, 2008.500 1214.166 C 2043.144 1214.369, 2054.381 1212.916, 2060.955 1207.385 C 2063.340 1205.377, 2064 1204.019, 2064 1201.114 C 2064 1196.543, 2060.598 1193.065, 2047.398 1184.139 C 2037.986 1177.774, 2034.231 1174.435, 2035.293 1173.373 C 2036.967 1171.700, 2049.001 1169.881, 2062 1169.338 C 2116.319 1167.068, 2209.111 1186.568, 2272.846 1213.646 C 2278.705 1216.136, 2293.175 1222.860, 2305 1228.589 C 2316.825 1234.318, 2327.100 1239.004, 2327.833 1239.003 C 2330.839 1238.997, 2327.813 1236.150, 2318.264 1230 C 2311.772 1225.819, 2302.879 1218.544, 2293.336 1209.607 C 2258.044 1176.558, 2228.038 1157.042, 2174 1131.991 C 2155.575 1123.450, 2146 1118.201, 2146 1116.642 C 2146 1116.127, 2147.509 1113.860, 2149.352 1111.603 C 2159.822 1098.789, 2158.306 1088.063, 2145.528 1084.541 C 2139.789 1082.959, 2130.447 1082.310, 2100 1081.380 C 2080.132 1080.773, 2069.472 1081.356, 2057.817 1083.687 C 2055.293 1084.191, 2055 1083.974, 2055 1081.593 C 2055 1070.960, 2039.885 1059.280, 2019.499 1054.161 C 2007.230 1051.080, 1994.120 1049.279, 1959.950 1045.979 C 1927.291 1042.825, 1922.886 1042.159, 1922.258 1040.275 C 1921.731 1038.693, 1930.630 1031.872, 1941.786 1025.306 C 1976.952 1004.610, 2028.692 988.246, 2076 982.857 C 2090.919 981.157, 2135.218 981.150, 2149 982.845 C 2209.353 990.267, 2253.003 1012.348, 2276.902 1047.544 C 2286.006 1060.952, 2289.138 1063.419, 2294.461 1061.377 C 2296.425 1060.623, 2299.226 1055.195, 2300.967 1048.769 C 2302.642 1042.589, 2304.099 1041.384, 2307.961 1042.984 C 2320.330 1048.107, 2342.664 1088.473, 2356.382 1130.500 C 2360.672 1143.644, 2363.465 1156.834, 2365.565 1173.869 C 2367.139 1186.644, 2367.446 1187.887, 2368.710 1186.623 C 2370.206 1185.127, 2369.386 1147.754, 2367.643 1138 C 2361.261 1102.289, 2342.456 1060.182, 2324.290 1040.924 C 2316.914 1033.106, 2311.362 1030, 2304.761 1030 C 2299.163 1030, 2295.024 1033.061, 2291.652 1039.695 L 2289.395 1044.136 2282.948 1035.426 C 2257.702 1001.325, 2212.850 978.927, 2154.859 971.462 C 2143.028 969.939, 2101.398 968.747, 2090.500 969.620 M 920.943 996.213 C 917.746 1008.084, 911.921 1044.281, 909.470 1067.500 C 907.279 1088.267, 906.415 1140.380, 907.920 1161.069 C 910.279 1193.494, 915.371 1222.329, 924.042 1252.359 C 926.763 1261.783, 928.056 1265, 929.121 1265 C 930.360 1265, 930.374 1265.122, 926.535 1242.720 C 919.689 1202.772, 917.691 1173.272, 917.616 1111 C 917.560 1064.853, 918.124 1052.855, 922.057 1016.587 C 924.245 996.413, 924.421 992, 923.039 992 C 922.510 992, 921.567 993.896, 920.943 996.213 M 1202.595 995.347 C 1201.369 1001.878, 1192.507 1011.739, 1180.338 1020.112 C 1166.350 1029.735, 1152.303 1031.426, 1136.550 1025.381 C 1135.712 1025.059, 1139.421 1031.930, 1144.792 1040.648 C 1150.163 1049.367, 1156.720 1060.205, 1159.364 1064.732 C 1162.007 1069.260, 1165.474 1074.063, 1167.069 1075.405 C 1175.098 1082.161, 1193.643 1085.027, 1204 1081.113 C 1216.671 1076.325, 1233.980 1063.807, 1237.594 1056.819 C 1239.330 1053.461, 1238.284 1045.383, 1235.387 1039.782 C 1233.424 1035.985, 1204.163 992, 1203.600 992 C 1203.393 992, 1202.940 993.506, 1202.595 995.347 M 2085 1024.980 C 2085 1026.523, 2091.313 1029.324, 2107.500 1034.962 C 2145.862 1048.324, 2177.397 1062.627, 2213.500 1083.039 C 2258.222 1108.324, 2284.309 1128.102, 2318.915 1162.959 C 2329.011 1173.128, 2336.513 1179.956, 2336.764 1179.205 C 2337.766 1176.206, 2308.316 1141.071, 2291.430 1125.120 C 2267.541 1102.554, 2246.043 1087.810, 2206 1066.530 C 2176.550 1050.879, 2153.019 1041.159, 2124 1032.657 C 2095.877 1024.418, 2085 1022.276, 2085 1024.980 M 1244.053 1061.607 C 1239.119 1070.907, 1220.253 1084.874, 1206.113 1089.694 C 1198.247 1092.376, 1186.771 1092.738, 1179.456 1090.537 C 1176.781 1089.732, 1174.458 1089.208, 1174.293 1089.374 C 1173.460 1090.206, 1199.582 1135.220, 1203.502 1139.708 C 1209.988 1147.133, 1220.786 1152.399, 1229.318 1152.299 C 1232.823 1152.258, 1238.008 1151.337, 1241.293 1150.174 C 1252.840 1146.082, 1276.272 1130.531, 1280.015 1124.475 C 1281.885 1121.450, 1282.004 1120.472, 1281.098 1115.571 C 1280.266 1111.070, 1277.136 1105.363, 1263.938 1084.283 C 1255.061 1070.102, 1247.497 1058.177, 1247.130 1057.782 C 1246.763 1057.386, 1245.378 1059.108, 1244.053 1061.607 M 2562 1082.628 C 2524.014 1084.840, 2485.583 1091.569, 2456.500 1101.101 C 2429.668 1109.895, 2409.399 1121.330, 2386.425 1140.631 C 2379.964 1146.059, 2373.513 1151.472, 2372.089 1152.660 C 2367.898 1156.158, 2370.636 1156.649, 2375.263 1153.230 C 2389.221 1142.919, 2410.479 1129.414, 2420.216 1124.673 C 2443.984 1113.100, 2475.083 1104.516, 2513.254 1098.993 C 2594.873 1087.182, 2659.611 1096.057, 2722.143 1127.629 C 2760.052 1146.769, 2795.857 1176.947, 2802.181 1195.090 C 2803.685 1199.403, 2801.252 1202.551, 2794.976 1204.415 C 2781.752 1208.342, 2675.039 1211.463, 2665.812 1208.193 C 2660.164 1206.191, 2656.957 1203.151, 2654.403 1197.377 C 2651.860 1191.627, 2649.606 1189.818, 2646.465 1191.006 C 2641.704 1192.808, 2641.508 1194.249, 2644.420 1206.035 C 2647.852 1219.931, 2647.661 1221.789, 2642.500 1224.724 C 2635.932 1228.459, 2618.366 1233.680, 2604.500 1236.020 C 2582.373 1239.754, 2563.353 1237.761, 2555.524 1230.887 C 2549.982 1226.021, 2548.108 1221.949, 2544.935 1207.878 C 2543.290 1200.581, 2541.731 1194.398, 2541.472 1194.139 C 2539.994 1192.661, 2539.505 1196.777, 2539.545 1210.338 C 2539.580 1222.175, 2539.952 1226.320, 2541.240 1229.240 L 2542.890 1232.980 2538.435 1235.591 C 2528.111 1241.641, 2518.698 1242.265, 2487.500 1238.965 C 2446.701 1234.649, 2435.006 1235.269, 2414.851 1242.819 C 2400.850 1248.063, 2400.657 1249.540, 2414.121 1248.388 C 2427.069 1247.280, 2457.020 1247.505, 2467 1248.784 C 2480.511 1250.517, 2526.891 1270.856, 2556.849 1288.187 C 2614.785 1321.701, 2664.643 1365.099, 2667.560 1384.551 C 2668.439 1390.412, 2666.970 1392.502, 2660.254 1394.952 C 2651.919 1397.993, 2650.350 1398.937, 2649.110 1401.658 C 2648.239 1403.570, 2648.338 1404.753, 2649.570 1407.135 C 2651.635 1411.130, 2657.205 1413.507, 2678.500 1419.486 C 2707.643 1427.668, 2716.217 1431.590, 2723.037 1439.858 C 2729.191 1447.319, 2730.903 1455.131, 2734.028 1490 C 2736.693 1519.734, 2736.778 1532.745, 2734.339 1537.735 C 2732.643 1541.208, 2732.189 1541.488, 2728.500 1541.350 C 2726.300 1541.268, 2722.428 1540.879, 2719.896 1540.487 C 2709.741 1538.912, 2707.790 1545.105, 2715.586 1554.168 C 2734.318 1575.944, 2737.975 1618.669, 2726.044 1676.339 C 2719.873 1706.168, 2710.544 1731.632, 2704.284 1735.733 C 2699.174 1739.081, 2690.559 1733.927, 2667.939 1713.987 C 2640.228 1689.560, 2634.361 1684.614, 2622.924 1676.034 C 2616.557 1671.258, 2604.857 1663.391, 2596.924 1658.553 C 2572.266 1643.513, 2565.605 1638.027, 2560.969 1628.939 C 2557.012 1621.184, 2556.073 1612.941, 2554.990 1576.500 C 2554.418 1557.250, 2553.708 1539.588, 2553.414 1537.250 C 2552.860 1532.862, 2551.535 1531.683, 2550.603 1534.750 C 2549.868 1537.168, 2546.198 1566.690, 2545.382 1576.750 L 2544.712 1585 2535.606 1585.250 C 2513.160 1585.866, 2508.199 1584.704, 2502.197 1577.423 C 2497.204 1571.366, 2496.469 1566.859, 2496.770 1544.181 C 2497.074 1521.305, 2496.407 1517.207, 2491.600 1512.400 C 2486.482 1507.282, 2481.950 1506.527, 2464.500 1507.886 C 2443.322 1509.536, 2434.230 1508.197, 2420.929 1501.469 C 2400.764 1491.270, 2387 1475.868, 2387 1463.504 C 2387 1455.579, 2390.366 1451.296, 2403.500 1442.507 C 2415.010 1434.805, 2424.699 1425.939, 2423.581 1424.132 C 2422.716 1422.731, 2399.369 1430.851, 2393.141 1434.719 L 2388.500 1437.601 2388.468 1424.551 C 2388.430 1408.778, 2386.420 1400.508, 2378.979 1385.500 C 2370.776 1368.955, 2356.526 1352.120, 2342 1341.811 C 2334.942 1336.802, 2312.062 1324, 2310.168 1324 C 2307.259 1324, 2309.765 1326.420, 2319.628 1333.134 C 2340.556 1347.379, 2358.283 1367.479, 2368.458 1388.500 C 2376.721 1405.570, 2377.508 1409.293, 2377.451 1431 C 2377.413 1445.544, 2377.009 1451.054, 2375.562 1456.767 C 2373.830 1463.606, 2373.817 1464.423, 2375.343 1470.608 C 2377.493 1479.319, 2382.375 1487.110, 2390.684 1495.091 C 2411.382 1514.971, 2433.741 1522.886, 2461.500 1520.161 C 2477.552 1518.586, 2480.375 1518.673, 2483.037 1520.829 C 2485.256 1522.626, 2485.292 1522.998, 2485.103 1542.457 C 2484.990 1554.202, 2485.378 1564.544, 2486.057 1567.879 C 2488.453 1579.638, 2495.837 1589.370, 2505.500 1593.503 C 2511.136 1595.913, 2525.636 1596.524, 2535.606 1594.770 L 2543.712 1593.344 2544.310 1604.422 C 2545.050 1618.157, 2546.406 1624.797, 2550.044 1632.500 C 2556.126 1645.379, 2562.626 1651.243, 2588.764 1667.433 C 2614.086 1683.118, 2622.477 1689.591, 2657.500 1720.455 C 2690.626 1749.648, 2702.659 1753.975, 2714.441 1740.933 C 2718.886 1736.013, 2721.948 1729.938, 2726.334 1717.339 C 2737.232 1686.028, 2743.996 1647.349, 2743.999 1616.322 C 2744.001 1592.368, 2740.898 1576.548, 2733.108 1560.797 L 2729.298 1553.094 2731.939 1552.513 C 2743.370 1550.003, 2747.846 1537.609, 2745.985 1513.614 C 2743.510 1481.701, 2741.705 1462.694, 2740.472 1455.573 C 2737.638 1439.200, 2728.620 1427.261, 2713.591 1419.987 C 2706.323 1416.470, 2699.063 1414.234, 2671.116 1406.907 L 2662.732 1404.709 2666.579 1402.838 C 2674.853 1398.813, 2679.019 1391.390, 2677.550 1383.290 C 2674.500 1366.472, 2656.139 1346.136, 2618 1317.334 C 2583.546 1291.314, 2548.542 1271.219, 2513 1257.054 L 2500.500 1252.072 2510.701 1252.036 C 2526.716 1251.979, 2536.232 1249.125, 2544.444 1241.915 L 2547.963 1238.826 2550.564 1240.872 C 2554.745 1244.160, 2563.430 1246.933, 2573.559 1248.212 C 2584.635 1249.611, 2598.197 1248.438, 2615.704 1244.566 C 2643.363 1238.448, 2657 1230.619, 2657 1220.858 C 2657 1217.728, 2657.333 1216.914, 2658.437 1217.338 C 2666.777 1220.538, 2681.977 1221.198, 2713 1219.707 C 2722.075 1219.271, 2741.200 1218.493, 2755.500 1217.978 C 2794.486 1216.575, 2804.721 1214.293, 2810.361 1205.743 C 2812.793 1202.057, 2813.093 1200.807, 2812.649 1196.220 C 2810.964 1178.802, 2782.138 1149.898, 2742.777 1126.159 C 2731.560 1119.394, 2706.192 1107.178, 2694 1102.669 C 2669.642 1093.663, 2643.407 1087.420, 2618 1084.586 C 2604.071 1083.032, 2573.446 1081.961, 2562 1082.628 M 1289 1126.719 C 1289 1129.070, 1278.634 1139.031, 1270.249 1144.737 C 1250.366 1158.268, 1239.893 1162.443, 1227.500 1161.780 C 1222.572 1161.516, 1218.216 1160.680, 1216.157 1159.602 C 1214.318 1158.640, 1212.607 1158.060, 1212.354 1158.313 C 1212.100 1158.566, 1216.420 1167.385, 1221.953 1177.911 C 1227.486 1188.437, 1235.876 1204.764, 1240.597 1214.193 C 1250.329 1233.633, 1255.840 1240.504, 1266.071 1245.957 C 1274.296 1250.341, 1280.700 1250.893, 1290.120 1248.032 C 1307.808 1242.660, 1332.103 1226.785, 1335.657 1218.278 C 1337.715 1213.353, 1335.216 1202.685, 1329.874 1193.594 C 1313.151 1165.132, 1290.603 1127.336, 1289.877 1126.550 C 1289.331 1125.958, 1289 1126.022, 1289 1126.719 M 2601.500 1144.673 C 2579.624 1145.748, 2549.002 1149.514, 2525.500 1154.021 C 2499.478 1159.011, 2473.511 1166.415, 2436.842 1179.301 C 2418.737 1185.662, 2415.348 1187.154, 2415.903 1188.513 C 2416.483 1189.931, 2418.248 1189.544, 2441 1183.007 C 2497.135 1166.877, 2521.959 1162.417, 2595 1155.339 C 2621.012 1152.818, 2660.135 1153.035, 2683.913 1155.833 C 2704.299 1158.232, 2707 1158.387, 2707 1157.158 C 2707 1156.010, 2701.841 1154.608, 2686.500 1151.588 C 2654.900 1145.367, 2629.476 1143.298, 2601.500 1144.673 M 1342.650 1225.334 C 1341.254 1227.717, 1338.241 1231.356, 1335.956 1233.421 C 1327.090 1241.431, 1306.149 1253.483, 1294 1257.569 C 1285.695 1260.361, 1274.125 1260.071, 1266.399 1256.876 L 1260.299 1254.353 1267.244 1268.927 C 1271.063 1276.942, 1277.370 1290.475, 1281.259 1299 C 1292.371 1323.360, 1298.832 1331.318, 1311.673 1336.459 C 1320.476 1339.983, 1328.735 1340.686, 1337.002 1338.615 C 1348.592 1335.712, 1383.413 1316.710, 1389.181 1310.141 C 1391.483 1307.519, 1392.008 1306.169, 1391.506 1304.168 C 1391.149 1302.745, 1387.009 1294.588, 1382.306 1286.041 C 1369.995 1263.666, 1345.845 1221, 1345.491 1221 C 1345.326 1221, 1344.047 1222.950, 1342.650 1225.334 M 2176.117 1254.051 C 2124.352 1257.024, 2067.084 1270.476, 2010 1293.071 C 1977.525 1305.926, 1907.116 1345.143, 1909.522 1349.036 C 1910.730 1350.991, 1914.017 1349.804, 1932.060 1340.897 C 1976.569 1318.925, 2002.056 1308.238, 2040.500 1295.425 C 2095.233 1277.183, 2155.131 1264.427, 2214 1258.477 C 2231.674 1256.690, 2233.677 1256.277, 2232.138 1254.738 C 2230.813 1253.413, 2194.895 1252.973, 2176.117 1254.051 M 2398.463 1299.060 C 2398.143 1299.577, 2398.128 1300.398, 2398.428 1300.884 C 2398.729 1301.370, 2408.768 1308.425, 2420.737 1316.562 C 2474.685 1353.236, 2507.048 1379.276, 2542.352 1414.417 C 2591.736 1463.573, 2611.973 1495.680, 2651.727 1587.943 C 2654.439 1594.236, 2657.204 1599.568, 2657.872 1599.791 C 2659.616 1600.372, 2658.805 1597.534, 2650.502 1574 C 2630.826 1518.225, 2613.372 1481.901, 2593.753 1455.897 C 2554.486 1403.850, 2499.084 1356.801, 2424 1311.738 C 2405.163 1300.433, 2399.387 1297.565, 2398.463 1299.060 M 1392.910 1320.290 C 1384.636 1327.880, 1355.131 1344.316, 1343 1348.093 C 1330.567 1351.965, 1314.999 1350.327, 1304.317 1344.025 C 1302.493 1342.948, 1301 1342.269, 1301 1342.515 C 1301 1342.762, 1305.319 1353.209, 1310.597 1365.732 C 1315.876 1378.254, 1321.974 1392.954, 1324.149 1398.399 C 1326.323 1403.843, 1328.741 1409.533, 1329.522 1411.043 C 1331.926 1415.692, 1337.189 1420.192, 1343.993 1423.416 C 1349.595 1426.071, 1351.625 1426.500, 1358.594 1426.500 C 1366.228 1426.500, 1367.225 1426.233, 1376.157 1421.799 C 1388.805 1415.521, 1414.293 1398.439, 1420.441 1392.121 L 1425.382 1387.044 1425.810 1378.091 L 1426.238 1369.138 1414.697 1346.819 C 1400.917 1320.172, 1398.657 1316.007, 1398 1316.048 C 1397.725 1316.065, 1395.435 1317.974, 1392.910 1320.290 M 2294.305 1361.250 C 2282.021 1384.886, 2270.820 1419.653, 2268.046 1442.757 C 2265.966 1460.074, 2271.413 1470.985, 2282.143 1470.996 C 2284.540 1470.999, 2285.994 1471.541, 2286.393 1472.582 C 2287.568 1475.645, 2286.982 1495.063, 2285.391 1505.720 C 2283.342 1519.452, 2283.882 1529.455, 2286.938 1534.400 C 2289.723 1538.906, 2294.018 1541.232, 2298.834 1540.842 L 2302.500 1540.545 2302.293 1547.523 C 2302.179 1551.360, 2300.717 1561.208, 2299.043 1569.406 C 2294.161 1593.320, 2295.060 1604.628, 2302.190 1608.974 C 2306.747 1611.753, 2310.240 1611.515, 2317.263 1607.946 C 2320.569 1606.266, 2323.887 1605.127, 2324.637 1605.414 C 2327.050 1606.340, 2326.204 1620.178, 2322.312 1643.448 C 2319.214 1661.971, 2318.613 1667.981, 2318.562 1681 C 2318.493 1698.380, 2319.488 1702.071, 2325.373 1706.270 C 2329.489 1709.206, 2336.916 1709.176, 2342.667 1706.200 C 2360.564 1696.940, 2396.140 1652.407, 2416.338 1613.980 C 2427.428 1592.881, 2433.736 1573.879, 2439.986 1542.748 C 2443.152 1526.976, 2443.579 1523, 2442.107 1523 C 2441.025 1523, 2441.052 1522.934, 2434.807 1541 C 2422.976 1575.223, 2408.003 1608.288, 2394.960 1629 C 2375.742 1659.514, 2349.273 1690.301, 2337.253 1696.119 C 2332.910 1698.222, 2332.649 1698.240, 2331.395 1696.525 C 2327.809 1691.621, 2328.345 1679.951, 2333.648 1647.500 C 2337.897 1621.498, 2338.527 1606.706, 2335.637 1600.809 C 2331.788 1592.955, 2323.975 1591.566, 2314.316 1597.017 C 2311.345 1598.694, 2308.484 1599.799, 2307.957 1599.474 C 2306.141 1598.351, 2307.010 1585.450, 2310.001 1569.158 C 2314.495 1544.671, 2313.850 1534.569, 2307.529 1530.427 C 2305.305 1528.970, 2304.310 1528.878, 2301.195 1529.842 C 2298.034 1530.820, 2297.319 1530.742, 2296.250 1529.302 C 2294.544 1527.003, 2294.676 1516.844, 2296.598 1502.458 C 2299.166 1483.254, 2297.267 1467.085, 2291.916 1462.583 C 2289.473 1460.527, 2288.548 1460.314, 2285.288 1461.055 C 2275.692 1463.238, 2274.985 1452.645, 2282.328 1416.694 C 2285.572 1400.809, 2288.676 1388.972, 2292.553 1377.694 C 2295.615 1368.787, 2298.369 1360.263, 2298.674 1358.750 C 2299.583 1354.230, 2297.264 1355.557, 2294.305 1361.250 M 1433.641 1388.716 C 1432.485 1395.706, 1423.515 1404.691, 1405.500 1416.906 C 1374.163 1438.154, 1359.149 1442.078, 1341.915 1433.524 L 1337.331 1431.249 1343.522 1447.374 C 1346.928 1456.243, 1352.547 1471.150, 1356.010 1480.500 C 1359.473 1489.850, 1363.537 1499.308, 1365.041 1501.517 C 1369.413 1507.939, 1376.997 1515.946, 1380.380 1517.710 C 1388.453 1521.921, 1418.012 1517.067, 1440.325 1507.866 C 1454.199 1502.145, 1462.024 1495.509, 1466.697 1485.500 C 1469.258 1480.015, 1469.498 1478.513, 1469.489 1468 L 1469.479 1456.500 1452.157 1421 C 1442.629 1401.475, 1434.706 1385.373, 1434.550 1385.217 C 1434.394 1385.061, 1433.985 1386.636, 1433.641 1388.716 M 2205.753 1419.250 C 2167.827 1458.966, 2148.316 1481.982, 2122.463 1517.500 C 2047.512 1620.471, 1982.538 1744.720, 1923.747 1897.500 C 1877.377 2018.002, 1839.128 2141.676, 1821.482 2228.163 C 1813.203 2268.740, 1803.723 2334.123, 1805.816 2336.216 C 1806.427 2336.827, 1806.991 2336.824, 1807.371 2336.209 C 1807.699 2335.678, 1810.230 2324.951, 1812.995 2312.372 C 1815.761 2299.792, 1818.157 2289.084, 1818.320 2288.576 C 1818.483 2288.067, 1819.644 2289.642, 1820.901 2292.076 C 1822.157 2294.509, 1824.156 2297.566, 1825.343 2298.870 C 1833.230 2307.533, 1851.270 2312.775, 1880.983 2315.036 C 1901.275 2316.580, 1916.342 2314.453, 1924.066 2308.953 C 1925.680 2307.804, 1927 2307.292, 1927 2307.816 C 1927 2308.339, 1926.112 2315.682, 1925.026 2324.134 C 1922.003 2347.663, 1921.985 2347.873, 1923.027 2348.517 C 1923.564 2348.849, 1924.397 2348.081, 1924.877 2346.810 C 1926.359 2342.893, 1935.534 2299.515, 1949.584 2230 C 1965.412 2151.687, 1971.179 2125.333, 1982.512 2079.500 C 2010.414 1966.660, 2045.342 1860.150, 2086.004 1763.908 C 2112.713 1700.689, 2152.670 1620.254, 2198.724 1537 C 2223.304 1492.564, 2238.916 1466.826, 2256.915 1441.068 C 2267.443 1426.003, 2269.770 1420.964, 2263.389 1427.054 C 2258.155 1432.049, 2236.878 1458.749, 2227.094 1472.600 C 2214.535 1490.378, 2214.024 1491.015, 2210.634 1493.081 C 2204.784 1496.649, 2198.198 1494.634, 2189.224 1486.532 C 2180.489 1478.645, 2176.732 1469.571, 2178.438 1460.479 C 2179.138 1456.745, 2192.770 1439.007, 2213.328 1415.078 C 2222.794 1404.059, 2225.024 1401, 2223.590 1401 C 2223.365 1401, 2215.338 1409.213, 2205.753 1419.250 M 2340.364 1413.494 C 2340.022 1414.385, 2342.250 1425.326, 2345.315 1437.807 C 2352.268 1466.116, 2354.830 1479.432, 2359.883 1513.500 C 2364.969 1547.788, 2366.647 1562.457, 2368.026 1584.675 C 2369.302 1605.233, 2369.757 1609, 2370.966 1609 C 2372.326 1609, 2372.857 1604.928, 2374.096 1585 C 2377.133 1536.149, 2368.813 1479.853, 2351.781 1434 C 2344.603 1414.676, 2341.825 1409.686, 2340.364 1413.494 M 2159.378 1483 C 2145.713 1501.505, 2145 1502.572, 2145 1504.514 C 2145 1507.448, 2150.963 1517.568, 2155.232 1521.879 C 2161.658 1528.370, 2168.977 1531.450, 2178 1531.459 C 2182.934 1531.465, 2186.475 1530.933, 2188.349 1529.904 C 2190.157 1528.912, 2193.863 1523.987, 2198.494 1516.420 L 2205.791 1504.500 2201.877 1503.799 C 2195.790 1502.709, 2186.701 1497.349, 2180.489 1491.186 C 2174.040 1484.788, 2172.119 1481.580, 2170.494 1474.500 L 2169.347 1469.500 2159.378 1483 M 1478.069 1483.149 C 1472.814 1504.656, 1455.189 1517.185, 1417 1526.558 C 1407.761 1528.826, 1403.141 1529.393, 1393.500 1529.441 C 1382.277 1529.496, 1381.192 1529.326, 1376.750 1526.820 C 1374.138 1525.347, 1372 1524.222, 1372.001 1524.320 C 1372.001 1524.419, 1376.731 1538.225, 1382.512 1555 C 1396.018 1594.193, 1398.108 1597.396, 1415.500 1605.545 C 1432.711 1613.610, 1446.389 1612.179, 1479.977 1598.801 C 1497.693 1591.745, 1510.305 1585.312, 1514.100 1581.396 C 1516.859 1578.550, 1517.435 1577.121, 1517.784 1572.261 C 1518.177 1566.779, 1517.714 1565.384, 1508.237 1543.500 C 1498.151 1520.210, 1480.082 1479.793, 1479.467 1479.149 C 1479.282 1478.956, 1478.653 1480.756, 1478.069 1483.149 M 2123.116 1534.556 C 2114.802 1546.939, 2108 1557.460, 2108 1557.936 C 2108 1558.412, 2110.053 1561.533, 2112.562 1564.870 C 2121.594 1576.886, 2130.917 1582.964, 2143.663 1585.148 C 2151.332 1586.461, 2157.354 1585.725, 2159.645 1583.194 C 2161.292 1581.375, 2184.157 1540.809, 2183.746 1540.435 C 2183.611 1540.312, 2181.700 1540.519, 2179.500 1540.895 C 2165.554 1543.278, 2148.488 1533.349, 2141.471 1518.771 L 2138.232 1512.041 2123.116 1534.556 M 2091.107 1583.687 C 2078.136 1604.343, 2078.004 1604.915, 2083.695 1615.978 C 2090.589 1629.379, 2100.045 1636.040, 2113.295 1636.827 C 2119.308 1637.184, 2120.803 1636.879, 2126.304 1634.171 C 2129.722 1632.488, 2133.687 1629.849, 2135.115 1628.306 C 2136.543 1626.763, 2141.177 1618.862, 2145.413 1610.750 L 2153.114 1596 2148.267 1596 C 2131.807 1596, 2112.074 1584.374, 2105.794 1570.977 C 2104.532 1568.285, 2103.211 1566.064, 2102.857 1566.041 C 2102.503 1566.018, 2097.216 1573.959, 2091.107 1583.687 M 1522.687 1585.953 C 1518.750 1592.618, 1494.871 1604.912, 1467.166 1614.539 C 1439.937 1623.999, 1421.934 1622.995, 1404.568 1611.047 L 1400.232 1608.063 1403.126 1617.063 C 1404.718 1622.013, 1409.381 1636.906, 1413.488 1650.159 C 1418.409 1666.038, 1422.028 1675.926, 1424.098 1679.153 C 1431.368 1690.481, 1448.900 1701.948, 1464.500 1705.578 C 1478.784 1708.901, 1501.810 1706.133, 1532.432 1697.412 C 1546.583 1693.382, 1554.968 1689.434, 1556.717 1685.977 C 1557.450 1684.529, 1557.977 1679.642, 1557.985 1674.216 C 1557.999 1665.260, 1557.791 1664.392, 1552.109 1649.716 C 1543.691 1627.972, 1525.961 1584.635, 1525.126 1583.760 C 1524.738 1583.353, 1523.640 1584.340, 1522.687 1585.953 M 2063.830 1628.694 C 2059.078 1636.837, 2052.124 1648.900, 2048.377 1655.500 L 2041.564 1667.500 2041.644 1675.500 C 2041.757 1686.763, 2044.112 1692.538, 2050.285 1696.683 C 2060.634 1703.632, 2075.225 1707.162, 2084.779 1705.027 C 2089.960 1703.870, 2091.262 1702.982, 2098.575 1695.624 C 2106.425 1687.727, 2106.949 1686.889, 2117.325 1665.620 C 2123.196 1653.585, 2128 1643.621, 2128 1643.477 C 2128 1643.333, 2126.330 1644.067, 2124.289 1645.108 C 2116.615 1649.020, 2101.413 1646.682, 2090.977 1639.985 C 2083.026 1634.883, 2078.048 1628.156, 2073.372 1616.194 C 2072.569 1614.138, 2071.535 1615.492, 2063.830 1628.694 M 2023.485 1702 L 2014.500 1719.500 2014.530 1731 C 2014.556 1741.052, 2014.860 1743.112, 2016.942 1747.361 C 2021.715 1757.099, 2031.538 1761.500, 2048.500 1761.500 C 2061.566 1761.500, 2065.466 1760.022, 2074.283 1751.727 C 2079.278 1747.029, 2080.556 1744.880, 2086.920 1730.484 C 2090.814 1721.675, 2094 1714.181, 2094 1713.832 C 2094 1713.482, 2091.903 1713.827, 2089.341 1714.598 C 2070.264 1720.339, 2039.431 1708.261, 2034.615 1693.161 C 2033.797 1690.597, 2032.980 1687.600, 2032.799 1686.500 C 2032.590 1685.228, 2029.201 1690.868, 2023.485 1702 M 1565.145 1690.476 C 1562.170 1698.704, 1549.845 1704.617, 1520.500 1711.896 C 1492.741 1718.781, 1474.493 1720.255, 1461 1716.702 C 1452.878 1714.563, 1440.094 1708.296, 1433.423 1703.183 L 1428.346 1699.292 1433.695 1717.896 C 1436.637 1728.128, 1442.673 1749.775, 1447.109 1766 C 1455.389 1796.282, 1457.570 1801.768, 1463.230 1806.553 C 1473.295 1815.059, 1496.077 1818.595, 1514.851 1814.563 C 1530.650 1811.171, 1576.723 1794.700, 1588.488 1788.239 C 1594.033 1785.194, 1595.825 1782.343, 1596.638 1775.271 C 1597.115 1771.126, 1596.268 1767.942, 1590.188 1751 C 1582.128 1728.546, 1567.025 1687.692, 1566.643 1687.309 C 1566.500 1687.167, 1565.826 1688.592, 1565.145 1690.476 M 1995.622 1758.905 C 1985.571 1780.700, 1985.503 1781.212, 1991.098 1793.043 C 1995.365 1802.066, 1999.861 1807.114, 2007.035 1810.938 C 2015.192 1815.286, 2021.860 1816.974, 2030.934 1816.988 C 2040.186 1817.003, 2044.608 1815.032, 2051.600 1807.779 C 2056.075 1803.137, 2057.486 1800.508, 2063.288 1786 C 2066.917 1776.925, 2070.174 1768.742, 2070.525 1767.816 C 2071.103 1766.291, 2070.822 1766.306, 2067.530 1767.984 C 2054.730 1774.510, 2031.316 1772.371, 2018.434 1763.499 C 2012.088 1759.128, 2008.755 1754.321, 2006.306 1746.006 L 2004.461 1739.739 1995.622 1758.905 M 1598.390 1793.486 C 1593.664 1798.289, 1583.316 1803.118, 1555.662 1813.426 C 1516.831 1827.899, 1499.223 1830.511, 1478.191 1824.917 C 1474.171 1823.848, 1468.619 1821.827, 1465.854 1820.426 C 1461.424 1818.181, 1460.894 1818.094, 1461.391 1819.689 C 1462.882 1824.474, 1472.638 1863.416, 1478.504 1888 C 1485.210 1916.103, 1488.262 1924.706, 1494.995 1934.493 C 1499.439 1940.952, 1502.756 1942.387, 1513 1942.282 C 1523.062 1942.178, 1539.723 1938.095, 1567.379 1928.955 C 1591.888 1920.855, 1600.560 1916.512, 1608.895 1908.162 C 1619.706 1897.333, 1628 1878.866, 1628 1865.626 C 1628 1861.462, 1604.384 1788.846, 1603.130 1789.155 C 1602.783 1789.240, 1600.651 1791.189, 1598.390 1793.486 M 1978.777 1796 C 1977.958 1797.925, 1974.725 1805.490, 1971.592 1812.812 C 1965.273 1827.578, 1965.179 1828.679, 1969.128 1841.610 C 1972.191 1851.640, 1981.733 1859.260, 1998.699 1865.224 C 2005.719 1867.691, 2009.220 1868.336, 2016 1868.409 C 2023.557 1868.490, 2025.017 1868.196, 2029.164 1865.758 C 2032.744 1863.654, 2034.191 1862.026, 2035.389 1858.758 C 2036.248 1856.416, 2039.439 1847.790, 2042.481 1839.590 C 2045.523 1831.389, 2047.854 1824.521, 2047.660 1824.326 C 2047.466 1824.132, 2045.550 1824.727, 2043.404 1825.647 C 2040.663 1826.821, 2036.669 1827.318, 2030 1827.314 C 2014.347 1827.305, 1999.424 1820.969, 1990.093 1810.368 C 1986.600 1806.400, 1984.819 1803.279, 1981.322 1795 L 1980.266 1792.500 1978.777 1796 M 1950.259 1864.122 C 1945.808 1875.330, 1941.454 1887.739, 1940.583 1891.697 C 1937.680 1904.894, 1938.957 1917.975, 1943.655 1923.174 C 1949.278 1929.397, 1966.844 1934.292, 1984 1934.416 C 1994.725 1934.494, 1995.871 1934.310, 2001 1931.686 C 2012.407 1925.848, 2012.941 1925.018, 2021.033 1900.500 C 2025.027 1888.400, 2028.478 1877.999, 2028.702 1877.387 C 2028.944 1876.724, 2026.763 1877.072, 2023.304 1878.249 C 2015.969 1880.745, 2006.827 1880.161, 1995.475 1876.472 C 1976.157 1870.195, 1963.079 1859.757, 1959.548 1847.798 L 1958.351 1843.744 1950.259 1864.122 M 1632.636 1889.393 C 1628.770 1902.954, 1617.916 1917.716, 1606.521 1924.913 C 1595.464 1931.895, 1571.214 1940.709, 1541 1948.725 C 1529.136 1951.873, 1525.982 1952.319, 1514.972 1952.404 C 1503.347 1952.493, 1502.083 1952.313, 1497.438 1949.910 L 1492.431 1947.320 1499.170 1978.126 C 1506.187 2010.203, 1510.248 2024.265, 1514.394 2030.832 C 1522.692 2043.978, 1537.709 2048.409, 1560.619 2044.475 C 1572.073 2042.508, 1637.060 2026.703, 1647.500 2023.345 C 1657.064 2020.269, 1663.433 2016.795, 1665.618 2013.461 C 1666.619 2011.932, 1667.403 2007.919, 1667.708 2002.757 C 1668.174 1994.856, 1667.907 1993.507, 1661.524 1971.500 C 1654.300 1946.595, 1642.743 1908.407, 1637.669 1892.677 L 1634.500 1882.854 1632.636 1889.393 M 1929.253 1917.576 C 1928.667 1919.184, 1924.311 1931.017, 1919.572 1943.871 C 1910.202 1969.283, 1910.243 1969.011, 1914.132 1979.551 C 1917.648 1989.084, 1925.192 1993.835, 1944.501 1998.676 C 1953.708 2000.985, 1957.676 2001.440, 1968.851 2001.467 L 1982.203 2001.500 1987.782 1995.500 L 1993.362 1989.500 2001.017 1964 C 2005.228 1949.975, 2008.524 1938.315, 2008.343 1938.089 C 2008.161 1937.864, 2007.200 1938.414, 2006.206 1939.313 C 1998.631 1946.169, 1971.390 1946.075, 1951.617 1939.126 C 1940.462 1935.205, 1933.878 1928.674, 1931.453 1919.125 L 1930.317 1914.651 1929.253 1917.576 M 1898.082 2004.531 L 1890.770 2026.200 1891.230 2038.850 C 1891.591 2048.757, 1892.174 2052.749, 1893.921 2057.262 C 1896.588 2064.149, 1903.244 2071.292, 1910.733 2075.303 C 1918.446 2079.435, 1933.635 2083.005, 1943.378 2082.976 C 1955.960 2082.939, 1958.700 2081.982, 1964.758 2075.509 C 1971.517 2068.286, 1973.003 2065.167, 1976.916 2050 C 1980.051 2037.845, 1986.533 2013.523, 1987.706 2009.508 C 1988.176 2007.902, 1988.018 2007.734, 1986.894 2008.641 C 1982.762 2011.976, 1968.483 2012.806, 1954.500 2010.522 C 1927.306 2006.082, 1913.805 1999.412, 1907.701 1987.402 L 1905.394 1982.861 1898.082 2004.531 M 1672.051 2021.280 C 1665.663 2029.149, 1656.745 2032.390, 1608.500 2044.378 C 1563.443 2055.573, 1559.512 2056.334, 1546.500 2056.384 C 1533.579 2056.433, 1526.771 2054.730, 1519.003 2049.502 C 1516.141 2047.576, 1513.677 2046, 1513.529 2046 C 1513.380 2046, 1514.121 2050.162, 1515.175 2055.250 C 1516.229 2060.338, 1519.287 2076.488, 1521.971 2091.140 C 1528.214 2125.221, 1532.256 2135.479, 1544.357 2147.954 C 1554.273 2158.176, 1565.747 2163.153, 1583.946 2165.127 C 1597.124 2166.556, 1612.610 2165.383, 1638.822 2160.970 C 1669.628 2155.783, 1687.907 2149.882, 1694.508 2142.991 C 1698.043 2139.301, 1699.964 2131.049, 1699.984 2119.466 C 1699.999 2111.256, 1699.220 2107.520, 1691.441 2078.466 C 1681.827 2042.559, 1675.264 2018.906, 1674.806 2018.521 C 1674.638 2018.380, 1673.398 2019.621, 1672.051 2021.280 M 1872.169 2083.826 C 1867.126 2100.230, 1863.004 2114.967, 1863.010 2116.576 C 1863.027 2121.613, 1867.460 2129.591, 1872.176 2133.071 C 1881.580 2140.009, 1900.643 2146.654, 1914 2147.650 C 1932.448 2149.027, 1950.065 2139.989, 1957.327 2125.423 C 1959.528 2121.008, 1967.535 2090.202, 1966.699 2089.366 C 1966.530 2089.196, 1964.405 2090.040, 1961.979 2091.241 C 1958.359 2093.031, 1955.404 2093.488, 1945.533 2093.785 C 1935.229 2094.094, 1932.128 2093.792, 1923.952 2091.682 C 1918.701 2090.327, 1911.276 2087.712, 1907.452 2085.870 C 1895.556 2080.142, 1885.479 2068.153, 1883.398 2057.250 C 1883.057 2055.463, 1882.454 2054, 1882.058 2054 C 1881.663 2054, 1877.213 2067.422, 1872.169 2083.826 M 1854.570 2143.347 C 1845.636 2175.194, 1844.700 2179.433, 1844.600 2188.500 C 1844.516 2196.015, 1844.882 2198.275, 1846.813 2202.195 C 1849.804 2208.268, 1855.802 2214.217, 1861.757 2217.016 C 1874.119 2222.827, 1920.564 2231.133, 1928.296 2228.915 C 1932.269 2227.776, 1938.693 2221.505, 1939.927 2217.562 C 1940.454 2215.878, 1942.502 2205.725, 1944.478 2195 C 1946.455 2184.275, 1949.528 2168.475, 1951.309 2159.889 L 1954.545 2144.279 1949.481 2148.102 C 1940.038 2155.232, 1928.647 2159, 1916.539 2159 C 1897.623 2159, 1871.088 2148.724, 1861.305 2137.609 L 1857.418 2133.193 1854.570 2143.347 M 1705.328 2143 C 1699.468 2156.067, 1683.050 2163.397, 1644 2170.383 C 1617.707 2175.087, 1605.746 2176.253, 1589.500 2175.696 C 1565.885 2174.887, 1551.828 2169.697, 1538.708 2156.944 C 1532.983 2151.379, 1532 2150.747, 1532.453 2152.921 C 1533.329 2157.130, 1539.639 2199.777, 1542.970 2224 C 1544.672 2236.375, 1547.013 2249.425, 1548.172 2253 C 1554.860 2273.624, 1564.829 2283.719, 1581.786 2287.043 C 1591.325 2288.912, 1618.021 2287.706, 1638 2284.504 C 1709.813 2272.994, 1729.215 2266.848, 1731.944 2254.747 C 1733.495 2247.873, 1728.110 2219.054, 1717.797 2179.035 C 1714.461 2166.091, 1710.745 2151.675, 1709.539 2147 L 1707.346 2138.500 1705.328 2143 M 1837.694 2207.550 C 1836.202 2212.674, 1826.140 2254.983, 1825.577 2258.500 C 1824.774 2263.510, 1826.519 2280.665, 1828.228 2284.574 C 1830.534 2289.848, 1833.219 2293.044, 1837.392 2295.482 C 1846.490 2300.796, 1870.518 2305.002, 1892.462 2305.120 C 1919.336 2305.265, 1923.554 2302.505, 1929.380 2280.967 C 1931.397 2273.509, 1937 2241.222, 1937 2237.056 C 1937 2236.575, 1935.098 2237.100, 1932.773 2238.224 C 1929.112 2239.993, 1927.272 2240.193, 1919.023 2239.720 C 1907.484 2239.058, 1886.903 2235.685, 1874.030 2232.348 C 1856.463 2227.793, 1846.059 2220.944, 1840.706 2210.411 C 1838.723 2206.510, 1838.154 2205.969, 1837.694 2207.550 M 1178.500 2348.618 C 1118 2353.123, 1070.364 2360.927, 1008 2376.549 C 926.346 2397.003, 855.665 2421.540, 777 2456.743 C 739.147 2473.682, 630.009 2527.098, 624.500 2531.381 L 622.500 2532.936 624.500 2532.964 C 625.600 2532.980, 636.625 2528.457, 649 2522.913 C 821.577 2445.607, 901.157 2415.828, 1005.500 2389.511 C 1063.677 2374.839, 1108.646 2367.002, 1164.500 2361.803 C 1183.011 2360.080, 1246.748 2360.088, 1266 2361.815 C 1314.244 2366.145, 1354.212 2374.119, 1402.364 2389.022 C 1426.058 2396.356, 1436.292 2399.971, 1488.201 2419.348 C 1535.320 2436.937, 1554.933 2443.529, 1576.574 2449.050 C 1604.916 2456.281, 1625.113 2458.956, 1651.576 2458.983 C 1671.534 2459.003, 1685.316 2457.790, 1704 2454.371 C 1739.944 2447.792, 1769.144 2438.090, 1828.500 2413.006 C 1862.281 2398.730, 1876.668 2393.183, 1898 2386.205 C 1936.473 2373.620, 1969.108 2368.039, 1996.500 2369.361 C 2026.260 2370.797, 2048.367 2376.693, 2099.967 2396.956 C 2142.113 2413.507, 2167.701 2421.149, 2197 2425.933 C 2235.264 2432.182, 2262.100 2432.301, 2319.219 2426.475 C 2332.574 2425.113, 2351.995 2423.470, 2362.377 2422.823 C 2406.848 2420.054, 2435.458 2427.239, 2469.480 2449.721 C 2488.662 2462.397, 2510.845 2487.492, 2532.487 2521 C 2544.708 2539.921, 2546.158 2542, 2547.136 2542 C 2549.286 2542, 2547.410 2537.346, 2539.663 2523.452 C 2515.408 2479.954, 2494.689 2454.118, 2471.628 2438.615 C 2453.380 2426.348, 2434.662 2418.177, 2414.688 2413.760 C 2405.377 2411.701, 2402.089 2411.515, 2376.500 2411.608 C 2353.854 2411.690, 2343.624 2412.215, 2323 2414.355 C 2268.986 2419.958, 2237.719 2420.129, 2204.641 2415.002 C 2169.508 2409.557, 2155.214 2405.189, 2087.500 2379.212 C 2052.491 2365.782, 2031.269 2360.233, 2006 2357.903 C 1967.810 2354.381, 1921.208 2363.789, 1860.500 2387.276 C 1855.550 2389.191, 1841.150 2395.144, 1828.500 2400.504 C 1758.991 2429.961, 1725.768 2440.289, 1683.824 2445.482 C 1668.048 2447.435, 1638.033 2447.445, 1622.343 2445.502 C 1584.276 2440.790, 1560.087 2433.535, 1474.417 2401.140 C 1391.120 2369.642, 1342.197 2357.263, 1272 2349.923 C 1261.920 2348.869, 1188.829 2347.848, 1178.500 2348.618 M 785.500 2577.618 C 777.018 2579.748, 769.653 2584.284, 755 2596.402 C 728.434 2618.371, 704.603 2631.288, 670.196 2642.367 C 646.163 2650.106, 621.358 2654.808, 592.548 2657.087 C 575.803 2658.412, 520.796 2657.782, 502.500 2656.056 C 452.666 2651.355, 419.957 2641.081, 369.954 2614.421 C 359.203 2608.690, 349.866 2604, 349.204 2604 C 346.338 2604, 348.758 2606.016, 360.750 2613.621 C 415.648 2648.435, 450.683 2661.126, 510 2667.684 C 532.368 2670.156, 594.142 2670.161, 612.381 2667.691 C 662.028 2660.967, 704.051 2646.617, 737.450 2624.981 C 742.443 2621.747, 753.241 2613.704, 761.447 2607.109 C 779.648 2592.481, 784.426 2589.714, 791.490 2589.714 C 797.811 2589.714, 804.171 2592.891, 818 2602.957 C 874.942 2644.405, 908.358 2661.942, 952.500 2673.544 C 995.906 2684.953, 1025.030 2684.444, 1070.036 2671.490 C 1087.307 2666.519, 1142.023 2644.366, 1145.433 2640.964 C 1148.192 2638.213, 1142.579 2639.610, 1117.802 2647.842 C 1044.855 2672.078, 1009.471 2675.568, 960.093 2663.395 C 917.005 2652.773, 882.326 2635.092, 832 2598.086 C 812.292 2583.594, 802.113 2578.164, 793.500 2577.546 C 790.200 2577.309, 786.600 2577.342, 785.500 2577.618 M 2156.665 2623.047 C 2154.006 2623.493, 2148.440 2625.469, 2144.296 2627.437 C 2136 2631.376, 2126.249 2640.451, 2107.974 2661.238 C 2075.058 2698.679, 2024.021 2728.587, 1968.500 2742.970 C 1897.973 2761.241, 1819.558 2751.129, 1753.500 2715.246 C 1740.792 2708.343, 1719.716 2694.404, 1700.500 2680.194 C 1680.560 2665.449, 1676.648 2663.500, 1667 2663.500 C 1659.720 2663.500, 1659.031 2663.724, 1643.500 2671.130 C 1624.626 2680.131, 1613.837 2683.735, 1593.500 2687.835 C 1561.324 2694.322, 1544.213 2695.677, 1515 2694.051 C 1478.817 2692.036, 1462 2691.619, 1462 2692.737 C 1462 2694.378, 1463.767 2694.772, 1485.284 2697.930 C 1544.752 2706.658, 1567.713 2706.552, 1608.960 2697.359 C 1623.586 2694.100, 1631.279 2691.339, 1648 2683.346 C 1655.425 2679.797, 1663.332 2676.642, 1665.571 2676.335 C 1671.058 2675.583, 1674.798 2677.603, 1694.487 2691.954 C 1703.294 2698.373, 1714.550 2706.337, 1719.500 2709.651 C 1762.808 2738.646, 1808.228 2755.819, 1861 2763.152 C 1873.845 2764.937, 1921.325 2764.946, 1934 2763.166 C 1984.210 2756.115, 2026.011 2740.591, 2068.387 2713.259 C 2090.550 2698.963, 2103.152 2687.766, 2124.717 2663.207 C 2145.020 2640.086, 2151.214 2635.998, 2165.928 2636.003 C 2176.700 2636.006, 2187.424 2639.170, 2219.715 2651.872 C 2234.997 2657.882, 2253.350 2664.882, 2260.500 2667.427 C 2267.650 2669.972, 2274.525 2672.488, 2275.777 2673.018 C 2277.030 2673.548, 2287.551 2676.927, 2299.158 2680.526 C 2385.404 2707.268, 2451.447 2716.220, 2523.500 2710.933 C 2587.092 2706.267, 2635.875 2688.305, 2697.750 2646.774 C 2712.271 2637.028, 2715.917 2634, 2713.132 2634 C 2712.655 2634, 2698.143 2641.111, 2680.882 2649.801 C 2623.633 2678.627, 2586.122 2690.888, 2537.500 2696.670 C 2516.127 2699.212, 2455.051 2699.224, 2433.500 2696.691 C 2369.874 2689.212, 2306.795 2672.155, 2227.500 2640.986 C 2194.634 2628.067, 2184.084 2624.562, 2173.500 2623.044 C 2165.562 2621.905, 2163.464 2621.906, 2156.665 2623.047" stroke="none" fill="#040404" fill-rule="evenodd"/></svg>