<svg xmlns="http://www.w3.org/2000/svg" viewBox="0 0 581.1 30.02"><defs><style>.cls-1{fill:#020202;}</style></defs><title>Asset 21</title><g id="Layer_2" data-name="Layer 2"><g id="Layer_1-2" data-name="Layer 1"><path class="cls-1" d="M301.3,13.72c-3.1-.3-8.3-4.7-9.1-7.9a1.22,1.22,0,0,0-.9-.8c-.1-.2-.3-.5-.4-.7-.4-.5-1.4-.6-1.5.2a4.4,4.4,0,0,0-.2,1.6c.6,2.4-.9,4.2-2.3,5.9-2.1,2.6-4.6,1.4-7.3,2a1.32,1.32,0,0,0-.3,2.4,8.86,8.86,0,0,0,3.1,1.1c4.3.6,5.7,3.2,7,6.9.3.8,1.5,1.4,2.2.6,1.3-1.5,1-3.4,2.6-4.9,2.2-2.1,5.2-2.7,7.8-4.2C303,15.32,302.4,13.92,301.3,13.72Zm-7.7,3.7a18.57,18.57,0,0,0-2.9,2.7v.1a7.54,7.54,0,0,0-4.4-4,10.49,10.49,0,0,0,3.3-3,11.05,11.05,0,0,0,2.1-3.8c.9,1.1,1.8,2.2,2.7,3.1a13.91,13.91,0,0,0,3.7,2.8A14.28,14.28,0,0,0,293.6,17.42Zm-27.5-2.1a70.56,70.56,0,0,1-13.8.4c-7.4.7-14.5,2.2-21.8,3a52.57,52.57,0,0,0-16,4.2c.9-.4-7.3,2.6-4.8,4.3a.93.93,0,0,1-.5,1.7c-.5,0-1,.1-1.4.1a1.41,1.41,0,0,1-1.3-1c-1.9-5.9,7.4-9.5,18.4-11.7-34.9.9-70-2.1-104.9-.3-10.2.5-20,0-30.2,0-8.4,0-16.8.9-25.2.9-10.6,0-21.1.1-31.7.2-8.8.1-17.8-.2-26.5-.2a1.59,1.59,0,0,1-.9,1.2,4.13,4.13,0,0,1-2.2.4,6.8,6.8,0,0,1-1.5-.2A2.58,2.58,0,0,1,0,15.92c.1-2.7,4.6-4.6,6.5-2.7a2.47,2.47,0,0,1,.4.9c9.7.1,19.6.2,29.5,0,10.6-.2,21.2.3,31.7-.1,9.2-.3,18.1-.5,27.3-.5,9.4.1,18.6-.5,28-.5,37.1,0,74.5-1.1,111.6.3-4-.8-8-1.6-11.9-2.4-4.5-.9-14.7-3.1-14.2-9.3A1.39,1.39,0,0,1,210,.22c.5-.1.9-.1,1.4-.2a1.16,1.16,0,0,1,.9,2.1c-1.9,1.3,14.1,6.6,14.7,6.7,4.1.6,8.3,1.2,12.4,2.1,9.1,2.1,18.1,1.6,27.2,2.9C267.2,13.92,266.8,15.22,266.1,15.32Zm48.4-.5c9.1-1.3,18.1-.8,27.2-2.9,4.1-.9,8.3-1.5,12.4-2.1.6-.1,16.6-5.4,14.7-6.7a1.16,1.16,0,0,1,.9-2.1c.5.1.9.1,1.4.2a1.39,1.39,0,0,1,1.1,1.4c.5,6.2-9.7,8.4-14.2,9.3-3.9.8-7.9,1.6-11.9,2.4,37.1-1.4,74.5-.3,111.6-.3,9.4,0,18.6.6,28,.5,9.2,0,18.1.2,27.3.5,10.5.4,21.1-.1,31.7.1,9.9.2,19.8.1,29.5,0a2.47,2.47,0,0,1,.4-.9c1.9-1.9,6.4.1,6.5,2.7a2.69,2.69,0,0,1-1.8,2.4,3.89,3.89,0,0,1-1.5.2,5.7,5.7,0,0,1-2.2-.4,1.59,1.59,0,0,1-.9-1.2c-8.7,0-17.7.3-26.5.2-10.6-.1-21.1-.2-31.7-.2-8.4,0-16.8-.9-25.2-.9-10.2,0-20,.5-30.2,0-34.9-1.8-70,1.2-104.9.3,11,2.2,20.3,5.8,18.4,11.7a1.41,1.41,0,0,1-1.3,1c-.4,0-.9-.1-1.4-.1a.93.93,0,0,1-.5-1.7c2.5-1.7-5.7-4.7-4.8-4.3a52.57,52.57,0,0,0-16-4.2c-7.3-.8-14.4-2.3-21.8-3a70.56,70.56,0,0,1-13.8-.4C314.3,16.22,313.9,14.92,314.5,14.82Z"/></g></g></svg>