<?xml version="1.0" encoding="UTF-8"?>
<svg id="Layer_1" data-name="Layer 1" xmlns="http://www.w3.org/2000/svg" viewBox="0 0 889.94 62.39">
  <defs>
    <style>
      .cls-1 {
        fill: #050508;
        stroke-width: 0px;
      }
    </style>
  </defs>
  <path class="cls-1" d="m888.07,25.23h-70.59c12.6-7.21,25.2-14.41,37.8-21.61,2.17-1.24.21-4.59-1.96-3.35-14.3,8.18-28.6,16.36-42.91,24.53-.18.1-.33.26-.47.43h-37.73c5.14-4.73,9.41-10.14,12.88-16.46,1.2-2.19-2.15-4.14-3.35-1.96-3.99,7.26-9.04,13.34-15.43,18.42H123.61c-6.39-5.08-11.44-11.16-15.43-18.42-1.2-2.19-4.55-.23-3.35,1.96,3.47,6.32,7.74,11.74,12.88,16.46h-37.73c-.14-.17-.29-.32-.47-.43C65.22,16.63,50.92,8.45,36.61.27c-2.17-1.24-4.12,2.11-1.96,3.35,12.6,7.21,25.2,14.41,37.8,21.61H1.87c-2.49,0-2.5,3.88,0,3.88h72.29c-7.65,10.17-15.29,20.34-22.94,30.5-1.5,1.99,1.86,3.93,3.35,1.96,8.14-10.82,16.27-21.64,24.41-32.46h42.46c-8.25,6.08-15.01,13.47-20.33,22.36-1.28,2.14,2.07,4.1,3.35,1.96,5.57-9.31,12.69-16.86,21.68-22.93.54-.36.82-.87.9-1.39h635.87c.07.52.36,1.02.9,1.39,9,6.07,16.11,13.62,21.68,22.93,1.28,2.14,4.63.19,3.35-1.96-5.32-8.89-12.08-16.28-20.33-22.36h42.46c8.14,10.82,16.27,21.64,24.41,32.46,1.48,1.97,4.85.04,3.35-1.96-7.65-10.17-15.29-20.34-22.94-30.5h72.29c2.5,0,2.49-3.88,0-3.88Z"/>
</svg>