<svg xmlns="http://www.w3.org/2000/svg" viewBox="0 0 616.75 34.64"><defs><style>.cls-1{fill:#020202;}</style></defs><title>Asset 31</title><g id="Layer_2" data-name="Layer 2"><g id="Layer_1-2" data-name="Layer 1"><path class="cls-1" d="M615.56,15a181.34,181.34,0,0,1-24.9-8.2c-5.8-2.3-13-7.1-19.2-6.8a1.44,1.44,0,0,0-1,2.5c2.8,2.9,6.8,8.5,8.4,13a1.14,1.14,0,0,0-.3.8,53.63,53.63,0,0,0-10.6-1c-.1-.9-.2-1.8-.3-2.6-.3-2-4.9-10.6-6.8-6.7-.3.7,4.1,9.4,4.1,9.4-8.4.3-17,1.7-25.2,1.1-18.7-1.3-37.6.1-56.2-1.8-14.9-1.6-30.1-.3-45.1-2-8.8-1-17.5-1.6-26.3-1.8-4.4-.1-8.7-.1-13.1.1-15.2.6-27.2-16.2-42.2-6-8.4,5.7-12.1,5.5-22,5.5-5.8,0-11.3,0-16.9,1.1a10.1,10.1,0,0,0-3.4-5.9,8.26,8.26,0,0,0-12.4,0,9.89,9.89,0,0,0-3.4,5.9c-5.6-1.2-11.1-1.1-16.9-1.1-9.9,0-13.6.2-22-5.5-15-10.2-27,6.5-42.2,6-4.4-.2-8.7-.2-13.1-.1-8.8.2-17.6.8-26.3,1.8-15,1.6-30.2.4-45.1,2-18.6,2-37.5.5-56.2,1.8-8.3.6-16.8-.8-25.2-1.1.1,0,4.4-8.7,4.1-9.4-1.8-3.9-6.5,4.7-6.8,6.7-.1.9-.2,1.7-.3,2.6a47,47,0,0,0-10.6,1,1.91,1.91,0,0,0-.3-.8c1.6-4.6,5.6-10.1,8.4-13a1.49,1.49,0,0,0-1-2.5c-6.2-.4-13.4,4.5-19.2,6.8A196,196,0,0,1,1.16,15a1.61,1.61,0,0,0,0,3.1c7.2,1.3,14.6,6.5,21.5,9.3,6.7,2.7,13.2,6.5,20.5,7.2a1.64,1.64,0,0,0,1.6-2c-1.1-4.3-4.5-8.9-5.9-13.3,3.3.3,6.6.4,9.9.5a15.52,15.52,0,0,0,.4,2.1c1,3,3.1,9,7.2,8.2a1.34,1.34,0,0,0,.3-2.4,10.24,10.24,0,0,1-4.8-7.8c1.9,0,3.8,0,5.6.1,7.7.2,15.1,1,22.8.1,9.9-1.2,19.5-.9,29.5-.8,8.8.1,17.7-1.1,26.4-1,15.2.2,30-1.3,45.1-1.9,9.9-.4,19.9-.5,29.8-.9,4-.2,8.8-1.2,12.7-.7s6.2,3.2,9.5,5a111,111,0,0,0,11.2,4.8c6.8,2.8,7.4-.5,13.4-3.6,5.5-2.9,13.3-6.7,19.6-7.2,7.1-.6,14.3,1.2,21.4.7-.4,2.9,1.7,5.1,3.5,6.1a15,15,0,0,0,12.2,0c1.8-1,3.9-3.2,3.5-6.1,7.1.5,14.3-1.2,21.4-.7,6.3.5,14.1,4.2,19.6,7.2,6,3.2,6.6,6.5,13.4,3.6,3.7-1.6,7.6-2.9,11.2-4.8,3.3-1.8,5.7-4.4,9.5-5s8.7.5,12.7.7c9.9.4,19.9.6,29.8.9,15.1.5,29.9,2,45.1,1.9,8.7-.1,17.6,1.1,26.4,1,9.9-.1,19.6-.4,29.5.8,7.7.9,15.1.1,22.8-.1,1.8-.1,3.7-.1,5.6-.1a10.52,10.52,0,0,1-4.8,7.8,1.34,1.34,0,0,0,.3,2.4c4,.8,6.2-5.2,7.2-8.2a15.52,15.52,0,0,0,.4-2.1,81,81,0,0,0,9.9-.5c-1.3,4.4-4.8,9-5.9,13.3-.2.9.5,2.2,1.6,2,7.3-.7,13.8-4.5,20.5-7.2,6.9-2.8,14.2-8,21.5-9.3C617.16,17.82,617.06,15.42,615.56,15ZM40.76,31.12c-11.8-2-21.8-10.6-32.9-14.5A196,196,0,0,0,27,9.82c4-1.6,9.8-5.2,14.8-6.4-3.1.8-6.9,11-7,13.9C34.66,22.42,38.76,26.62,40.76,31.12Zm212.6-10.9c-5.8,4.4-11.2-.6-16.6-3.2a59.33,59.33,0,0,1-5.6-2.9c-4.5-2.9-1.7-1.9,2-3.1a62.47,62.47,0,0,0,11.1-5.2c9.4-5.3,15.3,4.6,23.1,7.9C263.16,16.22,257.16,17.32,253.36,20.22Zm55-1.7h0c-3.5-.1-6.3-1.8-6.1-5.9.1-1.5,1.2-3.1,2-4.4a5.5,5.5,0,0,1,.7-.9,8.3,8.3,0,0,1,2.5-1.2c.4-.1.7-.1,1-.2a3.55,3.55,0,0,1,1,.2,8.23,8.23,0,0,1,2.5,1.2c.2.3.5.6.7.9.7,1.2,1.9,2.9,2,4.4.1,4.1-2.7,5.8-6.3,5.9Zm77.3-4.4a59.33,59.33,0,0,1-5.6,2.9c-5.4,2.6-10.8,7.6-16.6,3.2-3.9-2.9-9.8-4-14-6.5,7.8-3.3,13.8-13.1,23.1-7.9a79.84,79.84,0,0,0,11.1,5.2C387.36,12.22,390.16,11.22,385.66,14.12Zm190.4,17c1.9-4.5,6-8.6,6-13.8,0-2.9-3.9-13.1-7-13.9,5,1.2,10.8,4.8,14.8,6.4a196,196,0,0,0,19.1,6.8C597.86,20.52,587.86,29,576.06,31.12Z"/></g></g></svg>