<svg xmlns="http://www.w3.org/2000/svg" viewBox="0 0 596.68 29.58"><defs><style>.cls-1{fill:#020202;}</style></defs><title>Asset 5</title><g id="Layer_2" data-name="Layer 2"><g id="Layer_1-2" data-name="Layer 1"><path class="cls-1" d="M309.19,15.52a4.47,4.47,0,0,0,.1-4.2c-.8-1.5-2.9-1.9-4.4-1.9h-.1a3.63,3.63,0,0,0-3.3-3,4.13,4.13,0,0,0-4,2.2l-.3.6c-.3-.1-.5-.3-.8-.4-1.6-.6-3.9-.4-5,1a6.9,6.9,0,0,0-.9,4.3c-.1.1-.3.1-.5.2-1.7,1-2.2,2.8-2.6,4.5-.3,1.5-.3,3,1.2,3.8a4.71,4.71,0,0,0,3.5.3c-1.2,1.9-1.6,4.2.9,5.5a7.9,7.9,0,0,0,4.3.5,4.27,4.27,0,0,0,2.1-1.1.35.35,0,0,1,.2-.1,2.8,2.8,0,0,0,1.6,1.6,4.4,4.4,0,0,0,4.7-1.3c1.1-1.1.8-2.8.7-4.2v-.7a2.57,2.57,0,0,0,1.5.1c2.1-.5,2.4-2.5,2.2-4.4C310.19,17.52,310.09,16.32,309.19,15.52Zm-4-4a3.09,3.09,0,0,1,2.3.8,2.19,2.19,0,0,1-.2,2.2,5,5,0,0,0-2.7.4h-.1a.72.72,0,0,0-.9.5,4.19,4.19,0,0,0-.9-1.4.1.1,0,0,0,.1-.1,1.27,1.27,0,0,0,.6-.1,1.05,1.05,0,0,0,.5-.9,3.69,3.69,0,0,0,.7-1.4C304.89,11.62,305,11.52,305.19,11.52Zm-4,9.9c-1.6.6-4.9.3-5.5-1.6-.5-1.7.1-4.1,1.6-5,.7-.5,2.1-.3,2.9-.1.6.1,1.6,1.6,1.8,2.1.1.1.1.3.2.4C302.49,18.72,302.89,20.82,301.19,21.42Zm1.5-12.2a1.61,1.61,0,0,1,.3.9,2.44,2.44,0,0,0-1.3,2.4c-.1.1-.2.3-.3.4a.1.1,0,0,1-.1-.1,5.09,5.09,0,0,0-2.2-.5,4.19,4.19,0,0,0-.4-1.6C299,8.92,301.39,7.32,302.69,9.22Zm-10.1,2.4c.4-1.1,1.7-1.2,2.7-1.1a2.72,2.72,0,0,1,1.6.8,2.38,2.38,0,0,0,.3,1.2v.2c-.1,0-.1,0-.2.1a5,5,0,0,0-2.8,2.7,7.34,7.34,0,0,0-1.8-1.4V14A6.17,6.17,0,0,1,292.59,11.62Zm-3.3,8.7a12.66,12.66,0,0,1,.6-2.8,6,6,0,0,1,.9-1.3l.2-.2a1.29,1.29,0,0,0,1.5.4l.3.3a.83.83,0,0,0,.8.2,7.65,7.65,0,0,0,.1,3.7c0,.1.1.1.1.2a.1.1,0,0,0-.1.1c-.1-.1-.2-.1-.4-.2C292.39,20.72,289.29,21.92,289.29,20.32Zm15.2,6.4a2.81,2.81,0,0,1-2.1,1c-.9,0-1.2-1-1.3-1.9v-1a.9.9,0,1,0-1.8,0V25a1.6,1.6,0,0,0-.5,1,4.65,4.65,0,0,1-4.1.9c-2.5-.5-.5-3.2.5-4.3,1.8,1.5,4.9,1.6,6.8,1.1a3.8,3.8,0,0,0,1.8-1.3,1.79,1.79,0,0,0,.7.5C305,22.82,304.69,26.22,304.49,26.72Zm2.6-5.4a4.42,4.42,0,0,1-2.4-1.1h-.1a6.21,6.21,0,0,0,.1-2.7,2.09,2.09,0,0,0,.6-.4c0-.1.1-.1.2-.2a3.4,3.4,0,0,0,2,0c.8.4.6,1.7.7,2.4C308.29,20.22,308.39,21.42,307.09,21.32Zm-33.4-3c-25.2-9.8-54.5-11.4-81.1-8.8-12.3,1.2-24.5,3.1-36.8,4.6-13.5,1.6-26.4,5.1-39.7,7.5-9.1,1.6-19.7.6-28.8-.5-9.7-1.2-19.6-1.9-29.2-4s-19.4-3.8-29.3-3.9c-4.8,0-9.4-.5-14.2-.5-4.6,0-7.1.2-10.7,5.3q-.45,7.35,4.5,6.6c.2-.9.3-1.8.5-2.7a2.49,2.49,0,0,0-.8.1,1,1,0,0,1-1-.8c-.7-2.2-.6-3,.6-4.9a.87.87,0,0,1,.9-.5c5.2.5,6.6,11,1.2,11.1-9.1,0-13.2-4.4-6.4-12.3,3.9-4.5,7.9-4.4,13.6-4.4,6.3,0,13.2-.3,19.4.4,13.3,1.4,26.3,4.5,39.7,6,8.2.9,16.3,3,24.6,2.7,3.9-.1,7.8-.1,11.7-.1,3.4,0,6.4-1.5,9.7-2.1.2,0,.3-.1.5-.1-4.4-1.2-8.5-4.8-8.2-9.6.2-4.1,4.3-9.2,8.7-6.8,2.1,1.1,4.7,3.1,4.5,5.8-.2,1.9-.4,3.8-2.6,4.4-1.9.6-3.3,1.6-4.5-.6s-.1-3.7,1.6-4.6a.87.87,0,0,1,1.3.9.53.53,0,0,1-.2.7c-.1,0-.1.1-.2.1s-.3.1-.4.2c-.7,1-.6,2.4,1,1.5A2.82,2.82,0,0,0,125,5c-1.9-2.8-5.8-3.9-7.5-.4a6.3,6.3,0,0,0,2.4,8.6,16.25,16.25,0,0,0,4.7,2,3.21,3.21,0,0,1,2,1l.1.1c14.9-2.7,29.8-6,44.9-7.3,19.4-1.6,39.5-5.1,59-2.8,14.6,1.7,31,3.7,44.5,9.8C276.09,16.42,275.09,18.82,273.69,18.32Zm47.9-.2c13.5-6.1,29.9-8.1,44.5-9.8,19.5-2.3,39.6,1.2,59,2.8,15.1,1.3,30,4.6,44.9,7.3l.1-.1a3.21,3.21,0,0,1,2-1,16.25,16.25,0,0,0,4.7-2,6.3,6.3,0,0,0,2.4-8.6c-1.7-3.5-5.6-2.4-7.5.4a2.82,2.82,0,0,0,1.4,4c1.6.9,1.7-.5,1-1.5-.1-.1-.3-.1-.4-.2s-.1-.1-.2-.1a.53.53,0,0,1-.2-.7.87.87,0,0,1,1.3-.9c1.7.9,2.8,2.5,1.6,4.6s-2.6,1.2-4.5.6c-2.2-.6-2.4-2.5-2.6-4.4-.2-2.7,2.4-4.7,4.5-5.8,4.4-2.4,8.5,2.7,8.7,6.8.3,4.8-3.8,8.4-8.2,9.6.2,0,.3.1.5.1,3.3.6,6.3,2.1,9.7,2.1,3.9,0,7.8,0,11.7.1,8.3.3,16.4-1.8,24.6-2.7,13.4-1.5,26.4-4.6,39.7-6,6.2-.7,13.1-.4,19.4-.4,5.7,0,9.7-.1,13.6,4.4,6.8,7.9,2.7,12.3-6.4,12.3-5.4-.1-4-10.6,1.2-11.1a.87.87,0,0,1,.9.5c1.2,1.9,1.3,2.7.6,4.9a1,1,0,0,1-1,.8,2.49,2.49,0,0,0-.8-.1c.2.9.3,1.8.5,2.7q5,.75,4.5-6.6c-3.6-5.1-6.1-5.3-10.7-5.3-4.8,0-9.4.5-14.2.5-9.9.1-19.6,1.8-29.3,3.9s-19.5,2.8-29.2,4c-9.1,1.1-19.7,2.1-28.8.5-13.3-2.4-26.2-5.9-39.7-7.5-12.3-1.5-24.5-3.4-36.8-4.6-26.6-2.6-55.9-1-81.1,8.8C321.59,20.92,320.59,18.52,321.59,18.12ZM5,15.22s2.7.4,3.5.6"/></g></g></svg>