<svg xmlns="http://www.w3.org/2000/svg" viewBox="0 0 598.12 43.86"><defs><style>.cls-1{fill:currentColor;}</style></defs><title>Asset 20</title><g id="Layer_2" data-name="Layer 2"><g id="Layer_1-2" data-name="Layer 1"><path class="cls-1" d="M597.92,14.31c-1.6,9.1-8.1,12.8-16.9,12.4-17.3-.9-33.5-5.5-50.5-8.4a118.53,118.53,0,0,0-13.1-1.3,14.48,14.48,0,0,1,5.2,6.1c3.3,7.2.1,15.1-7,18.8a17.14,17.14,0,0,1-17.1-.7c-4.7-3.1-2.3-8.7,1.9-10.8,1-.5,1.8.6,1.1,1.5-1.4,1.7-4.8,4.5-2.1,6.6a10.59,10.59,0,0,0,5.5,2.1c4.6.6,9.1-.4,12.4-3.9,5.6-6,4-14-3.2-18.1a31.4,31.4,0,0,0-3.7-1.8c-11.7.3-23.3,2.3-35.1,4.7-16.1,3.2-33.1,4.1-49.5,5.9-6.7.7-13.4,1.4-20.2,1.9a15,15,0,0,1-7.2.5h0a229.37,229.37,0,0,1-27.5,0,170.6,170.6,0,0,1-25.7-3.4c-7.9-1.8-15.5-5.5-23.3-7-1.9-.3-1.1-3.1.8-2.8,6.7,1,13.2,4.4,19.8,5.9a151.4,151.4,0,0,0,21.2,3.6,244.11,244.11,0,0,0,40.1.2,2,2,0,0,0,.8-.1,23.37,23.37,0,0,0,5-1.9c3.7-2,9.6-7.2,3.7-10.8a8.58,8.58,0,0,0-9.8.1c-1.2.8-3.1,2-3.5,3.5s1,2.6,2,3.5a.9.9,0,0,1-.9,1.5c-5.1-1.2-4.9-6.6-1.2-9.5,4-3.1,9.3-5,14-2.2,5.3,3.2,6.5,9.4,1.4,13.6-.6.5-1.2.9-1.9,1.4,22.7-1.8,45.7-4.3,68-8.4a211.45,211.45,0,0,1,21.7-2.8,1.38,1.38,0,0,1,.4-.3,13,13,0,0,1,7.8-.1,128,128,0,0,1,29.8,3.1c13.9,3.1,29,7.5,43.4,6.4a10.92,10.92,0,0,0,10.2-11.5c-.9-11.8-19.3-9.7-17.6-1.8.4,1.8-2.4,2.6-2.8.8C571.12-5,600.82-2.89,597.92,14.31ZM275,16.71c-5.5.8-10.9,3.4-16.2,5a138,138,0,0,1-21.1,4.1c-13.3,1.8-26.8,1.5-40.1.8-1.2-.1-2.3-.1-3.5-.2-6.7-2-16-5.7-10.9-11.8,2.7-3.2,6.9-3,10.3-1.3a9.75,9.75,0,0,1,3.8,3.2c1.2,1.7-.5,3.1-1.6,4.3a.9.9,0,0,0,.9,1.5c4.9-1.2,4.8-5.9,1.7-9.1-3.4-3.5-9.1-5.2-13.6-3.1-5.8,2.8-7.4,8.6-2.9,13.5a13.22,13.22,0,0,0,2.5,2.1c-21.5-1.5-43.6-3.8-64.4-7.9a208.49,208.49,0,0,0-25.5-3.6c-.1,0-.1-.1-.2-.1a13.53,13.53,0,0,0-7.2-.3,112.41,112.41,0,0,0-27.5,2.6c-14.1,3.2-28,6.2-42.6,7-6.9.4-11.7-1.6-13.7-8.4a10.79,10.79,0,0,1,2.1-9.6c2.8-3.5,17.3-5.3,15.2,4.7-.4,1.8,2.4,2.6,2.8.8C26.72-4.69-.78-3.39,0,13.71c.3,5.8,5.1,12.2,11.1,12.7,17.6,1.4,35.7-3.9,52.7-7.8a82.17,82.17,0,0,1,17-2,15,15,0,0,0-4.7,5c-4.4,7.3-1.6,14.5,4.9,19.4,5,3.8,12.3,3.4,17.7.6s3.5-8.9-1.2-11.2c-1-.5-1.8.6-1.1,1.5,1.2,1.6,3.9,3.4,2.8,5.8-.8,1.7-3.5,2.4-5.2,2.8-5.1,1.3-9.6-.3-13.4-3.7-5.9-5.3-3.8-13,2-17.3a20,20,0,0,1,4.8-2.7,194,194,0,0,1,28.2,3.5c17.5,3.2,35.2,4.8,52.9,6.8,7.8.9,15.5,1.7,23.3,2.2a16,16,0,0,0,7.7.6c.1,0,.2-.1.3-.1,7.9.4,15.7.5,23.6.3a183.76,183.76,0,0,0,25.7-2.9c9.2-1.7,17.8-6,26.9-7.7C277.72,19.21,276.82,16.51,275,16.71Zm36-5.4c-1.9-1.6-4.8-.2-5.6,1.8a1.33,1.33,0,0,0,1,1.7l.9.3c1.2.4,1.7-1.1,1.1-1.9,2.9,3.6-2.6,4.4-4.8,4.4h-2.7a16.32,16.32,0,0,0-1.7-2c-2.1-2.1-3.8-4.6-2.9-7.7a2.75,2.75,0,0,1,3.7-1.5c1.3.4-.5,1.3-1,1.8-.8.7,0,1.9,1,1.7,2.8-.6,4.3-3.7,1.8-5.6-2.2-1.7-6-.7-7.4,1.5-2.3,3.5-.9,7.3,1.4,10.3-.1-.1-.2-.1-.3-.2-2.4-1.5-7-3.9-9.8-1.8-2.2,1.6-2.7,3.3-2,6a2.81,2.81,0,0,0,4.3,1.4,1.28,1.28,0,0,0-1.3-2.2c.9-2.8,2.4-3.6,4.6-2.4,1.4.7,2.7,1.5,4,2.3a11.05,11.05,0,0,0,4.3,1.5,8.08,8.08,0,0,1,.7,2.2c.1.8.4,2.8-.4,3.3-1,.6-2.7-1.4-3.2-2a2.65,2.65,0,0,0-.6-.5c-.2-.1-.3-.2-.5-.2-1.4,0-1.5,1.7-1,2.6,1.3,2.1,5.3,4.2,7.4,2.1s1.9-4.9.9-7.5c2.8-.1,6.5-.6,8-2.7S313.42,13.51,311,11.31Z"/></g></g></svg>