<svg xmlns="http://www.w3.org/2000/svg" width="3000" height="3000" viewBox="0 0 3000 3000" version="1.1"><path d="" stroke="none" fill="#080404" fill-rule="evenodd"/><path d="M 147.204 474.158 C 130.398 475.612, 122.204 480.694, 119.863 491.115 C 118.808 495.808, 120.816 505.755, 124.134 512.271 C 127.553 518.987, 135.746 530.706, 142.770 538.926 C 152.099 549.845, 176.090 573.381, 186 581.338 C 200.855 593.263, 216.288 601, 225.222 601 C 228.510 601, 228.504 600.892, 225.610 608.500 C 220.200 622.718, 229.386 641.874, 257.093 674.158 C 283.942 705.442, 310.161 727.868, 330.646 737.069 C 341.055 741.744, 353.356 745, 360.612 745 C 364.125 745, 367 745.268, 367 745.596 C 367 745.923, 366.143 747.395, 365.095 748.866 C 356.604 760.791, 359.195 778.461, 373.119 803.587 C 381.928 819.483, 402.233 849.528, 414.286 864.500 C 442.131 899.089, 473.969 922.259, 500.325 927.116 C 507.018 928.349, 507.020 928.350, 505.135 930.425 C 498.072 938.200, 499.958 951.452, 510.646 969.144 C 516.032 978.060, 535.103 1003.788, 550.568 1023 C 556.102 1029.875, 567.994 1044.950, 576.995 1056.500 C 608.785 1097.294, 623.755 1114.764, 642.118 1132.500 C 670.857 1160.257, 698.202 1177.307, 724.701 1183.991 L 728.903 1185.051 726.819 1188.582 C 723.657 1193.941, 724.666 1203.041, 729.471 1212.507 C 737.246 1227.826, 766.026 1262.594, 822.960 1325.448 C 870.053 1377.439, 911.118 1411.794, 947.341 1429.504 C 970.057 1440.610, 984.314 1444.257, 1005.594 1444.403 L 1019.689 1444.500 1018.344 1447.718 C 1013.875 1458.416, 1019.902 1475.498, 1036.213 1498.359 C 1044.805 1510.403, 1068.392 1539.911, 1083.485 1557.500 C 1142.025 1625.720, 1215.336 1690.290, 1267.198 1719.310 C 1291.819 1733.087, 1312.104 1740.787, 1331.250 1743.626 C 1342.817 1745.341, 1343 1745.409, 1343 1747.988 C 1343 1752.587, 1348.819 1760.056, 1366.383 1778 C 1428.625 1841.590, 1442.209 1856.617, 1487.969 1912.502 C 1540.497 1976.652, 1564.046 2001.040, 1601.125 2029.693 C 1650.252 2067.654, 1708.477 2091.963, 1750.357 2091.994 C 1757.464 2091.999, 1758.141 2092.167, 1757.447 2093.750 C 1756.034 2096.975, 1755.750 2110.305, 1756.976 2115.932 C 1762.101 2139.468, 1795.262 2202.982, 1821.827 2240.144 C 1857.575 2290.151, 1901.145 2332.034, 1954.500 2367.678 C 2045.424 2428.420, 2135.262 2453.712, 2253 2451.714 C 2294.373 2451.011, 2317.970 2448.282, 2364 2438.877 C 2410.334 2429.410, 2427.752 2423.888, 2491.585 2398.432 C 2534.998 2381.119, 2543.832 2378.644, 2562 2378.705 C 2571.499 2378.736, 2576.421 2379.259, 2582.500 2380.883 C 2599.899 2385.528, 2628.397 2402.216, 2654.521 2423.056 C 2661.298 2428.462, 2681.840 2446.038, 2700.171 2462.113 C 2748.085 2504.131, 2757.338 2511.204, 2775.174 2519.445 C 2789.731 2526.170, 2799.938 2527.520, 2810.765 2524.150 C 2826.519 2519.247, 2839.314 2505.421, 2851 2480.673 C 2879.265 2420.814, 2888.555 2319.532, 2872.984 2241 C 2861.410 2182.630, 2836.372 2123.169, 2802.243 2073 C 2761.475 2013.071, 2693.498 1948.628, 2632.663 1912.235 C 2575.974 1878.323, 2524.403 1863, 2466.957 1863 L 2448.401 1863 2435.901 1850.250 C 2420.659 1834.703, 2418.827 1832.562, 2386.473 1792.500 C 2343.753 1739.601, 2330.073 1724.039, 2298.523 1692.448 C 2232.651 1626.488, 2167.839 1580.145, 2102.275 1552.122 C 2050.367 1529.936, 2004.648 1522.238, 1949.022 1526.318 C 1946.899 1526.474, 1945.684 1525.101, 1940.522 1516.716 C 1884.088 1425.034, 1865.419 1397.436, 1841.187 1369.873 C 1798.041 1320.796, 1737.744 1282.341, 1666.882 1258.707 C 1621.772 1243.663, 1589.598 1238.151, 1542 1237.312 L 1511.500 1236.775 1506.500 1231.152 C 1481.591 1203.142, 1413.962 1129.923, 1397.024 1112.627 C 1360.238 1075.065, 1326.878 1049.482, 1292.654 1032.589 C 1265.282 1019.078, 1240.137 1012.247, 1214.153 1011.262 L 1199.806 1010.718 1189.653 1002.045 C 1184.069 997.275, 1166.450 982.863, 1150.500 970.017 C 1134.550 957.172, 1117.675 943.435, 1113 939.492 C 1042.641 880.143, 978.961 842.505, 927.674 829.954 C 920.978 828.316, 910.325 826.281, 904 825.433 C 891.981 823.821, 866.495 823.263, 854.500 824.349 L 847.500 824.983 833.324 808.741 C 825.527 799.809, 811.389 782.825, 801.907 771 C 792.425 759.175, 780.458 744.696, 775.313 738.825 C 751.287 711.404, 725.698 692.046, 697.826 680.203 C 675.426 670.685, 656.503 667.013, 626 666.265 L 604.500 665.738 590 652.548 C 560.071 625.324, 539.099 608.519, 506 585.241 C 470.647 560.377, 437.754 544.324, 410 538.389 C 401.598 536.592, 380.208 535.916, 364 536.935 C 358.075 537.308, 356.527 536.939, 346.500 532.766 C 340.450 530.249, 328.300 524.725, 319.500 520.491 C 256.229 490.052, 214.704 477, 171.992 474.128 C 164.571 473.629, 157.825 473.270, 157 473.330 C 156.175 473.390, 151.767 473.763, 147.204 474.158 M 142.326 485.974 C 129.738 488.675, 127.991 493.977, 135.114 507.868 C 140.688 518.741, 151.076 531.514, 169.268 549.866 C 187.716 568.476, 202.266 580.361, 213.703 586.162 C 222.032 590.386, 222.508 590.500, 231.878 590.500 L 241.500 590.500 282 570.345 C 304.275 559.260, 326.438 548.720, 331.250 546.923 C 336.063 545.126, 340 543.389, 340 543.063 C 340 542.736, 337.637 541.630, 334.750 540.605 C 331.863 539.580, 319.693 534.059, 307.706 528.337 C 259.099 505.134, 223.002 492.653, 189.500 487.464 C 177.655 485.630, 148.259 484.701, 142.326 485.974 M 373.345 548.132 C 361.730 549.117, 350.484 551.990, 336.336 557.586 C 323.986 562.471, 251.040 598.642, 244.139 603.303 C 238.516 607.101, 235.530 613.378, 236.444 619.476 C 237.899 629.175, 246.238 642.534, 264.239 664 C 314.556 724.004, 357.809 745.934, 389.725 727.621 C 424.815 707.488, 531.556 674.728, 581.250 668.840 C 587.163 668.140, 591.962 667.326, 591.916 667.033 C 591.768 666.094, 544.096 628.466, 526.500 615.400 C 488.665 587.305, 471.104 575.912, 448.785 564.982 C 420.621 551.191, 397.682 546.067, 373.345 548.132 M 605.500 678.116 C 571.354 679.918, 530.873 688.601, 477 705.680 C 449.063 714.536, 428.161 722.408, 414.346 729.275 C 407.280 732.787, 398.466 736.927, 394.759 738.476 C 387.079 741.685, 376.949 750.205, 374.078 755.872 C 368.434 767.011, 372.117 779.813, 388.944 807.547 C 409.554 841.516, 432.923 871.058, 452.279 887.614 C 477.063 908.812, 495.513 917.276, 519.768 918.573 C 530.845 919.166, 532.673 918.968, 552.500 915.027 C 614.899 902.626, 640.634 894.962, 710.500 867.977 C 748.624 853.251, 770.318 845.285, 787.873 839.563 C 803.065 834.612, 827.750 828, 831.043 828 C 833.440 828, 833.560 826.706, 831.333 824.872 C 827.277 821.534, 809.789 801.328, 794.863 782.734 C 762.239 742.094, 746.027 724.659, 728.988 711.887 C 693.986 685.652, 656.579 675.422, 605.500 678.116 M 847.500 836.564 C 817.712 840.610, 786.691 850.124, 725.608 873.947 C 643.743 905.876, 623.451 912.021, 553.500 926.062 C 539.200 928.933, 525.046 932.125, 522.048 933.156 C 511.053 936.938, 509.584 941.514, 515.440 953.734 C 521.583 966.552, 529.017 976.850, 562.976 1019.586 C 574.814 1034.483, 591.340 1055.408, 599.699 1066.086 C 634.710 1110.804, 659.974 1136.386, 687 1154.484 C 698.599 1162.252, 715.847 1170.552, 725.500 1173.013 C 739.871 1176.675, 744.524 1176.335, 801.500 1167.450 C 870.026 1156.764, 940.752 1129.001, 1042 1073.043 C 1111.463 1034.653, 1142.290 1020.979, 1173.617 1014.663 L 1185.121 1012.344 1176.811 1005.961 C 1164.009 996.129, 1116.640 958.290, 1106 949.396 C 1054.281 906.163, 1015.619 879.614, 976.500 860.467 C 939.032 842.128, 909.632 834.874, 873.699 835.103 C 864.789 835.160, 853 835.817, 847.500 836.564 M 1191.500 1023.104 C 1174.830 1024.849, 1153.447 1030.757, 1132.905 1039.291 C 1111.666 1048.115, 1096.043 1056.168, 1037.675 1088.380 C 940.310 1142.113, 866.063 1170.104, 794.750 1179.961 C 786.638 1181.083, 773.583 1182.892, 765.740 1183.983 C 742.921 1187.155, 736 1190.122, 736 1196.733 C 736 1203.911, 749.124 1223.881, 769.037 1247 C 819.278 1305.333, 873.374 1362.726, 895.500 1381.170 C 923.598 1404.593, 950.929 1421.173, 973.490 1428.484 C 995.876 1435.738, 1025.207 1435.955, 1039.059 1428.968 C 1042.116 1427.426, 1051.791 1423.634, 1060.559 1420.540 C 1128.444 1396.591, 1163.795 1380.238, 1265 1325.972 C 1373.291 1267.907, 1419.854 1249.577, 1481.668 1240.683 L 1496.837 1238.500 1491.791 1233 C 1489.015 1229.975, 1483.527 1224.125, 1479.593 1220 C 1463.478 1203.099, 1440.060 1177.918, 1415.887 1151.496 C 1388.963 1122.068, 1365.550 1098.597, 1350.493 1085.942 C 1304.988 1047.695, 1263.206 1027.392, 1221 1023.019 C 1210.127 1021.892, 1202.868 1021.913, 1191.500 1023.104 M 1516.500 1249.579 C 1514.300 1249.795, 1506.875 1250.457, 1500 1251.049 C 1465.796 1253.995, 1427.988 1263.345, 1390.838 1278.045 C 1359.922 1290.278, 1329.151 1305.436, 1260 1342.496 C 1174.325 1388.412, 1130.003 1408.862, 1071.543 1429.451 C 1036.553 1441.773, 1029 1446.612, 1029 1456.702 C 1029 1467.725, 1040.263 1485.475, 1071.385 1523.500 C 1078.587 1532.300, 1088.506 1544.168, 1093.426 1549.874 C 1155.333 1621.663, 1228.798 1685.277, 1282.500 1713.596 C 1304.543 1725.220, 1322.910 1731.161, 1342.388 1732.966 C 1352.346 1733.889, 1355.718 1733.678, 1381.888 1730.488 C 1439.883 1723.421, 1470.165 1717.429, 1513.875 1704.372 C 1573.986 1686.416, 1622.742 1664.808, 1733 1607.258 C 1830.080 1556.587, 1876.261 1538.400, 1932.234 1528.797 C 1933.665 1528.552, 1933.175 1527.367, 1929.421 1522 C 1926.921 1518.425, 1915.152 1500.200, 1903.269 1481.500 C 1857.846 1410.021, 1844.771 1392.038, 1819.022 1365.634 C 1793.716 1339.683, 1770.674 1322.060, 1737.280 1303.115 C 1691.051 1276.888, 1627.506 1256.553, 1574.500 1251.024 C 1563.945 1249.923, 1523.295 1248.910, 1516.500 1249.579 M 1960.500 1537.574 C 1927.724 1540.737, 1907.537 1544.796, 1878.500 1554.060 C 1841.044 1566.011, 1803.743 1583.097, 1723.500 1625.061 C 1624.325 1676.925, 1569.358 1700.701, 1507.500 1718.491 C 1469.836 1729.324, 1438.598 1735.493, 1393.500 1741.006 C 1364.063 1744.604, 1356.197 1745.872, 1355.410 1747.146 C 1354.424 1748.741, 1361.371 1756.403, 1392.002 1787.500 C 1435.692 1831.855, 1451.809 1849.796, 1493.963 1901 C 1524.724 1938.366, 1537.135 1952.821, 1551.584 1968.110 C 1601.658 2021.098, 1651.640 2055.023, 1704.558 2071.941 C 1722.685 2077.736, 1735.993 2080.124, 1753.554 2080.733 C 1767.838 2081.229, 1768.989 2081.124, 1776.054 2078.687 C 1785.924 2075.282, 1787.994 2074.850, 1822.190 2069.052 C 1877.963 2059.598, 1915.737 2050.504, 1968.500 2033.833 C 2021.888 2016.963, 2066.816 1998.918, 2181.308 1948.356 C 2250.482 1917.807, 2277.118 1906.526, 2303 1896.813 C 2344.496 1881.241, 2386.173 1870.043, 2417.500 1866.050 C 2432.863 1864.092, 2432.307 1865.077, 2423.338 1855.707 C 2414.475 1846.447, 2400.133 1829.510, 2385.481 1811 C 2339.999 1753.541, 2309.054 1718.633, 2274.936 1686.299 C 2186.270 1602.269, 2097.836 1552.036, 2017.407 1540.016 C 2004.171 1538.038, 1970.618 1536.598, 1960.500 1537.574 M 2431.374 1877.547 C 2394.469 1881.577, 2354.960 1891.627, 2309.343 1908.588 C 2285.241 1917.550, 2257.442 1929.261, 2198 1955.494 C 2080.010 2007.565, 2042.138 2023.017, 1989.500 2040.565 C 1931.912 2059.762, 1886.647 2071.200, 1831.180 2080.571 C 1800.167 2085.811, 1779.989 2090.236, 1775.722 2092.735 C 1770.605 2095.732, 1768.556 2099.395, 1768.642 2105.388 C 1769.008 2130.693, 1816.106 2216.438, 1854.331 2261.390 C 1906.767 2323.054, 1981.059 2376.727, 2053.500 2405.281 C 2096.742 2422.325, 2134.886 2431.326, 2186 2436.546 C 2207.130 2438.703, 2263.135 2439.590, 2283 2438.080 C 2317.688 2435.445, 2357.133 2429.185, 2387.539 2421.489 C 2421.504 2412.894, 2438.925 2406.752, 2490.939 2385.038 C 2527.260 2369.875, 2538.861 2366.437, 2557.595 2365.284 C 2580.548 2363.872, 2603.440 2371.663, 2634.285 2391.383 C 2654.838 2404.524, 2667.594 2414.784, 2711.500 2453.488 C 2752.671 2489.781, 2767.135 2500.965, 2781.413 2507.549 C 2790.299 2511.647, 2797.963 2513.125, 2804.236 2511.951 C 2811.161 2510.656, 2814.787 2508.455, 2821.500 2501.468 C 2843.857 2478.201, 2859.992 2427.398, 2866.111 2361 C 2867.922 2341.354, 2867.670 2298.879, 2865.630 2280 C 2859.969 2227.589, 2846.744 2182.882, 2821.997 2132.500 C 2799.561 2086.824, 2771.251 2048.318, 2729 2006.010 C 2650.067 1926.971, 2573.321 1885.002, 2493.144 1877.030 C 2479.194 1875.643, 2446.289 1875.918, 2431.374 1877.547" stroke="none" fill="#040404" fill-rule="evenodd"/></svg>