<svg xmlns="http://www.w3.org/2000/svg" width="3000" height="3000" viewBox="0 0 3000 3000" version="1.1"><path d="" stroke="none" fill="#080404" fill-rule="evenodd"/><path d="M 2611.591 46.573 C 2603.961 49.369, 2597.420 55.650, 2587.235 69.965 C 2583.531 75.171, 2578.192 81.913, 2575.371 84.948 L 2570.242 90.465 2561.730 88.232 C 2551.328 85.504, 2549.378 85.472, 2545.299 87.960 C 2540.833 90.682, 2539.081 94.672, 2537.912 104.777 C 2536.538 116.647, 2535.520 118.883, 2530.467 121.118 C 2523.717 124.104, 2513.191 125.045, 2487.584 124.954 C 2458.839 124.852, 2455.700 125.477, 2448.272 132.777 C 2445.630 135.375, 2441.578 140.702, 2439.269 144.615 C 2432.518 156.057, 2428.256 158.902, 2415.381 160.563 C 2409.170 161.364, 2399.335 160.124, 2370.500 154.904 C 2337.134 148.864, 2325.715 149.272, 2316.898 156.819 C 2311.424 161.505, 2308.640 168.015, 2305.614 183.208 C 2302.418 199.248, 2299.862 205.825, 2294.509 211.779 C 2286.557 220.623, 2276.172 224.790, 2255 227.632 C 2241.952 229.383, 2190.551 230.062, 2148.500 229.037 C 2127.402 228.523, 2123.959 229.074, 2117.067 234.066 C 2108.724 240.110, 2106.851 249.003, 2109.522 269.897 C 2111.641 286.472, 2111.446 288.194, 2103.956 319.078 C 2101.212 330.396, 2097.902 346.888, 2096.601 355.726 C 2093.933 373.850, 2091.174 380.857, 2085.836 383.068 C 2080.795 385.156, 2063.481 383.545, 2037.593 378.579 C 1983.659 368.234, 1973.779 366.963, 1942.500 366.341 C 1921.078 365.914, 1912.186 366.199, 1892 367.959 C 1829.097 373.444, 1815.082 372.049, 1776 356.416 C 1760.302 350.137, 1755.218 348.536, 1749.925 348.205 C 1738.497 347.491, 1729.521 353.047, 1724.776 363.774 C 1718.742 377.414, 1722.645 392.192, 1740.031 421.540 C 1745.557 430.868, 1750.792 440.946, 1751.664 443.935 C 1755.227 456.149, 1753.526 465.168, 1728.824 565 C 1722.719 589.675, 1714.522 615.210, 1709.130 626.349 C 1695.752 653.989, 1672.230 660.744, 1628.500 649.506 C 1618.040 646.818, 1587.648 636.850, 1561.500 627.531 C 1552.508 624.327, 1529.635 617.681, 1515.041 614.033 C 1459.454 600.137, 1426.135 597.871, 1346 602.541 C 1316.761 604.245, 1297.435 604.361, 1278.500 602.946 C 1252.860 601.030, 1238.963 598.391, 1213.065 590.520 C 1182.388 581.196, 1166.188 578, 1149.609 578 C 1138.485 578, 1131.376 579.865, 1124.334 584.632 C 1112.442 592.680, 1107.267 602.892, 1093.992 644.500 C 1091.677 651.755, 1086.391 664.570, 1082.030 673.500 C 1062.138 714.228, 1041.318 737.251, 954.500 814.524 C 922.270 843.211, 908.743 856.524, 896.995 871.122 C 886.835 883.747, 881.413 892.012, 875.512 903.867 C 866.617 921.741, 863.436 934.879, 859.986 968 C 855.862 1007.592, 849.639 1034.243, 831.618 1089.500 C 800.014 1186.408, 794.471 1221.809, 803.121 1271.500 C 806.068 1288.429, 808.961 1300.318, 817.039 1328.704 C 838.620 1404.540, 842.193 1428.013, 845.011 1512.500 C 848.041 1603.323, 851.370 1626.431, 872.941 1706.391 C 889.395 1767.383, 894.308 1788.449, 897.919 1813.500 C 905.395 1865.365, 901.969 1925.563, 888.528 1978.500 C 879.081 2015.708, 864.594 2053.904, 845.402 2092.206 C 822.602 2137.706, 783.577 2197.781, 751.537 2236.701 C 739.675 2251.110, 704.435 2286.268, 689.498 2298.595 C 650.976 2330.385, 604.886 2359.483, 518.500 2406.549 C 467.549 2434.308, 445.256 2448.575, 423.099 2467.601 C 389.050 2496.837, 366.218 2530.213, 346.211 2580 C 342.343 2589.625, 333.910 2611.225, 327.472 2628 C 313.480 2664.453, 307.258 2678.555, 290.109 2712.672 C 276.038 2740.664, 271.569 2750.879, 267.652 2764 C 257.887 2796.715, 263.091 2816.890, 285.715 2834.016 C 298.599 2843.770, 315.387 2850.831, 336 2855.165 C 351.168 2858.355, 391.470 2858.754, 434.500 2856.142 C 482.943 2853.200, 505.992 2852.688, 534.500 2853.916 C 605.587 2856.981, 641.664 2864.583, 746 2898.485 C 846.707 2931.208, 917.965 2944.657, 1032 2952.466 C 1087.028 2956.235, 1153.704 2956.811, 1209.569 2954.001 C 1251.288 2951.903, 1384.700 2945.968, 1411.500 2945.018 C 1426.900 2944.472, 1466.500 2944.012, 1499.500 2943.996 C 1652.929 2943.919, 1684.475 2938.480, 1891 2876.489 C 1915.475 2869.143, 1948.100 2859.466, 1963.500 2854.984 C 2048.816 2830.159, 2143.463 2799.170, 2188.445 2781.332 C 2224.193 2767.156, 2275.395 2742.126, 2300.203 2726.699 C 2323.816 2712.015, 2349.056 2690.399, 2366.927 2669.554 C 2385.322 2648.098, 2408.361 2614.576, 2445.842 2554.727 C 2481.313 2498.089, 2486.503 2489.024, 2507.544 2446.948 C 2546.689 2368.672, 2561.940 2325.583, 2570.174 2270 C 2572.203 2256.303, 2572.471 2250.719, 2572.474 2222 C 2572.478 2187.274, 2571.579 2176.366, 2566.378 2148 C 2559.057 2108.078, 2544.141 2065.897, 2515.987 2005.500 C 2502.471 1976.505, 2486.803 1938.857, 2468.958 1892.500 C 2463.877 1879.300, 2454.436 1855.675, 2447.978 1840 C 2419.872 1771.780, 2410.962 1752.930, 2396.825 1731.788 C 2393.621 1726.997, 2391.030 1722.722, 2391.067 1722.288 C 2391.104 1721.855, 2398.866 1716.407, 2408.317 1710.183 C 2446.654 1684.934, 2470.107 1664.165, 2522.469 1609.095 C 2562.108 1567.406, 2578.364 1553.206, 2596.414 1544.505 C 2601.411 1542.096, 2608.875 1539.212, 2613 1538.096 C 2617.125 1536.981, 2626.575 1534.465, 2634 1532.506 C 2663.019 1524.850, 2678.215 1512.753, 2679.724 1496.107 C 2680.838 1483.820, 2674.864 1471.343, 2650.467 1435 C 2631.697 1407.040, 2625.432 1396.811, 2617.974 1381.947 C 2601.650 1349.418, 2594.505 1324.337, 2583.519 1261 C 2569.857 1182.238, 2559.718 1156.607, 2516.700 1092.086 C 2498.723 1065.123, 2496.460 1059.727, 2501.250 1055.242 C 2502.488 1054.084, 2512.335 1048.883, 2523.134 1043.684 C 2553.337 1029.144, 2560.711 1023.521, 2591.464 991.578 C 2619.240 962.728, 2623.406 960.076, 2661.525 946.976 C 2687.281 938.125, 2696.299 933.641, 2702.919 926.399 C 2709.203 919.522, 2711.431 913.196, 2710.763 904.116 C 2710.127 895.451, 2706.429 887.534, 2696.463 873.500 C 2665.800 830.317, 2661.749 821.980, 2651.566 781.086 C 2641.668 741.337, 2631.810 715.920, 2618.593 696.066 C 2614.692 690.207, 2606.527 680.526, 2597.570 671.141 C 2582.359 655.204, 2577.025 647.730, 2577.009 642.328 C 2576.995 637.535, 2582.657 633.381, 2600.782 624.889 C 2609.427 620.838, 2623.475 613.960, 2632 609.603 C 2640.525 605.247, 2653.800 598.469, 2661.500 594.543 C 2671.858 589.260, 2681.233 585.530, 2697.536 580.206 C 2709.711 576.230, 2722.017 571.553, 2725.036 569.755 C 2734.812 563.931, 2737.439 554.238, 2732.054 543.858 C 2729.033 538.035, 2721.787 529.267, 2706.552 513 C 2668.447 472.315, 2645.804 431.093, 2640.917 393.507 C 2638 371.071, 2642.488 357.812, 2661.906 331.500 C 2673.056 316.390, 2676.380 309.523, 2676.356 301.648 C 2676.332 294.118, 2673.886 288.943, 2663.832 275.145 C 2655.165 263.250, 2653.047 259.193, 2652.325 253.099 C 2651.522 246.318, 2653.946 239.029, 2660.510 228.480 C 2671.272 211.186, 2673.785 203.207, 2670.753 195.952 C 2669.951 194.032, 2666.798 189.519, 2663.747 185.922 C 2650.631 170.462, 2650.456 169.251, 2658.947 152.685 C 2662.218 146.304, 2665.193 139.489, 2665.558 137.541 C 2667.123 129.199, 2663.061 122.345, 2653.500 117.194 C 2649.478 115.027, 2647.962 113.424, 2645.751 109 C 2643.082 103.659, 2642.992 102.935, 2642.657 84 C 2642.272 62.319, 2641.633 59.268, 2636.130 52.839 C 2629.937 45.604, 2620.685 43.241, 2611.591 46.573 M 2611.363 58.250 C 2607.659 60.726, 2604.475 64.530, 2598 74.214 C 2593.325 81.207, 2587.794 88.669, 2585.709 90.798 L 2581.918 94.668 2604.209 100.968 C 2616.469 104.433, 2628.240 107.881, 2630.366 108.630 C 2634.177 109.974, 2634.221 109.961, 2633.456 107.746 C 2633.030 106.511, 2632.415 95.969, 2632.090 84.320 C 2631.549 64.896, 2631.326 62.906, 2629.404 60.320 C 2624.792 54.117, 2618.609 53.407, 2611.363 58.250 M 2550.594 100.250 C 2550.350 101.487, 2549.670 106.268, 2549.082 110.873 C 2547.755 121.279, 2545.041 126.474, 2539 130.175 C 2530.005 135.685, 2525.281 136.339, 2493.500 136.468 C 2457.807 136.613, 2459.479 136.089, 2450.487 149.945 C 2434.694 174.283, 2423.596 176.790, 2373 167.452 C 2350.950 163.382, 2332.118 162.024, 2328.030 164.209 C 2324.081 166.320, 2321.224 171.564, 2319.524 179.820 C 2314.091 206.213, 2311.125 213.716, 2303.015 221.584 C 2288.272 235.886, 2270.736 240.724, 2230.500 241.591 C 2218.400 241.852, 2205.800 242.227, 2202.500 242.424 C 2199.200 242.622, 2182.775 242.361, 2166 241.845 C 2131.735 240.791, 2127.364 241.252, 2123.597 246.324 C 2121.107 249.677, 2120.918 256.775, 2122.970 269.867 C 2125.287 284.650, 2122.700 301.914, 2114.560 326 C 2113.166 330.125, 2111.090 339.575, 2109.948 347 C 2104.879 379.940, 2099.665 390.646, 2086.833 394.457 C 2077.497 397.229, 2072.188 396.699, 2027 388.477 C 1959.414 376.181, 1943.829 375.318, 1881.968 380.447 C 1824.344 385.225, 1811.015 383.330, 1763.500 363.605 C 1749.064 357.613, 1744.702 357.459, 1739.146 362.750 C 1729.127 372.290, 1731.526 384.442, 1749.186 413.610 C 1768.987 446.315, 1769.358 450.121, 1757.522 499 C 1753.992 513.575, 1748.352 536.938, 1744.987 550.917 C 1730.442 611.343, 1721.578 634.989, 1708.132 649.243 C 1700.143 657.711, 1689.484 663.370, 1677.499 665.505 C 1654.800 669.549, 1634.137 665.378, 1576 645.016 C 1528.373 628.335, 1487.895 618.341, 1451.805 614.354 C 1430.791 612.032, 1385.294 612.066, 1347.500 614.433 C 1288.674 618.116, 1252.999 615.093, 1212.512 602.993 C 1177.404 592.501, 1168.404 590.684, 1151 590.577 C 1139.984 590.509, 1138.017 590.759, 1134.432 592.678 C 1125.127 597.658, 1118.180 609.417, 1111.042 632.264 C 1094.148 686.345, 1077.656 713.923, 1038.025 754.362 C 1019.412 773.355, 999.852 791.596, 960.500 826.657 C 920.676 862.139, 904.039 880.185, 891.041 902 C 880.438 919.795, 876.944 932.435, 872.953 967.432 C 867.837 1012.305, 863.063 1033.035, 844.858 1089.443 C 818.383 1171.477, 812.742 1196.464, 812.680 1232 C 812.628 1261.384, 815.808 1278.958, 830.506 1330.500 C 838.953 1360.125, 846.276 1390.468, 849.934 1411 C 854.134 1434.580, 856.018 1458.537, 858.508 1520 C 862.025 1606.844, 864.882 1625.659, 886.967 1707.400 C 907.864 1784.745, 913.099 1811.560, 914.901 1850.500 C 919.543 1950.785, 889.740 2050.942, 823.721 2156.934 C 778.425 2229.654, 739.132 2275.672, 687.165 2316.862 C 653.685 2343.398, 605.383 2373.433, 531 2413.965 C 462.224 2451.443, 439.824 2466.715, 413.803 2493.870 C 383.505 2525.489, 371.556 2547.807, 338.513 2634.500 C 325.980 2667.384, 319.876 2681.264, 303.929 2713.143 C 281.535 2757.908, 275.986 2773.461, 276.015 2791.378 C 276.032 2802.058, 277.201 2805.036, 282.026 2806.694 C 289.420 2809.234, 310.146 2807.881, 331.038 2803.495 C 341.584 2801.281, 372.540 2792.125, 392 2785.465 C 413.713 2778.033, 430.029 2771.504, 467.500 2755.250 C 504.806 2739.069, 527.807 2729.500, 571.500 2711.984 C 741.717 2643.746, 877.494 2569.560, 1004 2475.673 C 1074.726 2423.183, 1150.696 2359.822, 1234.955 2283.049 C 1271.807 2249.471, 1285.133 2236.795, 1367 2157.438 C 1446.643 2080.238, 1475.662 2053.327, 1518 2017.409 C 1619.554 1931.255, 1709.105 1885.547, 1830.297 1858.009 C 1864.825 1850.163, 1899.673 1844.632, 1981.500 1834.011 C 2060.172 1823.800, 2097.444 1817.072, 2150.500 1803.505 C 2233.653 1782.242, 2302.397 1756.541, 2363.236 1723.970 C 2408.200 1699.897, 2461.911 1657.211, 2499.720 1615.500 C 2545.029 1565.515, 2567.309 1545.199, 2588.263 1534.763 C 2598.576 1529.627, 2607.653 1526.545, 2625.800 1522.015 C 2641.429 1518.114, 2649.626 1515.019, 2656.620 1510.377 C 2668.977 1502.174, 2670.491 1493.768, 2662.550 1477.445 C 2659.997 1472.197, 2649.682 1455.662, 2639.627 1440.701 C 2615.221 1404.387, 2606.556 1389.027, 2597.182 1365.469 C 2585.216 1335.396, 2581.257 1318.971, 2567.540 1242.500 C 2557.379 1185.850, 2545.965 1158.921, 2506.866 1099.358 C 2491.694 1076.245, 2487.900 1069.014, 2487.218 1061.913 C 2486.120 1050.487, 2490.733 1045.871, 2514.796 1034.316 C 2544.046 1020.271, 2552.097 1014.143, 2581.472 983.571 C 2591.907 972.712, 2603.382 961.593, 2606.972 958.864 C 2617.001 951.240, 2633.312 943.765, 2656.501 936.167 C 2684.832 926.885, 2692.052 923.147, 2696.598 915.412 C 2699.532 910.419, 2699.699 904.861, 2697.120 898.072 C 2695.192 892.999, 2687.809 881.658, 2672.659 860.500 C 2655.798 836.951, 2649.203 821.153, 2640.485 783.421 C 2632.588 749.240, 2619.300 716.113, 2606.907 699.706 C 2604.084 695.969, 2595.826 686.711, 2588.556 679.132 C 2574.896 664.891, 2570.279 659.033, 2566.971 651.746 C 2563.073 643.158, 2565.350 633.220, 2572.621 627.086 C 2574.754 625.286, 2590 617.108, 2606.500 608.912 C 2623 600.716, 2643.802 590.221, 2652.728 585.589 C 2665.613 578.903, 2672.925 575.894, 2688.228 570.983 C 2711.618 563.477, 2717.311 561.330, 2720.526 558.801 C 2726.384 554.193, 2722.260 547.131, 2699.914 523.500 C 2673.902 495.993, 2660.612 477.835, 2647.580 452 C 2633.886 424.852, 2629.150 408.903, 2628.276 386.988 C 2627.312 362.801, 2631.875 350.963, 2653.520 321.500 C 2661.152 311.111, 2664 305.761, 2664 301.811 C 2664 297.502, 2660.780 291.298, 2653.301 281.196 C 2641.809 265.676, 2638.535 255.918, 2640.888 244.202 C 2642.283 237.259, 2646.466 228.150, 2652.006 219.991 C 2657.640 211.695, 2661.330 203.430, 2660.619 200.700 C 2660.304 199.490, 2657.100 195.125, 2653.499 191 C 2644.233 180.384, 2641.653 174.788, 2642.184 166.454 C 2642.537 160.902, 2643.446 158.274, 2648.148 149.202 C 2651.200 143.316, 2654.001 137.252, 2654.373 135.726 C 2655.839 129.720, 2647.287 125.695, 2611.247 115.425 C 2599.008 111.937, 2581.325 106.590, 2571.952 103.542 C 2562.578 100.494, 2554.038 98, 2552.974 98 C 2551.765 98, 2550.872 98.845, 2550.594 100.250 M 2554 139.777 C 2554 141.679, 2557.609 145.310, 2565.145 150.988 C 2574.572 158.092, 2583.627 162.872, 2593.500 165.955 C 2604.794 169.483, 2626.839 170.017, 2625.746 166.737 C 2625.535 166.105, 2620.894 164.311, 2615.431 162.751 C 2603.327 159.293, 2580.927 150.411, 2567.768 143.851 C 2558.684 139.323, 2554 137.937, 2554 139.777 M 2341 174.442 C 2341 176.294, 2369.779 202.269, 2384.891 214.058 C 2426.169 246.257, 2487.837 279.732, 2534 294.997 C 2557.427 302.744, 2577.701 306.783, 2606.500 309.440 C 2631.916 311.785, 2645.163 311.830, 2642.896 309.563 C 2642.656 309.322, 2633.790 307.756, 2623.194 306.082 C 2592.403 301.218, 2565.390 294.801, 2541.500 286.675 C 2489.850 269.107, 2433.115 237.646, 2366 189.354 C 2342.445 172.406, 2341 171.544, 2341 174.442 M 2461 183.518 C 2461 186.610, 2489.240 205.629, 2509.195 215.976 C 2524.070 223.690, 2545.087 232.474, 2558.137 236.432 C 2575.381 241.663, 2607.551 246.961, 2622.250 246.990 C 2627.143 247, 2628.740 245.430, 2624.750 244.532 C 2598.984 238.730, 2575.479 231.857, 2555.500 224.280 C 2535.023 216.514, 2502.315 202.224, 2483.500 192.824 C 2461.354 181.759, 2461 181.613, 2461 183.518 M 2314.207 245.121 C 2314.412 245.737, 2318.837 247.760, 2324.040 249.617 C 2329.243 251.474, 2337.258 254.796, 2341.851 256.999 C 2352.034 261.884, 2400.035 291.178, 2436 314.457 C 2450.575 323.891, 2466.550 334.121, 2471.500 337.189 C 2505.695 358.385, 2536.265 371.667, 2562 376.511 C 2578.260 379.572, 2609.733 379.698, 2608.733 376.698 C 2608.525 376.074, 2603.682 374.980, 2597.928 374.257 C 2566.935 370.361, 2532.682 358.889, 2502.500 342.295 C 2485.816 333.122, 2472.248 324.797, 2445.209 307.141 C 2405.613 281.286, 2372.240 261.895, 2353.969 254.129 C 2344.433 250.075, 2322.074 244, 2316.692 244 C 2315.026 244, 2313.989 244.467, 2314.207 245.121 M 2318.500 299.403 C 2270.719 315.618, 2258.298 321.567, 2245.391 334.421 C 2233.238 346.524, 2229.514 356.034, 2220.494 398 C 2217.051 414.021, 2213.806 424.313, 2208.746 435.265 C 2202.410 448.977, 2205.857 448.036, 2215.599 433.394 C 2223.188 421.989, 2228.385 410.269, 2231.406 397.750 C 2232.833 391.837, 2235.167 382.163, 2236.594 376.250 C 2244.292 344.348, 2255.703 334.044, 2305.500 314.029 C 2323.120 306.947, 2344.284 297.147, 2350.750 293.076 C 2353.939 291.068, 2355.212 287.901, 2352.750 288.102 C 2352.063 288.159, 2336.650 293.244, 2318.500 299.403 M 2446 361.657 C 2436.014 370.688, 2424.873 378.978, 2414 385.468 C 2398.574 394.676, 2385.931 404.009, 2377.378 412.504 C 2369.573 420.257, 2367.598 422.929, 2363.688 431.032 C 2361.176 436.239, 2358.409 443.300, 2357.539 446.723 C 2352.968 464.726, 2351.674 491.664, 2354.500 510 C 2355.305 515.225, 2355.972 523.888, 2355.982 529.250 C 2356.001 539.654, 2357.194 541.810, 2359.025 534.750 C 2359.632 532.413, 2360.580 528.925, 2361.132 527 C 2361.685 525.075, 2362.541 514.050, 2363.034 502.500 C 2365.751 438.973, 2372.126 425.871, 2414.500 396.731 C 2432.048 384.663, 2441.891 375.405, 2452.341 361.140 C 2456.846 354.990, 2457.823 352.964, 2456.250 353.033 C 2455.838 353.051, 2451.225 356.932, 2446 361.657 M 2545.683 394.650 C 2544.634 395.699, 2544.887 419.679, 2546.025 427 C 2546.581 430.575, 2548.901 440.475, 2551.181 449 C 2556.067 467.271, 2556.787 478.163, 2553.648 486.301 C 2550.375 494.785, 2540.880 506.011, 2520.933 524.984 C 2510.245 535.150, 2495.200 549.788, 2487.500 557.513 C 2479.800 565.238, 2468.662 575.292, 2462.750 579.855 C 2452.507 587.761, 2449.892 591, 2453.751 591 C 2455.894 591, 2475.388 579.542, 2483.192 573.695 C 2501.235 560.178, 2548.679 513.910, 2556.218 502.480 C 2563.879 490.864, 2565.373 486.184, 2565.309 474 C 2565.252 462.908, 2564.345 458.689, 2556.663 433.769 C 2554.674 427.318, 2551.838 416.068, 2550.360 408.769 C 2547.675 395.505, 2546.967 393.367, 2545.683 394.650 M 2113 409.781 C 2113 411.875, 2144.228 439.362, 2165.082 455.624 C 2232.150 507.923, 2336.603 569.825, 2411.669 601.759 C 2456.987 621.038, 2487.514 629.872, 2527.086 635.157 C 2542.206 637.176, 2546.570 637.237, 2544.735 635.402 C 2544.406 635.072, 2534.644 632.155, 2523.043 628.919 C 2468.403 613.677, 2426.493 597.723, 2377.500 573.516 C 2309.084 539.712, 2233.095 492.607, 2136.862 424.348 C 2116.677 410.031, 2113 407.786, 2113 409.781 M 1960.500 412.504 C 1956.650 413.302, 1947.541 415.354, 1940.257 417.062 C 1928.297 419.868, 1924.885 421.219, 1926.268 422.602 C 1926.526 422.859, 1935.779 422.515, 1946.830 421.838 C 1969.814 420.428, 1995.935 421.596, 2020.822 425.147 C 2028.698 426.271, 2035.422 426.912, 2035.762 426.571 C 2037.775 424.558, 2023.927 418.425, 2008.085 414.314 C 1995.853 411.140, 1971.537 410.215, 1960.500 412.504 M 1826.500 463.781 C 1868.587 505.306, 1905.284 535.172, 2002 606.616 C 2093.518 674.220, 2155.912 716.231, 2239.134 766.284 C 2364.912 841.930, 2464.659 888.072, 2545.500 908.007 C 2583.170 917.295, 2607.642 919.980, 2636.907 918.034 C 2654.952 916.834, 2659.753 916.209, 2660.526 914.959 C 2661.348 913.629, 2658.391 913.127, 2640 911.475 C 2578.891 905.986, 2527.682 893.439, 2466.272 868.909 C 2360.234 826.552, 2207.008 737.829, 2066.254 637.287 C 2000.570 590.368, 1867.093 490.345, 1822.754 454.816 C 1814.643 448.317, 1807.443 443.014, 1806.754 443.031 C 1806.064 443.048, 1814.950 452.385, 1826.500 463.781 M 2110.500 463.071 C 2101.700 465.189, 2087.750 468.550, 2079.500 470.539 C 2061.473 474.885, 2042.427 481.811, 2023.500 490.903 C 2000.976 501.722, 1990.146 509.787, 1982.328 521.562 C 1976.849 529.813, 1971.908 546, 1974.868 546 C 1975.346 546, 1977.483 543.010, 1979.618 539.356 C 1984.866 530.374, 1994.784 519.881, 2003.742 513.837 C 2019.221 503.392, 2047.073 491.060, 2082.239 479.082 C 2111.938 468.967, 2131 461.470, 2131 459.907 C 2131 458.444, 2127.440 458.994, 2110.500 463.071 M 2229.500 551.049 C 2198.794 570.225, 2191.441 575.507, 2180.891 585.966 C 2164.692 602.024, 2153.139 620.902, 2147.570 640.412 C 2144.635 650.695, 2143.331 659, 2144.652 659 C 2145.153 659, 2148.018 653.723, 2151.019 647.273 C 2164.080 619.207, 2184.238 594.127, 2207.500 577.003 C 2230.333 560.195, 2236.147 555.641, 2245.342 547.360 C 2253.789 539.753, 2256.796 535.928, 2254.250 536.030 C 2253.838 536.047, 2242.700 542.805, 2229.500 551.049 M 1930.500 621.844 C 1881.979 665.089, 1857.384 697.383, 1842.568 737.300 C 1835.432 756.523, 1836.863 758.346, 1846.060 741.750 C 1863.115 710.978, 1878.882 689.694, 1915.510 648.001 C 1938.531 621.795, 1951.434 606.832, 1952.375 605.250 C 1954.902 601.001, 1948.080 606.176, 1930.500 621.844 M 2341.678 623.750 C 2341.436 624.163, 2336.737 633.275, 2331.235 644 C 2325.734 654.725, 2316.472 672.725, 2310.652 684 C 2304.832 695.275, 2300.054 705.063, 2300.035 705.750 C 2299.948 708.857, 2303.211 706.328, 2309.713 698.250 C 2317.300 688.825, 2329.797 670.297, 2333.490 663 C 2336.450 657.151, 2340.687 643.712, 2342.949 633 C 2344.721 624.610, 2344.729 623, 2343 623 C 2342.515 623, 2341.920 623.337, 2341.678 623.750 M 1876.911 632.179 C 1869.525 637.530, 1853.113 654.052, 1846.793 662.500 C 1838.886 673.069, 1833.677 683.608, 1828.328 699.859 C 1823.306 715.120, 1821.879 722.525, 1824.096 721.828 C 1824.868 721.585, 1829.795 713.087, 1835.044 702.943 C 1845.567 682.606, 1855.738 666.808, 1872.157 645.292 C 1885.174 628.236, 1886.178 625.466, 1876.911 632.179 M 2394.458 640.723 C 2372.337 666.606, 2354.644 705.499, 2349.517 739.510 C 2347.065 755.782, 2347.704 780.629, 2350.503 777.830 C 2350.840 777.494, 2351.778 772.782, 2352.588 767.359 C 2356.127 743.667, 2364.291 716.981, 2379.345 679.895 C 2383.663 669.258, 2392.627 651.291, 2398.116 642.272 C 2400.383 638.547, 2402.417 635.194, 2402.635 634.819 C 2402.854 634.445, 2402.599 633.870, 2402.069 633.542 C 2401.538 633.215, 2398.114 636.446, 2394.458 640.723 M 1131 648.813 C 1131 649.811, 1135.553 658.241, 1141.118 667.549 C 1174.277 723.007, 1221.466 784.332, 1252.399 812.164 C 1272.227 830.004, 1266.803 821.400, 1219.830 760.500 C 1211.346 749.500, 1188.477 719.462, 1169.009 693.750 C 1149.542 668.038, 1133.026 647, 1132.307 647 C 1131.588 647, 1131 647.816, 1131 648.813 M 1408 662.136 C 1385.697 664.420, 1358.357 670.463, 1331.500 679.044 C 1316.553 683.820, 1309 686.868, 1309 688.123 C 1309 689.453, 1311.414 689.219, 1325.531 686.524 C 1376.591 676.778, 1405.653 673.934, 1454.500 673.907 C 1485.921 673.889, 1500.176 674.729, 1533 678.533 C 1548.606 680.342, 1550 680.346, 1550 678.580 C 1550 676.676, 1544.036 674.826, 1522.500 670.052 C 1501.593 665.416, 1489.986 663.502, 1474 662.051 C 1460.539 660.829, 1420.255 660.881, 1408 662.136 M 2522.372 692.750 C 2521.189 709.583, 2521.479 743.793, 2522.904 755.500 C 2525.748 778.871, 2531.378 809.497, 2536.511 829.507 C 2540.173 843.787, 2540.882 851.938, 2539.629 865.366 C 2538.622 876.148, 2539.787 876.523, 2544.659 866.984 C 2551.171 854.236, 2551.558 844.272, 2546.525 819 C 2543.261 802.612, 2539.514 781.771, 2531.423 735 C 2529.568 724.275, 2527.280 707.737, 2526.340 698.250 C 2525.399 688.763, 2524.308 681, 2523.914 681 C 2523.520 681, 2522.826 686.288, 2522.372 692.750 M 1712 699.754 C 1712 701.172, 1761.799 750.040, 1777 763.540 C 1840.128 819.603, 1932.144 882.520, 2027 934.481 C 2155.289 1004.755, 2306.343 1057.572, 2397.647 1064.080 C 2424.226 1065.975, 2461.921 1064.462, 2458.933 1061.621 C 2458.695 1061.395, 2448.825 1060.238, 2437 1059.050 C 2381.401 1053.467, 2333.899 1043.941, 2279.500 1027.464 C 2164.322 992.578, 2050.344 938.716, 1934 864.190 C 1869.287 822.738, 1783.562 759.368, 1730.149 713.500 C 1713.689 699.364, 1712 698.085, 1712 699.754 M 2095.500 719.112 C 2060.243 746.002, 2030.870 792.011, 2007.960 856.234 C 2003.410 868.990, 2003.637 868.005, 2005.250 867.984 C 2005.938 867.975, 2010.100 860.903, 2014.500 852.268 C 2023.512 834.580, 2035.742 813.350, 2050.945 789 C 2066.402 764.244, 2077.186 749.417, 2097.702 724.712 C 2104.261 716.814, 2106.400 712.990, 2104.250 713.005 C 2103.838 713.008, 2099.900 715.756, 2095.500 719.112 M 2570.580 718.870 C 2570.285 719.349, 2572.334 723.511, 2575.134 728.120 C 2582.727 740.616, 2587.406 750.377, 2594.456 768.424 C 2601.300 785.946, 2603.373 792.617, 2605.335 803.432 C 2606.607 810.440, 2608.125 812.572, 2609.511 809.292 C 2609.928 808.307, 2610.481 802.550, 2610.741 796.500 C 2611.125 787.575, 2610.814 783.826, 2609.096 776.625 C 2605.056 759.695, 2595.937 742.855, 2583.036 728.500 C 2574.287 718.765, 2571.822 716.860, 2570.580 718.870 M 1685.500 729.964 C 1656.349 734.718, 1636.486 738.803, 1612.500 744.979 C 1589.436 750.918, 1588.214 751.296, 1529.666 770.601 C 1443.400 799.046, 1434.437 800.963, 1387.500 801.008 C 1346.181 801.047, 1330.325 803.328, 1317.510 811.074 C 1310.132 815.534, 1302.374 823.757, 1297.296 832.500 C 1293.475 839.078, 1290.911 844.499, 1278.117 873.049 C 1264.988 902.345, 1249.135 926.439, 1200.412 991.149 C 1151.641 1055.921, 1124.419 1100.275, 1099.098 1156.223 C 1061.640 1238.985, 1036.822 1329.211, 1024.066 1429 C 1015.658 1494.772, 1012.912 1533.612, 1006.991 1670.500 C 1001.709 1792.636, 997.834 1840.529, 988.973 1893.224 C 972.563 1990.808, 940.449 2078.790, 891.234 2161 C 833.852 2256.851, 751.565 2338.023, 656.500 2392.555 C 628.198 2408.790, 595.450 2424.868, 546 2446.805 C 503.726 2465.558, 463.551 2485.135, 441.879 2497.541 C 418.889 2510.701, 384 2534.888, 384 2537.665 C 384 2539.350, 382.566 2540.063, 406 2526.727 C 435.777 2509.781, 472.480 2492.213, 557.781 2454.076 C 618.027 2427.141, 642.357 2414.979, 674.500 2395.732 C 735.940 2358.942, 792.529 2310.163, 840.772 2252.408 C 916.341 2161.938, 971.067 2044.909, 995.514 1921.500 C 1008.749 1854.690, 1013.333 1804.043, 1019.499 1656.500 C 1024.677 1532.586, 1028.126 1485.302, 1036.606 1422 C 1054.808 1286.111, 1096.562 1166.885, 1160.944 1066.953 C 1174.829 1045.401, 1188.163 1026.725, 1216.960 988.500 C 1261.517 929.354, 1277.134 904.459, 1293.487 866.500 C 1306.286 836.792, 1314.389 825.225, 1326.337 819.605 C 1336.953 814.611, 1342.558 813.973, 1384 813.042 C 1440.711 811.768, 1447.501 810.274, 1536.500 779.482 C 1621.751 749.986, 1647.142 742.438, 1694.500 732.516 C 1714.228 728.382, 1715 728.172, 1715 726.933 C 1715 725.454, 1710.032 725.964, 1685.500 729.964 M 2015.342 756.750 C 2008.573 773.065, 1989.791 806.395, 1974.391 829.421 C 1971.478 833.778, 1969.325 837.717, 1969.607 838.174 C 1970.541 839.684, 1973.632 837.182, 1982.798 827.497 C 1992.875 816.849, 2004.640 800.276, 2009.093 790.456 C 2012.132 783.752, 2020 758.068, 2020 754.849 C 2020 751.616, 2016.957 752.858, 2015.342 756.750 M 1634.533 783.489 C 1604.553 787.790, 1576.208 797.112, 1549.722 811.382 C 1535.263 819.172, 1515.742 831.273, 1515.249 832.752 C 1514.452 835.144, 1518.345 833.949, 1537.010 826.073 C 1561.603 815.696, 1580.136 809.362, 1608.933 801.490 C 1643.639 792.003, 1658.065 789.414, 1687.293 787.423 C 1698.040 786.691, 1699.940 785.019, 1691.420 783.790 C 1680.524 782.219, 1644.708 782.029, 1634.533 783.489 M 2309.353 839.034 C 2296.045 847.832, 2287.574 855.295, 2278.135 866.537 C 2264.862 882.347, 2255.248 895.708, 2243.463 914.723 C 2225.814 943.200, 2217.794 955.014, 2210.688 963 C 2207.018 967.125, 2204.012 970.837, 2204.008 971.250 C 2203.972 974.728, 2217.964 964.956, 2227.662 954.730 C 2232.405 949.730, 2241.402 937.267, 2254.295 917.839 C 2283.074 874.473, 2299.431 853.479, 2314.823 840.151 C 2318.220 837.209, 2321 834.397, 2321 833.901 C 2321 831.968, 2318.128 833.234, 2309.353 839.034 M 969.743 886.041 C 949.699 902.027, 941.008 913.978, 933.047 936.500 C 925.532 957.761, 922.527 974.734, 917.510 1024.241 C 911.889 1079.700, 910.097 1091.803, 903.992 1115.500 C 899.034 1134.742, 892.162 1154.643, 880.400 1183.814 C 871.257 1206.491, 870.108 1210, 871.826 1210 C 874.753 1210, 902.247 1157.081, 909.256 1137.957 C 920.623 1106.942, 923.880 1089.430, 930.498 1023.744 C 935.184 977.237, 936.973 965.658, 942.525 945.909 C 949.430 921.354, 957.257 907.192, 974.415 888.217 C 978.037 884.211, 981 880.499, 981 879.967 C 981 877.816, 978.080 879.392, 969.743 886.041 M 1891.500 888.883 C 1849.310 904.507, 1826.908 917.971, 1759 968.518 C 1704.200 1009.308, 1693.133 1015.708, 1648.202 1032.598 C 1615.685 1044.822, 1602.629 1052.462, 1591.447 1065.811 C 1580.213 1079.221, 1573.609 1092.385, 1553.479 1141.500 C 1546.136 1159.418, 1530.950 1190.870, 1523.493 1203.608 C 1507.059 1231.679, 1488.537 1255.976, 1446.578 1304.504 C 1411.849 1344.671, 1407.104 1350.281, 1392.454 1368.500 C 1320.518 1457.962, 1261.331 1562.544, 1220.693 1672 C 1210.777 1698.707, 1203.702 1719.843, 1181.357 1789.500 C 1149.411 1889.092, 1139.971 1916.596, 1124.041 1956.500 C 1081.409 2063.289, 1023.854 2162.740, 958.525 2242.500 C 904.391 2308.592, 837.376 2369.317, 763.500 2419.222 C 700.403 2461.846, 648.886 2487.658, 532.500 2534.963 C 467.491 2561.387, 426.544 2581.958, 401.404 2600.826 C 385.356 2612.870, 367.109 2632.047, 371.750 2631.991 C 372.163 2631.986, 376.325 2628.954, 381 2625.253 C 410.341 2602.025, 453.520 2580.075, 533.067 2547.946 C 619.007 2513.236, 663.300 2493.188, 703 2471.031 C 798.897 2417.511, 886.722 2345.849, 956.112 2264.500 C 1028.601 2179.520, 1093.246 2069.090, 1138.689 1952.615 C 1152.488 1917.246, 1163.107 1886.312, 1186.618 1813 C 1217.954 1715.283, 1231.987 1674.850, 1247.400 1637.865 C 1287.719 1541.119, 1342.425 1449.585, 1408.156 1368.891 C 1416.045 1359.206, 1434.895 1336.931, 1450.044 1319.391 C 1497.040 1264.978, 1506.465 1253.111, 1524.436 1225.728 C 1540.005 1202.005, 1553.586 1174.603, 1571.135 1131.500 C 1586.835 1092.942, 1594.344 1079.540, 1606.778 1067.893 C 1615.028 1060.166, 1622.940 1055.420, 1636.379 1050.140 C 1641.945 1047.953, 1654.150 1043.162, 1663.500 1039.494 C 1687.019 1030.267, 1705.058 1021.180, 1720.972 1010.541 C 1728.412 1005.567, 1751.600 988.668, 1772.500 972.989 C 1824.891 933.684, 1857.932 911.911, 1895.250 892.103 C 1905.915 886.442, 1909.171 883.940, 1905.750 884.035 C 1905.063 884.054, 1898.650 886.236, 1891.500 888.883 M 1332.474 900.041 C 1331.640 901.392, 1333.140 903.620, 1343.695 916.704 C 1364.874 942.957, 1379.907 959.796, 1410.399 991.425 C 1446.927 1029.316, 1470.567 1050.149, 1498 1068.625 C 1513.306 1078.933, 1517.650 1081.375, 1518.432 1080.109 C 1519.013 1079.171, 1515.188 1075.382, 1489 1050.956 C 1479.925 1042.492, 1442.125 1005.361, 1405 968.444 C 1367.875 931.527, 1336.515 900.798, 1335.311 900.158 C 1333.807 899.359, 1332.919 899.323, 1332.474 900.041 M 2306.548 921.446 C 2291.891 929.114, 2275.958 941.073, 2268.485 950.018 C 2262.945 956.648, 2252 976.201, 2252 979.467 C 2252 982.704, 2255.139 980.726, 2261.076 973.750 C 2271.445 961.567, 2279.103 953.938, 2298.952 936.018 C 2315.883 920.731, 2319.221 917, 2315.965 917 C 2315.461 917, 2311.224 919.001, 2306.548 921.446 M 2497.337 930.250 C 2481.098 955.895, 2471.976 967.213, 2449.989 989 C 2433.824 1005.017, 2418.265 1016.005, 2392.914 1029.307 C 2376.073 1038.143, 2379.312 1039.455, 2400.708 1032.463 C 2424.195 1024.788, 2440.235 1014.941, 2457.533 997.578 C 2471.416 983.644, 2483.638 967.827, 2490.227 955.267 C 2495.028 946.118, 2502 929.559, 2502 927.306 C 2502 924.781, 2500.001 926.044, 2497.337 930.250 M 1905.477 940.085 C 1881.341 953.464, 1865.107 965.793, 1844.431 986.446 C 1828.189 1002.671, 1822.234 1009.942, 1810.654 1027.688 C 1800.717 1042.917, 1799.777 1044.621, 1800.187 1046.682 C 1800.404 1047.774, 1802.189 1046.460, 1806 1042.402 C 1835.028 1011.496, 1876.858 971.818, 1907 946.599 C 1912.775 941.767, 1918.117 936.955, 1918.872 935.907 C 1921.452 932.322, 1916.947 933.727, 1905.477 940.085 M 2061.410 1024.250 C 2030.264 1072.967, 2021.835 1084.256, 1991.310 1118.130 C 1968.456 1143.492, 1956.790 1154.668, 1899.291 1206.278 C 1892.073 1212.756, 1883.036 1221.756, 1879.208 1226.278 C 1865.726 1242.203, 1862.439 1248.917, 1851.525 1282.832 C 1836.459 1329.653, 1815.027 1359.227, 1734.009 1445 C 1650.261 1533.662, 1599.118 1594.867, 1543.492 1673 C 1516.642 1710.714, 1488.601 1753.497, 1427.481 1850 C 1337.995 1991.291, 1284.640 2065.547, 1212.642 2149 C 1163.278 2206.218, 1092.664 2276.628, 1033.985 2327.143 C 952.074 2397.657, 848.859 2471.728, 758 2525.199 C 696.842 2561.191, 656.926 2581.261, 564.427 2622.530 C 445.652 2675.521, 389.930 2705.178, 350.507 2736.382 C 337.166 2746.941, 319.681 2762.439, 305.524 2776.253 C 294.363 2787.143, 291.287 2791, 293.763 2791 C 294.182 2791, 300.879 2785.938, 308.644 2779.750 C 374.396 2727.357, 432.499 2694.897, 570 2633.739 C 688.794 2580.901, 756.034 2544.390, 848.500 2482.511 C 1032.729 2359.223, 1176.656 2224.654, 1301.463 2059 C 1345.240 2000.895, 1378.222 1952.241, 1441.789 1852 C 1518.753 1730.630, 1548.073 1687.055, 1589.816 1632 C 1631.560 1576.945, 1672.019 1529.687, 1737.502 1459.500 C 1828.115 1362.377, 1845.751 1337.779, 1863.447 1283.836 C 1872.005 1257.747, 1874.774 1251.519, 1882.247 1241.551 C 1889.406 1232.003, 1897.785 1223.763, 1924 1200.493 C 1983.991 1147.243, 2019.265 1107.600, 2043.675 1066 C 2050.664 1054.090, 2073 1011.555, 2073 1010.156 C 2073 1007.041, 2070.358 1010.254, 2061.410 1024.250 M 2236.582 1072.867 C 2236.276 1073.362, 2235.560 1077.082, 2234.991 1081.134 C 2231.870 1103.338, 2227.140 1122.675, 2220.435 1140.640 C 2218.411 1146.063, 2210.907 1162.650, 2203.760 1177.500 C 2182.171 1222.354, 2174.517 1238.894, 2169.225 1252.122 C 2154.580 1288.728, 2151.670 1313.519, 2157.325 1353.500 C 2160.884 1378.668, 2161.327 1384.774, 2160.082 1391.572 C 2157.876 1403.624, 2150.464 1411.121, 2119.745 1432.371 C 2079.068 1460.509, 2067.704 1471.490, 2025.947 1523 C 1989.725 1567.683, 1970.062 1589.789, 1941.846 1617.551 C 1899.515 1659.201, 1869.995 1682.389, 1786 1739.972 C 1708.618 1793.021, 1671.789 1820.707, 1631 1856.491 C 1581.923 1899.546, 1515.711 1968.250, 1487.358 2005.539 C 1479.981 2015.241, 1460.888 2043.270, 1458.605 2047.750 C 1455.745 2053.363, 1459.019 2051.563, 1464.997 2044.237 C 1486.172 2018.286, 1498.160 2005.176, 1547.103 1954.442 C 1633.410 1864.976, 1676.764 1828.777, 1795.608 1746.957 C 1853.794 1706.898, 1874.037 1691.950, 1904 1666.919 C 1951.547 1627.198, 1981.092 1596.060, 2039.449 1524.166 C 2075.347 1479.940, 2089.209 1466.653, 2124.772 1442.377 C 2157.989 1419.702, 2166.385 1411.547, 2170.387 1398.068 C 2172.614 1390.569, 2172.434 1372.936, 2169.953 1355.500 C 2167.227 1336.348, 2166.396 1313.845, 2167.955 1301.417 C 2170.268 1282.981, 2177.942 1260.323, 2192.389 1229.284 C 2196.429 1220.603, 2204.348 1203.600, 2209.986 1191.500 C 2232.762 1142.619, 2238.969 1119.896, 2238.992 1085.309 C 2238.999 1074.386, 2238.198 1070.252, 2236.582 1072.867 M 2184.999 1084.250 C 2184.998 1084.388, 2183.652 1092.287, 2182.006 1101.805 C 2178.262 1123.460, 2176.973 1128.487, 2166.953 1160.465 C 2158.733 1186.699, 2154.103 1199.295, 2147.592 1213.135 C 2143.882 1221.021, 2143.345 1223, 2144.916 1223 C 2147.354 1223, 2160.380 1203.257, 2167.019 1189.500 C 2179.757 1163.102, 2185.652 1136.744, 2187.539 1097.750 C 2188.131 1085.527, 2188.027 1084, 2186.602 1084 C 2185.721 1084, 2185 1084.112, 2184.999 1084.250 M 2380 1088.299 C 2380 1089.106, 2383.762 1100.056, 2388.360 1112.633 C 2404.844 1157.720, 2408.113 1170.352, 2410.149 1196.818 C 2412.110 1222.302, 2409.466 1253.287, 2400.026 1315.444 C 2393.685 1357.199, 2393.546 1358.555, 2393.522 1379 C 2393.497 1400.691, 2394.556 1407.792, 2400.457 1425.500 C 2403.938 1435.949, 2406.679 1441.878, 2419.258 1466.173 C 2426.811 1480.762, 2428.885 1487.337, 2427.578 1492.546 C 2426.511 1496.796, 2419.713 1503.233, 2402.674 1516.130 C 2378.247 1534.618, 2367.456 1543.717, 2357 1554.644 C 2344.722 1567.476, 2336.120 1578.810, 2315.244 1609.666 C 2288.891 1648.618, 2278.150 1661.918, 2254.397 1685.010 C 2212.525 1725.715, 2157.924 1763.317, 2089.447 1798.604 C 2069.642 1808.810, 2064.526 1812, 2067.963 1812 C 2069.771 1812, 2111.459 1793.808, 2128.500 1785.582 C 2175.605 1762.845, 2220.268 1732.867, 2257.147 1699.235 C 2281.256 1677.248, 2297.500 1657.665, 2323.282 1619.500 C 2358.145 1567.893, 2366.814 1558.354, 2406 1528.476 C 2433.165 1507.763, 2436.851 1503.851, 2439.014 1493.434 C 2440.721 1485.209, 2438.521 1478.609, 2425.032 1451.500 C 2407.416 1416.096, 2405.480 1408.795, 2405.546 1378 C 2405.587 1358.811, 2405.943 1354.243, 2408.859 1335.500 C 2420.638 1259.792, 2422.406 1242.508, 2421.699 1210 C 2421.261 1189.831, 2420.823 1184.783, 2418.614 1174.383 C 2414.054 1152.926, 2406.992 1134.980, 2391.134 1104.550 C 2382.978 1088.902, 2380 1084.555, 2380 1088.299 M 2493.214 1131.671 C 2493.921 1133.228, 2496.353 1138.101, 2498.617 1142.501 C 2505.332 1155.549, 2509.393 1166.863, 2518.538 1198 C 2529.584 1235.612, 2531.739 1245.187, 2533.167 1263 C 2533.806 1270.975, 2534.688 1277.911, 2535.127 1278.413 C 2537.802 1281.471, 2540.504 1254.091, 2538.992 1239.265 C 2536.465 1214.498, 2526.758 1182.828, 2514.390 1159 C 2508.133 1146.945, 2496.089 1129.657, 2493.609 1129.170 C 2492.117 1128.877, 2492.073 1129.157, 2493.214 1131.671 M 1614.985 1151.250 C 1614.963 1153.029, 1647.795 1185.144, 1665.033 1200.205 C 1704.283 1234.497, 1741.788 1261.599, 1773 1278.225 C 1784.784 1284.502, 1810.625 1295.778, 1815.385 1296.721 C 1818.208 1297.280, 1818.371 1297.180, 1817.124 1295.664 C 1816.367 1294.744, 1809.785 1290.427, 1802.498 1286.071 C 1784.341 1275.219, 1759.765 1259.074, 1739.806 1244.887 C 1725.153 1234.471, 1657.606 1182.410, 1631 1161.025 C 1616.976 1149.753, 1615.018 1148.558, 1614.985 1151.250 M 2363 1177.195 C 2363 1177.945, 2363.886 1184.845, 2364.970 1192.529 C 2368.763 1219.439, 2369.505 1236.476, 2368.224 1267.270 C 2366.606 1306.157, 2363.375 1329.867, 2355.043 1363.989 C 2351.636 1377.939, 2352.270 1382.162, 2356.376 1372.877 C 2364.290 1354.982, 2372.815 1326.555, 2376.582 1305.500 C 2378.530 1294.609, 2379.333 1253.708, 2377.906 1238 C 2376.239 1219.644, 2366.797 1177.099, 2364.199 1176.233 C 2363.539 1176.013, 2363 1176.446, 2363 1177.195 M 1500.770 1301.318 C 1484.234 1313.615, 1475.873 1321.118, 1463.237 1335 C 1433.504 1367.666, 1390.730 1426.221, 1369.003 1464 C 1357.924 1483.264, 1345.022 1510.328, 1335.633 1534 C 1326.302 1557.524, 1325.180 1561, 1326.916 1561 C 1328.330 1561, 1329.861 1558.397, 1346.629 1527.500 C 1364.013 1495.467, 1381.550 1466.321, 1400.482 1438 C 1434.141 1387.647, 1476.723 1332.758, 1503.744 1304.892 C 1509.935 1298.508, 1515 1292.995, 1515 1292.642 C 1515 1291.069, 1512.524 1292.579, 1500.770 1301.318 M 1892 1329.826 C 1892 1334.101, 1941.673 1364.510, 1982 1384.922 C 2016.352 1402.311, 2044.590 1413.309, 2074.478 1420.941 C 2086.840 1424.098, 2091 1424.645, 2091 1423.114 C 2091 1422.036, 2092.033 1422.524, 2052 1404.688 C 2002.754 1382.746, 1950.816 1358.031, 1912 1338.066 C 1895.033 1329.339, 1892 1328.089, 1892 1329.826 M 1099.154 1339.750 C 1098.651 1340.713, 1096.192 1347.800, 1093.690 1355.500 C 1080.533 1396.003, 1073.839 1424.237, 1067.020 1468 C 1058.184 1524.700, 1055.458 1560.669, 1053.989 1639.943 C 1052.986 1694.091, 1053.249 1792.582, 1054.400 1793.733 C 1055.646 1794.979, 1056.271 1792.798, 1057.606 1782.557 C 1062.669 1743.688, 1064.757 1711.674, 1066.509 1646 C 1068.596 1567.776, 1070.145 1544.199, 1076.538 1493.414 C 1083.891 1434.996, 1092.806 1380.860, 1100.071 1350.500 C 1102.201 1341.603, 1102.478 1338, 1101.035 1338 C 1100.505 1338, 1099.658 1338.787, 1099.154 1339.750 M 2169.513 1449.978 C 2168.757 1451.203, 2173.208 1454.344, 2189 1463.727 C 2238.536 1493.162, 2291.644 1515.816, 2337.475 1527.062 C 2350.870 1530.349, 2357.412 1530.930, 2354.964 1528.616 C 2353.687 1527.408, 2306.606 1506.824, 2281.812 1496.632 C 2277.034 1494.668, 2261.284 1487.812, 2246.812 1481.396 C 2225.289 1471.854, 2178.836 1452.233, 2171.782 1449.703 C 2170.837 1449.365, 2169.816 1449.488, 2169.513 1449.978 M 1973.793 1519.750 C 1956.180 1543.441, 1946.247 1555.507, 1924.194 1580 C 1885.149 1623.367, 1848.594 1657.684, 1791.750 1704.337 C 1785.838 1709.189, 1781 1713.574, 1781 1714.080 C 1781 1716.318, 1784.894 1714.216, 1803.105 1702.143 C 1825.411 1687.357, 1849.025 1669.845, 1867 1654.760 C 1897.651 1629.037, 1940.420 1581.830, 1961.913 1550 C 1973.783 1532.420, 1991 1503.195, 1991 1500.626 C 1991 1497.692, 1986.354 1502.855, 1973.793 1519.750 M 2457 1528.829 C 2457 1530.054, 2475.333 1536.224, 2487 1538.926 C 2506.546 1543.453, 2534.561 1544.655, 2548.816 1541.579 C 2556.956 1539.822, 2560.650 1538.222, 2559.357 1537.013 C 2558.886 1536.573, 2551.075 1535.493, 2542 1534.613 C 2532.925 1533.734, 2519.200 1532.366, 2511.500 1531.573 C 2503.800 1530.780, 2490.075 1529.855, 2481 1529.517 C 2471.925 1529.180, 2462.813 1528.661, 2460.750 1528.364 C 2458.546 1528.047, 2457 1528.239, 2457 1528.829 M 2221.901 1625.750 C 2180.861 1669.489, 2147.276 1698.168, 2101.500 1728.561 C 2061.478 1755.134, 2032.139 1771.296, 1994 1787.783 C 1970.235 1798.055, 1970 1798.167, 1970 1799.161 C 1970 1801.132, 1976.678 1799.601, 1994.963 1793.436 C 2031.175 1781.228, 2059.187 1768.345, 2090.267 1749.606 C 2144.903 1716.663, 2180.724 1686.249, 2211.027 1647.072 C 2220.776 1634.468, 2230 1621.239, 2230 1619.862 C 2230 1617.844, 2227.857 1619.403, 2221.901 1625.750 M 2371 1733.607 C 2330.338 1757.300, 2259.512 1785.510, 2193 1804.505 C 2160.997 1813.644, 2113.707 1824.952, 2085 1830.330 C 2076.425 1831.936, 2076.804 1832.224, 2090.500 1834.503 C 2129.159 1840.937, 2175.024 1858.185, 2210.743 1879.721 C 2242.767 1899.031, 2269.010 1924.533, 2287.693 1954.500 C 2305.551 1983.143, 2313.439 2003.992, 2327.985 2061 C 2339.083 2104.489, 2343.849 2118.889, 2353.971 2139.500 C 2363.136 2158.162, 2368.482 2166.769, 2386.641 2192.092 C 2423.931 2244.096, 2437.664 2275.073, 2445.142 2324.055 C 2447.288 2338.111, 2447.497 2342.647, 2447.462 2374.500 C 2447.422 2412.168, 2446.381 2424.410, 2440.480 2456.625 C 2426.513 2532.879, 2393.177 2609.191, 2347.706 2669 L 2339.723 2679.500 2345.930 2673.500 C 2365.488 2654.595, 2390.696 2618.866, 2438.710 2542 C 2471.585 2489.368, 2482.256 2470.398, 2502.554 2428.500 C 2536.894 2357.614, 2550.951 2316.035, 2557.658 2265.500 C 2560.140 2246.799, 2560.143 2198.082, 2557.662 2178.010 C 2550.879 2123.119, 2540.624 2090.969, 2504.687 2011.927 C 2487.654 1974.462, 2478.327 1952.211, 2460.498 1906.500 C 2434.401 1839.595, 2411.571 1785.126, 2399.453 1760.859 C 2391.510 1744.954, 2382.045 1727.986, 2381.145 1728.036 C 2380.790 1728.055, 2376.225 1730.563, 2371 1733.607 M 2361.008 1815.250 C 2361.012 1815.938, 2364.590 1820.900, 2368.959 1826.278 C 2399.471 1863.838, 2419.804 1897.160, 2437.910 1939.275 C 2454.457 1977.763, 2464.473 2007.298, 2474.579 2047.407 C 2479.233 2065.876, 2481.696 2074, 2482.640 2074 C 2484.509 2074, 2484.391 2071.688, 2481.456 2050.879 C 2474.293 2000.098, 2460.646 1955.717, 2438.534 1911.295 C 2423.302 1880.694, 2406.375 1857.454, 2379.505 1830.250 C 2364.453 1815.011, 2360.989 1812.203, 2361.008 1815.250 M 2016.500 1841.730 C 2008.306 1842.210, 1937.748 1851.293, 1909.500 1855.505 C 1758.758 1877.978, 1659.909 1919.448, 1551.909 2005.526 C 1503.975 2043.730, 1469.403 2075.251, 1371.500 2170.017 C 1266.151 2271.991, 1226.985 2308.109, 1152.511 2371.962 C 1010.741 2493.516, 892.385 2573.820, 750.302 2644.858 C 690.065 2674.975, 647.012 2694.231, 571.500 2724.827 C 524.806 2743.746, 511.219 2749.424, 464 2769.744 C 427.219 2785.572, 410 2792.100, 382 2800.834 C 345.890 2812.097, 317.129 2818.689, 299.092 2819.837 L 288.684 2820.500 294.592 2824.624 C 307.309 2833.500, 322.653 2839.511, 340.844 2842.742 C 354.151 2845.105, 403.639 2845.023, 435 2842.586 C 465.039 2840.252, 523.039 2839.401, 547.500 2840.935 C 609.629 2844.833, 651.835 2854.034, 740.500 2883.008 C 783.906 2897.192, 806.109 2903.779, 833.325 2910.545 C 888.950 2924.375, 940.040 2932.385, 1008 2937.930 C 1058.760 2942.073, 1070.528 2942.501, 1132.500 2942.458 C 1184.202 2942.423, 1201.883 2942.004, 1248.500 2939.708 C 1411.015 2931.703, 1431.106 2931.011, 1501.500 2930.998 C 1650.003 2930.971, 1684.999 2924.964, 1883 2865.513 C 1901.975 2859.815, 1933.925 2850.364, 1954 2844.511 C 2044.640 2818.080, 2139.403 2787.188, 2183.596 2769.665 C 2214.489 2757.415, 2265.610 2732.783, 2274.936 2725.655 C 2291.390 2713.078, 2311.795 2692.086, 2331.465 2667.500 C 2385.086 2600.478, 2421.336 2511.694, 2432.519 2420 C 2434.734 2401.834, 2435.586 2360.150, 2434.093 2342.974 C 2430.823 2305.365, 2422.283 2274.981, 2406.848 2246.042 C 2400.182 2233.544, 2394.573 2224.851, 2376.201 2198.546 C 2357.821 2172.229, 2351.977 2162.907, 2344.435 2147.878 C 2332.585 2124.262, 2327.482 2109.282, 2315.014 2061.500 C 2310.565 2044.450, 2304.653 2023.750, 2301.876 2015.500 C 2280.418 1951.748, 2242.247 1908.681, 2179.886 1877.863 C 2126.473 1851.467, 2068.630 1838.675, 2016.500 1841.730 M 2030.500 1893.612 C 2008.937 1894.984, 1981 1898.622, 1981 1900.057 C 1981 1901.559, 1986.852 1901.920, 2019 1902.398 C 2078.689 1903.285, 2106.877 1909.307, 2145.603 1929.445 C 2181.220 1947.967, 2204.794 1965.286, 2228.320 1990.218 C 2239.032 2001.569, 2243 2004.807, 2243 2002.196 C 2243 1999.639, 2226.306 1977.276, 2215.705 1965.630 C 2200.299 1948.706, 2175.528 1930.632, 2149.500 1917.324 C 2123.631 1904.097, 2107.040 1898.683, 2082.710 1895.531 C 2070.787 1893.986, 2041.529 1892.911, 2030.500 1893.612 M 1256.657 2037.750 C 1231.078 2076.262, 1210.907 2102.748, 1168.394 2153.645 C 1104.341 2230.331, 1062.055 2270.184, 957.906 2352.022 C 943.280 2363.515, 930.770 2373.572, 930.108 2374.370 C 925.062 2380.450, 941.819 2370.418, 977.500 2345.996 C 1032.283 2308.501, 1065.529 2281.479, 1103.581 2243.521 C 1137.599 2209.587, 1157.235 2187.568, 1190.182 2146.410 C 1226.727 2100.756, 1243.217 2076.327, 1266.737 2033 C 1277.846 2012.536, 1278.935 2010, 1276.611 2010 C 1275.725 2010, 1267.368 2021.622, 1256.657 2037.750 M 2343.611 2308.820 C 2343.332 2309.272, 2341.698 2320.859, 2339.979 2334.570 C 2333.394 2387.115, 2326.003 2422.315, 2313.435 2461 C 2285.668 2546.465, 2250.366 2609.565, 2202.752 2658.837 C 2182.732 2679.553, 2168.624 2691.756, 2143.750 2709.868 C 2131.695 2718.646, 2129.275 2721, 2132.307 2721 C 2133.754 2721, 2154.033 2709.538, 2166.500 2701.674 C 2193.726 2684.500, 2221.245 2659.629, 2242.486 2633 C 2284.985 2579.721, 2325.947 2483.983, 2338.450 2408.708 C 2342.532 2384.127, 2345.973 2341.954, 2345.994 2316.250 C 2345.999 2308.935, 2345.159 2306.315, 2343.611 2308.820 M 1194.285 2403.238 C 1192.203 2405.018, 1182.175 2413.919, 1172 2423.018 C 1131.749 2459.009, 1103.600 2481.988, 1055.500 2518.120 C 918.234 2621.231, 829.042 2674.978, 706.140 2728.643 C 682.364 2739.024, 678.770 2740.819, 679.474 2741.958 C 680.985 2744.403, 749.257 2719.319, 785.500 2703.003 C 833.910 2681.210, 880.697 2654.494, 944 2612.498 C 1011.693 2567.590, 1081.366 2514.772, 1129.989 2471.504 C 1160.226 2444.597, 1200 2404.828, 1200 2401.502 C 1200 2399.210, 1198.439 2399.684, 1194.285 2403.238 M 1895 2806.061 C 1808.379 2838.028, 1717.118 2861.337, 1627.442 2874.400 C 1589.137 2879.979, 1522.200 2887.393, 1432.500 2895.992 C 1385.547 2900.492, 1382.185 2900.891, 1381.473 2902.043 C 1380.347 2903.866, 1386.455 2904.170, 1411.853 2903.559 C 1551.929 2900.187, 1645.060 2889.472, 1739.500 2865.859 C 1799.943 2850.747, 1843.580 2835.181, 1904 2807.177 C 1916.856 2801.219, 1920.119 2799.055, 1917.325 2798.339 C 1916.871 2798.222, 1906.825 2801.698, 1895 2806.061" stroke="none" fill="#040404" fill-rule="evenodd"/></svg>