<svg xmlns="http://www.w3.org/2000/svg" width="3000" height="3000" viewBox="0 0 3000 3000" version="1.1"><path d="" stroke="none" fill="#080404" fill-rule="evenodd"/><path d="M 1431 284.660 C 1355.322 289.890, 1308.324 298.587, 1272.377 314.011 C 1251.772 322.852, 1237.453 332.474, 1224.309 346.311 C 1212.177 359.083, 1203.011 374.879, 1196.542 394.158 C 1194.700 399.648, 1192.971 404.362, 1192.700 404.633 C 1192.429 404.904, 1188.673 403.352, 1184.353 401.182 C 1158.054 387.974, 1110.502 374.719, 1070 369.305 C 1051.158 366.786, 997.384 366.780, 978.776 369.295 C 927.205 376.265, 883.524 389.165, 844.500 408.950 C 791.454 435.845, 755.168 470.329, 733.438 514.500 C 726.158 529.296, 721.939 541.527, 718.776 557.003 L 716.584 567.730 692.542 568.295 C 669.741 568.831, 647.733 570.790, 622.236 574.552 C 539.538 586.755, 467.221 619.951, 407.339 673.197 C 361.521 713.939, 333.324 770.251, 324.818 838 C 323.386 849.412, 322.966 903.467, 324.236 913.052 L 324.971 918.605 306.236 933.670 C 267.195 965.062, 238.432 990.692, 212 1017.642 C 183.215 1046.990, 164.038 1071.399, 146.117 1101.500 C 115.877 1152.294, 97.522 1203.668, 90.339 1257.619 C 88.173 1273.885, 87.855 1320.304, 89.803 1336 C 96.612 1390.884, 112.296 1438.530, 139.517 1487.030 C 142.533 1492.403, 145 1497.298, 145 1497.908 C 145 1498.517, 141.870 1504.214, 138.045 1510.566 C 108.100 1560.291, 95.998 1603.016, 96.001 1658.994 C 96.003 1696.429, 101.659 1729.408, 114.523 1767 C 131.832 1817.582, 158.883 1863.958, 197.060 1908.500 C 211.173 1924.966, 245.790 1959.340, 267.500 1978.447 C 339.980 2042.237, 431.735 2103.331, 560 2173.207 C 594.770 2192.148, 643.453 2217.519, 717.500 2255.287 C 748.300 2270.997, 778.626 2286.534, 784.892 2289.815 L 796.283 2295.780 795.892 2311.640 C 795.301 2335.561, 795.831 2379.793, 797.005 2404.500 C 802.871 2527.985, 820.627 2609.360, 852.100 2657 C 859.754 2668.586, 877.438 2686.671, 888.015 2693.729 C 926.348 2719.309, 966.739 2723.635, 1030.311 2708.971 C 1060.129 2702.092, 1087.521 2693.014, 1146.917 2670.325 C 1169.238 2661.798, 1196.500 2651.535, 1207.500 2647.518 C 1230.612 2639.078, 1243.427 2634.017, 1257.585 2627.735 L 1267.670 2623.261 1275.585 2629.235 C 1341.617 2679.077, 1388.296 2700.948, 1445 2708.611 C 1461.815 2710.884, 1497.189 2710.875, 1517.315 2708.593 C 1580 2701.486, 1631.779 2682.035, 1694.403 2642.069 C 1705.724 2634.844, 1707.706 2633.910, 1710.570 2634.447 C 1716.792 2635.614, 1775.600 2651.887, 1797.146 2658.403 C 1809.051 2662.004, 1833.351 2669.717, 1851.146 2675.543 C 1926.513 2700.220, 1949.610 2705.341, 1986 2705.441 C 2009.620 2705.506, 2016.409 2704.574, 2033.677 2698.900 C 2084.198 2682.297, 2128.746 2629.018, 2153.388 2555.727 C 2171.063 2503.161, 2182.171 2426.897, 2188.088 2317.500 C 2188.653 2307.050, 2189.339 2295.791, 2189.613 2292.480 L 2190.110 2286.461 2213.305 2273.034 C 2247.862 2253.030, 2311.478 2216.866, 2395 2169.747 C 2548.864 2082.945, 2605.383 2050.059, 2652.725 2019.791 C 2754.058 1955.004, 2819.360 1896.403, 2863.662 1830.500 C 2908.605 1763.644, 2922.894 1691.808, 2905.019 1622.592 C 2891.969 1572.058, 2861.361 1526.063, 2813.740 1485.425 C 2807.558 1480.149, 2802.366 1475.468, 2802.202 1475.022 C 2802.038 1474.577, 2806.169 1465.952, 2811.381 1455.856 C 2833.549 1412.919, 2849.781 1368.885, 2860.354 1323 C 2882.215 1228.122, 2874.629 1143.371, 2838.514 1079 C 2802.442 1014.706, 2746.193 968.324, 2670.500 940.456 C 2665.550 938.634, 2655.650 934.727, 2648.500 931.773 L 2635.500 926.403 2635.652 922.952 C 2636.007 914.862, 2633.903 879.371, 2632.447 868.891 C 2623.968 807.850, 2599.597 748.704, 2562.652 699.500 C 2533.328 660.447, 2480.887 614.939, 2430.500 584.820 C 2383.292 556.602, 2328.079 537.040, 2279.871 531.452 L 2274.242 530.800 2273.047 523.150 C 2266.409 480.650, 2247.321 442.761, 2218.747 415.362 C 2184.431 382.458, 2137.333 362.551, 2078 355.872 C 2063.199 354.206, 2015.964 354.183, 1997 355.832 C 1925.905 362.016, 1867.579 373.490, 1795.558 395.459 C 1787.340 397.965, 1780.322 399.675, 1779.961 399.258 C 1779.601 398.841, 1777.855 394.831, 1776.080 390.348 C 1762.885 357.005, 1737.997 332.955, 1699.841 316.673 C 1659.339 299.390, 1602.903 288.580, 1534.500 285.004 C 1517.531 284.116, 1442.474 283.867, 1431 284.660 M 1423.500 299.031 C 1337.472 305.210, 1280.038 319.666, 1248.928 342.969 C 1240.256 349.466, 1228.951 361.467, 1223.354 370.120 C 1212.540 386.836, 1205.953 407.013, 1201.846 436 C 1200.091 448.385, 1200.076 513.267, 1201.822 536 C 1208.119 617.978, 1219.155 707.971, 1247.514 908.610 C 1266.741 1044.631, 1268.009 1053.078, 1294.560 1221.890 C 1326.171 1422.874, 1330.115 1446.406, 1364.397 1638.500 C 1381.502 1734.344, 1392.733 1804.016, 1405.504 1893.500 C 1430.801 2070.744, 1442.857 2191.813, 1450.514 2345.500 C 1451.390 2363.100, 1453.650 2402.925, 1455.536 2434 C 1461.763 2536.636, 1462.965 2565.334, 1463.007 2612.500 C 1463.028 2635.071, 1463.401 2644.234, 1464.514 2649.500 C 1466.977 2661.156, 1471.452 2664.817, 1476.257 2659.106 C 1479.154 2655.664, 1485.196 2632.409, 1489.537 2608 C 1492.355 2592.155, 1497.669 2563.537, 1504.577 2527 C 1514.546 2474.275, 1521.432 2430.195, 1536.523 2322.500 C 1540.685 2292.800, 1547.649 2244.200, 1551.999 2214.500 C 1560.373 2157.325, 1565.709 2117.970, 1579.457 2012 C 1584.130 1975.975, 1590.647 1927.150, 1593.938 1903.500 C 1615.684 1747.217, 1629.563 1636.308, 1659.012 1383.500 C 1682.171 1184.686, 1697.905 1068.514, 1740.412 782.478 C 1768.945 590.475, 1775.382 534.564, 1775.408 478.500 C 1775.423 448.497, 1774.524 437.958, 1770.340 419.040 C 1762.711 384.546, 1747.275 361.364, 1719.608 342.849 C 1687.566 321.405, 1632.174 306.862, 1558 300.420 C 1536.634 298.564, 1443.403 297.601, 1423.500 299.031 M 2010.500 368.631 C 1958.925 371.931, 1901.694 381.081, 1851.500 394.051 C 1834.598 398.419, 1784.988 412.679, 1784.299 413.368 C 1784.052 413.615, 1784.799 419.370, 1785.959 426.158 C 1793.496 470.252, 1790.195 530.329, 1773.439 654 C 1768.306 691.885, 1762.144 734.361, 1745.585 846 C 1712.007 1072.369, 1696.073 1191.739, 1671.500 1401 C 1641.006 1660.685, 1629.778 1750.159, 1608.994 1899.095 C 1605.188 1926.373, 1596.625 1990.498, 1589.966 2041.595 C 1583.307 2092.693, 1574.272 2159.250, 1569.888 2189.500 C 1565.504 2219.750, 1557.457 2276.225, 1552.006 2315 C 1546.556 2353.775, 1540.245 2398.100, 1537.983 2413.500 C 1532.140 2453.277, 1515.777 2550.006, 1511.086 2572.500 C 1508.907 2582.950, 1505.464 2600.950, 1503.436 2612.500 C 1501.408 2624.050, 1498.716 2637.773, 1497.454 2642.996 C 1496.192 2648.219, 1495.294 2652.628, 1495.460 2652.793 C 1496.091 2653.425, 1503.260 2635.058, 1506.112 2625.500 C 1507.753 2620, 1512.189 2602.900, 1515.968 2587.500 C 1519.748 2572.100, 1525.987 2549.825, 1529.833 2538 C 1533.679 2526.175, 1542.299 2498.950, 1548.989 2477.500 C 1570.364 2408.961, 1579.703 2380.262, 1635.706 2211 C 1712.757 1978.126, 1725.781 1940.990, 1779.323 1801.500 C 1850.699 1615.549, 1893.254 1512.875, 1990.495 1292 C 2087.433 1071.814, 2159.670 903.811, 2190.140 827.684 C 2243.909 693.343, 2266.688 600.968, 2261.050 540.121 C 2256.629 492.406, 2239.536 455.086, 2208.274 424.894 C 2178.494 396.135, 2136.096 377.556, 2084 370.440 C 2072.876 368.920, 2024.564 367.731, 2010.500 368.631 M 1001.500 381.620 C 901.985 389.645, 815.065 428.185, 769.525 484.477 C 735.444 526.604, 723.807 572.321, 731.611 633.419 C 736.916 674.953, 752.646 725.247, 782.773 797 C 797.805 832.802, 808.382 855.958, 864.985 977 C 924.218 1103.667, 949.572 1162.163, 1014.519 1322 C 1095.554 1521.431, 1196.196 1786.703, 1248.985 1940 C 1294.037 2070.832, 1313.808 2134.055, 1361.876 2301 C 1386.533 2386.636, 1393.053 2408.772, 1401.933 2437 C 1409.601 2461.376, 1429.808 2542.396, 1438.471 2583.500 C 1442.065 2600.550, 1445.851 2618.100, 1446.885 2622.500 L 1448.766 2630.500 1448.885 2609.500 C 1449.019 2585.653, 1447.046 2540.667, 1443.490 2486.500 C 1442.155 2466.150, 1440.584 2435.100, 1440 2417.500 C 1434.441 2250.011, 1421.185 2101.986, 1395.400 1919.500 C 1379.375 1806.088, 1370.691 1752.488, 1345.014 1608.500 C 1315.008 1440.232, 1312.463 1425.052, 1283.490 1241.500 C 1253.458 1051.244, 1250.664 1032.574, 1225.569 854.500 C 1196.683 649.520, 1185.986 549.263, 1185.828 482 C 1185.765 454.966, 1186.175 447.312, 1188.659 429.156 C 1189.513 422.917, 1189.827 417.468, 1189.356 417.048 C 1187.591 415.474, 1170.630 408.767, 1157.420 404.420 C 1108.925 388.462, 1074.260 382.196, 1031 381.571 C 1017.525 381.376, 1004.250 381.398, 1001.500 381.620 M 2275.369 561.753 C 2274.888 626.758, 2250.426 715.702, 2196.505 848.500 C 2168.113 918.427, 2083.834 1113.969, 2007.511 1287 C 1907.715 1513.247, 1863.485 1619.914, 1790.089 1811.337 C 1734.352 1956.704, 1724.914 1983.899, 1620.684 2299.500 C 1576.010 2434.769, 1538.740 2554.446, 1528.503 2595.500 C 1520.410 2627.952, 1516.274 2641.101, 1509.596 2655.598 C 1505.206 2665.130, 1505.149 2665.369, 1508.084 2662 C 1517.937 2650.691, 1531.403 2630.251, 1545.966 2604.500 C 1550.010 2597.350, 1557.931 2583.625, 1563.568 2574 C 1569.205 2564.375, 1583.363 2537.825, 1595.029 2515 C 1644.528 2418.153, 1680.282 2355.938, 1724.049 2290.500 C 1779.098 2208.192, 1817.697 2159.898, 1951.435 2006 C 2083.859 1853.613, 2133.100 1794.194, 2206.672 1698 C 2291.283 1587.375, 2394.168 1437.903, 2466.515 1320.500 C 2521.535 1231.214, 2563.177 1150.715, 2586.310 1088.918 C 2621.586 994.685, 2630.132 907.779, 2611.378 834 C 2604.623 807.426, 2594.849 781.900, 2582.085 757.500 C 2561.035 717.260, 2539.778 689.977, 2505 658.564 C 2445.100 604.460, 2388.609 572.350, 2320.333 553.597 C 2308.610 550.377, 2279.594 543.996, 2276.706 544.003 C 2275.815 544.005, 2275.466 548.639, 2275.369 561.753 M 687 580.608 C 634.461 585.556, 592.506 592.886, 561 602.623 C 484.157 626.371, 413.947 674.279, 378.722 727 C 361.352 752.997, 346.404 791.814, 340.566 826.083 C 336.480 850.067, 335.965 896.172, 339.449 926 C 348.838 1006.369, 377.789 1094.132, 429.012 1197.500 C 475.880 1292.079, 537.710 1388.366, 646.379 1536 C 719.965 1635.972, 767.877 1696.711, 920.493 1883.500 C 954.646 1925.300, 998.292 1978.850, 1017.485 2002.500 C 1036.678 2026.150, 1071.331 2068.675, 1094.491 2097 C 1191.534 2215.686, 1220.147 2253.183, 1265.036 2320.500 C 1303.017 2377.458, 1335.458 2431.515, 1358.056 2475.500 C 1389.251 2536.219, 1419.314 2601.526, 1431.939 2636 C 1435.903 2646.826, 1441.993 2659.260, 1443.911 2660.445 C 1444.385 2660.738, 1443.547 2657.945, 1442.050 2654.239 C 1437.909 2643.992, 1434.673 2631.517, 1427.073 2596.500 C 1413.205 2532.602, 1405.731 2504.038, 1377.491 2407 C 1366.847 2370.425, 1349.083 2309, 1338.015 2270.500 C 1303.809 2151.519, 1281.249 2079.388, 1244.651 1972 C 1191.224 1815.229, 1093.929 1556.883, 1013.039 1357 C 937.369 1170.017, 910.684 1108.693, 832.013 941 C 777.268 824.308, 757.220 777.396, 738.850 723 C 722.150 673.548, 716.177 643.200, 715.281 603.250 L 714.737 579 708.119 579.121 C 704.478 579.188, 694.975 579.857, 687 580.608 M 305.369 952.758 C 239.959 1007.155, 202.604 1044.461, 175.142 1082.814 C 148.792 1119.614, 124.050 1172.599, 113.052 1215.777 C 93.948 1290.778, 101.174 1369, 134.101 1443.627 C 160.518 1503.499, 209.383 1571.847, 279.501 1647 C 344.038 1716.170, 458.654 1819.183, 595.459 1930.972 C 642.428 1969.353, 690.565 2007.356, 798 2090.874 C 957.370 2214.765, 1028.592 2272.330, 1089.500 2326.476 C 1148.607 2379.021, 1240.978 2472.265, 1319.848 2559 C 1336.602 2577.425, 1359.047 2601.795, 1369.725 2613.156 C 1391.341 2636.154, 1431.812 2675.607, 1430.599 2672.500 C 1430.169 2671.400, 1426.287 2660.825, 1421.970 2649 C 1407.741 2610.015, 1397.377 2587.009, 1363.860 2520 C 1321.848 2436.006, 1303.189 2403.279, 1259.372 2336.736 C 1213.163 2266.560, 1183.086 2226.937, 1084.983 2107 C 1060.465 2077.025, 1024.696 2033.150, 1005.496 2009.500 C 986.296 1985.850, 943.554 1933.425, 910.515 1893 C 780.146 1733.491, 730.970 1671.726, 674.048 1596 C 542.789 1421.377, 468.829 1308.699, 417.076 1204.500 C 369.473 1108.656, 339.331 1021.405, 328.379 947.750 C 327.418 941.288, 326.377 936.004, 326.066 936.008 C 325.755 936.013, 316.441 943.550, 305.369 952.758 M 2634.626 944.250 C 2634.370 946.038, 2633.225 955.600, 2632.081 965.500 C 2619.284 1076.262, 2562.754 1199.390, 2432.137 1401 C 2369.008 1498.439, 2293.390 1606.770, 2231.103 1689 C 2155.034 1789.424, 2097.074 1859.871, 1973.806 2001.728 C 1846.075 2148.722, 1811.558 2190.737, 1765.321 2255.500 C 1708.549 2335.020, 1663.966 2410.504, 1602.307 2531.500 C 1590.816 2554.050, 1576.083 2581.500, 1569.568 2592.500 C 1563.053 2603.500, 1554.800 2617.450, 1551.228 2623.500 C 1536.293 2648.794, 1525.444 2663.776, 1512.189 2677.409 C 1507.960 2681.759, 1505.395 2684.994, 1506.490 2684.598 C 1510.993 2682.970, 1529.884 2670.908, 1541.296 2662.375 C 1560.910 2647.709, 1588.548 2624.170, 1608 2605.562 C 1616.732 2597.209, 1633.497 2582.409, 1657.688 2561.699 C 1686.428 2537.094, 1709.423 2515.195, 1796 2429.983 C 1876.941 2350.317, 1910.839 2318.021, 1963.501 2270.396 C 2038.614 2202.469, 2082.265 2166.261, 2233.500 2046.438 C 2405.246 1910.365, 2509.770 1815.720, 2614.996 1701 C 2695.514 1613.217, 2764.396 1518.115, 2801.865 1443 C 2852.073 1342.345, 2870.015 1232.552, 2849.993 1148.500 C 2835.041 1085.731, 2793.465 1027.493, 2736.638 989.711 C 2716.271 976.170, 2691.477 963.543, 2668 954.754 C 2662.775 952.798, 2653.505 948.903, 2647.400 946.099 C 2641.294 943.294, 2636.027 941, 2635.695 941 C 2635.363 941, 2634.881 942.462, 2634.626 944.250 M 2792.275 1490.514 C 2785.264 1502.336, 2764.419 1534.570, 2754 1549.701 C 2718.895 1600.685, 2670.990 1659.957, 2621.615 1713.500 C 2604.439 1732.126, 2544.212 1794.595, 2538.790 1799.409 C 2536.430 1801.503, 2527.300 1810.272, 2518.500 1818.894 C 2469.277 1867.120, 2396.130 1931.590, 2318 1995.607 C 2293.978 2015.290, 2257.599 2044.402, 2197.500 2092.037 C 2029.760 2224.990, 1956.243 2290.102, 1802.952 2441.472 C 1728.018 2515.467, 1698.437 2543.574, 1653.047 2583.909 C 1638.446 2596.883, 1619.555 2613.946, 1611.067 2621.826 C 1578.082 2652.447, 1544.159 2679.139, 1523.888 2690.422 C 1517.542 2693.953, 1517.523 2693.977, 1521.025 2693.989 C 1526.331 2694.006, 1550.959 2689.493, 1564.207 2686.076 C 1609.702 2674.343, 1649.463 2655.248, 1702.324 2619.747 C 1737.721 2595.975, 1756.090 2582.005, 1844 2511.994 C 1946.373 2430.466, 1988.748 2398.947, 2059 2352.079 C 2136.140 2300.616, 2186.841 2270.618, 2395.500 2152.983 C 2523.985 2080.547, 2585.842 2044.798, 2627 2019.190 C 2734.010 1952.610, 2800.631 1895.318, 2846.398 1830.515 C 2891.723 1766.336, 2907.550 1699.616, 2893.013 1634 C 2885.601 1600.542, 2868.855 1566.714, 2845.126 1537.261 C 2835.823 1525.715, 2814.863 1503.694, 2802.969 1492.972 L 2795.051 1485.834 2792.275 1490.514 M 144.064 1528.937 C 126.285 1561.595, 118.075 1585.387, 112.469 1620.500 C 109.942 1636.328, 109.417 1671.471, 111.446 1689 C 119.018 1754.439, 145.314 1818.285, 187.807 1874.407 C 227.966 1927.447, 292.172 1986.311, 367.500 2039.153 C 454.788 2100.383, 537.144 2147.626, 708.500 2234.764 C 866.637 2315.179, 930.715 2351.014, 1008.500 2402.534 C 1078.380 2448.818, 1121.386 2481.817, 1209 2556.377 C 1289.239 2624.661, 1330.507 2654.216, 1372.148 2673.217 C 1385.643 2679.375, 1409.802 2687.795, 1421.132 2690.289 L 1427.764 2691.748 1389.995 2654.124 C 1364.854 2629.080, 1339.029 2601.955, 1312.759 2573 C 1266.339 2521.835, 1262.520 2517.775, 1207.403 2461 C 1152.346 2404.286, 1106.401 2360.064, 1065 2323.937 C 1006.155 2272.589, 944.615 2222.853, 824 2129.163 C 653.553 1996.766, 625.297 1974.393, 550.500 1912.606 C 452.961 1832.033, 360.657 1749.780, 302.987 1692.045 C 243.374 1632.364, 197.813 1578.258, 165 1528.179 C 159.225 1519.365, 154.226 1512.119, 153.892 1512.077 C 153.557 1512.035, 149.135 1519.621, 144.064 1528.937 M 2165.500 2301.215 C 2040.101 2378.596, 1985.822 2417.214, 1848 2527.107 C 1782.238 2579.543, 1761.068 2595.929, 1735.036 2614.541 L 1722.571 2623.453 1727.036 2624.652 C 1729.491 2625.311, 1741.850 2628.555, 1754.500 2631.861 C 1784.540 2639.711, 1814.291 2648.564, 1852.500 2661.024 C 1905.262 2678.228, 1932.382 2685.763, 1955.546 2689.652 C 1970.930 2692.234, 2003.044 2692.243, 2014.796 2689.668 C 2051.181 2681.694, 2081.568 2658.689, 2107.478 2619.500 C 2144.216 2563.933, 2161.992 2490.970, 2171.554 2356.500 C 2172.414 2344.400, 2173.990 2326.175, 2175.057 2316 C 2177.264 2294.930, 2177.261 2294.992, 2176.250 2295.022 C 2175.838 2295.034, 2171 2297.821, 2165.500 2301.215 M 810.002 2343.196 C 810.007 2492.288, 828.247 2597.001, 863.420 2649.876 C 877.282 2670.714, 896.020 2686.212, 918.723 2695.618 C 949.084 2708.196, 988.979 2707.294, 1042.500 2692.820 C 1069.443 2685.534, 1091.578 2677.892, 1140.500 2658.987 C 1183.481 2642.377, 1217.140 2630.003, 1238.500 2622.958 C 1248.950 2619.512, 1257.711 2616.512, 1257.970 2616.293 C 1258.228 2616.074, 1256.884 2614.681, 1254.983 2613.197 C 1248.410 2608.068, 1204.394 2571.235, 1176.500 2547.522 C 1063.469 2451.434, 964.422 2384.915, 820.750 2308.601 L 810 2302.891 810.002 2343.196" stroke="none" fill="#040404" fill-rule="evenodd"/></svg>