<?xml version="1.0" encoding="utf-8"?>
<!-- Generator: Adobe Illustrator 15.0.0, SVG Export Plug-In . SVG Version: 6.00 Build 0)  -->
<!DOCTYPE svg PUBLIC "-//W3C//DTD SVG 1.0//EN" "http://www.w3.org/TR/2001/REC-SVG-20010904/DTD/svg10.dtd">
<svg version="1.0" id="Layer_1" xmlns="http://www.w3.org/2000/svg" xmlns:xlink="http://www.w3.org/1999/xlink" x="0px" y="0px"
	 width="432px" height="432px" viewBox="0 0 432 432" enable-background="new 0 0 432 432" xml:space="preserve">
<g>
	<path d="M422.426,17.588c-52.418,65.083-121.588,116.068-198.361,149.46c1.301-1.811,2.446-3.458,3.469-4.96
		c3.988-2.728,7.891-5.645,11.664-8.742c6.898-2.478,13.414-7.998,18.961-12.058c12.398-9.077,24.135-19.093,35.762-29.126
		c21.512-18.582,42.652-37.731,62.865-57.722c1.494-1.484,0.74-2.596-0.779-1.14c-17.496,16.856-36.268,32.581-54.492,48.638
		c-10.961,9.654-23.082,18.328-34.484,27.471c-4.454,3.579-14.065,12.728-13.604,10.491c0.49-2.412,13.615-17.229,17.908-27.395
		c0.867-2.051-0.896-1.84-2.721-1.083c-12.498,5.193-27.264,14.155-36.832,12.623c1.396-1.854,2.809-3.725,4.262-5.615
		c4.773-6.23,2.34-5.57-2.234-4.602c-7.209,1.521-22.897,4.281-23.5,4.342c21.154-22.669,48.525-37.202,75.509-51.828
		c28.889-15.669,59.08-29.03,90.615-38.399c2.278-0.676,0.901-1.802-1.351-1.198c-30.119,8.128-58.625,21.184-86.104,35.778
		c-27.406,14.558-56.773,29.42-78.918,51.67c17.758-21.873,40.579-36.313,63.819-52.542c27.463-19.167,56.113-37.413,86.951-50.516
		c2.164-0.92,1.354-2.142-0.854-1.28c-31.443,12.299-60.324,30.15-87.961,49.354c-24.947,17.327-51.402,35.024-69.638,59.771
		c-9.06,0.937-18.108,1.971-27.088,3.586c-25.529,4.597-50.513,13.832-63.54,37.374c-4.896-2.649-10.967-4.723-16.496-2.286
		c-7.585,3.353-17.854,32.515-37.568,51.677c-1.922,1.872-6.896,2.828-7.145,5.794c-0.224,2.703,0.851,5.291,2.087,7.748
		c-0.036,0.043-0.074,0.063-0.11,0.104c-6.936,13.056-32.927,35.592-33.861,44.772c-0.481,4.747,2.494,9.829,5.934,13.479
		c-5.172,10.781-13.216,52.866-6.729,59.931c1.095,1.192,2.485,2.263,4.035,3.226c5.574,21.699,21.102,40.862,35.136,57.747
		c4.262,5.136,8.041,5.341,12.98,2.423c18.138,20.133,46.609,16.35,49.892,15.904c3.501-0.482,4.33-3.641,5.23-6.545
		c12.016,5.27,23.147-1.053,33.658-6.389c1.319-0.66,5.803-3.955,5.463-6.739c12.567-0.045,37.925-2.491,39.474-11.415
		c4.55-1.279,9.376-5.038,12.936-7.956c1.438-1.177,2.417-2.621,3.072-4.217c15.453,9.885,31.145,16.148,49.754,16.925
		c18.527,0.771,35.143-5.279,44.086-22.281c0.947-1.801-0.133-3.546-2.041-3.85c-14.576-2.328-34.932-19.68-40.836-17.713
		c13.273-8.156,25.18-23.993,23.691-39.604c-0.132-1.328-1.261-2.238-2.568-2.179c-30.156,1.358-63.959,16.36-78.7,44.012
		c-0.834-0.192-20.263-0.028-26.738,3.304c-2.746-3.293-6.185-6.104-9.755-8.039c-8.601-4.662-17.159,4.649-24.575,7.983
		c-0.672-2.417-2.098-4.39-4.632-5.09c-4.427-1.218-12.499,0.338-13.947,2.328c-3.612-4.427-10.139-7.05-16.308-6.151
		c0.413-2.956-5.583-7.984-10.252-9.117c2.722-3.396,4.663-7.916,5.587-11.395c0.694-2.623,0.411-5.854-0.598-8.865
		c5.425,2.666,9.406,8.064,13.175,12.682c2.024,2.477,4.878,7.394,8.45,4.431c3.418-2.841-1.104-9.718-2.628-12.244
		c-2.336-3.869-5.278-8.251-8.777-11.656c6.729,1.411,13.168,5.371,18.227,9.628c3.873,3.266,11.689,7.485,11.368-1.316
		c-0.202-5.483-9.969-14.2-15.372-17.723c-5.147-3.354-11.859-6.256-18.107-5.305c9.149-4.384,17.896,1.221,25.435,6.475
		c2.383,1.666,8.877,7.78,11.603,3.537c3.598-5.609-6.534-13.365-9.992-16.012c-3.212-2.452-7.685-5.436-12.375-7.277
		c3.474-0.326,6.995-0.173,10.574,0.778c9.119,2.417,12.146,10.503,14.468,18.704c0.745,2.627,1.54,8.816,4.856,9.771
		c3.229,0.938,5.127-2.373,5.857-5.023c2.593-9.452-2.488-24.576-9.831-30.791c-5.803-4.905-13.841-6.846-22.107-7.604
		c4.01-0.943,7.998-2.205,11.716-2.668c5.031-0.627,14.159,0.016,15.489,6.02c0.87,3.956,1.073,7.857,2.367,11.736
		c0.448,1.362,2.415,1.569,3.389,0.742c7.587-6.496,5.819-16.47,0.748-23.981c-6.681-9.903-19.607-8.042-30.038-6.827
		c0.533-0.83,1.038-1.667,1.518-2.508c5.418-4.381,11.794-5.814,18.458-4.879c8.621,1.195,13.728,9.713,15.481,17.004
		c1.583,6.544,8.462,7.738,9.281,0.4c0.982-8.774-3.306-18.336-8.794-24.09c-7.354-7.697-20.429-5.873-29.493-1.871
		c0.161-1.016,0.28-2.031,0.341-3.023c18.582-3.07,67.934-55.46,74.655-64.51c39.336-16.593,76.801-36.855,110.85-62.58
		c33.609-25.385,65.391-55.098,90.699-88.899C424.85,16.64,423.939,15.709,422.426,17.588z M268.602,113.558
		c-9.865,19.041-31.588,37.043-49.447,48.368c-16.038,10.166-32.199,18.64-49.274,26.285c8.257-6.525,16.479-13.102,24.339-20.107
		c14.609-13.029,24.75-26.966,36.047-42.034C242.041,126.555,257.76,118.181,268.602,113.558z M185.126,124.025
		c10.838-1.051,49.271-8.93,50.163-8.206c0.385,0.382-29.171,36.444-37.309,44.131c-13.718,12.956-28.925,24.633-43.647,36.397
		c-4.537,3.625-10.275,5.344-15.489,7.933c-3.03,1.505-11.234-4.145-12.695-6.413c-5.804-9.03-10.085-20.555-11.824-31.453
		C117.51,158.161,130.543,129.307,185.126,124.025z M22.816,268.936c-0.352-7.557,23.024-31.564,31.56-42.685
		c8.125,15.896,39.497,42.89,57.283,46.147c5.579,10.918,4.521,29.676-7.599,34.933c-12.032,0.581-36.778-0.297-69.667-23.317
		C29.956,280.904,23.082,274.596,22.816,268.936z M250.438,322.462c11.66-5.55,28.74-11.271,41.816-12.188
		c0.49,22.567-16.051,29.738-26.967,39.319c-12.473-0.827-25.713,3.3-37.031,8.043c-2.32,0.97-1.725,2.066,0.678,1.396
		c14.523-4.064,29.91-8.558,44.855-4.552c12.309,3.297,25.156,12.879,37.418,16.278c-8.016,16.043-27.441,21.479-44.389,20.566
		c-16.84-0.906-31.959-9.365-46.014-19.228c0.129-2.582-0.227-5.231-0.746-7.594c-0.707-3.175-2.139-6.201-3.687-9.044
		c-0.053-0.099-0.102-0.157-0.152-0.248C224.881,342.232,236.275,329.201,250.438,322.462z M203.542,355.141
		c12.015,0.98,13.245,6.586,13.958,9.359c3.438,13.35-9.053,20.47-14.099,21.852c-1.559-10.387-7.25-19.26-14.431-26.946
		c-0.266-0.433-0.559-0.853-0.848-1.276C193.152,355.895,198.187,354.703,203.542,355.141z M114.311,348.547
		c0.441,2.41-3.197,10.098-5.408,14.778c-0.835,1.77,0.882,1.64,1.784-0.013c1.979-3.619,4.646-8,5.857-12.348
		c4.242-0.396,8.948-0.932,12.52,1.524c4.873,3.354,4.479,9.45,2.97,14.112c-0.735,2.284,0.4,3.35,1.638,1.576
		c2.989-4.279,3.228-8.449,1.763-11.957c3.072-0.69,6.369-3.031,9.517-2.925c3.952,0.134,5.564,4.408,5.587,7.663
		c0.011,2.129,1.951,1.014,2.004-0.838c0.015-0.52,0.009-1.038-0.023-1.559c6.497-2.465,15.706-11.725,21.841-7.998
		c14.527,8.803,27.084,27.701,26.143,38.692c-10.587,5.192-23.316,9.742-36.395,7.208c-0.846-11.13-4.733-21.771-9.933-31.871
		c-1.285-2.496-2.389-1.453-1.551,1.252c3.604,11.571,8.223,22.866,6.627,35.145c-8.33,7.725-18.855,12.025-32.677,8.292
		c3.646-11.972,6.577-23.345,7.579-36.144c0.219-2.802-3.009-3.347-3.039-0.523c-0.125,11.046-3.739,20.412-6.724,30.432
		c-0.591,1.982-4.931,10.401-7.335,11.823c-3.618,2.155-21.314,9.126-43.22-12.923c11.768-8.451,22.852-18.461,29.847-31.319
		c1.532-2.807-0.652-2.901-2.563-0.478c-8.094,10.291-16.055,18.982-26.517,26.691c-2.092,1.543-10.025,6.412-12.652,3.969
		c-2.736-2.541-7.155-6.221-9.535-9.098c-10.945-13.245-20.113-25.604-25.268-44.646c3.121,1.352,6.354,2.438,9.016,3.32
		c7.004,2.323,14.482,3.381,21.846,3.52c15.954,0.292,33.788-2.814,46.644-12.897C108.947,342.303,114.539,343.895,114.311,348.547z
		 M107.398,328.566c-1.733,4.22-4.917,6.742-7.634,10.117c-20.815,16.406-50.7,13.639-74.646,1.815
		c-0.189-0.149-0.395-0.26-0.626-0.315c-0.473-0.231-0.95-0.472-1.417-0.718c-7.833-4.087-1.409-43.099,4.805-55.248
		c19.612,15.765,61.205,30.105,76.134,28.397C108.508,316.325,109.507,323.42,107.398,328.566z M127.13,321.631
		c1.058,1.539,5.159,8.665,3.443,8.932c-1.855,1.619-12.701-17.058-20.97-19.032c1.983-0.778,4-1.19,6.024-1.33
		C119.59,313.518,124.403,317.671,127.13,321.631z M136.132,304.598c8.017,5.23,14.096,14.672,11.885,15.672
		c-1.887,0.848-23.243-17.313-35.169-14.019c1.488-1.678,2.69-3.61,3.598-5.772C122.983,298.516,130.841,301.146,136.132,304.598z
		 M151.959,303.563c-1.053,1.487-21.323-15.781-33.386-12.549c0.101-1.557,0.09-3.158-0.014-4.771
		c1.611-0.571,3.229-1.113,4.856-1.602C133.567,281.328,154.258,301.507,151.959,303.563z M156.488,277.738
		c11.158,9.051,10.361,30.297,7.386,31.221c-1.538,0.482-1.13-0.924-2.129-4.773c-2.668-10.235-3.558-16.086-12.459-21.58
		c-8.717-5.393-30.974,0.35-31.119,0.131c-0.618-3.902-1.834-7.702-3.668-10.963C114.921,271.753,145.895,269.152,156.488,277.738z
		 M166.319,260.07c7.271,5.843,6.75,19.322,2.809,19.084c-2.04-0.365-1.098-14.082-9.371-16.387
		c-5.231-1.459-25.526,2.598-30.396,2.998c3.262-2.498,6.24-5.599,8.785-8.978C146.904,255.989,159.191,254.332,166.319,260.07z
		 M112.527,267.627c-15.626-4.24-35.37-13.904-53.2-40.545c-8.14-14.508,0.703-14.918,2.73-16.94
		c10.079-10.052,16.598-22.826,24.654-34.493c3.077-4.454,6.175-11.156,10.228-13.548c3.066-1.81,9.636-0.168,12.592,3.659
		c1.009,12.603,8.231,25.316,14.868,35.592c1.719,2.656,19.807,18.783,19.984,34.11
		C144.002,249.656,128.052,268.563,112.527,267.627z M177.801,246.206c2.569,3.938,4.042,9.356,4.42,14.009
		c0.046,0.559-0.075,5.514-1.68,4.59c-1.721-1.002-1.665-4.529-2.33-6.396c-5.227-14.708-21.964-20.202-34.024-11.898
		c0.993-2.274,1.753-4.522,2.249-6.676C157.021,235.954,171.294,236.234,177.801,246.206z M147.196,231.118
		c-0.441-8.009-4.108-15.083-9.997-20.839c4.017-0.973,8.455-3.965,10.877-5.45c4.38-2.677,8.478-5.839,12.497-9.09
		c21.255-8.223,42.249-17.805,61.503-30.074C214.431,174.683,168.892,227.384,147.196,231.118z"/>
	<path d="M168.722,157.903c2.347,2.402,5.932,3.151,8.995,1.56c3.73-1.937,4.97-6.418,3.239-10.092
		c-0.131-0.271-0.26-0.549-0.393-0.825c-1.783-3.718-6.893-4.803-10.347-2.866c-4.345,2.434-5.148,8.371-1.793,11.909
		C168.526,157.696,168.623,157.799,168.722,157.903z"/>
	<path d="M129.261,217.799c2.141,10.899,7.302,28.971-5.084,36.098c-2.02,1.16-0.563,2.674,1.442,1.573
		c13.714-7.543,9.613-25.798,5.469-37.936C130.375,215.45,128.854,215.714,129.261,217.799z"/>
	<path d="M105.782,296.688c2.823-5.535,0.25-11.848-1.369-17.629c-0.636-2.244-2.098-0.922-1.53,1.306
		c1.285,5.051,2.428,11.229-0.255,16.098C101.433,298.639,104.685,298.833,105.782,296.688z"/>
	<path d="M101.832,323.094c-1.485,3.975-4.988,8.622-7.845,11.674c-1.494,1.6-0.233,2.512,1.388,1.209
		c3.946-3.164,7.172-6.861,8.436-11.881C104.608,320.922,103.02,319.915,101.832,323.094z"/>
	<path d="M104.803,358.635c3.224-3.084,4.476-7.074,4.853-11.437c0.208-2.328-2.241-2.647-2.871-0.565
		c-0.874,2.865-1.42,8.063-3.554,10.37C101.606,358.761,102.986,360.374,104.803,358.635z"/>
	<path d="M125.417,362.125c1.615,5.136,2.857,3.645,2.529,0.188c0-0.043-1.325-5.399-5.003-7.677
		c-3.612-2.235-3.565,0.556-1.919,2.187C122.594,358.38,124.76,360.049,125.417,362.125z"/>
	<path d="M142.01,359.652c1.244,1.08,2.593,2.447,3.24,3.986c0.869,2.047,2.317,3.248,2.228-0.686
		c-0.061-2.667-1.949-4.661-4.792-5.323C140.332,357.073,140.188,358.074,142.01,359.652z"/>
	<path d="M163.962,360.38c5.753-2.937,11.088-0.528,15.507,3.521c1.731,1.588,2.726,1.345,1.838-0.702
		c-3.055-7.024-13.755-10.302-18.98-4.507C161.023,360.145,162.346,361.207,163.962,360.38z"/>
	<path d="M195.28,361.174c4.333-0.117,9.225-0.025,13.475,0.602c1.126,0.166,1.634-2.299,0.113-2.938
		c-2.623-1.094-11.605-0.727-14.04,0.396C193.204,359.982,193.308,361.23,195.28,361.174z"/>
	<path d="M204.965,377.905c-0.409,0.67-0.335,2.327,2.715,0.202c0.213-0.156,3.728-2.437,4.405-3.006
		c0.805-0.662,1.49-3.535-0.793-2.299C210.48,373.249,206.764,374.941,204.965,377.905z"/>
	<path d="M227.551,350.234c7.094-6.994,14.77-13.441,23.619-18.045c8.877-4.619,19.018-8.361,28.334-11.709
		c2.279-0.823,0.641-2.08-1.719-1.748c-18.818,2.623-40.164,15.386-51.68,30.787C224.662,351.443,225.889,351.863,227.551,350.234z"
		/>
	<path d="M260.492,383.813c8.428,1.328,20.363,0.199,29.146-2.74c2.422-0.805,2.299-2.152,0.172-1.713
		c-7.759,1.591-16.308,2.904-24.188,2.141c-6.738-0.663-22.5-2.857-28.722-7.541c-1.746-1.318-2.45-0.182-0.916,1.354
		C243.748,380.354,252.477,382.555,260.492,383.813z"/>
	<path d="M30.435,308.802c0.268-2.147-1.379-1.794-1.941,0.31c-1.074,3.998-0.29,8.758,1.428,12.783
		c0.861,2.017,1.977,0.729,1.798-1.28C31.404,317.061,29.996,312.32,30.435,308.802z"/>
	<path d="M36.026,265.573c2.95-5.421,5.716-11.097,9.783-15.788c1.633-1.885,1.109-4.262-0.743-2.45
		c-4.856,4.743-9.721,11.558-10.874,18.099C33.826,267.534,34.971,267.51,36.026,265.573z"/>
	<path d="M97.753,176.228c-5.476,3.66-23.135,23.826-21.942,28.903c0.447,1.916,3.423,2.255,3.664,0.034
		c3.2-11.123,16.399-24.027,20.457-28.223C101.566,175.247,99.682,174.934,97.753,176.228z"/>
	<path d="M152.65,223.457c9.337-0.415,17.382-8.383,24.292-13.898c1.65-1.314,2.106-3.337,0.22-2.22
		c-7.679,4.537-15.843,12.712-25.146,14.069C149.698,221.747,150.304,223.557,152.65,223.457z"/>
	<path d="M201.991,168.026c8.121-3.497,15.353-9.333,22.45-14.508c7.891-5.764,17.963-13.04,24.389-20.494
		c1.447-1.673,0.521-2.187-1.105-0.848c-13.817,11.43-30.634,25.435-46.81,33.491C198.877,166.678,199.807,168.965,201.991,168.026z
		"/>
	<path d="M229.818,132.594c3.641-2.059,8.836-1.304,12.396-2.608c2.117-0.776,3.578-2.87,1.517-2.549
		c-4.062,0.642-10.558,1.115-14.105,3.127C226.189,132.524,227.416,133.948,229.818,132.594z"/>
</g>
</svg>
