<svg xmlns="http://www.w3.org/2000/svg" width="3000" height="3000" viewBox="0 0 3000 3000" version="1.1"><path d="" stroke="none" fill="#080404" fill-rule="evenodd"/><path d="M 1555.500 150.887 C 1524.986 159.194, 1494.346 187.351, 1460.413 238.265 C 1410.119 313.729, 1367.151 419.077, 1311.638 603.022 C 1301.891 635.320, 1298.192 647.888, 1283.387 699 C 1233.228 872.169, 1216.821 926.766, 1200.445 975 C 1169.386 1066.482, 1142.873 1116.262, 1105.069 1154.070 C 1085.455 1173.686, 1070.051 1184.805, 1047.500 1195.623 C 1033.347 1202.413, 1022.647 1206.308, 1006.500 1210.548 C 924.298 1232.132, 781.459 1224.285, 630.500 1189.893 C 536.706 1168.525, 451.658 1143.846, 281 1088.475 C 218.463 1068.185, 188.193 1061.530, 158.500 1061.542 C 147.408 1061.547, 141.807 1062.002, 137 1063.291 C 108.587 1070.908, 95.978 1092.613, 99.949 1127.068 C 101.432 1139.936, 108.912 1169.587, 113.538 1180.938 C 121.348 1200.096, 144.234 1232.850, 178.566 1274 C 212.818 1315.054, 228.800 1331.415, 311.775 1410.365 C 377.207 1472.622, 460.209 1537.861, 553 1599.967 C 589.760 1624.570, 621.121 1644.252, 680.520 1679.999 C 752.369 1723.238, 774.462 1737.262, 799.727 1755.672 C 827.350 1775.799, 854.854 1801.604, 867.246 1819.020 C 901.062 1866.545, 905.557 1922.580, 881.803 2000.500 C 864.733 2056.497, 821.511 2144.326, 764.297 2239.279 C 707.471 2333.587, 645.705 2425.596, 546.644 2563.500 C 494.280 2636.397, 453.566 2695.669, 437.636 2722.198 C 417.153 2756.306, 406.634 2782.789, 405.306 2803.592 C 403.751 2827.936, 414.966 2842.846, 440 2849.716 C 449.296 2852.267, 478.685 2852.230, 492 2849.650 C 522 2843.837, 558.606 2830.061, 603 2807.876 C 630.097 2794.335, 646.994 2785.086, 681 2765.179 C 759.768 2719.069, 855.584 2654.897, 974.500 2568.610 C 996.500 2552.647, 1038.903 2522.142, 1068.729 2500.821 C 1098.555 2479.501, 1141.305 2448.634, 1163.729 2432.229 C 1234.290 2380.607, 1269.476 2356.801, 1307 2335.294 C 1352.999 2308.930, 1396.185 2292.784, 1440.601 2285.344 C 1455.727 2282.811, 1488.061 2282.828, 1503.500 2285.378 C 1544.161 2292.092, 1581.123 2307.743, 1626.500 2337.458 C 1660.772 2359.902, 1690.764 2384.331, 1766.500 2451.494 C 1877.587 2550.007, 1946.652 2604.722, 2026.500 2657.474 C 2143.792 2734.963, 2274.770 2799.224, 2357.500 2819.870 C 2413.303 2833.796, 2448.940 2834.409, 2474.841 2821.887 C 2489.324 2814.885, 2499.439 2802.385, 2503.070 2787 C 2507.349 2768.872, 2500.839 2742.216, 2485.363 2714.500 C 2466.443 2680.614, 2439.982 2646.757, 2352.496 2544.500 C 2274.556 2453.400, 2239.018 2409.997, 2203.480 2362.500 C 2150.104 2291.164, 2112.309 2230.043, 2078.572 2160.500 C 2032.978 2066.519, 2010.717 1986.082, 2010.628 1915 C 2010.596 1889.464, 2012.015 1877.064, 2017.428 1855.574 C 2030.834 1802.350, 2065.952 1756.972, 2131.500 1708.175 C 2170.833 1678.893, 2218.792 1650.599, 2319.500 1597.260 C 2484.740 1509.742, 2598.673 1451.712, 2717.500 1394.544 C 2828.769 1341.013, 2863.520 1320.019, 2884.986 1293.366 C 2916.276 1254.515, 2898.792 1219.237, 2838.218 1198.994 C 2798.855 1185.840, 2727.799 1178.952, 2646 1180.362 C 2594.304 1181.253, 2555.943 1183.333, 2476 1189.577 C 2300.673 1203.272, 2225.804 1207.436, 2133 1208.651 C 2018.803 1210.146, 1926.513 1202.751, 1868.330 1187.444 C 1792.838 1167.582, 1745.694 1130.058, 1713.868 1064.500 C 1687.779 1010.760, 1670.617 934.974, 1658.047 818 C 1647.803 722.670, 1645.314 663.584, 1643.998 484.500 C 1643.120 364.969, 1642.320 327.603, 1639.953 295.500 C 1634.400 220.187, 1620.553 177.116, 1595.947 158.619 C 1584.246 149.824, 1569.653 147.034, 1555.500 150.887 M 1555.843 162.858 C 1504.937 179.666, 1443.160 269.818, 1391.969 402 C 1364.222 473.645, 1336.305 559.452, 1301.522 680 C 1296.205 698.425, 1287.579 728.350, 1282.352 746.500 C 1277.125 764.650, 1271.115 785.350, 1268.996 792.500 C 1266.877 799.650, 1262.145 815.850, 1258.479 828.500 C 1227.134 936.686, 1205.373 1003.080, 1186.866 1047 C 1178.729 1066.310, 1162.041 1099.145, 1153.256 1113.130 C 1113.324 1176.693, 1063.086 1212.200, 992.888 1226.476 C 964.545 1232.240, 935.824 1234.470, 891 1234.388 C 825.462 1234.269, 755.936 1226.896, 679 1211.908 C 617.497 1199.927, 526.709 1176.448, 441.500 1150.487 C 397.541 1137.094, 375.102 1130.079, 337 1117.817 C 229.190 1083.122, 213.737 1078.765, 183 1074.399 C 169.066 1072.420, 147.272 1072.446, 139.733 1074.450 C 120.778 1079.490, 112.383 1090.446, 111.262 1111.605 C 110.427 1127.379, 113.074 1142.120, 121.063 1166.189 C 126.050 1181.216, 129.598 1188.218, 140.784 1205.120 C 172.801 1253.491, 221.832 1309.757, 277 1361.435 C 379.886 1457.814, 459.749 1521.602, 565 1591.468 C 606.516 1619.026, 624.830 1630.489, 690.500 1670.022 C 719.100 1687.239, 750.600 1706.485, 760.500 1712.791 C 866.545 1780.339, 903.449 1826.320, 910.098 1899.188 C 912.704 1927.745, 906.351 1968.571, 892.879 2009.847 C 861.399 2106.290, 780.944 2248.994, 653.179 2435 C 626.556 2473.759, 611.825 2494.662, 560.508 2566.500 C 458.091 2709.872, 436.378 2743.619, 423.992 2778.673 C 409.101 2820.819, 421.176 2839, 464.061 2839 C 473.117 2839, 481.670 2838.337, 489.151 2837.054 C 572.177 2822.822, 728.954 2731.420, 969.500 2557.007 C 994.250 2539.062, 1029.575 2513.635, 1048 2500.503 C 1100.796 2462.873, 1118.175 2450.349, 1154 2424.114 C 1221.008 2375.043, 1252.848 2353.219, 1289.155 2331.471 C 1342.209 2299.692, 1388.716 2281.426, 1438.500 2272.812 C 1456.987 2269.614, 1487.782 2269.622, 1506.441 2272.830 C 1549.852 2280.294, 1586.877 2295.952, 1634 2326.774 C 1667.674 2348.800, 1698.496 2373.745, 1763.503 2431.584 C 1887.053 2541.511, 1949.910 2591.913, 2030.500 2645.673 C 2146.497 2723.053, 2278.478 2788.327, 2360.500 2808.883 C 2396.028 2817.786, 2423.642 2821.184, 2443.284 2819.069 C 2496.778 2813.310, 2508.012 2775.234, 2473.545 2716.500 C 2453.578 2682.476, 2433.698 2657.327, 2341.522 2549.488 C 2256.968 2450.567, 2229.281 2416.791, 2192.343 2367.500 C 2129.617 2283.797, 2080.232 2199.337, 2045.290 2116 C 2003.459 2016.235, 1988.658 1923.865, 2004.029 1858.500 C 2014.439 1814.231, 2034.344 1780.348, 2071.899 1742.973 C 2115.780 1699.301, 2165.541 1665.971, 2274.500 1607.271 C 2315.398 1585.237, 2385.663 1548.266, 2476.451 1501.010 C 2525.709 1475.371, 2656.490 1410.185, 2718 1380.612 C 2812.793 1335.037, 2846.098 1315.741, 2868.318 1293.520 C 2898.416 1263.423, 2894.111 1238.600, 2855.500 1219.601 C 2823.696 1203.952, 2780.328 1196.667, 2702.074 1193.827 C 2645.712 1191.781, 2583.683 1194.358, 2458.279 1203.953 C 2359.678 1211.498, 2295.170 1215.621, 2219.500 1219.214 C 2182.849 1220.955, 2042.658 1220.958, 2015.500 1219.220 C 1911.362 1212.553, 1854.462 1201.211, 1807.594 1177.780 C 1779.012 1163.491, 1756.391 1145.722, 1736.583 1122 C 1690.664 1067.009, 1664.328 981.088, 1647.542 831.500 C 1636.089 729.439, 1633.376 667.695, 1631.990 477.500 C 1630.954 335.297, 1630.131 309.064, 1625.395 267.097 C 1618.912 209.657, 1604.230 174.519, 1582.272 163.890 C 1575.789 160.751, 1563.658 160.278, 1555.843 162.858 M 1481.951 464.320 C 1468.999 467.934, 1461.441 478.202, 1461.578 492 C 1461.736 507.911, 1473.019 519.236, 1488.806 519.328 C 1502.986 519.411, 1513.091 511.611, 1516.613 497.866 C 1518.068 492.186, 1518.067 491.108, 1516.603 485.176 C 1515.122 479.174, 1511.758 473.300, 1508.041 470.226 C 1501.299 464.651, 1489.961 462.084, 1481.951 464.320 M 1479.500 470.843 C 1471.588 474.611, 1466.737 482.461, 1466.737 491.500 C 1466.737 504.536, 1476.149 513.928, 1489.261 513.978 C 1499.648 514.018, 1508.651 507.647, 1511.136 498.500 C 1513.885 488.379, 1510.116 477.752, 1501.832 472.270 C 1496.321 468.623, 1485.601 467.938, 1479.500 470.843 M 1447.267 673.054 C 1440.396 674.410, 1435.852 677.046, 1429.781 683.196 C 1424.969 688.069, 1423.718 690.117, 1421.902 696.097 C 1414.268 721.231, 1434.488 744.992, 1460.036 740.910 C 1467.825 739.665, 1473.601 736.586, 1479.519 730.524 C 1491.930 717.812, 1492.332 697.371, 1480.431 684.134 C 1474.760 677.828, 1469.029 674.477, 1461.548 673.093 C 1454.913 671.867, 1453.307 671.863, 1447.267 673.054 M 1444.388 680.268 C 1436.318 683.462, 1430.582 689.686, 1427.652 698.428 C 1425.477 704.915, 1425.567 709.768, 1427.980 716.212 C 1430.510 722.970, 1434.760 728.099, 1440.754 731.627 C 1444.980 734.115, 1446.486 734.425, 1454.500 734.461 C 1462.551 734.496, 1463.992 734.211, 1468.166 731.757 C 1481.163 724.117, 1486.500 708.616, 1480.556 695.779 C 1477.573 689.337, 1474.835 686.133, 1469.154 682.435 C 1465.368 679.971, 1463.692 679.570, 1456.154 679.321 C 1450.966 679.150, 1446.253 679.530, 1444.388 680.268 M 1437.500 866.974 C 1426.957 868.643, 1416.167 874.703, 1408.360 883.339 C 1395.593 897.463, 1392.579 919.766, 1401.042 937.500 C 1405.327 946.478, 1414.347 955.366, 1423.435 959.565 C 1433.411 964.174, 1443.684 965.773, 1452.679 964.115 C 1474.187 960.152, 1490.365 943.997, 1493.312 923.538 C 1495.557 907.959, 1491.340 893.830, 1481.157 882.813 C 1469.730 870.449, 1453.270 864.477, 1437.500 866.974 M 1433.994 875.881 C 1411.068 883.346, 1399.276 906.496, 1406.683 929.500 C 1415.792 957.790, 1454.190 965.764, 1474.688 943.624 C 1481.262 936.523, 1483.500 931.955, 1485.166 922.237 C 1488.207 904.502, 1479.392 887.357, 1462.875 878.885 C 1457.111 875.928, 1455.542 875.589, 1446.500 875.340 C 1441 875.188, 1435.372 875.432, 1433.994 875.881 M 1445.245 1061.109 C 1432.691 1063.201, 1416.751 1072.787, 1407.785 1083.637 C 1398.868 1094.429, 1392.252 1114.878, 1393.595 1127.500 C 1396.575 1155.520, 1413.740 1176.857, 1439.543 1184.615 C 1446.939 1186.839, 1465.033 1187.102, 1473 1185.103 C 1483.025 1182.586, 1493.501 1176.535, 1501.389 1168.707 C 1509.387 1160.768, 1513.730 1153.876, 1517.708 1142.806 C 1519.944 1136.585, 1520.343 1133.793, 1520.396 1124 C 1520.450 1113.964, 1520.106 1111.468, 1517.693 1104.390 C 1507.121 1073.374, 1477.574 1055.723, 1445.245 1061.109 M 1448.500 1070.915 C 1419.500 1076.623, 1400.670 1102.650, 1404.790 1131.331 C 1408.936 1160.196, 1435.850 1180.302, 1464.750 1176.122 C 1495.582 1171.663, 1516.420 1140.748, 1508.645 1111 C 1502.652 1088.070, 1483.382 1071.964, 1460.301 1070.591 C 1456.010 1070.336, 1450.700 1070.482, 1448.500 1070.915 M 355.872 1251.057 C 350.362 1251.941, 347.887 1253.143, 342.318 1257.643 C 329.424 1268.062, 329.463 1289.871, 342.395 1300.468 C 348.441 1305.422, 352.892 1307.003, 360.718 1306.978 C 372.057 1306.941, 380.432 1301.770, 385.785 1291.500 C 389.509 1284.354, 389.504 1273.654, 385.773 1266.437 C 379.922 1255.119, 368.184 1249.081, 355.872 1251.057 M 351.500 1257.900 C 346.557 1260.193, 341.601 1265.302, 339.551 1270.218 C 337.477 1275.190, 337.621 1283.572, 339.866 1288.500 C 342.135 1293.484, 348.544 1299.364, 353.481 1300.994 C 358.225 1302.559, 366.380 1301.892, 371.315 1299.534 C 376.458 1297.076, 381.614 1290.085, 383.065 1283.601 C 387.061 1265.743, 368.017 1250.236, 351.500 1257.900 M 2553.500 1282.339 C 2540.431 1286.668, 2533.067 1296.112, 2533.022 1308.601 C 2532.994 1316.310, 2534.299 1320.188, 2539.100 1326.659 C 2546.848 1337.103, 2561.380 1340.474, 2573.371 1334.607 C 2594.451 1324.293, 2594.674 1295.087, 2573.754 1284.396 C 2567.933 1281.421, 2559.007 1280.515, 2553.500 1282.339 M 2555.071 1287.165 C 2537.900 1292.097, 2532.356 1313.582, 2545.128 1325.699 C 2556.472 1336.462, 2575.910 1332.935, 2581.893 1319.028 C 2587.547 1305.884, 2581.154 1291.499, 2567.911 1287.566 C 2561.994 1285.809, 2560.009 1285.747, 2555.071 1287.165 M 1446 1289.666 C 1415.879 1294.404, 1394.785 1312.071, 1385.901 1340 C 1383.865 1346.402, 1383.529 1349.404, 1383.604 1360.500 C 1383.683 1372.092, 1384 1374.366, 1386.525 1381.500 C 1390.450 1392.586, 1395.187 1400.302, 1403.111 1408.513 C 1419.013 1424.992, 1441.028 1432.406, 1464.104 1429.053 C 1505.906 1422.978, 1533.095 1380.076, 1520.643 1339.840 C 1512.806 1314.517, 1492.716 1296.294, 1466.720 1290.929 C 1458.044 1289.139, 1451.779 1288.757, 1446 1289.666 M 1440 1302.362 C 1436.975 1303.020, 1430.924 1305.329, 1426.553 1307.495 C 1412.671 1314.374, 1402.232 1326.754, 1397.004 1342.540 C 1393.821 1352.150, 1393.729 1366.605, 1396.788 1376.531 C 1402.684 1395.667, 1416.798 1409.728, 1437 1416.592 C 1445.597 1419.514, 1463.289 1419.065, 1472.276 1415.698 C 1480.828 1412.494, 1486.207 1409.341, 1492.339 1403.937 C 1502.620 1394.878, 1508.491 1384.134, 1511.523 1368.836 C 1513.144 1360.656, 1513.144 1359.651, 1511.529 1350.836 C 1507.811 1330.546, 1496.815 1315.502, 1479.558 1307.098 C 1467.339 1301.147, 1453.321 1299.469, 1440 1302.362 M 2351.932 1325.009 C 2346.412 1325.943, 2338.291 1329.927, 2333.712 1333.948 C 2331.863 1335.572, 2328.919 1339.735, 2327.171 1343.200 C 2323.076 1351.314, 2322.177 1359.240, 2324.378 1367.829 C 2328.943 1385.650, 2345.480 1396.211, 2363.818 1393.018 C 2375.116 1391.051, 2383.860 1384.270, 2389.006 1373.487 C 2394.994 1360.940, 2392.340 1345.534, 2382.443 1335.398 C 2374.204 1326.959, 2362.985 1323.139, 2351.932 1325.009 M 2345.457 1333.860 C 2332.792 1339.852, 2326.624 1353.316, 2330.476 1366.565 C 2334.622 1380.826, 2344.609 1387.696, 2359.881 1386.790 C 2368.511 1386.278, 2372.244 1384.688, 2377.592 1379.248 C 2386.046 1370.648, 2388.355 1358.028, 2383.392 1347.546 C 2376.392 1332.762, 2360.159 1326.905, 2345.457 1333.860 M 539.223 1337.062 C 529.135 1339.050, 520.272 1346.396, 515.274 1356.911 C 511.480 1364.894, 511.548 1376.107, 515.444 1384.734 C 518.879 1392.341, 525.673 1398.996, 533.569 1402.488 C 541.613 1406.046, 552.604 1406.031, 560.721 1402.453 C 568.291 1399.116, 575.150 1392.275, 578.612 1384.610 C 580.890 1379.566, 581.374 1377.083, 581.386 1370.377 C 581.398 1363.225, 581.013 1361.470, 578.163 1355.680 C 570.864 1340.853, 556.013 1333.753, 539.223 1337.062 M 541.500 1343.005 C 535.157 1344.319, 532.785 1345.509, 528.282 1349.635 C 521.789 1355.585, 518.998 1361.834, 519.010 1370.399 C 519.032 1386.804, 530.957 1398.980, 547 1398.980 C 557.306 1398.980, 565.713 1394.158, 571.582 1384.879 C 575.290 1379.017, 576.175 1367.371, 573.455 1360.233 C 568.865 1348.187, 554.326 1340.349, 541.500 1343.005 M 2149.892 1382.397 C 2137.959 1385.824, 2125.545 1396.015, 2120.054 1406.892 C 2113.177 1420.516, 2112.568 1433.759, 2118.153 1448.241 C 2124.057 1463.550, 2138.530 1475.222, 2155.068 1478.011 C 2176.861 1481.687, 2197.352 1471.284, 2207.020 1451.634 C 2209.222 1447.160, 2211.512 1440.800, 2212.110 1437.500 C 2215.974 1416.187, 2202.004 1391.992, 2181.143 1383.865 C 2174.149 1381.141, 2157.062 1380.338, 2149.892 1382.397 M 735.725 1390.499 C 725.817 1393.014, 719.184 1396.804, 712.323 1403.870 C 704.730 1411.690, 701.509 1417.825, 699.245 1428.777 C 694.689 1450.809, 705.530 1472.262, 726.428 1482.570 C 733.873 1486.242, 735.001 1486.502, 744.928 1486.839 C 753.779 1487.139, 756.550 1486.843, 761.946 1485.022 C 796.020 1473.523, 807.148 1432.355, 783.492 1405.312 C 772.279 1392.495, 752.288 1386.295, 735.725 1390.499 M 2152.500 1390.406 C 2145.658 1392.097, 2142.167 1394.081, 2135.805 1399.895 C 2121.830 1412.667, 2118.668 1432.014, 2127.731 1449.295 C 2133.613 1460.510, 2142.317 1466.923, 2155.344 1469.639 C 2163.268 1471.291, 2169.270 1470.832, 2177.716 1467.926 C 2195.287 1461.881, 2207.232 1441.822, 2203.971 1423.838 C 2199.512 1399.248, 2176.693 1384.427, 2152.500 1390.406 M 739.236 1398.060 C 725.517 1400.765, 713.106 1411.290, 708.839 1423.837 C 707.174 1428.736, 706.599 1432.618, 706.670 1438.500 C 706.870 1455.225, 714.729 1467.617, 729.979 1475.255 C 736.059 1478.300, 737.108 1478.500, 747 1478.500 C 756.923 1478.500, 757.939 1478.305, 764.301 1475.173 C 800.309 1457.446, 793.358 1405.464, 753.980 1397.996 C 747.990 1396.860, 745.260 1396.872, 739.236 1398.060 M 1940.787 1430.524 C 1930.660 1432.540, 1918.839 1439.143, 1910.425 1447.486 C 1902.614 1455.230, 1898.262 1462.161, 1894.282 1473.194 C 1891.988 1479.556, 1891.647 1482.051, 1891.647 1492.500 C 1891.647 1503.019, 1891.980 1505.424, 1894.346 1511.988 C 1901.033 1530.544, 1912.654 1543.102, 1930.152 1550.685 C 1963.129 1564.976, 2002.545 1547.883, 2014.455 1514.126 C 2015.286 1511.773, 2016.650 1505.902, 2017.486 1501.078 C 2018.843 1493.257, 2018.846 1491.377, 2017.506 1483.695 C 2014.792 1468.134, 2010.341 1458.844, 2000.842 1448.918 C 1994.100 1441.874, 1989.824 1438.780, 1981.517 1434.935 C 1969.189 1429.229, 1955.010 1427.693, 1940.787 1430.524 M 947.018 1440.495 C 929.765 1444.419, 913.989 1456.192, 905.494 1471.484 C 899.270 1482.687, 897.647 1489.104, 897.647 1502.500 C 897.647 1516.004, 899.244 1522.223, 905.734 1534 C 913.154 1547.461, 930.025 1560.402, 945 1564.118 C 951.866 1565.822, 970.970 1565.804, 977 1564.088 C 988.171 1560.910, 998.868 1554.418, 1007.034 1545.860 C 1027.547 1524.364, 1029.584 1489.308, 1011.750 1464.690 C 1004.560 1454.764, 989.803 1444.592, 977.500 1441.080 C 970.774 1439.160, 954.277 1438.843, 947.018 1440.495 M 1944.985 1440.001 C 1939.297 1440.966, 1928.775 1445.701, 1922.958 1449.915 C 1905.291 1462.711, 1897.411 1487.285, 1904.255 1508.244 C 1907.513 1518.222, 1911.666 1524.601, 1919.693 1531.956 C 1934.388 1545.421, 1955.160 1549.222, 1973.812 1541.858 C 2009.946 1527.593, 2019.470 1482.263, 1992.086 1454.879 C 1979.505 1442.298, 1962.713 1436.994, 1944.985 1440.001 M 951.500 1449.957 C 925.608 1455.572, 907.628 1477.106, 907.628 1502.500 C 907.628 1528.846, 927.110 1551.203, 953.487 1555.126 C 981.833 1559.342, 1009.084 1538.900, 1013.205 1510.331 C 1016.832 1485.190, 1003.177 1462.054, 979.281 1452.853 C 971.152 1449.722, 958.611 1448.415, 951.500 1449.957 M 1753.798 1484.959 C 1719.602 1491.223, 1693.764 1524.517, 1696.426 1558.889 C 1698.747 1588.869, 1718.487 1613.048, 1748 1622.062 C 1757.568 1624.984, 1774.324 1625.246, 1783.500 1622.618 C 1809.433 1615.188, 1826.988 1597.989, 1834.655 1572.500 C 1837.445 1563.224, 1837.124 1542.683, 1834.052 1534 C 1829.964 1522.441, 1824.832 1513.836, 1817.354 1506 C 1804.122 1492.135, 1788.456 1485.083, 1769.500 1484.460 C 1763.450 1484.261, 1756.384 1484.486, 1753.798 1484.959 M 1154.500 1494.465 C 1125.502 1500.595, 1103.468 1524.462, 1099.765 1553.750 C 1095.127 1590.429, 1117.934 1623.453, 1153.519 1631.585 C 1169.628 1635.265, 1185.050 1633.339, 1201 1625.653 C 1207.982 1622.289, 1211.107 1619.945, 1218.500 1612.529 C 1229.683 1601.310, 1234.776 1591.822, 1237.934 1576.324 C 1240.488 1563.793, 1240.490 1562.219, 1237.973 1549.867 C 1233.046 1525.691, 1218.155 1507.496, 1195.617 1498.113 C 1183.539 1493.085, 1167.680 1491.678, 1154.500 1494.465 M 1758.500 1495.649 C 1749.726 1497.055, 1739.423 1501.172, 1733 1505.839 C 1719.353 1515.754, 1711.703 1528.091, 1708.486 1545.367 C 1706.961 1553.555, 1706.958 1554.933, 1708.444 1563.367 C 1713.016 1589.312, 1731.780 1608.080, 1757.518 1612.450 C 1765.578 1613.818, 1767.488 1613.821, 1775.518 1612.474 C 1798.149 1608.676, 1815.630 1593.595, 1823.013 1571.500 C 1826.214 1561.919, 1826.297 1547.505, 1823.209 1537.469 C 1817.402 1518.594, 1803.379 1504.415, 1784.079 1497.902 C 1778.484 1496.014, 1764.118 1494.749, 1758.500 1495.649 M 1160 1504.622 C 1137.912 1508.917, 1120.729 1523.516, 1113.236 1544.354 C 1111.048 1550.438, 1110.662 1553.210, 1110.642 1563 C 1110.621 1572.582, 1111.008 1575.584, 1112.958 1581 C 1116.642 1591.228, 1120.856 1597.977, 1127.966 1605.035 C 1145.646 1622.585, 1172.652 1626.901, 1195.599 1615.842 C 1205.123 1611.252, 1217.252 1599.123, 1221.842 1589.599 C 1232.929 1566.592, 1228.704 1539.818, 1211.187 1522.092 C 1199.676 1510.443, 1187.873 1505.141, 1172.057 1504.514 C 1166.801 1504.306, 1161.375 1504.355, 1160 1504.622 M 1441.105 1562.546 C 1414.926 1568.225, 1394.568 1581.913, 1380.585 1603.237 C 1375.283 1611.322, 1369.338 1625.261, 1367.534 1633.840 C 1365.533 1643.350, 1365.516 1664.570, 1367.502 1674.008 C 1371.859 1694.724, 1386.216 1716.665, 1403.649 1729.250 C 1411.973 1735.260, 1424.719 1741.305, 1435 1744.120 C 1442.148 1746.077, 1445.887 1746.446, 1458.500 1746.442 C 1471.715 1746.437, 1474.600 1746.121, 1482.743 1743.790 C 1510.024 1735.980, 1531.339 1717.854, 1542.973 1692.572 C 1548.826 1679.855, 1551 1669.460, 1551 1654.201 C 1551 1639.069, 1548.733 1627.924, 1543.165 1615.683 C 1530.774 1588.438, 1505.813 1568.793, 1475.681 1562.569 C 1466.444 1560.661, 1449.845 1560.650, 1441.105 1562.546 M 1447 1576.132 C 1419.622 1580.602, 1396.072 1599.117, 1385.840 1624.216 C 1381.455 1634.971, 1380.030 1642.278, 1380.030 1654 C 1380.030 1665.722, 1381.455 1673.029, 1385.840 1683.784 C 1392.702 1700.615, 1405.958 1715.161, 1421.975 1723.433 C 1431.786 1728.500, 1437.091 1730.155, 1449.479 1732.011 C 1469.817 1735.058, 1494.695 1727.108, 1510.791 1712.417 C 1554.926 1672.137, 1541.032 1600.757, 1485.056 1580.204 C 1472.447 1575.574, 1459.137 1574.150, 1447 1576.132 M 1624.500 1835.465 C 1608.270 1838.896, 1594.488 1847.450, 1584.251 1860.446 C 1559.151 1892.311, 1565.568 1937.820, 1598.500 1961.497 C 1630.796 1984.716, 1676.691 1975.660, 1698.356 1941.793 C 1704.351 1932.421, 1706.324 1926.902, 1708.535 1913.328 C 1709.871 1905.124, 1709.865 1903.136, 1708.472 1894.483 C 1705.870 1878.310, 1699.375 1865.245, 1688.565 1854.435 C 1672.042 1837.912, 1647.416 1830.620, 1624.500 1835.465 M 1262.882 1845.016 C 1244.421 1848.136, 1224.403 1862.091, 1214.850 1878.500 C 1200.356 1903.397, 1202.223 1934.632, 1219.542 1957 C 1244.129 1988.756, 1288.851 1993.816, 1319.914 1968.356 C 1330.861 1959.385, 1339.778 1945.330, 1343.617 1931 C 1347.215 1917.564, 1345.692 1900.185, 1339.715 1886.500 C 1326.557 1856.371, 1295.358 1839.526, 1262.882 1845.016 M 1630 1845.624 C 1617.812 1847.985, 1603.382 1855.655, 1596.017 1863.688 C 1574.377 1887.292, 1574.961 1923.128, 1597.351 1945.415 C 1615.773 1963.753, 1642.108 1968.162, 1665.599 1956.842 C 1674.383 1952.609, 1687.282 1940.066, 1691.147 1932 C 1699.950 1913.626, 1700.223 1895.448, 1691.948 1878.511 C 1682.263 1858.687, 1663.492 1846.407, 1641.500 1845.508 C 1636.550 1845.306, 1631.375 1845.358, 1630 1845.624 M 1267 1855.595 C 1248.416 1858.978, 1232.410 1870.116, 1223.440 1885.909 C 1216.219 1898.621, 1214.320 1917.840, 1218.935 1931.500 C 1224.463 1947.863, 1234.665 1959.811, 1249.137 1966.871 C 1261.056 1972.686, 1272.066 1974.466, 1283.635 1972.448 C 1301.354 1969.359, 1314.522 1961.276, 1323.795 1947.798 C 1330.643 1937.844, 1334.016 1926.677, 1333.983 1914.066 C 1333.915 1888.398, 1317.896 1866.539, 1293 1858.144 C 1286.676 1856.011, 1272.402 1854.612, 1267 1855.595 M 1127.155 2020.054 C 1120.298 2021.282, 1108.819 2026.289, 1102.782 2030.687 C 1070.668 2054.078, 1066.989 2099.252, 1094.938 2127.011 C 1110.044 2142.014, 1128.230 2148.019, 1149.441 2145.008 C 1173.008 2141.663, 1194.190 2122.771, 1201.115 2098.920 C 1202.775 2093.201, 1202.787 2071.840, 1201.134 2066.151 C 1197.936 2055.149, 1192.819 2046.691, 1184.064 2037.936 C 1175.415 2029.287, 1166.834 2024.052, 1156.396 2021.056 C 1150.971 2019.500, 1133.579 2018.903, 1127.155 2020.054 M 1757.196 2021.116 C 1750.608 2022.213, 1739.490 2026.879, 1733.272 2031.157 C 1693.039 2058.838, 1698.093 2120.619, 1742.253 2140.942 C 1751.899 2145.382, 1756.601 2146.364, 1768.500 2146.426 C 1780.926 2146.491, 1787.738 2145.107, 1796.446 2140.749 C 1813.212 2132.359, 1824.020 2119.756, 1830.106 2101.500 C 1833.624 2090.946, 1833.448 2075.468, 1829.684 2064.390 C 1819.146 2033.373, 1789.586 2015.726, 1757.196 2021.116 M 1129.479 2030.076 C 1118.242 2031.960, 1104.887 2040.249, 1097.377 2050 C 1092.329 2056.556, 1087.328 2069.178, 1086.482 2077.500 C 1085.005 2092.029, 1091.317 2109.317, 1102 2120 C 1109.590 2127.590, 1121.335 2133.467, 1132.116 2135.071 C 1150.457 2137.798, 1170.530 2129.638, 1181.558 2114.972 C 1211.038 2075.764, 1178.018 2021.937, 1129.479 2030.076 M 1760.500 2030.860 C 1753.156 2032.217, 1742.559 2036.945, 1736.904 2041.390 C 1719.998 2054.676, 1712.991 2074.136, 1717.482 2095.330 C 1719.665 2105.636, 1723.552 2112.549, 1731.820 2120.839 C 1744.171 2133.220, 1759.892 2138.598, 1776.513 2136.126 C 1807.631 2131.497, 1828.500 2100.713, 1820.661 2071 C 1817.186 2057.825, 1808.804 2045.933, 1798.196 2039.126 C 1787.421 2032.211, 1771.767 2028.779, 1760.500 2030.860 M 1874.919 2211.833 C 1861.327 2215.381, 1850.116 2224.917, 1843.282 2238.742 C 1839.511 2246.371, 1839.500 2246.429, 1839.500 2258.995 L 1839.500 2271.597 1843.420 2279.549 C 1853.439 2299.870, 1873.398 2310.502, 1895.538 2307.312 C 1909.190 2305.346, 1922.796 2296.407, 1929.732 2284.849 C 1933.406 2278.726, 1937 2265.944, 1937 2259 C 1937 2252.052, 1933.405 2239.271, 1929.732 2233.161 C 1918.859 2215.077, 1896.227 2206.271, 1874.919 2211.833 M 1009.108 2219.082 C 995.418 2221.770, 981.852 2232.819, 975.240 2246.668 C 971.535 2254.427, 971.500 2254.616, 971.500 2267.052 L 971.500 2279.604 975.420 2287.552 C 980.405 2297.658, 988.871 2306.360, 998.145 2310.911 C 1011.319 2317.375, 1028.581 2317.367, 1041.828 2310.892 C 1049.022 2307.374, 1058.349 2298.739, 1062.326 2291.914 C 1065.536 2286.405, 1069 2273.473, 1069 2267 C 1069 2260.056, 1065.406 2247.274, 1061.732 2241.151 C 1057.969 2234.880, 1049.974 2227.393, 1042.976 2223.583 C 1034.206 2218.810, 1020.063 2216.930, 1009.108 2219.082 M 1878.459 2219.332 C 1870.141 2221.457, 1864.559 2224.733, 1858.584 2230.998 C 1855.468 2234.265, 1851.709 2239.539, 1850.232 2242.719 C 1847.860 2247.822, 1847.543 2249.733, 1847.523 2259.021 C 1847.501 2268.900, 1847.699 2269.946, 1850.762 2276.167 C 1854.992 2284.760, 1864.596 2293.957, 1872.382 2296.870 C 1880.477 2299.899, 1889.175 2300.504, 1897.290 2298.602 C 1906.181 2296.518, 1909.290 2294.819, 1916.102 2288.322 C 1933.034 2272.171, 1932.738 2245.274, 1915.450 2229.102 C 1910.763 2224.718, 1907.600 2222.703, 1902.846 2221.074 C 1894.918 2218.357, 1885.038 2217.651, 1878.459 2219.332 M 1011.045 2227.092 C 999.482 2229.359, 988.482 2238.213, 982.742 2249.873 C 979.708 2256.036, 979.500 2257.133, 979.500 2267 C 979.500 2276.892, 979.700 2277.941, 982.745 2284.021 C 991.306 2301.115, 1007.768 2309.949, 1025.826 2307.142 C 1035.767 2305.596, 1040.403 2303.373, 1047.624 2296.688 C 1064.730 2280.851, 1064.949 2253.748, 1048.102 2237.678 C 1041.374 2231.261, 1038.189 2229.493, 1029.800 2227.515 C 1022.867 2225.880, 1017.810 2225.766, 1011.045 2227.092 M 884.871 2391.073 C 874.784 2393.105, 865.262 2400.678, 860.464 2410.484 C 857.953 2415.617, 857.571 2417.536, 857.571 2425.042 C 857.571 2432.722, 857.924 2434.402, 860.727 2440.094 C 862.463 2443.617, 865.372 2447.922, 867.191 2449.660 C 880.990 2462.839, 902.605 2462.808, 916.105 2449.591 C 929.739 2436.242, 929.772 2414.035, 916.176 2400.689 C 907.960 2392.624, 895.766 2388.879, 884.871 2391.073 M 2019.801 2391.008 C 2008.675 2392.930, 1997.722 2402.445, 1994.021 2413.402 C 1988.237 2430.532, 1995.535 2448.215, 2011.667 2456.157 C 2017.482 2459.019, 2019.222 2459.400, 2026.500 2459.400 C 2033.778 2459.400, 2035.518 2459.019, 2041.333 2456.157 C 2053.426 2450.203, 2061 2438.205, 2061 2425 C 2061 2403.487, 2041.362 2387.284, 2019.801 2391.008 M 879.500 2399.498 C 868.599 2405.318, 863.956 2412.980, 864.076 2424.946 C 864.118 2429.101, 864.680 2433.945, 865.326 2435.710 C 867.286 2441.071, 873.560 2447.638, 879.495 2450.541 C 884.502 2452.991, 885.831 2453.207, 893.439 2452.808 C 900.532 2452.436, 902.525 2451.926, 906.174 2449.551 C 915.188 2443.685, 919.980 2435.163, 919.980 2425 C 919.980 2414.699, 915.171 2406.312, 905.879 2400.404 C 902.178 2398.051, 900.184 2397.559, 893 2397.225 C 885.290 2396.866, 884.035 2397.077, 879.500 2399.498 M 2014.462 2399.366 C 2005.012 2403.766, 1998 2414.833, 1998 2425.347 C 1998 2435.525, 2004.870 2446.044, 2014.500 2450.610 C 2021.436 2453.898, 2031.507 2453.908, 2038.538 2450.634 C 2047.853 2446.297, 2055 2435.167, 2055 2425 C 2055 2414.833, 2047.853 2403.703, 2038.538 2399.366 C 2034.763 2397.607, 2031.746 2397.020, 2026.500 2397.020 C 2021.254 2397.020, 2018.237 2397.607, 2014.462 2399.366 M 2197.147 2555.091 C 2179.300 2558.536, 2169.338 2578.907, 2177.421 2595.428 C 2180.327 2601.368, 2186.231 2606.945, 2192.295 2609.479 C 2197.443 2611.630, 2208.473 2611.422, 2213.637 2609.078 C 2227.863 2602.618, 2234.367 2585.684, 2228.112 2571.393 C 2222.932 2559.559, 2209.804 2552.647, 2197.147 2555.091 M 2192.309 2562.533 C 2184.419 2566.465, 2179.982 2573.969, 2180.022 2583.315 C 2180.087 2598.787, 2195.528 2609.833, 2210.101 2604.834 C 2223.218 2600.333, 2229.160 2584.414, 2222.376 2571.949 C 2216.256 2560.705, 2203.804 2556.805, 2192.309 2562.533 M 688.387 2571.037 C 677.374 2576.489, 671.653 2585.365, 671.653 2597 C 671.653 2621.993, 700.114 2634.443, 718.753 2617.604 C 729.497 2607.898, 730.354 2589.826, 720.618 2578.308 C 719.134 2576.552, 715.166 2573.740, 711.800 2572.058 C 704.115 2568.218, 694.895 2567.816, 688.387 2571.037 M 690.500 2575.900 C 678.488 2581.473, 673.467 2596.094, 679.485 2607.971 C 689.693 2628.116, 720.166 2621.676, 721.804 2599.029 C 722.335 2591.693, 720.740 2586.827, 716.129 2581.713 C 709.442 2574.296, 699.041 2571.937, 690.500 2575.900" stroke="none" fill="#040404" fill-rule="evenodd"/></svg>