<svg xmlns="http://www.w3.org/2000/svg" width="3000" height="3000" viewBox="0 0 3000 3000" version="1.1"><path d="" stroke="none" fill="#080404" fill-rule="evenodd"/><path d="M 1861.019 120.691 C 1854.477 124.090, 1850.743 131.930, 1844.677 155 C 1831.237 206.118, 1812.699 231.710, 1757.260 275.684 C 1749.142 282.123, 1731.700 296.196, 1718.500 306.956 C 1705.300 317.717, 1685.706 333.358, 1674.957 341.715 C 1632.150 374.996, 1582.716 416.429, 1569.436 430.157 C 1557.482 442.513, 1554.487 448.423, 1554.567 459.500 C 1554.703 478.502, 1566.762 497.609, 1625.596 572.043 C 1653.477 607.318, 1665.338 623.133, 1675.437 638.500 C 1683.990 651.515, 1690.443 662.891, 1689.697 663.637 C 1688.561 664.772, 1643.067 618.132, 1619.222 591.387 C 1567.109 532.935, 1536.378 506.129, 1518.387 503.431 C 1504.434 501.338, 1494.264 508.857, 1480.991 531.079 C 1468.626 551.779, 1469.098 567.660, 1482.742 590 C 1489.950 601.802, 1494.735 608.292, 1522.551 644 C 1548.047 676.730, 1568.837 705.475, 1577.700 720.254 C 1588.459 738.192, 1597.404 757.929, 1595.595 759.738 C 1594.699 760.634, 1576.853 742.889, 1565.726 730.038 C 1553.278 715.660, 1540.886 698.785, 1516.494 663 C 1492.547 627.866, 1474.188 602.696, 1469.652 598.777 C 1462.867 592.914, 1456.059 594.462, 1449.662 603.322 C 1447.550 606.245, 1437.715 623.457, 1427.805 641.569 C 1380.556 727.926, 1373.903 740.188, 1369.117 749.746 C 1359.295 769.358, 1355.637 782.480, 1355.664 798 C 1355.713 826.937, 1369.246 854.847, 1413.365 917 C 1435.813 948.625, 1451.068 967.883, 1487.207 1010.218 C 1515.998 1043.946, 1525.071 1055.598, 1529.435 1064.450 C 1533.477 1072.650, 1534.861 1079.258, 1533.004 1081.495 C 1528.837 1086.516, 1507.629 1078.634, 1484.169 1063.344 C 1437.914 1033.199, 1388.605 978.228, 1350.208 914 C 1337.627 892.954, 1334.883 890.019, 1327.785 890.007 C 1318.898 889.991, 1314.847 897.254, 1285.129 966.500 C 1275.215 989.600, 1264.580 1014.292, 1261.497 1021.371 C 1258.413 1028.450, 1255.202 1037.290, 1254.360 1041.016 C 1251.107 1055.420, 1256.715 1065.755, 1280.971 1090.059 C 1289.512 1098.617, 1303.925 1112.328, 1313 1120.529 C 1368.354 1170.547, 1418.906 1221.254, 1428.601 1236.484 L 1430.500 1239.467 1427.500 1237.309 C 1423.047 1234.105, 1413.417 1225.422, 1384 1198.087 C 1343.670 1160.611, 1334.957 1152.625, 1302.456 1123.354 C 1285.932 1108.471, 1268.402 1091.950, 1263.499 1086.640 C 1252.431 1074.651, 1248.755 1072, 1243.199 1072 C 1233.020 1072, 1226.319 1082.819, 1195.507 1149 C 1174.259 1194.639, 1172.431 1200.408, 1173.220 1219.348 C 1173.618 1228.897, 1174.240 1232.153, 1177.544 1242 C 1184.302 1262.136, 1202.420 1295.612, 1223.549 1327 C 1228.547 1334.425, 1244.344 1356.475, 1258.654 1376 C 1283.046 1409.281, 1299 1432.003, 1299 1433.460 C 1299 1435.201, 1280.014 1423.935, 1269 1415.658 C 1233.855 1389.246, 1192.158 1343.999, 1161.037 1298.500 C 1149.138 1281.103, 1144.201 1275.624, 1138.446 1273.426 C 1129.588 1270.044, 1121.839 1275.362, 1110.101 1292.880 C 1098.187 1310.660, 1042.881 1404.515, 1024.814 1437.614 C 1006.404 1471.340, 1002.345 1485.287, 1006.486 1500.588 C 1011.018 1517.328, 1024.300 1531.136, 1067.500 1564.013 C 1090.872 1581.799, 1136.291 1617.412, 1149 1627.916 C 1155.325 1633.143, 1167.533 1644.413, 1176.129 1652.960 C 1191.354 1668.098, 1198.196 1676.653, 1199.550 1682.247 C 1200.195 1684.910, 1200.113 1684.974, 1196.858 1684.352 C 1169.022 1679.036, 1081.011 1624.148, 1013.489 1569.995 C 992.107 1552.846, 988.228 1550.780, 981.553 1552.982 C 975.103 1555.111, 967.956 1566.195, 962.382 1582.717 C 956.940 1598.849, 959.340 1611.112, 970.196 1622.636 C 979.134 1632.124, 1014.819 1658.092, 1066.500 1692.717 C 1078.050 1700.456, 1091.100 1709.545, 1095.500 1712.917 C 1108.478 1722.862, 1125.285 1740.048, 1123.640 1741.693 C 1122.533 1742.800, 1106.923 1736.998, 1095.892 1731.378 C 1071.215 1718.807, 1034.960 1692.011, 990.511 1653.492 C 969.802 1635.547, 967.022 1633.364, 961.943 1631.059 C 956.330 1628.513, 954.637 1628.513, 949.372 1631.062 C 940.246 1635.480, 932.737 1651.744, 913.854 1708 C 896.775 1758.879, 894.942 1766.366, 896.965 1777 C 899.372 1789.661, 907.852 1801.334, 923.457 1813.470 C 943.620 1829.150, 970.939 1845.553, 1008.500 1864.531 C 1038.218 1879.546, 1052.909 1886.038, 1086.206 1898.872 C 1097.594 1903.261, 1110.419 1908.678, 1114.706 1910.908 C 1123.365 1915.413, 1130 1920.438, 1130 1922.490 C 1130 1925.788, 1107.916 1927.085, 1088.211 1924.945 C 1059.947 1921.876, 1023.620 1911.448, 974.500 1892.303 C 955.942 1885.071, 921.325 1867.974, 907 1858.967 C 891.879 1849.459, 887.737 1847.638, 882.754 1848.306 C 868.843 1850.172, 864.621 1870.812, 864.611 1937 C 864.604 1979.181, 867.139 2010.263, 873.018 2040.089 C 887.554 2113.839, 923.541 2178.617, 982.974 2238.016 C 1008.362 2263.390, 1026.526 2278.392, 1055.617 2298.016 L 1069.733 2307.539 1060.281 2327.520 C 993.821 2468, 945.640 2572.372, 913.726 2645 C 906.838 2660.675, 893.787 2690.375, 884.724 2711 C 845.413 2800.460, 829.377 2839.893, 827.018 2852.899 C 824.831 2864.959, 828.913 2871.695, 841.608 2876.980 C 849.988 2880.469, 853.390 2880.719, 857.314 2878.132 C 863.153 2874.282, 864.480 2871.578, 880.021 2831.868 C 917.028 2737.308, 952.484 2657.804, 1098.042 2343 C 1101.475 2335.575, 1104.597 2329.145, 1104.980 2328.712 C 1105.363 2328.278, 1111.037 2330.446, 1117.588 2333.529 C 1192.486 2368.776, 1274.484 2379.837, 1357.500 2365.893 C 1401.408 2358.518, 1447.352 2344.315, 1493.031 2323.995 C 1517.573 2313.077, 1555.428 2292.278, 1574.500 2279.232 C 1578.900 2276.222, 1587.225 2270.798, 1593 2267.179 C 1607.968 2257.799, 1618.711 2250.025, 1631.948 2238.994 C 1667.639 2209.254, 1696 2178.024, 1696 2168.464 C 1696 2164.594, 1693.362 2161.597, 1688.587 2160.042 C 1686.889 2159.490, 1677.499 2158.139, 1667.719 2157.040 C 1638.315 2153.737, 1614.963 2148.058, 1573.313 2134.079 C 1553.864 2127.551, 1514.109 2111.993, 1492 2102.257 C 1477.870 2096.034, 1463.925 2089.133, 1465.311 2089.049 C 1465.758 2089.022, 1476.016 2091.919, 1488.108 2095.487 C 1535.828 2109.568, 1563.372 2116.413, 1610.500 2125.901 C 1656.193 2135.100, 1684.626 2138.881, 1697.912 2137.526 C 1714.592 2135.825, 1727.300 2130.266, 1738.571 2119.741 C 1745.372 2113.389, 1763.748 2091.264, 1770.316 2081.518 C 1773.661 2076.555, 1773.794 2072.095, 1770.686 2069.174 C 1767.551 2066.229, 1764.630 2066.396, 1747.822 2070.479 C 1739.945 2072.392, 1728.325 2074.668, 1722 2075.535 C 1706.210 2077.701, 1662.518 2078.563, 1643 2077.095 C 1601.434 2073.967, 1541.477 2061.745, 1523.564 2052.747 L 1519.628 2050.770 1522.064 2049.421 C 1535.262 2042.114, 1629.719 2026.668, 1729.500 2015.500 C 1770.862 2010.870, 1786.284 2007.806, 1798.725 2001.744 C 1814.716 1993.952, 1825.595 1978.870, 1839.296 1945.500 C 1853.919 1909.885, 1877.073 1843.556, 1879.096 1831.487 C 1881.237 1818.718, 1877.356 1812.399, 1867.500 1812.604 C 1864.750 1812.661, 1855.750 1814.310, 1847.500 1816.268 C 1829.574 1820.522, 1817.745 1822.434, 1797 1824.433 C 1761.970 1827.807, 1705.546 1829.960, 1651.500 1829.984 C 1599.108 1830.008, 1571.151 1827.869, 1552.189 1822.388 C 1543.810 1819.966, 1539.780 1818, 1543.194 1818 C 1544.071 1818, 1549.223 1817.566, 1554.644 1817.035 C 1560.065 1816.503, 1579.350 1815.598, 1597.500 1815.023 C 1702.729 1811.688, 1756.311 1806.222, 1818.500 1792.479 C 1867.335 1781.686, 1889.405 1772.607, 1903.290 1757.597 C 1908.336 1752.141, 1916.957 1739.155, 1921.277 1730.500 C 1932.871 1707.276, 1987.347 1569.974, 1999.879 1532.392 C 2008.117 1507.687, 2008.603 1497.167, 2001.699 1492.958 C 1996.778 1489.957, 1991.433 1490.510, 1967.612 1496.483 C 1927.400 1506.566, 1895.818 1510.899, 1856.729 1511.695 C 1819.303 1512.456, 1788.341 1509.615, 1756.500 1502.498 C 1741.624 1499.173, 1717.496 1491.314, 1709.500 1487.191 L 1703.500 1484.096 1713.500 1484.071 C 1719 1484.058, 1734.525 1484.964, 1748 1486.086 C 1779.236 1488.685, 1842.048 1489.745, 1867 1488.092 C 1948.212 1482.714, 1998.525 1466.510, 2024.962 1437.218 C 2038.970 1421.698, 2043.018 1404.986, 2034.053 1399.691 C 2029.873 1397.221, 2023.700 1397.588, 2003.710 1401.492 C 1959.727 1410.082, 1902.296 1415.966, 1859 1416.317 C 1836.647 1416.499, 1823.980 1415.610, 1825.636 1413.976 C 1827.111 1412.520, 1843.900 1408.033, 1855.467 1406.002 C 1869.329 1403.568, 1895.509 1400.616, 1926.500 1397.993 C 1969.917 1394.318, 2010.340 1390.003, 2020 1388.013 C 2038.986 1384.101, 2050.822 1375.602, 2058.895 1360.085 C 2068.253 1342.097, 2088.685 1279.222, 2103.992 1221.307 C 2116.227 1175.013, 2118.488 1158.243, 2113.083 1153.866 C 2109.151 1150.682, 2104.585 1151.527, 2091.032 1157.947 C 2051.271 1176.783, 1977.637 1201.394, 1933.627 1210.558 C 1907.768 1215.942, 1884.239 1216.392, 1882.376 1211.538 C 1879.973 1205.276, 1901.026 1187.302, 1926 1174.294 C 1951.496 1161.014, 1976.430 1151.788, 2037.500 1133.035 C 2079.569 1120.116, 2104.503 1111.752, 2113.927 1107.398 C 2132.696 1098.726, 2140.270 1088.146, 2143.512 1066.070 C 2144.728 1057.789, 2146.794 1026.007, 2150.992 951 C 2151.561 940.825, 2153.144 923.500, 2154.510 912.500 C 2160.229 866.434, 2164.436 813.468, 2164.477 787 C 2164.503 770.737, 2163.578 767.584, 2157.701 763.909 C 2153.491 761.276, 2148.541 761.963, 2139.955 766.373 C 2136.356 768.222, 2114.867 781.490, 2092.204 795.859 C 2024.280 838.921, 1999.942 853.188, 1965 870.424 C 1948.588 878.519, 1930.216 886.434, 1923 888.518 C 1913.326 891.311, 1961.185 861.548, 2052.500 807.982 C 2135.725 759.162, 2151.048 748.377, 2163.120 730.123 C 2170.973 718.248, 2172.279 712.861, 2172.767 690.338 C 2173.498 656.525, 2170.218 646.601, 2158.387 646.839 C 2152.236 646.962, 2147.484 649.666, 2115.184 671.416 C 2052.770 713.445, 1999.316 745.834, 1959.500 765.750 C 1939.113 775.948, 1916.743 785.077, 1915.410 783.743 C 1914.002 782.335, 1932.724 769.452, 1965.500 749.277 C 2044.914 700.394, 2088.295 669.267, 2119.864 638.517 C 2135.367 623.418, 2143.475 613.973, 2151.432 601.748 C 2178.633 559.957, 2179.029 521.366, 2152.837 464.715 C 2127.808 410.581, 2079.026 336.264, 2027.655 274.008 C 1994.845 234.247, 1916.817 152.243, 1893.809 133.343 C 1877.767 120.165, 1868.737 116.681, 1861.019 120.691 M 1865.402 129.042 C 1862.184 130.240, 1859.313 137.533, 1853.921 158.206 C 1843.735 197.255, 1834.054 216.288, 1810.968 242.655 C 1797.124 258.467, 1784.679 268.935, 1682 351.134 C 1666.875 363.242, 1649.831 377.023, 1644.124 381.758 C 1638.417 386.494, 1628.067 394.864, 1621.124 400.359 C 1603.057 414.657, 1583.416 431.731, 1576.367 439.267 C 1564.373 452.088, 1563.230 459.634, 1570.860 475.599 C 1577.512 489.516, 1589.318 506.201, 1624.564 551.493 C 1672.377 612.933, 1687.504 634.438, 1698.602 656.749 C 1705.265 670.142, 1706.354 675.646, 1703.004 678.996 C 1700.073 681.927, 1695.675 681.249, 1689.335 676.886 C 1674.803 666.888, 1645.006 637.630, 1611.032 600 C 1582.386 568.272, 1568.550 553.814, 1554.806 541.252 C 1527.240 516.054, 1515.469 510.531, 1505.194 517.974 C 1500.298 521.521, 1492.280 532.639, 1487.183 542.948 C 1483.807 549.776, 1483.500 551.109, 1483.500 558.948 C 1483.500 566.767, 1483.821 568.173, 1487.250 575.354 C 1492.424 586.189, 1502.795 601.033, 1526.480 631.500 C 1573.238 691.649, 1594.537 724.581, 1602.982 749.786 C 1606.737 760.994, 1606.875 765.764, 1603.548 769.354 C 1598.162 775.165, 1591.694 771.767, 1572.685 753.141 C 1550.784 731.682, 1535.655 712.298, 1502.329 663 C 1481.442 632.102, 1465.131 609.184, 1462.438 606.948 C 1461.498 606.168, 1460.571 606.011, 1460.171 606.564 C 1456.300 611.920, 1450.829 621.250, 1443.495 635 C 1438.655 644.075, 1429.878 660.275, 1423.990 671 C 1379.029 752.898, 1372.742 765.358, 1368.875 780.220 C 1363.677 800.198, 1367.777 822.430, 1381.161 846.845 C 1396.407 874.657, 1431.547 925.147, 1462.001 963 C 1468.418 970.975, 1484.140 989.875, 1496.941 1005 C 1529.983 1044.043, 1536.929 1053.611, 1541.627 1066.554 C 1547.113 1081.666, 1542.906 1092.033, 1530.698 1093.489 C 1515.589 1095.290, 1485.439 1080.477, 1454.088 1055.848 C 1440.666 1045.305, 1405.379 1010.206, 1392.409 994.500 C 1373.247 971.295, 1354.516 944.173, 1339.575 918 C 1335.336 910.575, 1330.972 903.600, 1329.876 902.500 L 1327.885 900.500 1326.361 902.500 C 1325.522 903.600, 1323.277 907.569, 1321.370 911.321 C 1317.416 919.100, 1267.929 1034.478, 1266.022 1040.362 C 1263.865 1047.019, 1265.117 1054.201, 1269.560 1060.652 C 1275.838 1069.768, 1291.367 1085.358, 1325.500 1116.817 C 1361.456 1149.955, 1415.528 1203.606, 1427.478 1218 C 1441.573 1234.977, 1446.532 1244.342, 1444.171 1249.523 C 1442.534 1253.117, 1438.460 1254.440, 1433.542 1252.974 C 1424.845 1250.383, 1416.697 1243.897, 1379 1209.560 C 1364.975 1196.785, 1340.225 1174.257, 1324 1159.499 C 1269.606 1110.020, 1263.517 1104.285, 1254.059 1093.620 C 1248.879 1087.779, 1244.086 1083, 1243.407 1083 C 1239.981 1083, 1229.078 1103.251, 1209.355 1146.245 C 1185.360 1198.550, 1184.656 1200.535, 1184.609 1216 C 1184.575 1226.993, 1186.142 1233.329, 1192.769 1248.983 C 1204.451 1276.578, 1225.428 1310.365, 1263.557 1363 C 1303.267 1417.818, 1313.084 1434.132, 1310.186 1440.491 C 1307.504 1446.377, 1300.287 1445.852, 1286.698 1438.782 C 1246.196 1417.710, 1193.573 1364.426, 1146.748 1297.074 C 1138.273 1284.883, 1135.306 1282.231, 1132.075 1283.960 C 1128.715 1285.758, 1119.299 1299.084, 1108.280 1317.637 C 1045.892 1422.677, 1042.930 1427.742, 1031.748 1448.500 C 1016.881 1476.098, 1013.871 1486.607, 1017.438 1498.461 C 1021.207 1510.984, 1034.468 1524.594, 1069.204 1551.588 C 1107.019 1580.975, 1152.190 1617.290, 1164.927 1628.543 C 1178.928 1640.913, 1198.474 1660.830, 1202.668 1667 C 1209.886 1677.620, 1211.929 1685.027, 1209.099 1690.314 C 1204.143 1699.575, 1188.136 1696.589, 1156.500 1680.503 C 1114.536 1659.165, 1060.069 1622.923, 1013.110 1585.093 C 992.246 1568.284, 986.635 1564.014, 985.405 1564.007 C 981.315 1563.982, 970 1589.569, 970 1598.844 C 970 1603.890, 972.563 1609.455, 977.249 1614.582 C 985.197 1623.279, 1016.922 1646.623, 1067.500 1680.992 C 1082.350 1691.083, 1098.550 1702.564, 1103.500 1706.505 C 1120.268 1719.857, 1135 1737.458, 1135 1744.141 C 1135 1745.102, 1133.912 1747.151, 1132.582 1748.694 C 1130.376 1751.254, 1129.610 1751.488, 1123.832 1751.365 C 1108.709 1751.043, 1078.293 1736.048, 1046.500 1713.242 C 1026.329 1698.772, 997.124 1675.124, 971.500 1652.514 C 962.045 1644.172, 957.713 1641, 955.770 1641 C 950.264 1641, 943.019 1657.645, 923.127 1716 C 909.809 1755.071, 907.858 1761.991, 907.761 1770.500 C 907.665 1778.885, 909.758 1784.294, 915.799 1791.270 C 929.958 1807.622, 969.373 1832.790, 1019.500 1857.486 C 1046.678 1870.875, 1057.257 1875.512, 1084.870 1886.138 C 1126.934 1902.326, 1141.500 1911.954, 1141.500 1923.572 C 1141.500 1931.236, 1135.554 1935.057, 1120.500 1937.067 C 1096.184 1940.314, 1057.422 1934.409, 1018.500 1921.530 C 967.141 1904.535, 934.478 1889.995, 901.886 1869.621 C 893.424 1864.331, 885.701 1860.003, 884.725 1860.002 C 880.825 1859.998, 878.540 1872.756, 876.935 1903.500 C 875.682 1927.485, 876.161 1964.017, 878.019 1986.190 C 884.194 2059.888, 901.666 2111.831, 938.588 2166.255 C 964.776 2204.858, 1000.830 2242.733, 1038.500 2271.214 C 1049.219 2279.318, 1073.746 2296.023, 1074.839 2295.964 C 1075.202 2295.944, 1100.015 2244.082, 1129.977 2180.714 C 1177.445 2080.321, 1249.528 1928.640, 1333.712 1752 C 1347.211 1723.675, 1374.901 1665.850, 1395.245 1623.500 C 1436.127 1538.394, 1458.090 1492.255, 1494.732 1414.500 C 1508.209 1385.900, 1536.562 1325.825, 1557.737 1281 C 1658.405 1067.904, 1690.861 992.943, 1728.877 885.726 C 1770.858 767.325, 1802.788 652.003, 1823.908 542.500 C 1839.810 460.048, 1861.712 320.313, 1866.933 268 C 1871.745 219.778, 1874.445 154.087, 1872.332 136.612 C 1871.437 129.205, 1869.791 127.407, 1865.402 129.042 M 1883.820 160.749 C 1884.593 215.742, 1871.374 343.040, 1854.925 439 C 1852.709 451.925, 1847.549 485.576, 1843.457 513.781 C 1834.606 574.795, 1830.611 599.044, 1823.902 632.500 C 1797.108 766.106, 1761.763 883.019, 1704.485 1027.500 C 1672.510 1108.158, 1633.929 1199.611, 1596.278 1284 C 1504.226 1490.321, 1457.725 1590.823, 1373.261 1766 C 1327.227 1861.475, 1312.285 1892.696, 1262.710 1997 C 1227.358 2071.377, 1215.796 2095.532, 1183.012 2163.500 C 1160.114 2210.973, 1111 2314.981, 1111 2315.999 C 1111 2316.947, 1134.599 2328.128, 1146.500 2332.817 C 1178.208 2345.312, 1215.438 2354.270, 1252 2358.202 C 1269.294 2360.062, 1314.278 2359.736, 1332.500 2357.617 C 1403.318 2349.386, 1476.674 2324.012, 1545.678 2283.881 C 1582.843 2262.266, 1620.741 2236.599, 1636.441 2222.409 C 1655.780 2204.931, 1685.245 2172.738, 1683.400 2171.102 C 1682.905 2170.663, 1674.625 2169.548, 1665 2168.625 C 1643.778 2166.590, 1628.407 2163.528, 1604 2156.476 C 1550.407 2140.989, 1473.953 2109.870, 1448.819 2093.312 C 1437.809 2086.059, 1435.308 2080.878, 1440.471 2076.027 C 1444.745 2072.012, 1453.858 2073.528, 1488.422 2084.006 C 1532.896 2097.488, 1567.649 2106.137, 1616.500 2115.881 C 1670.939 2126.740, 1693.853 2128.828, 1708.500 2124.265 C 1716.616 2121.736, 1725.849 2116.454, 1731.356 2111.187 C 1734.923 2107.777, 1746.908 2093.421, 1753.348 2084.845 L 1756.093 2081.190 1746.796 2083.533 C 1703.403 2094.472, 1637.172 2092.776, 1573.719 2079.100 C 1538.630 2071.538, 1517.384 2064.256, 1510.750 2057.520 C 1507.254 2053.970, 1507.020 2048.516, 1510.189 2044.486 C 1517.030 2035.790, 1548.282 2028.682, 1635.057 2016.084 C 1668.346 2011.251, 1686.029 2008.992, 1733.618 2003.494 C 1795.019 1996.400, 1803.858 1992.144, 1818.749 1962.500 C 1827.943 1944.198, 1860.330 1856.414, 1865.420 1836 C 1868.302 1824.440, 1868.296 1825, 1865.545 1825 C 1864.173 1825, 1856.852 1826.542, 1849.276 1828.428 C 1827.785 1833.775, 1810.887 1836.088, 1775.500 1838.524 C 1723.963 1842.073, 1628.042 1842.828, 1591 1839.977 C 1556.815 1837.345, 1532.073 1830.039, 1528.144 1821.417 C 1526.529 1817.872, 1526.707 1816.220, 1529.061 1812.915 C 1533.342 1806.903, 1543.459 1805.552, 1599.500 1803.511 C 1700.820 1799.820, 1749.516 1795.097, 1806 1783.485 C 1857.626 1772.871, 1880.301 1764.451, 1893.848 1750.862 C 1905.652 1739.022, 1911.459 1727.030, 1939.789 1656 C 1981.573 1551.234, 1998.343 1503, 1992.983 1503 C 1992.269 1503, 1984.778 1504.820, 1976.335 1507.043 C 1950.147 1513.942, 1925.616 1518.384, 1892.500 1522.224 C 1875.413 1524.206, 1822.124 1523.869, 1803.500 1521.661 C 1752.697 1515.639, 1706.910 1502.396, 1693.812 1489.936 C 1689.114 1485.467, 1688.589 1480.675, 1692.403 1477.091 C 1697.411 1472.387, 1706.385 1472.032, 1743 1475.092 C 1774.553 1477.729, 1842.098 1478.791, 1867.784 1477.054 C 1915.067 1473.856, 1951.024 1466.786, 1977.500 1455.481 C 1995.636 1447.738, 2007.012 1440.221, 2016.552 1429.680 C 2022.782 1422.795, 2028.920 1411.520, 2027.312 1409.912 C 2026.641 1409.241, 2023.858 1409.438, 2018.904 1410.507 C 1988.898 1416.985, 1963.461 1420.875, 1931 1423.949 C 1878.118 1428.957, 1836.868 1429.180, 1821.403 1424.542 C 1807.841 1420.474, 1807.532 1410.625, 1820.780 1404.679 C 1836.091 1397.808, 1866.758 1392.443, 1913 1388.544 C 1933.473 1386.819, 1940.577 1386.162, 1978.500 1382.493 C 2037.109 1376.823, 2042.887 1373.505, 2055.995 1338 C 2068.355 1304.519, 2086.281 1244.984, 2097.396 1200.500 C 2101.340 1184.717, 2105 1167.572, 2105 1164.880 C 2105 1164.386, 2100.594 1166.193, 2095.209 1168.895 C 2067.579 1182.761, 2002.532 1205.293, 1956.234 1217.036 C 1919.948 1226.240, 1890.760 1228.564, 1879.698 1223.130 C 1874.117 1220.388, 1872.030 1217.645, 1871.281 1212.061 C 1869.604 1199.555, 1889.112 1181.238, 1921.735 1164.687 C 1949.080 1150.815, 1975.181 1141.401, 2041.500 1121.493 C 2111.724 1100.413, 2121.974 1095.878, 2128.498 1083.004 C 2133.206 1073.713, 2134.176 1065.798, 2137.013 1013.500 C 2139.353 970.375, 2140.986 949.620, 2144.960 912.500 C 2148.101 883.163, 2149.270 868.286, 2151.563 828.500 C 2153.837 789.045, 2154.236 775.654, 2153.184 774.133 C 2151.179 771.237, 2145.041 774.673, 2094.500 806.981 C 2039.631 842.056, 2011.700 858.493, 1979 874.949 C 1947.119 890.993, 1926.449 899.350, 1915.502 900.622 C 1911.331 901.106, 1910.043 900.842, 1907.750 899.029 C 1904.414 896.391, 1904.201 893.028, 1907.077 888.375 C 1912.404 879.756, 1943.498 859.873, 2050 796.982 C 2107.579 762.981, 2120.888 754.593, 2136.631 742.383 C 2150.134 731.911, 2157.142 722.232, 2160.469 709.458 C 2163.166 699.103, 2162.118 661.755, 2159.043 658.651 C 2158.580 658.184, 2157.193 658.121, 2155.960 658.513 C 2154.727 658.904, 2139.495 668.756, 2122.109 680.405 C 2018.781 749.646, 1936.670 794.411, 1911.334 795.316 C 1907.092 795.467, 1905.705 795.066, 1903.584 793.076 C 1897.258 787.140, 1901.736 778.833, 1917.741 766.818 C 1928.177 758.983, 1932.613 756.118, 1977.500 728.227 C 2096.735 654.137, 2145.930 608.577, 2158.635 560.477 C 2161.919 548.047, 2162.325 529.316, 2159.590 516.500 C 2150.262 472.793, 2110.435 401.816, 2048.205 318 C 2029.463 292.757, 2008.725 268.138, 1974.109 230.038 C 1945.463 198.508, 1886.142 138.004, 1883.870 137.999 C 1883.666 137.999, 1883.644 148.236, 1883.820 160.749 M 1785.725 745.283 C 1773.615 787.297, 1752.895 851.533, 1736.787 897 C 1702.892 992.672, 1663.041 1085.889, 1588.225 1244.500 C 1578.885 1264.300, 1549.190 1327.300, 1522.235 1384.500 C 1472.140 1490.804, 1443.820 1550.483, 1419.496 1601 C 1336.555 1773.260, 1057.979 2359.784, 1006.518 2470.500 C 965.171 2559.456, 945.277 2603.439, 902.009 2701.545 C 850.953 2817.309, 838 2849.062, 838 2858.450 C 838 2862.303, 839.799 2864.128, 846.376 2866.947 C 853.957 2870.196, 852.608 2872.442, 871.286 2825.500 C 906.468 2737.079, 945.118 2649.713, 1042.273 2439 C 1101.359 2310.852, 1134.777 2239.722, 1182.751 2140 C 1223.300 2055.711, 1230.765 2040.095, 1258.278 1982 C 1291.508 1911.834, 1307.978 1877.287, 1335.509 1820 C 1349.121 1791.675, 1368.802 1750.725, 1379.243 1729 C 1452.308 1576.976, 1513.578 1444.026, 1594.231 1262.500 C 1661.702 1110.641, 1722.563 957.232, 1752.325 864 C 1769.567 809.989, 1792.181 730.848, 1790.774 729.441 C 1790.568 729.235, 1788.296 736.364, 1785.725 745.283" stroke="none" fill="#040404" fill-rule="evenodd"/></svg>