<svg xmlns="http://www.w3.org/2000/svg" width="3000" height="3000" viewBox="0 0 3000 3000" version="1.1"><path d="" stroke="none" fill="#080404" fill-rule="evenodd"/><path d="M 1965.500 120.890 C 1955.337 123.851, 1943.771 129.488, 1913.056 146.450 C 1878.639 165.456, 1865.794 171.974, 1842.500 182.256 C 1795.521 202.991, 1730.631 224.446, 1618.053 256.466 C 1529.094 281.767, 1496.357 292.858, 1464.500 308.487 C 1438.006 321.484, 1422.890 332.092, 1403.943 350.983 C 1384.289 370.578, 1370.725 389.522, 1357.054 416.465 C 1328.121 473.486, 1320.591 536.297, 1334.633 603.500 C 1346.098 658.375, 1367.197 702.038, 1425.008 790.529 C 1433.981 804.263, 1445.229 821.800, 1450.004 829.500 C 1482.350 881.663, 1493.363 914.749, 1487.533 942.257 C 1482.318 966.866, 1459.174 985.182, 1433 985.413 C 1425.579 985.479, 1423.582 985.090, 1417.270 982.349 C 1385.044 968.360, 1354.088 931.369, 1324.504 871.500 C 1300.949 823.830, 1282.526 759.467, 1275.992 702.019 C 1264.043 596.948, 1281.310 490.926, 1325.752 396.500 C 1335.543 375.698, 1336.382 369.033, 1329.723 364.973 C 1322.951 360.843, 1310.365 363.485, 1280.268 375.352 C 1195.846 408.639, 1118.926 447.579, 1063.500 485.088 C 988.354 535.943, 943.034 595.061, 922.131 669.500 C 899.087 751.561, 909.899 832.750, 953.560 905.500 C 980.226 949.933, 1015.002 984.700, 1069 1020.910 C 1088.154 1033.754, 1098.829 1040.269, 1155.500 1073.698 C 1185.520 1091.407, 1197.341 1098.759, 1212 1108.841 C 1247.496 1133.254, 1271.710 1157.636, 1279.502 1176.813 C 1290.371 1203.562, 1279.686 1233.292, 1254.676 1245.886 C 1234.610 1255.990, 1203.791 1255.795, 1173.735 1245.373 C 1136.695 1232.529, 1105.007 1211.681, 1061.907 1171.801 C 1028.124 1140.541, 985.837 1090.309, 956.324 1046.382 C 914.487 984.112, 881.250 914.291, 859.506 843 C 847.410 803.340, 841.001 771.639, 836.517 729.291 C 832.807 694.248, 831.457 689.600, 824.134 686.670 C 819.723 684.905, 817.212 685.321, 809.976 689.012 C 796.499 695.888, 730.816 771.116, 686.878 830 C 640.217 892.532, 602.974 953.117, 567.005 1025 C 515.525 1127.883, 482.414 1223.296, 479.440 1277.331 C 479.132 1282.924, 478.721 1289.036, 478.528 1290.914 C 477.810 1297.877, 480.014 1319.471, 482.494 1329.759 C 491.034 1365.198, 513.765 1390.479, 556.735 1412.327 C 601.399 1435.037, 643.866 1444.705, 731 1451.999 C 795.723 1457.417, 828.140 1464.117, 855.500 1477.733 C 878.263 1489.062, 900.762 1510.025, 911.784 1530.176 C 922.073 1548.987, 926.348 1571.349, 923.014 1588.928 C 918.959 1610.309, 901.194 1631.590, 878.678 1642.040 C 811.917 1673.021, 675.313 1636.483, 572.793 1560.222 C 547.594 1541.478, 522.534 1518.906, 503.714 1498 C 483.721 1475.792, 476.842 1469.249, 472.665 1468.465 C 464.768 1466.984, 460.655 1470.713, 458.844 1480.997 C 456.431 1494.692, 462.661 1537.835, 473.067 1579.500 C 492.748 1658.300, 525.405 1722.574, 581.545 1793 C 669.051 1902.775, 777.950 1978.353, 913 2023.038 C 956.295 2037.363, 997.382 2046.364, 1041.500 2051.188 C 1060.335 2053.247, 1115.092 2052.946, 1132 2050.689 C 1166.883 2046.034, 1198.897 2037.673, 1217.036 2028.482 C 1219.876 2027.043, 1222.395 2026.062, 1222.635 2026.301 C 1222.874 2026.541, 1221.056 2035.234, 1218.595 2045.618 C 1184.471 2189.576, 1151.841 2354.938, 1136.630 2461 C 1122.173 2561.800, 1109.585 2695.423, 1106.059 2785.500 C 1104.191 2833.221, 1103.871 2852.490, 1104.838 2859.085 C 1107.113 2874.617, 1112.894 2880.819, 1124.014 2879.656 C 1130.355 2878.994, 1138.756 2876.022, 1143.164 2872.883 C 1144.720 2871.775, 1147.096 2868.986, 1148.444 2866.685 C 1153.898 2857.377, 1155.308 2845.301, 1156.990 2793.500 C 1160.109 2697.450, 1166.326 2619.509, 1179.045 2517 C 1195.987 2380.449, 1218.786 2260.796, 1265.507 2063.232 C 1267.423 2055.130, 1269.245 2047.413, 1269.556 2046.084 C 1270.003 2044.176, 1271.170 2046.277, 1275.112 2056.081 C 1280.803 2070.233, 1284.661 2077.516, 1293.609 2091 C 1321.735 2133.385, 1371.474 2177.140, 1432.500 2213.182 C 1492.559 2248.653, 1564.818 2277.279, 1641.500 2295.979 C 1697.964 2309.748, 1751.179 2316.629, 1807.500 2317.441 C 1963.717 2319.694, 2106.323 2270.687, 2219 2176.029 C 2236.800 2161.076, 2268.335 2129.311, 2284.422 2110.131 C 2317.055 2071.224, 2351.098 2021.338, 2379.028 1971.500 C 2388.504 1954.591, 2409.744 1912.083, 2419.502 1890.500 C 2446.501 1830.778, 2479.569 1746.385, 2487.087 1718.015 C 2492.441 1697.809, 2489.861 1687.950, 2479.188 1687.832 C 2473.092 1687.766, 2468.295 1690.088, 2438.500 1707.534 C 2346.632 1761.324, 2204.022 1796.856, 2034.500 1808.192 C 2009.569 1809.860, 1919.677 1809.848, 1895 1808.175 C 1812.480 1802.579, 1743.288 1790.549, 1689.495 1772.447 C 1637.313 1754.887, 1591.426 1727.386, 1568.864 1700.150 C 1548.208 1675.215, 1544.481 1653.482, 1558.273 1638.392 C 1569.364 1626.257, 1590.086 1621.107, 1616.500 1623.923 C 1644.079 1626.862, 1666.263 1633.384, 1712 1651.997 C 1774.363 1677.377, 1807.495 1689.365, 1846.164 1700.542 C 1905.120 1717.582, 1953.745 1726.870, 2009 1731.645 C 2046.367 1734.874, 2107.466 1733.925, 2151 1729.439 C 2277.699 1716.383, 2384.772 1673.470, 2447.562 1610.581 C 2479.515 1578.579, 2499.404 1544.822, 2515.058 1496.024 C 2531.344 1445.259, 2539.384 1372.819, 2541.087 1261.500 C 2541.809 1214.297, 2541.440 1178.947, 2540.141 1171.038 C 2537.189 1153.054, 2528.602 1147.714, 2513.905 1154.720 C 2510.382 1156.399, 2498.500 1164.100, 2487.500 1171.833 C 2446.775 1200.463, 2401.106 1226.916, 2340.500 1256.980 C 2224.289 1314.628, 2118.503 1346.376, 2013.500 1355.118 C 1992.033 1356.905, 1954.888 1356.637, 1940.500 1354.591 C 1904.586 1349.484, 1882.036 1338.474, 1873.303 1321.784 C 1870.958 1317.301, 1870.536 1315.279, 1870.519 1308.448 C 1870.502 1301.079, 1870.832 1299.725, 1874.417 1292.470 C 1885.243 1270.567, 1918.238 1248.982, 1962.859 1234.615 C 1991.744 1225.314, 2013.788 1220.699, 2092 1207.578 C 2194.616 1190.362, 2241.383 1177.433, 2291 1152.562 C 2321.834 1137.107, 2342.802 1123.760, 2362.088 1107.314 C 2399.524 1075.391, 2426.675 1038.425, 2457.079 977.985 C 2479.948 932.524, 2480.506 925.552, 2464.644 883.500 C 2451.157 847.744, 2425.491 783.051, 2418.281 766.637 C 2414.140 757.212, 2407.936 742.750, 2404.493 734.500 C 2384.539 686.690, 2355.914 625.657, 2347.528 613.041 C 2337.609 598.122, 2326.574 593.921, 2311.589 599.360 C 2301.847 602.896, 2293.716 608.114, 2266.894 628.042 C 2177.074 694.777, 2091.777 737.637, 2024.010 750.090 C 1975.922 758.926, 1934.367 750.791, 1922.243 730.166 C 1919.909 726.196, 1919.500 724.378, 1919.500 717.979 C 1919.500 711.471, 1919.950 709.543, 1922.844 703.665 C 1931.194 686.705, 1952.800 671.215, 1980.932 662.022 C 1995.083 657.398, 2007.318 654.485, 2041.963 647.490 C 2059.308 643.989, 2080.025 639.524, 2088 637.569 C 2146.149 623.315, 2188.245 600.355, 2215.257 568.161 C 2248.931 528.025, 2252.698 498.715, 2227.586 472.218 C 2223.783 468.205, 2212.758 458.912, 2203.086 451.565 C 2162.667 420.865, 2137.007 394.896, 2106.185 353.500 C 2066.360 300.011, 2034.729 238.896, 2005.519 159 C 1997.099 135.967, 1993.652 128.822, 1988.888 124.518 C 1982.647 118.880, 1975.961 117.843, 1965.500 120.890 M 1965 134.395 C 1956.299 137.502, 1943.908 143.808, 1919.131 157.740 C 1841.675 201.295, 1781.892 223.737, 1624 268.528 C 1603.375 274.379, 1578.273 281.618, 1568.218 284.614 C 1499.538 305.076, 1460.936 321.772, 1432.247 343.425 C 1421.871 351.257, 1403.402 369.577, 1395.879 379.500 C 1374.273 408, 1357.975 441.349, 1349.521 474.357 C 1344.328 494.635, 1342.876 506.044, 1342.282 531.244 C 1341.511 563.934, 1343.940 586.177, 1351.466 615.352 C 1363.792 663.130, 1384.593 703.933, 1439.994 789 C 1478.512 848.144, 1494.484 879.911, 1500.435 909.208 C 1506.207 937.631, 1497.245 966.192, 1477.553 982.126 C 1464.592 992.613, 1450.514 997.511, 1433.500 997.452 C 1423.522 997.418, 1421.756 997.118, 1414.500 994.227 C 1405.214 990.527, 1388.183 979.640, 1379.400 971.788 C 1357.461 952.176, 1338.349 924.807, 1317.578 883.258 C 1276.587 801.263, 1257.007 713.575, 1259.352 622.500 C 1261.530 537.903, 1279.018 463.653, 1314.054 390.250 C 1319.549 378.738, 1320.525 376, 1319.135 376 C 1308.529 376, 1233.049 407.330, 1177.702 434.706 C 1025.730 509.875, 957.703 579.009, 931.916 684.495 C 926.816 705.356, 924.858 721.285, 924.292 746.500 C 923.564 778.954, 926.187 800.095, 934.553 829.201 C 944.417 863.518, 964.198 901.142, 988.075 931 C 999.026 944.693, 1022.341 968.084, 1037.679 980.763 C 1062.358 1001.166, 1086.307 1016.958, 1146.182 1052.310 C 1217.265 1094.280, 1240.413 1110.340, 1264.579 1134.449 C 1277.196 1147.037, 1282.721 1154.292, 1288.374 1165.696 C 1302.429 1194.046, 1298.108 1222.878, 1276.547 1244.611 C 1262.140 1259.134, 1244.908 1265.350, 1219 1265.371 C 1163.170 1265.415, 1102.583 1231.430, 1034.479 1161.865 C 952.390 1078.014, 891.192 977.479, 853.456 864.484 C 836.810 814.637, 828.463 775.653, 823.487 724.500 C 821.902 708.207, 820.294 698, 819.313 698 C 816.123 698, 799.330 714.492, 777.565 739 C 731.034 791.394, 682.287 855.056, 649.308 906.500 C 606.624 973.084, 563.855 1056.139, 534.406 1129.637 C 487.908 1245.681, 480.245 1316.555, 509.727 1357.870 C 533.530 1391.228, 586.557 1417.464, 654.500 1429.502 C 672.293 1432.654, 694.761 1435.257, 732 1438.480 C 797.073 1444.112, 829.339 1450.667, 857.714 1464.020 C 902.433 1485.065, 932.269 1523.618, 937.055 1566.544 C 941.223 1603.918, 918.788 1639.622, 881.167 1655.489 C 871.552 1659.544, 855.688 1663.567, 843.500 1665.041 C 830.445 1666.620, 801.423 1666.357, 786.422 1664.523 C 713.122 1655.562, 628.601 1619.220, 560 1567.166 C 534.314 1547.676, 505.962 1521.133, 484.250 1496.250 C 477.892 1488.963, 472.466 1483, 472.193 1483 C 470.897 1483, 473.216 1509.390, 475.902 1525.207 C 485.220 1580.093, 500.335 1629.359, 521.382 1673.441 C 560.967 1756.352, 636.588 1845.971, 719 1907.641 C 775.262 1949.743, 838.342 1982.649, 909.146 2006.832 C 993.515 2035.648, 1070.385 2044.985, 1140.500 2034.932 C 1168.277 2030.949, 1199.282 2022.399, 1218.910 2013.309 L 1227.134 2009.500 1240.964 1954.500 C 1266.164 1854.288, 1292.652 1757.573, 1324.485 1649.543 C 1378.273 1467.006, 1426.541 1325.051, 1492.303 1156 C 1532.428 1052.852, 1582.610 935.741, 1633.278 827 C 1669.462 749.345, 1757.676 567.846, 1824.043 434.500 C 1872.715 336.710, 1896.523 292.551, 1917.689 260.810 C 1928.049 245.272, 1930.511 242.177, 1931.622 243.288 C 1932.349 244.015, 1931.308 246.772, 1912.583 293.727 C 1867.840 405.927, 1863.513 415.610, 1809.229 525 C 1766.181 611.746, 1729.724 687.244, 1701.785 747.500 C 1570.992 1029.581, 1486.524 1258.016, 1387.667 1597 C 1364.244 1677.319, 1347.287 1738.573, 1325.519 1821.500 C 1312.647 1870.535, 1278.054 2008.666, 1275.932 2019.500 C 1274.773 2025.420, 1274.813 2025.641, 1278.958 2036 C 1292.922 2070.907, 1310.920 2097.890, 1339 2126.019 C 1407.018 2194.155, 1511.612 2248.886, 1635 2280.907 C 1714.691 2301.588, 1794.273 2308.825, 1871.500 2302.415 C 1985.715 2292.934, 2087.306 2256.526, 2175.444 2193.490 C 2233.741 2151.796, 2280.091 2102.271, 2327.986 2030.500 C 2368.709 1969.477, 2398.702 1910.870, 2437.769 1815.981 C 2459.480 1763.249, 2471.755 1730.477, 2476.031 1713.833 C 2477.893 1706.582, 2478.630 1699, 2477.471 1699 C 2476.351 1699, 2464.384 1705.380, 2454.666 1711.158 C 2410.080 1737.671, 2365.495 1756.995, 2312.188 1772.912 C 2221.540 1799.979, 2118.554 1816.346, 2009.500 1821.017 C 1887.061 1826.262, 1754.126 1809.982, 1673.104 1779.819 C 1605.489 1754.648, 1554.973 1715.613, 1541.200 1677.894 C 1538.851 1671.460, 1538.500 1669.003, 1538.500 1658.977 C 1538.500 1647.927, 1538.637 1647.176, 1541.851 1640.649 C 1548.076 1628.007, 1560.338 1618.785, 1577.545 1613.803 C 1588.905 1610.514, 1616.831 1610.524, 1634.500 1613.824 C 1661.771 1618.917, 1674.820 1623.272, 1732.500 1646.530 C 1789.321 1669.442, 1812.280 1677.592, 1853.500 1689.484 C 1947.522 1716.610, 2027.089 1725.710, 2119.500 1719.909 C 2276.620 1710.046, 2403.295 1656.460, 2463.784 1574.271 C 2481.299 1550.473, 2496.336 1518.264, 2506.397 1482.999 C 2520.002 1435.310, 2526.960 1368.015, 2528.474 1269.500 C 2528.778 1249.700, 2529.256 1226.300, 2529.537 1217.500 C 2530.082 1200.404, 2528.714 1173.922, 2526.967 1167.750 C 2525.127 1161.247, 2521.569 1162.692, 2497.010 1179.917 C 2455.361 1209.131, 2413.142 1233.834, 2352.500 1264.476 C 2226.612 1328.085, 2107.572 1362.619, 1995.781 1367.963 C 1936.100 1370.815, 1893.605 1361.197, 1871.962 1339.936 C 1862.756 1330.894, 1858.908 1322.785, 1858.237 1311.018 C 1857.309 1294.747, 1862.684 1283.122, 1878.403 1267.404 C 1901.345 1244.464, 1933.404 1228.587, 1983.049 1215.579 C 2002.537 1210.472, 2025.324 1206.077, 2079.500 1196.974 C 2198.026 1177.059, 2238.341 1165.919, 2295.500 1137.290 C 2329.305 1120.358, 2361.867 1095.273, 2385.417 1068.021 C 2407.595 1042.357, 2429.789 1007.466, 2449.994 966.500 C 2461.138 943.905, 2464 935.588, 2464 925.804 C 2464 915.812, 2461.967 909.114, 2449.185 877 C 2443.165 861.875, 2430.935 830.825, 2422.006 808 C 2404.828 764.085, 2401.524 756.511, 2372.270 694 C 2337.278 619.228, 2332.414 611, 2323.204 611 C 2314.452 611, 2306.177 615.741, 2277.173 637.371 C 2192.872 700.239, 2112.640 742.587, 2046.893 758.917 C 2025.965 764.115, 2011.886 766.155, 1993 766.726 C 1966.429 767.530, 1950.232 764.740, 1933.250 756.436 C 1889.633 735.108, 1899.835 686.171, 1953.508 659.258 C 1972.765 649.603, 1990.993 644.406, 2040.500 634.460 C 2100.638 622.379, 2129.564 613.344, 2158.093 597.733 C 2188.154 581.283, 2216.051 552.740, 2227.226 527 C 2230.181 520.195, 2230.483 518.573, 2230.491 509.500 C 2230.499 500.527, 2230.208 498.905, 2227.656 493.706 C 2223.347 484.924, 2215.295 477.025, 2195.500 462.160 C 2170.025 443.030, 2161.784 435.942, 2142.500 416.574 C 2080.119 353.919, 2029.146 266.722, 1990.760 157 C 1985.884 143.063, 1981.673 134.431, 1979.070 133.038 C 1976.120 131.459, 1972.153 131.842, 1965 134.395 M 1845.554 412.312 C 1815.931 471.935, 1808.851 486.529, 1737.529 635 C 1637.730 842.752, 1604.579 915.225, 1555.225 1033.539 C 1451.361 1282.528, 1373.544 1512.849, 1289.509 1820 C 1221.795 2067.498, 1164.906 2335.727, 1143.060 2510.500 C 1127.292 2636.651, 1117.113 2764.567, 1116.957 2838.538 C 1116.910 2860.741, 1117.850 2867.155, 1121.245 2867.809 C 1123.919 2868.324, 1133.365 2865.287, 1136.320 2862.963 C 1142.207 2858.332, 1143.459 2847.372, 1145.509 2782.500 C 1147.892 2707.111, 1150.184 2672.617, 1158.072 2593.500 C 1172.204 2451.744, 1190.920 2337.767, 1225.890 2180.500 C 1318.009 1766.219, 1436.108 1362.043, 1550.815 1068.500 C 1617.016 899.085, 1685.829 746.071, 1791.188 534 C 1813.184 489.725, 1835.704 443.600, 1841.231 431.500 C 1853.529 404.582, 1876.124 352.791, 1875.738 352.405 C 1875.584 352.250, 1862 379.208, 1845.554 412.312 M 1527.788 747.150 C 1522.718 748.558, 1515.431 755.216, 1512.387 761.223 C 1503.994 777.787, 1503.669 806.142, 1511.533 835.858 C 1519.012 864.118, 1537.918 884.201, 1555.690 882.765 C 1580.577 880.754, 1588.779 832.833, 1571.909 788 C 1560.939 758.845, 1543.575 742.769, 1527.788 747.150 M 1528.018 759.196 C 1523.008 762.591, 1519.321 770.611, 1517.368 782.363 C 1515.972 790.768, 1515.901 793.916, 1516.890 803.665 C 1519.746 831.842, 1526.808 851.643, 1538.124 863.207 C 1556.492 881.979, 1570.201 869.930, 1570.219 835 C 1570.228 816.419, 1566.505 799.946, 1558.533 783.289 C 1548.473 762.273, 1536.930 753.159, 1528.018 759.196 M 1911.113 829.545 C 1874.497 837.488, 1847.474 863.849, 1850.403 888.768 C 1853.026 911.093, 1878.130 925.260, 1912.327 923.714 C 1944.323 922.267, 1969.853 908.124, 1980.401 886 C 1983.226 880.074, 1983.500 878.617, 1983.500 869.500 C 1983.500 860.269, 1983.269 859.080, 1980.500 854.041 C 1973.893 842.019, 1960.549 832.664, 1945.500 829.504 C 1936.818 827.682, 1919.608 827.702, 1911.113 829.545 M 1917.798 839.013 C 1875.107 845.777, 1846.965 881.043, 1868.453 900.850 C 1873.761 905.743, 1878.378 908.166, 1887.512 910.854 C 1904.409 915.827, 1915.438 915.704, 1933.973 910.334 C 1945.179 907.088, 1953.112 902.747, 1960.567 895.781 C 1972.408 884.719, 1976.745 871.252, 1972.012 860.250 C 1969.553 854.534, 1962.551 847.340, 1956.392 844.203 C 1946.703 839.268, 1930.197 837.048, 1917.798 839.013 M 1752.536 1145.079 C 1727.704 1148.498, 1686.948 1161.480, 1662.458 1173.770 C 1638.141 1185.973, 1617.879 1203.372, 1610.428 1218.448 C 1606.778 1225.834, 1606.501 1227.001, 1606.512 1234.948 C 1606.522 1241.802, 1606.954 1244.294, 1608.688 1247.500 C 1617.565 1263.904, 1637.620 1270.878, 1672.622 1269.731 C 1742.286 1267.448, 1826.281 1228.192, 1836.644 1193.072 C 1842.692 1172.576, 1827.807 1153.893, 1799.901 1146.952 C 1790.135 1144.523, 1764.059 1143.492, 1752.536 1145.079 M 1746.967 1157.472 C 1730.486 1160.144, 1707.514 1166.548, 1689.493 1173.493 C 1661.103 1184.435, 1636.439 1200.630, 1625.055 1215.803 C 1614.910 1229.325, 1614.292 1241.276, 1623.329 1249.214 C 1626.517 1252.015, 1634.592 1255.671, 1642 1257.667 C 1651.253 1260.159, 1680.345 1260.147, 1695.500 1257.644 C 1759.438 1247.085, 1821.768 1213.821, 1826.544 1187.710 C 1827.505 1182.457, 1825.442 1175.877, 1821.328 1171.070 C 1817.479 1166.573, 1806.993 1160.990, 1797.500 1158.382 C 1789.255 1156.117, 1758.714 1155.567, 1746.967 1157.472 M 1075.500 1600.717 C 1060.978 1602.737, 1044.300 1609.747, 1034.263 1618.050 C 1017.235 1632.135, 1011.340 1654.308, 1019.811 1672.409 C 1026.223 1686.112, 1040.334 1697.074, 1060 1703.631 C 1068.265 1706.387, 1069.068 1706.464, 1089 1706.399 C 1106.739 1706.342, 1110.578 1706.042, 1117.500 1704.172 C 1142.328 1697.466, 1160.885 1680.323, 1165.054 1660.240 C 1171.797 1627.757, 1136.074 1599.487, 1089.119 1600.150 C 1083.279 1600.232, 1077.150 1600.487, 1075.500 1600.717 M 1081.422 1611.172 C 1058.317 1613.018, 1038.370 1624.270, 1030.316 1640 C 1027.880 1644.757, 1027.500 1646.648, 1027.500 1654 C 1027.500 1661.214, 1027.909 1663.333, 1030.205 1668.007 C 1035.416 1678.618, 1046.617 1687.488, 1061.770 1693.002 C 1083.158 1700.786, 1116.276 1697.061, 1134.591 1684.811 C 1147.710 1676.037, 1154.456 1664.909, 1154.484 1652 C 1154.504 1642.753, 1151.860 1636.713, 1144.759 1629.777 C 1130.811 1616.156, 1106.911 1609.136, 1081.422 1611.172" stroke="none" fill="#040404" fill-rule="evenodd"/></svg>